<svg width="31" height="29" viewBox="0 0 31 29" fill="none" xmlns="http://www.w3.org/2000/svg">
<path d="M28.0994 0H2.15474C0.965916 0 0 0.938616 0 2.09085V26.9092C0 28.0614 0.965916 29 2.15474 29H28.0994C29.2882 29 30.2609 28.0614 30.2609 26.9092V2.09085C30.2609 0.938616 29.2882 0 28.0994 0ZM9.14581 24.8571H4.66071V11.0174H9.15256V24.8571H9.14581ZM6.90326 9.12723C5.46452 9.12723 4.30272 8.00737 4.30272 6.63504C4.30272 5.26272 5.46452 4.14286 6.90326 4.14286C8.33525 4.14286 9.50381 5.26272 9.50381 6.63504C9.50381 8.01384 8.342 9.12723 6.90326 9.12723ZM25.9582 24.8571H21.4731V18.125C21.4731 16.5196 21.4393 14.4547 19.1427 14.4547C16.8056 14.4547 16.4476 16.2025 16.4476 18.0085V24.8571H11.9625V11.0174H16.2652V12.9076H16.326C16.9272 11.8201 18.3929 10.6743 20.5747 10.6743C25.1138 10.6743 25.9582 13.542 25.9582 17.2705V24.8571Z" fill="#464646"/>
</svg>
