<svg width="93" height="16" viewBox="0 0 93 16" fill="none" xmlns="http://www.w3.org/2000/svg">
<path d="M83.5838 0.528694L81.5079 4.45843L76.8633 5.09063C76.0304 5.20341 75.6966 6.1621 76.3006 6.7112L79.6608 9.76831L78.8661 14.0869C78.723 14.8675 79.6036 15.4522 80.3412 15.0871L84.4961 13.048L88.6511 15.0871C89.3886 15.4492 90.2692 14.8675 90.1262 14.0869L89.3314 9.76831L92.6916 6.7112C93.2956 6.1621 92.9619 5.20341 92.1289 5.09063L87.4844 4.45843L85.4085 0.528694C85.0366 -0.171772 83.9589 -0.180676 83.5838 0.528694Z" fill="#FFF500"/>
<path d="M58.253 0.528694L56.1771 4.45843L51.5326 5.09063C50.6997 5.20341 50.3659 6.1621 50.9699 6.7112L54.3301 9.76831L53.5353 14.0869C53.3923 14.8675 54.2729 15.4522 55.0104 15.0871L59.1654 13.048L63.3204 15.0871C64.0579 15.4492 64.9385 14.8675 64.7954 14.0869L64.0007 9.76831L67.3609 6.7112C67.9649 6.1621 67.6311 5.20341 66.7982 5.09063L62.1537 4.45843L60.0778 0.528694C59.7058 -0.171772 58.6281 -0.180676 58.253 0.528694Z" fill="#FFF500"/>
<path d="M32.9223 0.528694L30.8464 4.45843L26.2018 5.09063C25.3689 5.20341 25.0351 6.1621 25.6391 6.7112L28.9993 9.76831L28.2046 14.0869C28.0615 14.8675 28.9421 15.4522 29.6797 15.0871L33.8346 13.048L37.9896 15.0871C38.7271 15.4492 39.6077 14.8675 39.4647 14.0869L38.6699 9.76831L42.0301 6.7112C42.6341 6.1621 42.3004 5.20341 41.4674 5.09063L36.8229 4.45843L34.747 0.528694C34.3751 -0.171772 33.2974 -0.180676 32.9223 0.528694Z" fill="#FFF500"/>
<path d="M7.5915 0.528694L5.51561 4.45843L0.871065 5.09063C0.0381633 5.20341 -0.295633 6.1621 0.30838 6.7112L3.6686 9.76831L2.87385 14.0869C2.73079 14.8675 3.61138 15.4522 4.34891 15.0871L8.50388 13.048L12.6589 15.0871C13.3964 15.4492 14.277 14.8675 14.1339 14.0869L13.3392 9.76831L16.6994 6.7112C17.3034 6.1621 16.9696 5.20341 16.1367 5.09063L11.4922 4.45843L9.41626 0.528694C9.04432 -0.171772 7.96663 -0.180676 7.5915 0.528694Z" fill="#FFF500"/>
</svg>
