<svg width="470" height="61" viewBox="0 0 470 61" fill="none" xmlns="http://www.w3.org/2000/svg">
<path d="M40.73 2.2L42.6625 1.68467L42.2666 0.199997H40.73V2.2ZM48.41 31L46.4775 31.5153L50.3577 31.4545L48.41 31ZM55.13 2.2V0.199997H53.5429L53.1823 1.74554L55.13 2.2ZM67.61 2.2L69.5402 2.7239L70.2252 0.199997H67.61V2.2ZM55.45 47V49H56.9795L57.3802 47.5239L55.45 47ZM43.29 47L41.362 47.5319L41.767 49H43.29V47ZM35.61 19.16L37.538 18.6281L35.61 11.6392L33.682 18.6281L35.61 19.16ZM27.93 47V49H29.453L29.858 47.5319L27.93 47ZM15.77 47L13.8398 47.5239L14.2405 49H15.77V47ZM3.61 2.2V0.199997H0.994779L1.67984 2.7239L3.61 2.2ZM16.09 2.2L18.0377 1.74554L17.6771 0.199997H16.09V2.2ZM22.81 31L20.8623 31.4545L24.7425 31.5153L22.81 31ZM30.49 2.2V0.199997H28.9534L28.5575 1.68467L30.49 2.2ZM38.7975 2.71532L46.4775 31.5153L50.3425 30.4847L42.6625 1.68467L38.7975 2.71532ZM50.3577 31.4545L57.0777 2.65446L53.1823 1.74554L46.4623 30.5455L50.3577 31.4545ZM55.13 4.2H67.61V0.199997H55.13V4.2ZM65.6798 1.6761L53.5198 46.4761L57.3802 47.5239L69.5402 2.7239L65.6798 1.6761ZM55.45 45H43.29V49H55.45V45ZM45.218 46.4681L37.538 18.6281L33.682 19.6919L41.362 47.5319L45.218 46.4681ZM33.682 18.6281L26.002 46.4681L29.858 47.5319L37.538 19.6919L33.682 18.6281ZM27.93 45H15.77V49H27.93V45ZM17.7002 46.4761L5.54016 1.6761L1.67984 2.7239L13.8398 47.5239L17.7002 46.4761ZM3.61 4.2H16.09V0.199997H3.61V4.2ZM14.1423 2.65446L20.8623 31.4545L24.7577 30.5455L18.0377 1.74554L14.1423 2.65446ZM24.7425 31.5153L32.4225 2.71532L28.5575 1.68467L20.8775 30.4847L24.7425 31.5153ZM30.49 4.2H40.73V0.199997H30.49V4.2ZM81.4 13.72H79.4V16.1744L81.8039 15.6788L81.4 13.72ZM102.136 15.064L100.722 16.4782L100.722 16.4782L102.136 15.064ZM104.76 47V49H106.76V47H104.76ZM93.56 47H91.56V49H93.56V47ZM84.6 21.336L84.3519 19.3514L84.3441 19.3524L84.6 21.336ZM81.4 21.72L81.1906 19.731L79.4 19.9195V21.72H81.4ZM81.4 47V49H83.4V47H81.4ZM70.2 47H68.2V49H70.2V47ZM70.2 2.2V0.199997H68.2V2.2H70.2ZM81.4 2.2H83.4V0.199997H81.4V2.2ZM81.8039 15.6788C85.8533 14.8439 89.3393 14.44 92.28 14.44V10.44C88.9914 10.44 85.2241 10.8895 80.9961 11.7612L81.8039 15.6788ZM92.28 14.44H95.16V10.44H92.28V14.44ZM95.16 14.44C97.6297 14.44 99.412 15.1685 100.722 16.4782L103.55 13.6498C101.361 11.4609 98.493 10.44 95.16 10.44V14.44ZM100.722 16.4782C102.032 17.788 102.76 19.5703 102.76 22.04H106.76C106.76 18.707 105.739 15.8387 103.55 13.6498L100.722 16.4782ZM102.76 22.04V47H106.76V22.04H102.76ZM104.76 45H93.56V49H104.76V45ZM95.56 47V23.32H91.56V47H95.56ZM95.56 23.32C95.56 22.1853 95.1605 21.132 94.3342 20.3058L91.5058 23.1342C91.5236 23.152 91.5322 23.1639 91.5359 23.1694C91.5394 23.1747 91.5414 23.1786 91.543 23.1828C91.545 23.1877 91.56 23.2254 91.56 23.32H95.56ZM94.3342 20.3058C93.508 19.4795 92.4547 19.08 91.32 19.08V23.08C91.4146 23.08 91.4523 23.095 91.4572 23.097C91.4614 23.0986 91.4653 23.1006 91.4706 23.1041C91.4761 23.1078 91.488 23.1164 91.5058 23.1342L94.3342 20.3058ZM91.32 19.08H89.08V23.08H91.32V19.08ZM89.08 19.08C87.3899 19.08 85.8125 19.1689 84.3519 19.3514L84.8481 23.3206C86.1182 23.1618 87.5274 23.08 89.08 23.08V19.08ZM84.3441 19.3524C83.0285 19.5222 81.9792 19.648 81.1906 19.731L81.6094 23.709C82.4422 23.6213 83.5262 23.4911 84.8559 23.3196L84.3441 19.3524ZM79.4 21.72V47H83.4V21.72H79.4ZM81.4 45H70.2V49H81.4V45ZM72.2 47V2.2H68.2V47H72.2ZM70.2 4.2H81.4V0.199997H70.2V4.2ZM79.4 2.2V13.72H83.4V2.2H79.4ZM131.633 37.4L132.205 39.3164L133.633 38.8902V37.4H131.633ZM131.633 33.56H133.633V31.56H131.633V33.56ZM120.753 34.2L122.167 35.6142L122.167 35.6142L120.753 34.2ZM120.753 38.04L119.338 39.4542L119.338 39.4542L120.753 38.04ZM112.113 13.72L111.895 11.7318L110.113 11.9267V13.72H112.113ZM140.208 15.064L138.794 16.4782L138.794 16.4782L140.208 15.064ZM142.833 47V49H144.833V47H142.833ZM132.913 47L130.951 47.3922L131.273 49H132.913V47ZM132.273 43.8L134.234 43.4078L133.651 40.4949L131.171 42.1305L132.273 43.8ZM126.065 46.744L126.614 48.667L126.627 48.6634L126.639 48.6597L126.065 46.744ZM111.536 45.016L110.122 46.4302L110.122 46.4302L111.536 45.016ZM111.536 28.184L112.951 29.5982L112.951 29.5982L111.536 28.184ZM131.633 25.56V27.56H133.633V25.56H131.633ZM130.993 21.4L129.578 22.8142L129.578 22.8142L130.993 21.4ZM120.177 21.144L120.025 19.1497L120.023 19.1499L120.177 21.144ZM112.113 21.72H110.113V23.8489L112.237 23.7161L112.113 21.72ZM123.953 40.68C126.458 40.68 129.216 40.2086 132.205 39.3164L131.06 35.4836C128.332 36.298 125.97 36.68 123.953 36.68V40.68ZM133.633 37.4V33.56H129.633V37.4H133.633ZM131.633 31.56H122.353V35.56H131.633V31.56ZM122.353 31.56C121.218 31.56 120.165 31.9595 119.338 32.7858L122.167 35.6142C122.185 35.5964 122.196 35.5878 122.202 35.5841C122.207 35.5806 122.211 35.5786 122.215 35.577C122.22 35.575 122.258 35.56 122.353 35.56V31.56ZM119.338 32.7858C118.512 33.612 118.113 34.6653 118.113 35.8H122.113C122.113 35.7054 122.127 35.6677 122.129 35.6628C122.131 35.6586 122.133 35.6547 122.137 35.6494C122.14 35.6439 122.149 35.632 122.167 35.6142L119.338 32.7858ZM118.113 35.8V36.44H122.113V35.8H118.113ZM118.113 36.44C118.113 37.5747 118.512 38.628 119.338 39.4542L122.167 36.6258C122.149 36.608 122.14 36.5961 122.137 36.5906C122.133 36.5853 122.131 36.5814 122.129 36.5772C122.127 36.5723 122.113 36.5346 122.113 36.44H118.113ZM119.338 39.4542C120.165 40.2805 121.218 40.68 122.353 40.68V36.68C122.258 36.68 122.22 36.665 122.215 36.663C122.211 36.6614 122.207 36.6594 122.202 36.6559C122.196 36.6522 122.185 36.6436 122.167 36.6258L119.338 39.4542ZM122.353 40.68H123.953V36.68H122.353V40.68ZM112.33 15.7082C120.083 14.8608 127.048 14.44 133.233 14.44V10.44C126.873 10.44 119.758 10.8725 111.895 11.7318L112.33 15.7082ZM133.233 14.44C135.702 14.44 137.485 15.1685 138.794 16.4782L141.623 13.6498C139.434 11.4609 136.565 10.44 133.233 10.44V14.44ZM138.794 16.4782C140.104 17.788 140.833 19.5703 140.833 22.04H144.833C144.833 18.707 143.812 15.8387 141.623 13.6498L138.794 16.4782ZM140.833 22.04V47H144.833V22.04H140.833ZM142.833 45H132.913V49H142.833V45ZM134.874 46.6078L134.234 43.4078L130.311 44.1922L130.951 47.3922L134.874 46.6078ZM131.171 42.1305C129.316 43.3543 127.423 44.2485 125.49 44.8283L126.639 48.6597C128.973 47.9595 131.219 46.8911 133.374 45.4695L131.171 42.1305ZM125.515 44.821C123.523 45.39 121.95 45.64 120.753 45.64V49.64C122.457 49.64 124.424 49.2927 126.614 48.667L125.515 44.821ZM120.753 45.64H118.513V49.64H120.753V45.64ZM118.513 45.64C116.043 45.64 114.26 44.9115 112.951 43.6018L110.122 46.4302C112.311 48.6191 115.18 49.64 118.513 49.64V45.64ZM112.951 43.6018C111.641 42.292 110.913 40.5097 110.913 38.04H106.913C106.913 41.373 107.933 44.2413 110.122 46.4302L112.951 43.6018ZM110.913 38.04V35.16H106.913V38.04H110.913ZM110.913 35.16C110.913 32.6903 111.641 30.908 112.951 29.5982L110.122 26.7698C107.933 28.9587 106.913 31.827 106.913 35.16H110.913ZM112.951 29.5982C114.26 28.2885 116.043 27.56 118.513 27.56V23.56C115.18 23.56 112.311 24.5809 110.122 26.7698L112.951 29.5982ZM118.513 27.56H131.633V23.56H118.513V27.56ZM133.633 25.56V23H129.633V25.56H133.633ZM133.633 23C133.633 21.8653 133.233 20.812 132.407 19.9858L129.578 22.8142C129.596 22.832 129.605 22.8439 129.608 22.8494C129.612 22.8547 129.614 22.8586 129.616 22.8628C129.618 22.8677 129.633 22.9054 129.633 23H133.633ZM132.407 19.9858C131.58 19.1595 130.527 18.76 129.393 18.76V22.76C129.487 22.76 129.525 22.775 129.53 22.777C129.534 22.7786 129.538 22.7806 129.543 22.7841C129.549 22.7878 129.56 22.7964 129.578 22.8142L132.407 19.9858ZM129.393 18.76C126.559 18.76 123.436 18.8907 120.025 19.1497L120.328 23.1383C123.659 22.8853 126.679 22.76 129.393 22.76V18.76ZM120.023 19.1499C116.7 19.4055 114.022 19.5967 111.988 19.7239L112.237 23.7161C114.299 23.5873 116.997 23.3944 120.33 23.1381L120.023 19.1499ZM114.113 21.72V13.72H110.113V21.72H114.113ZM172.255 47L172.46 48.9895L174.255 48.8044V47H172.255ZM153.119 45.016L154.533 43.6018L154.533 43.6018L153.119 45.016ZM150.495 21.72H152.495V19.72H150.495V21.72ZM146.655 21.72H144.655V23.72H146.655V21.72ZM146.655 13.08V11.08H144.655V13.08H146.655ZM150.495 13.08V15.08H152.189L152.468 13.4088L150.495 13.08ZM151.775 5.4V3.4H150.081L149.802 5.0712L151.775 5.4ZM161.695 5.4H163.695V3.4H161.695V5.4ZM161.695 13.08H159.695V15.08H161.695V13.08ZM169.695 13.08H171.695V11.08H169.695V13.08ZM169.695 21.72V23.72H171.695V21.72H169.695ZM161.695 21.72V19.72H159.695V21.72H161.695ZM162.335 38.04L160.921 39.4542L160.921 39.4542L162.335 38.04ZM172.255 38.68H174.255V36.68H172.255V38.68ZM172.05 45.0105C167.976 45.4305 163.991 45.64 160.095 45.64V49.64C164.135 49.64 168.257 49.4228 172.46 48.9895L172.05 45.0105ZM160.095 45.64C157.625 45.64 155.843 44.9115 154.533 43.6018L151.705 46.4302C153.894 48.6191 156.762 49.64 160.095 49.64V45.64ZM154.533 43.6018C153.223 42.292 152.495 40.5097 152.495 38.04H148.495C148.495 41.373 149.516 44.2413 151.705 46.4302L154.533 43.6018ZM152.495 38.04V21.72H148.495V38.04H152.495ZM150.495 19.72H146.655V23.72H150.495V19.72ZM148.655 21.72V13.08H144.655V21.72H148.655ZM146.655 15.08H150.495V11.08H146.655V15.08ZM152.468 13.4088L153.748 5.7288L149.802 5.0712L148.522 12.7512L152.468 13.4088ZM151.775 7.4H161.695V3.4H151.775V7.4ZM159.695 5.4V13.08H163.695V5.4H159.695ZM161.695 15.08H169.695V11.08H161.695V15.08ZM167.695 13.08V21.72H171.695V13.08H167.695ZM169.695 19.72H161.695V23.72H169.695V19.72ZM159.695 21.72V36.44H163.695V21.72H159.695ZM159.695 36.44C159.695 37.5747 160.095 38.628 160.921 39.4542L163.749 36.6258C163.731 36.608 163.723 36.5961 163.719 36.5906C163.716 36.5853 163.714 36.5814 163.712 36.5772C163.71 36.5723 163.695 36.5346 163.695 36.44H159.695ZM160.921 39.4542C161.747 40.2805 162.8 40.68 163.935 40.68V36.68C163.84 36.68 163.803 36.665 163.798 36.663C163.794 36.6614 163.79 36.6594 163.784 36.6559C163.779 36.6522 163.767 36.6436 163.749 36.6258L160.921 39.4542ZM163.935 40.68H172.255V36.68H163.935V40.68ZM170.255 38.68V47H174.255V38.68H170.255ZM219.63 47L219.835 48.9895L221.63 48.8044V47H219.63ZM200.494 45.016L201.908 43.6018L201.908 43.6018L200.494 45.016ZM197.87 21.72H199.87V19.72H197.87V21.72ZM194.03 21.72H192.03V23.72H194.03V21.72ZM194.03 13.08V11.08H192.03V13.08H194.03ZM197.87 13.08V15.08H199.564L199.843 13.4088L197.87 13.08ZM199.15 5.4V3.4H197.456L197.177 5.0712L199.15 5.4ZM209.07 5.4H211.07V3.4H209.07V5.4ZM209.07 13.08H207.07V15.08H209.07V13.08ZM217.07 13.08H219.07V11.08H217.07V13.08ZM217.07 21.72V23.72H219.07V21.72H217.07ZM209.07 21.72V19.72H207.07V21.72H209.07ZM209.71 38.04L208.296 39.4542L208.296 39.4542L209.71 38.04ZM219.63 38.68H221.63V36.68H219.63V38.68ZM219.425 45.0105C215.351 45.4305 211.366 45.64 207.47 45.64V49.64C211.51 49.64 215.632 49.4228 219.835 48.9895L219.425 45.0105ZM207.47 45.64C205 45.64 203.218 44.9115 201.908 43.6018L199.08 46.4302C201.269 48.6191 204.137 49.64 207.47 49.64V45.64ZM201.908 43.6018C200.598 42.292 199.87 40.5097 199.87 38.04H195.87C195.87 41.373 196.891 44.2413 199.08 46.4302L201.908 43.6018ZM199.87 38.04V21.72H195.87V38.04H199.87ZM197.87 19.72H194.03V23.72H197.87V19.72ZM196.03 21.72V13.08H192.03V21.72H196.03ZM194.03 15.08H197.87V11.08H194.03V15.08ZM199.843 13.4088L201.123 5.7288L197.177 5.0712L195.897 12.7512L199.843 13.4088ZM199.15 7.4H209.07V3.4H199.15V7.4ZM207.07 5.4V13.08H211.07V5.4H207.07ZM209.07 15.08H217.07V11.08H209.07V15.08ZM215.07 13.08V21.72H219.07V13.08H215.07ZM217.07 19.72H209.07V23.72H217.07V19.72ZM207.07 21.72V36.44H211.07V21.72H207.07ZM207.07 36.44C207.07 37.5747 207.47 38.628 208.296 39.4542L211.124 36.6258C211.106 36.608 211.098 36.5961 211.094 36.5906C211.091 36.5853 211.089 36.5814 211.087 36.5772C211.085 36.5723 211.07 36.5346 211.07 36.44H207.07ZM208.296 39.4542C209.122 40.2805 210.175 40.68 211.31 40.68V36.68C211.215 36.68 211.178 36.665 211.173 36.663C211.169 36.6614 211.165 36.6594 211.159 36.6559C211.154 36.6522 211.142 36.6436 211.124 36.6258L208.296 39.4542ZM211.31 40.68H219.63V36.68H211.31V40.68ZM217.63 38.68V47H221.63V38.68H217.63ZM235.338 13.72H233.338V16.1744L235.741 15.6788L235.338 13.72ZM256.074 15.064L254.659 16.4782L254.659 16.4782L256.074 15.064ZM258.698 47V49H260.698V47H258.698ZM247.498 47H245.498V49H247.498V47ZM238.538 21.336L238.289 19.3514L238.282 19.3524L238.538 21.336ZM235.338 21.72L235.128 19.731L233.338 19.9195V21.72H235.338ZM235.338 47V49H237.338V47H235.338ZM224.138 47H222.138V49H224.138V47ZM224.138 2.2V0.199997H222.138V2.2H224.138ZM235.338 2.2H237.338V0.199997H235.338V2.2ZM235.741 15.6788C239.791 14.8439 243.277 14.44 246.218 14.44V10.44C242.929 10.44 239.162 10.8895 234.934 11.7612L235.741 15.6788ZM246.218 14.44H249.098V10.44H246.218V14.44ZM249.098 14.44C251.567 14.44 253.35 15.1685 254.659 16.4782L257.488 13.6498C255.299 11.4609 252.43 10.44 249.098 10.44V14.44ZM254.659 16.4782C255.969 17.788 256.698 19.5703 256.698 22.04H260.698C260.698 18.707 259.677 15.8387 257.488 13.6498L254.659 16.4782ZM256.698 22.04V47H260.698V22.04H256.698ZM258.698 45H247.498V49H258.698V45ZM249.498 47V23.32H245.498V47H249.498ZM249.498 23.32C249.498 22.1853 249.098 21.132 248.272 20.3058L245.443 23.1342C245.461 23.152 245.47 23.1639 245.473 23.1694C245.477 23.1747 245.479 23.1786 245.481 23.1828C245.483 23.1877 245.498 23.2254 245.498 23.32H249.498ZM248.272 20.3058C247.445 19.4795 246.392 19.08 245.258 19.08V23.08C245.352 23.08 245.39 23.095 245.395 23.097C245.399 23.0986 245.403 23.1006 245.408 23.1041C245.414 23.1078 245.425 23.1164 245.443 23.1342L248.272 20.3058ZM245.258 19.08H243.018V23.08H245.258V19.08ZM243.018 19.08C241.327 19.08 239.75 19.1689 238.289 19.3514L238.786 23.3206C240.056 23.1618 241.465 23.08 243.018 23.08V19.08ZM238.282 19.3524C236.966 19.5222 235.917 19.648 235.128 19.731L235.547 23.709C236.38 23.6213 237.464 23.4911 238.793 23.3196L238.282 19.3524ZM233.338 21.72V47H237.338V21.72H233.338ZM235.338 45H224.138V49H235.338V45ZM226.138 47V2.2H222.138V47H226.138ZM224.138 4.2H235.338V0.199997H224.138V4.2ZM233.338 2.2V13.72H237.338V2.2H233.338ZM275.01 26.52H273.01V28.52H275.01V26.52ZM285.89 26.52V28.52H287.89V26.52H285.89ZM295.81 46.36L296.016 48.3493L297.81 48.1635V46.36H295.81ZM266.434 45.016L265.02 46.4302L265.02 46.4302L266.434 45.016ZM266.498 15.192L267.912 16.6062L267.912 16.6062L266.498 15.192ZM294.338 15.192L292.907 16.5895L292.924 16.6063L292.941 16.6228L294.338 15.192ZM297.09 34.52V36.52H299.09V34.52H297.09ZM275.01 34.52V32.52H273.01V34.52H275.01ZM275.65 38.68L277.064 37.2658L277.064 37.2658L275.65 38.68ZM295.81 38.36H297.81V36.1968L295.653 36.3661L295.81 38.36ZM277.57 18.44C276.408 18.44 275.17 18.7318 274.236 19.6658C273.302 20.5998 273.01 21.8384 273.01 23H277.01C277.01 22.455 277.145 22.4135 277.064 22.4942C276.984 22.5749 277.025 22.44 277.57 22.44V18.44ZM273.01 23V26.52H277.01V23H273.01ZM275.01 28.52H285.89V24.52H275.01V28.52ZM287.89 26.52V23H283.89V26.52H287.89ZM287.89 23C287.89 21.8384 287.598 20.5998 286.664 19.6658C285.73 18.7318 284.492 18.44 283.33 18.44V22.44C283.875 22.44 283.916 22.5749 283.836 22.4942C283.755 22.4135 283.89 22.455 283.89 23H287.89ZM283.33 18.44H277.57V22.44H283.33V18.44ZM295.604 44.3707C287.422 45.2185 280.026 45.64 273.41 45.64V49.64C280.191 49.64 287.728 49.2082 296.016 48.3493L295.604 44.3707ZM273.41 45.64C270.94 45.64 269.158 44.9115 267.848 43.6018L265.02 46.4302C267.209 48.6191 270.077 49.64 273.41 49.64V45.64ZM267.848 43.6018C266.538 42.292 265.81 40.5097 265.81 38.04H261.81C261.81 41.373 262.831 44.2413 265.02 46.4302L267.848 43.6018ZM265.81 38.04V22.68H261.81V38.04H265.81ZM265.81 22.68C265.81 19.8637 266.588 17.9308 267.912 16.6062L265.084 13.7778C262.824 16.0372 261.81 19.0963 261.81 22.68H265.81ZM267.912 16.6062C269.288 15.2303 271.249 14.44 274.05 14.44V10.44C270.451 10.44 267.377 11.4844 265.084 13.7778L267.912 16.6062ZM274.05 14.44H286.85V10.44H274.05V14.44ZM286.85 14.44C289.653 14.44 291.58 15.2308 292.907 16.5895L295.769 13.7945C293.512 11.4839 290.447 10.44 286.85 10.44V14.44ZM292.941 16.6228C294.299 17.9498 295.09 19.877 295.09 22.68H299.09C299.09 19.083 298.046 16.0182 295.735 13.7612L292.941 16.6228ZM295.09 22.68V34.52H299.09V22.68H295.09ZM297.09 32.52H275.01V36.52H297.09V32.52ZM273.01 34.52V37.08H277.01V34.52H273.01ZM273.01 37.08C273.01 38.2147 273.41 39.268 274.236 40.0942L277.064 37.2658C277.046 37.248 277.038 37.2361 277.034 37.2306C277.031 37.2253 277.029 37.2214 277.027 37.2172C277.025 37.2123 277.01 37.1746 277.01 37.08H273.01ZM274.236 40.0942C275.062 40.9205 276.115 41.32 277.25 41.32V37.32C277.155 37.32 277.118 37.305 277.113 37.303C277.109 37.3014 277.105 37.2994 277.099 37.2959C277.094 37.2922 277.082 37.2836 277.064 37.2658L274.236 40.0942ZM277.25 41.32C281.554 41.32 287.804 40.9949 295.967 40.3539L295.653 36.3661C287.518 37.0051 281.394 37.32 277.25 37.32V41.32ZM293.81 38.36V46.36H297.81V38.36H293.81ZM302.84 57.88H300.84V59.6371L302.582 59.8633L302.84 57.88ZM302.84 49.56V47.56H300.84V49.56H302.84ZM311.736 48.216L310 47.2237L309.981 47.2555L309.964 47.288L311.736 48.216ZM311.48 44.44L309.635 45.2119L309.637 45.2161L311.48 44.44ZM298.36 13.08V11.08H295.355L296.515 13.8519L298.36 13.08ZM310.2 13.08L312.077 12.3899L311.596 11.08H310.2V13.08ZM318.2 34.84L316.323 35.5301L318.365 41.0843L320.111 35.4301L318.2 34.84ZM324.92 13.08V11.08H323.444L323.009 12.4899L324.92 13.08ZM336.76 13.08L338.64 13.7635L339.615 11.08H336.76V13.08ZM323.96 48.28L325.838 48.9692L325.84 48.9635L323.96 48.28ZM319.16 55.896L317.848 54.3868L317.838 54.3948L317.829 54.403L319.16 55.896ZM311.16 56.52C309.014 56.52 306.333 56.3168 303.098 55.8967L302.582 59.8633C305.918 60.2965 308.783 60.52 311.16 60.52V56.52ZM304.84 57.88V49.56H300.84V57.88H304.84ZM302.84 51.56H308.6V47.56H302.84V51.56ZM308.6 51.56C310.483 51.56 312.516 51.0381 313.508 49.144L309.964 47.288C309.96 47.2971 309.957 47.3007 309.949 47.308C309.938 47.3174 309.9 47.3479 309.812 47.3857C309.621 47.4678 309.246 47.56 308.6 47.56V51.56ZM313.472 49.2083C314.457 47.4847 314.081 45.4638 313.323 43.6639L309.637 45.2161C310.244 46.6588 310.039 47.1553 310 47.2237L313.472 49.2083ZM313.325 43.6681L300.205 12.3081L296.515 13.8519L309.635 45.2119L313.325 43.6681ZM298.36 15.08H310.2V11.08H298.36V15.08ZM308.323 13.7701L316.323 35.5301L320.077 34.1499L312.077 12.3899L308.323 13.7701ZM320.111 35.4301L326.831 13.6701L323.009 12.4899L316.289 34.2499L320.111 35.4301ZM324.92 15.08H336.76V11.08H324.92V15.08ZM334.88 12.3965L322.08 47.5965L325.84 48.9635L338.64 13.7635L334.88 12.3965ZM322.083 47.5908C320.919 50.7594 319.477 52.9697 317.848 54.3868L320.472 57.4052C322.768 55.409 324.526 52.5419 325.837 48.9692L322.083 47.5908ZM317.829 54.403C316.327 55.742 314.182 56.52 311.16 56.52V60.52C314.879 60.52 318.068 59.5487 320.491 57.389L317.829 54.403ZM356.608 38.04L356.755 36.0454L354.608 35.8868V38.04H356.608ZM378.688 38.36L380.102 39.7742L380.102 39.7742L378.688 38.36ZM379.328 34.52H381.328V32.52H379.328V34.52ZM358.592 31.896L360.006 30.4818L360.006 30.4818L358.592 31.896ZM358.592 15.704L360.006 17.1182L360.006 17.1182L358.592 15.704ZM387.328 13.08H389.328V11.08H387.328V13.08ZM387.328 21.4V23.4H389.328V21.4H387.328ZM367.808 22.04L369.222 23.4542L369.222 23.4542L367.808 22.04ZM367.808 25.24L366.393 26.6542L366.393 26.6542L367.808 25.24ZM387.904 28.504L389.318 27.0898L389.318 27.0898L387.904 28.504ZM387.904 45.016L389.318 46.4302L389.318 46.4302L387.904 45.016ZM356.608 46.36H354.608V48.1726L356.411 48.3504L356.608 46.36ZM356.46 40.0346C365.14 40.676 372.023 41 377.088 41V37C372.168 37 365.397 36.684 356.755 36.0454L356.46 40.0346ZM377.088 41C378.222 41 379.275 40.6005 380.102 39.7742L377.273 36.9458C377.255 36.9636 377.244 36.9722 377.238 36.9759C377.233 36.9794 377.229 36.9814 377.225 36.983C377.22 36.985 377.182 37 377.088 37V41ZM380.102 39.7742C380.928 38.948 381.328 37.8947 381.328 36.76H377.328C377.328 36.8546 377.313 36.8923 377.311 36.8972C377.309 36.9014 377.307 36.9053 377.303 36.9106C377.3 36.9161 377.291 36.928 377.273 36.9458L380.102 39.7742ZM381.328 36.76V34.52H377.328V36.76H381.328ZM379.328 32.52H365.568V36.52H379.328V32.52ZM365.568 32.52C363.098 32.52 361.315 31.7915 360.006 30.4818L357.177 33.3102C359.366 35.4991 362.235 36.52 365.568 36.52V32.52ZM360.006 30.4818C358.696 29.172 357.968 27.3897 357.968 24.92H353.968C353.968 28.253 354.988 31.1213 357.177 33.3102L360.006 30.4818ZM357.968 24.92V22.68H353.968V24.92H357.968ZM357.968 22.68C357.968 20.2103 358.696 18.428 360.006 17.1182L357.177 14.2898C354.988 16.4787 353.968 19.347 353.968 22.68H357.968ZM360.006 17.1182C361.315 15.8085 363.098 15.08 365.568 15.08V11.08C362.235 11.08 359.366 12.1009 357.177 14.2898L360.006 17.1182ZM365.568 15.08H387.328V11.08H365.568V15.08ZM385.328 13.08V21.4H389.328V13.08H385.328ZM387.328 19.4H369.408V23.4H387.328V19.4ZM369.408 19.4C368.273 19.4 367.22 19.7995 366.393 20.6258L369.222 23.4542C369.24 23.4364 369.251 23.4278 369.257 23.4241C369.262 23.4206 369.266 23.4186 369.27 23.417C369.275 23.415 369.313 23.4 369.408 23.4V19.4ZM366.393 20.6258C365.567 21.452 365.168 22.5053 365.168 23.64H369.168C369.168 23.5454 369.182 23.5077 369.184 23.5028C369.186 23.4986 369.188 23.4947 369.192 23.4894C369.195 23.4839 369.204 23.472 369.222 23.4542L366.393 20.6258ZM365.168 23.64C365.168 24.7747 365.567 25.828 366.393 26.6542L369.222 23.8258C369.204 23.808 369.195 23.7961 369.192 23.7906C369.188 23.7853 369.186 23.7814 369.184 23.7772C369.182 23.7723 369.168 23.7346 369.168 23.64H365.168ZM366.393 26.6542C367.22 27.4805 368.273 27.88 369.408 27.88V23.88C369.313 23.88 369.275 23.865 369.27 23.863C369.266 23.8614 369.262 23.8594 369.257 23.8559C369.251 23.8522 369.24 23.8436 369.222 23.8258L366.393 26.6542ZM369.408 27.88H380.928V23.88H369.408V27.88ZM380.928 27.88C383.397 27.88 385.18 28.6085 386.489 29.9182L389.318 27.0898C387.129 24.9009 384.26 23.88 380.928 23.88V27.88ZM386.489 29.9182C387.799 31.228 388.528 33.0103 388.528 35.48H392.528C392.528 32.147 391.507 29.2787 389.318 27.0898L386.489 29.9182ZM388.528 35.48V38.04H392.528V35.48H388.528ZM388.528 38.04C388.528 40.5097 387.799 42.292 386.489 43.6018L389.318 46.4302C391.507 44.2413 392.528 41.373 392.528 38.04H388.528ZM386.489 43.6018C385.18 44.9115 383.397 45.64 380.928 45.64V49.64C384.26 49.64 387.129 48.6191 389.318 46.4302L386.489 43.6018ZM380.928 45.64C373.45 45.64 365.409 45.2175 356.804 44.3696L356.411 48.3504C365.128 49.2092 373.301 49.64 380.928 49.64V45.64ZM358.608 46.36V38.04H354.608V46.36H358.608ZM416.133 37.4L416.705 39.3164L418.133 38.8902V37.4H416.133ZM416.133 33.56H418.133V31.56H416.133V33.56ZM405.253 34.2L406.667 35.6142L406.667 35.6142L405.253 34.2ZM405.253 38.04L403.838 39.4542L403.838 39.4542L405.253 38.04ZM396.613 13.72L396.395 11.7318L394.613 11.9267V13.72H396.613ZM424.708 15.064L423.294 16.4782L423.294 16.4782L424.708 15.064ZM427.333 47V49H429.333V47H427.333ZM417.413 47L415.451 47.3922L415.773 49H417.413V47ZM416.773 43.8L418.734 43.4078L418.151 40.4949L415.671 42.1305L416.773 43.8ZM410.565 46.744L411.114 48.667L411.127 48.6634L411.139 48.6597L410.565 46.744ZM396.036 45.016L394.622 46.4302L394.622 46.4302L396.036 45.016ZM396.036 28.184L397.451 29.5982L397.451 29.5982L396.036 28.184ZM416.133 25.56V27.56H418.133V25.56H416.133ZM415.493 21.4L414.078 22.8142L414.078 22.8142L415.493 21.4ZM404.677 21.144L404.525 19.1497L404.523 19.1499L404.677 21.144ZM396.613 21.72H394.613V23.8489L396.737 23.7161L396.613 21.72ZM408.453 40.68C410.958 40.68 413.716 40.2086 416.705 39.3164L415.56 35.4836C412.832 36.298 410.47 36.68 408.453 36.68V40.68ZM418.133 37.4V33.56H414.133V37.4H418.133ZM416.133 31.56H406.853V35.56H416.133V31.56ZM406.853 31.56C405.718 31.56 404.665 31.9595 403.838 32.7858L406.667 35.6142C406.685 35.5964 406.696 35.5878 406.702 35.5841C406.707 35.5806 406.711 35.5786 406.715 35.577C406.72 35.575 406.758 35.56 406.853 35.56V31.56ZM403.838 32.7858C403.012 33.612 402.613 34.6653 402.613 35.8H406.613C406.613 35.7054 406.627 35.6677 406.629 35.6628C406.631 35.6586 406.633 35.6547 406.637 35.6494C406.64 35.6439 406.649 35.632 406.667 35.6142L403.838 32.7858ZM402.613 35.8V36.44H406.613V35.8H402.613ZM402.613 36.44C402.613 37.5747 403.012 38.628 403.838 39.4542L406.667 36.6258C406.649 36.608 406.64 36.5961 406.637 36.5906C406.633 36.5853 406.631 36.5814 406.629 36.5772C406.627 36.5723 406.613 36.5346 406.613 36.44H402.613ZM403.838 39.4542C404.665 40.2805 405.718 40.68 406.853 40.68V36.68C406.758 36.68 406.72 36.665 406.715 36.663C406.711 36.6614 406.707 36.6594 406.702 36.6559C406.696 36.6522 406.685 36.6436 406.667 36.6258L403.838 39.4542ZM406.853 40.68H408.453V36.68H406.853V40.68ZM396.83 15.7082C404.583 14.8608 411.548 14.44 417.733 14.44V10.44C411.373 10.44 404.258 10.8725 396.395 11.7318L396.83 15.7082ZM417.733 14.44C420.202 14.44 421.985 15.1685 423.294 16.4782L426.123 13.6498C423.934 11.4609 421.065 10.44 417.733 10.44V14.44ZM423.294 16.4782C424.604 17.788 425.333 19.5703 425.333 22.04H429.333C429.333 18.707 428.312 15.8387 426.123 13.6498L423.294 16.4782ZM425.333 22.04V47H429.333V22.04H425.333ZM427.333 45H417.413V49H427.333V45ZM419.374 46.6078L418.734 43.4078L414.811 44.1922L415.451 47.3922L419.374 46.6078ZM415.671 42.1305C413.816 43.3543 411.923 44.2485 409.99 44.8283L411.139 48.6597C413.473 47.9595 415.719 46.8911 417.874 45.4695L415.671 42.1305ZM410.015 44.821C408.023 45.39 406.45 45.64 405.253 45.64V49.64C406.957 49.64 408.924 49.2927 411.114 48.667L410.015 44.821ZM405.253 45.64H403.013V49.64H405.253V45.64ZM403.013 45.64C400.543 45.64 398.76 44.9115 397.451 43.6018L394.622 46.4302C396.811 48.6191 399.68 49.64 403.013 49.64V45.64ZM397.451 43.6018C396.141 42.292 395.413 40.5097 395.413 38.04H391.413C391.413 41.373 392.433 44.2413 394.622 46.4302L397.451 43.6018ZM395.413 38.04V35.16H391.413V38.04H395.413ZM395.413 35.16C395.413 32.6903 396.141 30.908 397.451 29.5982L394.622 26.7698C392.433 28.9587 391.413 31.827 391.413 35.16H395.413ZM397.451 29.5982C398.76 28.2885 400.543 27.56 403.013 27.56V23.56C399.68 23.56 396.811 24.5809 394.622 26.7698L397.451 29.5982ZM403.013 27.56H416.133V23.56H403.013V27.56ZM418.133 25.56V23H414.133V25.56H418.133ZM418.133 23C418.133 21.8653 417.733 20.812 416.907 19.9858L414.078 22.8142C414.096 22.832 414.105 22.8439 414.108 22.8494C414.112 22.8547 414.114 22.8586 414.116 22.8628C414.118 22.8677 414.133 22.9054 414.133 23H418.133ZM416.907 19.9858C416.08 19.1595 415.027 18.76 413.893 18.76V22.76C413.987 22.76 414.025 22.775 414.03 22.777C414.034 22.7786 414.038 22.7806 414.043 22.7841C414.049 22.7878 414.06 22.7964 414.078 22.8142L416.907 19.9858ZM413.893 18.76C411.059 18.76 407.936 18.8907 404.525 19.1497L404.828 23.1383C408.159 22.8853 411.179 22.76 413.893 22.76V18.76ZM404.523 19.1499C401.2 19.4055 398.522 19.5967 396.488 19.7239L396.737 23.7161C398.799 23.5873 401.497 23.3944 404.83 23.1381L404.523 19.1499ZM398.613 21.72V13.72H394.613V21.72H398.613ZM433.09 57.88H431.09V59.6371L432.832 59.8633L433.09 57.88ZM433.09 49.56V47.56H431.09V49.56H433.09ZM441.986 48.216L440.25 47.2237L440.231 47.2555L440.214 47.288L441.986 48.216ZM441.73 44.44L439.885 45.2119L439.887 45.2161L441.73 44.44ZM428.61 13.08V11.08H425.605L426.765 13.8519L428.61 13.08ZM440.45 13.08L442.327 12.3899L441.846 11.08H440.45V13.08ZM448.45 34.84L446.573 35.5301L448.615 41.0843L450.361 35.4301L448.45 34.84ZM455.17 13.08V11.08H453.694L453.259 12.4899L455.17 13.08ZM467.01 13.08L468.89 13.7635L469.865 11.08H467.01V13.08ZM454.21 48.28L456.088 48.9692L456.09 48.9635L454.21 48.28ZM449.41 55.896L448.098 54.3868L448.088 54.3948L448.079 54.403L449.41 55.896ZM441.41 56.52C439.264 56.52 436.583 56.3168 433.348 55.8967L432.832 59.8633C436.168 60.2965 439.033 60.52 441.41 60.52V56.52ZM435.09 57.88V49.56H431.09V57.88H435.09ZM433.09 51.56H438.85V47.56H433.09V51.56ZM438.85 51.56C440.733 51.56 442.766 51.0381 443.758 49.144L440.214 47.288C440.21 47.2971 440.207 47.3007 440.199 47.308C440.188 47.3174 440.15 47.3479 440.062 47.3857C439.871 47.4678 439.496 47.56 438.85 47.56V51.56ZM443.722 49.2083C444.707 47.4847 444.331 45.4638 443.573 43.6639L439.887 45.2161C440.494 46.6588 440.289 47.1553 440.25 47.2237L443.722 49.2083ZM443.575 43.6681L430.455 12.3081L426.765 13.8519L439.885 45.2119L443.575 43.6681ZM428.61 15.08H440.45V11.08H428.61V15.08ZM438.573 13.7701L446.573 35.5301L450.327 34.1499L442.327 12.3899L438.573 13.7701ZM450.361 35.4301L457.081 13.6701L453.259 12.4899L446.539 34.2499L450.361 35.4301ZM455.17 15.08H467.01V11.08H455.17V15.08ZM465.13 12.3965L452.33 47.5965L456.09 48.9635L468.89 13.7635L465.13 12.3965ZM452.333 47.5908C451.169 50.7594 449.727 52.9697 448.098 54.3868L450.722 57.4052C453.018 55.409 454.776 52.5419 456.087 48.9692L452.333 47.5908ZM448.079 54.403C446.577 55.742 444.432 56.52 441.41 56.52V60.52C445.129 60.52 448.318 59.5487 450.741 57.389L448.079 54.403Z" fill="white" fill-opacity="0.06"/>
</svg>
