<svg width="527" height="68" viewBox="0 0 527 68" fill="none" xmlns="http://www.w3.org/2000/svg">
<path d="M44.4463 2.6L46.3787 2.08467L45.9828 0.599997H44.4463V2.6ZM53.0863 35L51.1538 35.5153L55.0339 35.4545L53.0863 35ZM60.6463 2.6V0.599997H59.0592L58.6986 2.14554L60.6463 2.6ZM74.6863 2.6L76.6164 3.1239L77.3015 0.599997H74.6863V2.6ZM61.0063 53V55H62.5358L62.9364 53.5239L61.0063 53ZM47.3263 53L45.3983 53.5319L45.8033 55H47.3263V53ZM38.6863 21.68L40.6142 21.1481L38.6863 14.1592L36.7583 21.1481L38.6863 21.68ZM30.0463 53V55H31.5692L31.9742 53.5319L30.0463 53ZM16.3663 53L14.4361 53.5239L14.8367 55H16.3663V53ZM2.68625 2.6V0.599997H0.0710285L0.756087 3.1239L2.68625 2.6ZM16.7263 2.6L18.6739 2.14554L18.3133 0.599997H16.7263V2.6ZM24.2863 35L22.3386 35.4545L26.2187 35.5153L24.2863 35ZM32.9263 2.6V0.599997H31.3897L30.9938 2.08467L32.9263 2.6ZM42.5138 3.11532L51.1538 35.5153L55.0187 34.4847L46.3787 2.08467L42.5138 3.11532ZM55.0339 35.4545L62.5939 3.05446L58.6986 2.14554L51.1386 34.5455L55.0339 35.4545ZM60.6463 4.6H74.6863V0.599997H60.6463V4.6ZM72.7561 2.0761L59.0761 52.4761L62.9364 53.5239L76.6164 3.1239L72.7561 2.0761ZM61.0063 51H47.3263V55H61.0063V51ZM49.2542 52.4681L40.6142 21.1481L36.7583 22.2119L45.3983 53.5319L49.2542 52.4681ZM36.7583 21.1481L28.1183 52.4681L31.9742 53.5319L40.6142 22.2119L36.7583 21.1481ZM30.0463 51H16.3663V55H30.0463V51ZM18.2964 52.4761L4.61641 2.0761L0.756087 3.1239L14.4361 53.5239L18.2964 52.4761ZM2.68625 4.6H16.7263V0.599997H2.68625V4.6ZM14.7786 3.05446L22.3386 35.4545L26.2339 34.5455L18.6739 2.14554L14.7786 3.05446ZM26.2187 35.5153L34.8587 3.11532L30.9938 2.08467L22.3538 34.4847L26.2187 35.5153ZM32.9263 4.6H44.4463V0.599997H32.9263V4.6ZM90.2 15.56H88.2V18.0144L90.6039 17.5188L90.2 15.56ZM113.528 17.072L112.114 18.4862L112.114 18.4862L113.528 17.072ZM116.48 53V55H118.48V53H116.48ZM103.88 53H101.88V55H103.88V53ZM93.8 24.128L93.5519 22.1434L93.5441 22.1444L93.8 24.128ZM90.2 24.56L89.9906 22.571L88.2 22.7595V24.56H90.2ZM90.2 53V55H92.2V53H90.2ZM77.6 53H75.6V55H77.6V53ZM77.6 2.6V0.599997H75.6V2.6H77.6ZM90.2 2.6H92.2V0.599997H90.2V2.6ZM90.6039 17.5188C95.1706 16.5772 99.1099 16.12 102.44 16.12V12.12C98.7621 12.12 94.5414 12.6228 89.7961 13.6012L90.6039 17.5188ZM102.44 16.12H105.68V12.12H102.44V16.12ZM105.68 16.12C108.512 16.12 110.585 16.9578 112.114 18.4862L114.942 15.6578C112.535 13.2502 109.376 12.12 105.68 12.12V16.12ZM112.114 18.4862C113.642 20.0146 114.48 22.0876 114.48 24.92H118.48C118.48 21.2244 117.35 18.0654 114.942 15.6578L112.114 18.4862ZM114.48 24.92V53H118.48V24.92H114.48ZM116.48 51H103.88V55H116.48V51ZM105.88 53V26.36H101.88V53H105.88ZM105.88 26.36C105.88 25.1453 105.454 24.0254 104.574 23.1458L101.746 25.9742C101.826 26.0546 101.88 26.1347 101.88 26.36H105.88ZM104.574 23.1458C103.695 22.2662 102.575 21.84 101.36 21.84V25.84C101.585 25.84 101.665 25.8938 101.746 25.9742L104.574 23.1458ZM101.36 21.84H98.84V25.84H101.36V21.84ZM98.84 21.84C96.9472 21.84 95.1832 21.9395 93.5519 22.1434L94.0481 26.1126C95.4888 25.9325 97.0848 25.84 98.84 25.84V21.84ZM93.5441 22.1444C92.0632 22.3355 90.8805 22.4773 89.9906 22.571L90.4094 26.549C91.3435 26.4507 92.5608 26.3045 94.0559 26.1116L93.5441 22.1444ZM88.2 24.56V53H92.2V24.56H88.2ZM90.2 51H77.6V55H90.2V51ZM79.6 53V2.6H75.6V53H79.6ZM77.6 4.6H90.2V0.599997H77.6V4.6ZM88.2 2.6V15.56H92.2V2.6H88.2ZM146.712 42.2L147.284 44.1164L148.712 43.6902V42.2H146.712ZM146.712 37.88H148.712V35.88H146.712V37.88ZM134.472 38.6L135.886 40.0142L135.886 40.0142L134.472 38.6ZM134.472 42.92L133.057 44.3342L133.057 44.3342L134.472 42.92ZM124.752 15.56L124.534 13.5718L122.752 13.7667V15.56H124.752ZM156.36 17.072L154.945 18.4862L154.945 18.4862L156.36 17.072ZM159.312 53V55H161.312V53H159.312ZM148.152 53L146.19 53.3922L146.512 55H148.152V53ZM147.432 49.4L149.393 49.0078L148.81 46.0949L146.33 47.7305L147.432 49.4ZM140.448 52.712L140.997 54.635L141.01 54.6314L141.022 54.6277L140.448 52.712ZM124.104 50.768L122.689 52.1822L122.689 52.1822L124.104 50.768ZM124.104 31.832L125.518 33.2462L125.518 33.2462L124.104 31.832ZM146.712 28.88V30.88H148.712V28.88H146.712ZM145.992 24.2L144.577 25.6142L144.577 25.6142L145.992 24.2ZM133.824 23.912L133.672 21.9177L133.67 21.9179L133.824 23.912ZM124.752 24.56H122.752V26.6889L124.876 26.5561L124.752 24.56ZM138.072 45.64C140.86 45.64 143.937 45.1153 147.284 44.1164L146.139 40.2836C143.054 41.2047 140.371 41.64 138.072 41.64V45.64ZM148.712 42.2V37.88H144.712V42.2H148.712ZM146.712 35.88H136.272V39.88H146.712V35.88ZM136.272 35.88C135.057 35.88 133.937 36.3062 133.057 37.1858L135.886 40.0142C135.966 39.9338 136.046 39.88 136.272 39.88V35.88ZM133.057 37.1858C132.178 38.0654 131.752 39.1853 131.752 40.4H135.752C135.752 40.1747 135.805 40.0946 135.886 40.0142L133.057 37.1858ZM131.752 40.4V41.12H135.752V40.4H131.752ZM131.752 41.12C131.752 42.3347 132.178 43.4546 133.057 44.3342L135.886 41.5058C135.805 41.4254 135.752 41.3453 135.752 41.12H131.752ZM133.057 44.3342C133.937 45.2138 135.057 45.64 136.272 45.64V41.64C136.046 41.64 135.966 41.5862 135.886 41.5058L133.057 44.3342ZM136.272 45.64H138.072V41.64H136.272V45.64ZM124.969 17.5482C133.698 16.5942 141.544 16.12 148.512 16.12V12.12C141.368 12.12 133.373 12.6058 124.534 13.5718L124.969 17.5482ZM148.512 16.12C151.344 16.12 153.417 16.9578 154.945 18.4862L157.774 15.6578C155.366 13.2502 152.207 12.12 148.512 12.12V16.12ZM154.945 18.4862C156.474 20.0146 157.312 22.0876 157.312 24.92H161.312C161.312 21.2244 160.181 18.0654 157.774 15.6578L154.945 18.4862ZM157.312 24.92V53H161.312V24.92H157.312ZM159.312 51H148.152V55H159.312V51ZM150.113 52.6078L149.393 49.0078L145.47 49.7922L146.19 53.3922L150.113 52.6078ZM146.33 47.7305C144.224 49.1196 142.072 50.1365 139.873 50.7963L141.022 54.6277C143.623 53.8475 146.127 52.6564 148.533 51.0695L146.33 47.7305ZM139.898 50.789C137.645 51.4326 135.85 51.72 134.472 51.72V55.72C136.357 55.72 138.546 55.3354 140.997 54.635L139.898 50.789ZM134.472 51.72H131.952V55.72H134.472V51.72ZM131.952 51.72C129.119 51.72 127.046 50.8822 125.518 49.3538L122.689 52.1822C125.097 54.5898 128.256 55.72 131.952 55.72V51.72ZM125.518 49.3538C123.989 47.8254 123.152 45.7524 123.152 42.92H119.152C119.152 46.6156 120.282 49.7746 122.689 52.1822L125.518 49.3538ZM123.152 42.92V39.68H119.152V42.92H123.152ZM123.152 39.68C123.152 36.8476 123.989 34.7746 125.518 33.2462L122.689 30.4178C120.282 32.8254 119.152 35.9844 119.152 39.68H123.152ZM125.518 33.2462C127.046 31.7178 129.119 30.88 131.952 30.88V26.88C128.256 26.88 125.097 28.0102 122.689 30.4178L125.518 33.2462ZM131.952 30.88H146.712V26.88H131.952V30.88ZM148.712 28.88V26H144.712V28.88H148.712ZM148.712 26C148.712 24.7853 148.285 23.6654 147.406 22.7858L144.577 25.6142C144.658 25.6946 144.712 25.7747 144.712 26H148.712ZM147.406 22.7858C146.526 21.9062 145.406 21.48 144.192 21.48V25.48C144.417 25.48 144.497 25.5338 144.577 25.6142L147.406 22.7858ZM144.192 21.48C141.012 21.48 137.504 21.6267 133.672 21.9177L133.975 25.9063C137.727 25.6213 141.132 25.48 144.192 25.48V21.48ZM133.67 21.9179C129.931 22.2055 126.917 22.4207 124.627 22.5639L124.876 26.5561C127.194 26.4113 130.229 26.1944 133.977 25.9061L133.67 21.9179ZM126.752 24.56V15.56H122.752V24.56H126.752ZM192.412 53L192.617 54.9895L194.412 54.8044V53H192.412ZM170.884 50.768L172.298 49.3538L172.298 49.3538L170.884 50.768ZM167.932 24.56H169.932V22.56H167.932V24.56ZM163.612 24.56H161.612V26.56H163.612V24.56ZM163.612 14.84V12.84H161.612V14.84H163.612ZM167.932 14.84V16.84H169.626L169.905 15.1688L167.932 14.84ZM169.372 6.2V4.2H167.678L167.399 5.8712L169.372 6.2ZM180.532 6.2H182.532V4.2H180.532V6.2ZM180.532 14.84H178.532V16.84H180.532V14.84ZM189.532 14.84H191.532V12.84H189.532V14.84ZM189.532 24.56V26.56H191.532V24.56H189.532ZM180.532 24.56V22.56H178.532V24.56H180.532ZM181.252 42.92L179.838 44.3342L179.838 44.3342L181.252 42.92ZM192.412 43.64H194.412V41.64H192.412V43.64ZM192.207 51.0105C187.616 51.4839 183.124 51.72 178.732 51.72V55.72C183.268 55.72 187.896 55.4761 192.617 54.9895L192.207 51.0105ZM178.732 51.72C175.9 51.72 173.827 50.8822 172.298 49.3538L169.47 52.1822C171.877 54.5898 175.036 55.72 178.732 55.72V51.72ZM172.298 49.3538C170.77 47.8254 169.932 45.7524 169.932 42.92H165.932C165.932 46.6156 167.062 49.7746 169.47 52.1822L172.298 49.3538ZM169.932 42.92V24.56H165.932V42.92H169.932ZM167.932 22.56H163.612V26.56H167.932V22.56ZM165.612 24.56V14.84H161.612V24.56H165.612ZM163.612 16.84H167.932V12.84H163.612V16.84ZM169.905 15.1688L171.345 6.5288L167.399 5.8712L165.959 14.5112L169.905 15.1688ZM169.372 8.2H180.532V4.2H169.372V8.2ZM178.532 6.2V14.84H182.532V6.2H178.532ZM180.532 16.84H189.532V12.84H180.532V16.84ZM187.532 14.84V24.56H191.532V14.84H187.532ZM189.532 22.56H180.532V26.56H189.532V22.56ZM178.532 24.56V41.12H182.532V24.56H178.532ZM178.532 41.12C178.532 42.3347 178.958 43.4546 179.838 44.3342L182.666 41.5058C182.586 41.4254 182.532 41.3453 182.532 41.12H178.532ZM179.838 44.3342C180.717 45.2138 181.837 45.64 183.052 45.64V41.64C182.827 41.64 182.746 41.5862 182.666 41.5058L179.838 44.3342ZM183.052 45.64H192.412V41.64H183.052V45.64ZM190.412 43.64V53H194.412V43.64H190.412ZM245.709 53L245.914 54.9895L247.709 54.8044V53H245.709ZM224.181 50.768L225.595 49.3538L225.595 49.3538L224.181 50.768ZM221.229 24.56H223.229V22.56H221.229V24.56ZM216.909 24.56H214.909V26.56H216.909V24.56ZM216.909 14.84V12.84H214.909V14.84H216.909ZM221.229 14.84V16.84H222.923L223.202 15.1688L221.229 14.84ZM222.669 6.2V4.2H220.974L220.696 5.8712L222.669 6.2ZM233.829 6.2H235.829V4.2H233.829V6.2ZM233.829 14.84H231.829V16.84H233.829V14.84ZM242.829 14.84H244.829V12.84H242.829V14.84ZM242.829 24.56V26.56H244.829V24.56H242.829ZM233.829 24.56V22.56H231.829V24.56H233.829ZM234.549 42.92L233.135 44.3342L233.135 44.3342L234.549 42.92ZM245.709 43.64H247.709V41.64H245.709V43.64ZM245.504 51.0105C240.913 51.4839 236.421 51.72 232.029 51.72V55.72C236.564 55.72 241.193 55.4761 245.914 54.9895L245.504 51.0105ZM232.029 51.72C229.196 51.72 227.123 50.8822 225.595 49.3538L222.767 52.1822C225.174 54.5898 228.333 55.72 232.029 55.72V51.72ZM225.595 49.3538C224.067 47.8254 223.229 45.7524 223.229 42.92H219.229C219.229 46.6156 220.359 49.7746 222.767 52.1822L225.595 49.3538ZM223.229 42.92V24.56H219.229V42.92H223.229ZM221.229 22.56H216.909V26.56H221.229V22.56ZM218.909 24.56V14.84H214.909V24.56H218.909ZM216.909 16.84H221.229V12.84H216.909V16.84ZM223.202 15.1688L224.642 6.5288L220.696 5.8712L219.256 14.5112L223.202 15.1688ZM222.669 8.2H233.829V4.2H222.669V8.2ZM231.829 6.2V14.84H235.829V6.2H231.829ZM233.829 16.84H242.829V12.84H233.829V16.84ZM240.829 14.84V24.56H244.829V14.84H240.829ZM242.829 22.56H233.829V26.56H242.829V22.56ZM231.829 24.56V41.12H235.829V24.56H231.829ZM231.829 41.12C231.829 42.3347 232.255 43.4546 233.135 44.3342L235.963 41.5058C235.883 41.4254 235.829 41.3453 235.829 41.12H231.829ZM233.135 44.3342C234.014 45.2138 235.134 45.64 236.349 45.64V41.64C236.123 41.64 236.043 41.5862 235.963 41.5058L233.135 44.3342ZM236.349 45.64H245.709V41.64H236.349V45.64ZM243.709 43.64V53H247.709V43.64H243.709ZM263.38 15.56H261.38V18.0144L263.784 17.5188L263.38 15.56ZM286.708 17.072L285.293 18.4862L285.293 18.4862L286.708 17.072ZM289.66 53V55H291.66V53H289.66ZM277.06 53H275.06V55H277.06V53ZM266.98 24.128L266.732 22.1434L266.724 22.1444L266.98 24.128ZM263.38 24.56L263.17 22.571L261.38 22.7595V24.56H263.38ZM263.38 53V55H265.38V53H263.38ZM250.78 53H248.78V55H250.78V53ZM250.78 2.6V0.599997H248.78V2.6H250.78ZM263.38 2.6H265.38V0.599997H263.38V2.6ZM263.784 17.5188C268.35 16.5772 272.29 16.12 275.62 16.12V12.12C271.942 12.12 267.721 12.6228 262.976 13.6012L263.784 17.5188ZM275.62 16.12H278.86V12.12H275.62V16.12ZM278.86 16.12C281.692 16.12 283.765 16.9578 285.293 18.4862L288.122 15.6578C285.714 13.2502 282.555 12.12 278.86 12.12V16.12ZM285.293 18.4862C286.822 20.0146 287.66 22.0876 287.66 24.92H291.66C291.66 21.2244 290.529 18.0654 288.122 15.6578L285.293 18.4862ZM287.66 24.92V53H291.66V24.92H287.66ZM289.66 51H277.06V55H289.66V51ZM279.06 53V26.36H275.06V53H279.06ZM279.06 26.36C279.06 25.1453 278.633 24.0254 277.754 23.1458L274.925 25.9742C275.006 26.0546 275.06 26.1347 275.06 26.36H279.06ZM277.754 23.1458C276.874 22.2662 275.754 21.84 274.54 21.84V25.84C274.765 25.84 274.845 25.8938 274.925 25.9742L277.754 23.1458ZM274.54 21.84H272.02V25.84H274.54V21.84ZM272.02 21.84C270.127 21.84 268.363 21.9395 266.732 22.1434L267.228 26.1126C268.669 25.9325 270.264 25.84 272.02 25.84V21.84ZM266.724 22.1444C265.243 22.3355 264.06 22.4773 263.17 22.571L263.589 26.549C264.523 26.4507 265.741 26.3045 267.236 26.1116L266.724 22.1444ZM261.38 24.56V53H265.38V24.56H261.38ZM263.38 51H250.78V55H263.38V51ZM252.78 53V2.6H248.78V53H252.78ZM250.78 4.6H263.38V0.599997H250.78V4.6ZM261.38 2.6V15.56H265.38V2.6H261.38ZM308.011 29.96H306.011V31.96H308.011V29.96ZM320.251 29.96V31.96H322.251V29.96H320.251ZM331.411 52.28L331.617 54.2693L333.411 54.0835V52.28H331.411ZM298.363 50.768L296.949 52.1822L296.949 52.1822L298.363 50.768ZM298.435 17.216L299.849 18.6302L299.849 18.6302L298.435 17.216ZM329.755 17.216L328.324 18.6135L328.341 18.6303L328.358 18.6468L329.755 17.216ZM332.851 38.96V40.96H334.851V38.96H332.851ZM308.011 38.96V36.96H306.011V38.96H308.011ZM308.731 43.64L310.145 42.2258L310.145 42.2258L308.731 43.64ZM331.411 43.28H333.411V41.1168L331.255 41.2861L331.411 43.28ZM310.891 21.12C309.623 21.12 308.304 21.4384 307.317 22.4258C306.33 23.4131 306.011 24.7317 306.011 26H310.011C310.011 25.6807 310.052 25.4827 310.089 25.3725C310.106 25.3193 310.122 25.2888 310.131 25.274C310.14 25.2599 310.145 25.2551 310.145 25.2542C310.146 25.2534 310.151 25.2485 310.165 25.24C310.18 25.2311 310.211 25.2151 310.264 25.1974C310.374 25.1606 310.572 25.12 310.891 25.12V21.12ZM306.011 26V29.96H310.011V26H306.011ZM308.011 31.96H320.251V27.96H308.011V31.96ZM322.251 29.96V26H318.251V29.96H322.251ZM322.251 26C322.251 24.7317 321.933 23.4131 320.945 22.4258C319.958 21.4384 318.64 21.12 317.371 21.12V25.12C317.691 25.12 317.889 25.1606 317.999 25.1974C318.052 25.2151 318.082 25.2311 318.097 25.24C318.111 25.2485 318.116 25.2534 318.117 25.2542C318.118 25.2551 318.123 25.2599 318.131 25.274C318.14 25.2888 318.156 25.3193 318.174 25.3725C318.211 25.4827 318.251 25.6807 318.251 26H322.251ZM317.371 21.12H310.891V25.12H317.371V21.12ZM331.205 50.2907C321.994 51.2451 313.665 51.72 306.211 51.72V55.72C313.83 55.72 322.3 55.2349 331.617 54.2693L331.205 50.2907ZM306.211 51.72C303.379 51.72 301.306 50.8822 299.777 49.3538L296.949 52.1822C299.357 54.5898 302.516 55.72 306.211 55.72V51.72ZM299.777 49.3538C298.249 47.8254 297.411 45.7524 297.411 42.92H293.411C293.411 46.6156 294.541 49.7746 296.949 52.1822L299.777 49.3538ZM297.411 42.92V25.64H293.411V42.92H297.411ZM297.411 25.64C297.411 22.4237 298.301 20.1788 299.849 18.6302L297.021 15.8018C294.538 18.2852 293.411 21.6563 293.411 25.64H297.411ZM299.849 18.6302C301.455 17.0249 303.73 16.12 306.931 16.12V12.12C302.932 12.12 299.544 13.2791 297.021 15.8018L299.849 18.6302ZM306.931 16.12H321.331V12.12H306.931V16.12ZM321.331 16.12C324.534 16.12 326.773 17.0255 328.324 18.6135L331.186 15.8185C328.705 13.2785 325.328 12.12 321.331 12.12V16.12ZM328.358 18.6468C329.946 20.1978 330.851 22.437 330.851 25.64H334.851C334.851 21.643 333.693 18.2662 331.153 15.7852L328.358 18.6468ZM330.851 25.64V38.96H334.851V25.64H330.851ZM332.851 36.96H308.011V40.96H332.851V36.96ZM306.011 38.96V41.84H310.011V38.96H306.011ZM306.011 41.84C306.011 43.0547 306.437 44.1746 307.317 45.0542L310.145 42.2258C310.065 42.1454 310.011 42.0653 310.011 41.84H306.011ZM307.317 45.0542C308.197 45.9338 309.317 46.36 310.531 46.36V42.36C310.306 42.36 310.226 42.3062 310.145 42.2258L307.317 45.0542ZM310.531 46.36C315.364 46.36 322.386 45.9949 331.568 45.2739L331.255 41.2861C322.1 42.0051 315.203 42.36 310.531 42.36V46.36ZM329.411 43.28V52.28H333.411V43.28H329.411ZM339.32 65.24H337.32V66.9971L339.062 67.2233L339.32 65.24ZM339.32 55.88V53.88H337.32V55.88H339.32ZM349.328 54.368L347.592 53.3757L347.573 53.4075L347.556 53.44L349.328 54.368ZM349.04 50.12L347.195 50.8919L347.197 50.8961L349.04 50.12ZM334.28 14.84V12.84H331.275L332.435 15.6119L334.28 14.84ZM347.6 14.84L349.477 14.1499L348.996 12.84H347.6V14.84ZM356.6 39.32L354.723 40.0101L356.765 45.5643L358.511 39.9101L356.6 39.32ZM364.16 14.84V12.84H362.684L362.249 14.2499L364.16 14.84ZM377.48 14.84L379.36 15.5235L380.335 12.84H377.48V14.84ZM363.08 54.44L364.958 55.1292L364.96 55.1235L363.08 54.44ZM357.68 63.008L356.368 61.4988L356.358 61.5068L356.349 61.515L357.68 63.008ZM348.68 63.96C346.252 63.96 343.224 63.7302 339.578 63.2567L339.062 67.2233C342.808 67.7098 346.02 67.96 348.68 67.96V63.96ZM341.32 65.24V55.88H337.32V65.24H341.32ZM339.32 57.88H345.8V53.88H339.32V57.88ZM345.8 57.88C347.885 57.88 350.049 57.3021 351.1 55.296L347.556 53.44C347.532 53.4858 347.483 53.5691 347.262 53.6637C347.005 53.7738 346.548 53.88 345.8 53.88V57.88ZM351.064 55.3603C352.113 53.5247 351.726 51.3465 350.883 49.3439L347.197 50.8961C347.89 52.5415 347.695 53.1953 347.592 53.3757L351.064 55.3603ZM350.885 49.3481L336.125 14.0681L332.435 15.6119L347.195 50.8919L350.885 49.3481ZM334.28 16.84H347.6V12.84H334.28V16.84ZM345.723 15.5301L354.723 40.0101L358.477 38.6299L349.477 14.1499L345.723 15.5301ZM358.511 39.9101L366.071 15.4301L362.249 14.2499L354.689 38.7299L358.511 39.9101ZM364.16 16.84H377.48V12.84H364.16V16.84ZM375.6 14.1565L361.2 53.7565L364.96 55.1235L379.36 15.5235L375.6 14.1565ZM361.203 53.7508C359.885 57.3408 358.243 59.8684 356.368 61.4988L358.992 64.5172C361.533 62.3077 363.491 59.1232 364.957 55.1292L361.203 53.7508ZM356.349 61.515C354.602 63.0726 352.124 63.96 348.68 63.96V67.96C352.82 67.96 356.342 66.8794 359.011 64.501L356.349 61.515ZM399.808 42.92L399.956 40.9254L397.808 40.7668V42.92H399.808ZM424.648 43.28L426.063 44.6942L426.063 44.6942L424.648 43.28ZM425.368 38.96H427.368V36.96H425.368V38.96ZM402.04 36.008L403.455 34.5938L403.455 34.5938L402.04 36.008ZM402.04 17.792L403.455 19.2062L402.04 17.792ZM434.368 14.84H436.368V12.84H434.368V14.84ZM434.368 24.2V26.2H436.368V24.2H434.368ZM412.408 24.92L413.823 26.3342L413.823 26.3342L412.408 24.92ZM412.408 28.52L410.994 29.9342L410.994 29.9342L412.408 28.52ZM435.016 32.192L436.431 30.7778L436.431 30.7778L435.016 32.192ZM435.016 50.768L436.431 52.1822L436.431 52.1822L435.016 50.768ZM399.808 52.28H397.808V54.0926L399.612 54.2704L399.808 52.28ZM399.661 44.9146C409.424 45.636 417.16 46 422.848 46V42C417.305 42 409.681 41.644 399.956 40.9254L399.661 44.9146ZM422.848 46C424.063 46 425.183 45.5738 426.063 44.6942L423.234 41.8658C423.154 41.9462 423.074 42 422.848 42V46ZM426.063 44.6942C426.942 43.8146 427.368 42.6947 427.368 41.48H423.368C423.368 41.7053 423.315 41.7854 423.234 41.8658L426.063 44.6942ZM427.368 41.48V38.96H423.368V41.48H427.368ZM425.368 36.96H409.888V40.96H425.368V36.96ZM409.888 36.96C407.056 36.96 404.983 36.1222 403.455 34.5938L400.626 37.4222C403.034 39.8298 406.193 40.96 409.888 40.96V36.96ZM403.455 34.5938C401.926 33.0654 401.088 30.9924 401.088 28.16H397.088C397.088 31.8556 398.219 35.0146 400.626 37.4222L403.455 34.5938ZM401.088 28.16V25.64H397.088V28.16H401.088ZM401.088 25.64C401.088 22.8076 401.926 20.7346 403.455 19.2062L400.626 16.3778C398.219 18.7854 397.088 21.9444 397.088 25.64H401.088ZM403.455 19.2062C404.983 17.6778 407.056 16.84 409.888 16.84V12.84C406.193 12.84 403.034 13.9702 400.626 16.3778L403.455 19.2062ZM409.888 16.84H434.368V12.84H409.888V16.84ZM432.368 14.84V24.2H436.368V14.84H432.368ZM434.368 22.2H414.208V26.2H434.368V22.2ZM414.208 22.2C412.994 22.2 411.874 22.6262 410.994 23.5058L413.823 26.3342C413.903 26.2538 413.983 26.2 414.208 26.2V22.2ZM410.994 23.5058C410.115 24.3854 409.688 25.5053 409.688 26.72H413.688C413.688 26.4947 413.742 26.4146 413.823 26.3342L410.994 23.5058ZM409.688 26.72C409.688 27.9347 410.115 29.0546 410.994 29.9342L413.823 27.1058C413.742 27.0254 413.688 26.9453 413.688 26.72H409.688ZM410.994 29.9342C411.874 30.8138 412.994 31.24 414.208 31.24V27.24C413.983 27.24 413.903 27.1862 413.823 27.1058L410.994 29.9342ZM414.208 31.24H427.168V27.24H414.208V31.24ZM427.168 31.24C430.001 31.24 432.074 32.0778 433.602 33.6062L436.431 30.7778C434.023 28.3702 430.864 27.24 427.168 27.24V31.24ZM433.602 33.6062C435.131 35.1346 435.968 37.2076 435.968 40.04H439.968C439.968 36.3444 438.838 33.1854 436.431 30.7778L433.602 33.6062ZM435.968 40.04V42.92H439.968V40.04H435.968ZM435.968 42.92C435.968 45.7524 435.131 47.8254 433.602 49.3538L436.431 52.1822C438.838 49.7746 439.968 46.6156 439.968 42.92H435.968ZM433.602 49.3538C432.074 50.8822 430.001 51.72 427.168 51.72V55.72C430.864 55.72 434.023 54.5898 436.431 52.1822L433.602 49.3538ZM427.168 51.72C418.747 51.72 409.693 51.2442 400.005 50.2896L399.612 54.2704C409.412 55.2358 418.598 55.72 427.168 55.72V51.72ZM401.808 52.28V42.92H397.808V52.28H401.808ZM466.774 42.2L467.346 44.1164L468.774 43.6902V42.2H466.774ZM466.774 37.88H468.774V35.88H466.774V37.88ZM454.534 38.6L455.948 40.0142L455.948 40.0142L454.534 38.6ZM454.534 42.92L453.12 44.3342L453.12 44.3342L454.534 42.92ZM444.814 15.56L444.597 13.5718L442.814 13.7667V15.56H444.814ZM476.422 17.072L475.008 18.4862L475.008 18.4862L476.422 17.072ZM479.374 53V55H481.374V53H479.374ZM468.214 53L466.253 53.3922L466.574 55H468.214V53ZM467.494 49.4L469.455 49.0078L468.873 46.0949L466.393 47.7305L467.494 49.4ZM460.51 52.712L461.06 54.635L461.072 54.6314L461.085 54.6277L460.51 52.712ZM444.166 50.768L442.752 52.1822L442.752 52.1822L444.166 50.768ZM444.166 31.832L445.58 33.2462L445.58 33.2462L444.166 31.832ZM466.774 28.88V30.88H468.774V28.88H466.774ZM466.054 24.2L464.64 25.6142L464.64 25.6142L466.054 24.2ZM453.886 23.912L453.735 21.9177L453.733 21.9179L453.886 23.912ZM444.814 24.56H442.814V26.6889L444.939 26.5561L444.814 24.56ZM458.134 45.64C460.922 45.64 464 45.1153 467.346 44.1164L466.202 40.2836C463.116 41.2047 460.434 41.64 458.134 41.64V45.64ZM468.774 42.2V37.88H464.774V42.2H468.774ZM466.774 35.88H456.334V39.88H466.774V35.88ZM456.334 35.88C455.119 35.88 453.999 36.3062 453.12 37.1858L455.948 40.0142C456.029 39.9338 456.109 39.88 456.334 39.88V35.88ZM453.12 37.1858C452.24 38.0654 451.814 39.1853 451.814 40.4H455.814C455.814 40.1747 455.868 40.0946 455.948 40.0142L453.12 37.1858ZM451.814 40.4V41.12H455.814V40.4H451.814ZM451.814 41.12C451.814 42.3347 452.24 43.4546 453.12 44.3342L455.948 41.5058C455.868 41.4254 455.814 41.3453 455.814 41.12H451.814ZM453.12 44.3342C453.999 45.2138 455.119 45.64 456.334 45.64V41.64C456.109 41.64 456.029 41.5862 455.948 41.5058L453.12 44.3342ZM456.334 45.64H458.134V41.64H456.334V45.64ZM445.031 17.5482C453.76 16.5942 461.606 16.12 468.574 16.12V12.12C461.43 12.12 453.436 12.6058 444.597 13.5718L445.031 17.5482ZM468.574 16.12C471.406 16.12 473.479 16.9578 475.008 18.4862L477.836 15.6578C475.429 13.2502 472.27 12.12 468.574 12.12V16.12ZM475.008 18.4862C476.536 20.0146 477.374 22.0876 477.374 24.92H481.374C481.374 21.2244 480.244 18.0654 477.836 15.6578L475.008 18.4862ZM477.374 24.92V53H481.374V24.92H477.374ZM479.374 51H468.214V55H479.374V51ZM470.175 52.6078L469.455 49.0078L465.533 49.7922L466.253 53.3922L470.175 52.6078ZM466.393 47.7305C464.287 49.1196 462.135 50.1365 459.935 50.7963L461.085 54.6277C463.685 53.8475 466.189 52.6564 468.595 51.0695L466.393 47.7305ZM459.961 50.789C457.708 51.4326 455.912 51.72 454.534 51.72V55.72C456.42 55.72 458.608 55.3354 461.06 54.635L459.961 50.789ZM454.534 51.72H452.014V55.72H454.534V51.72ZM452.014 51.72C449.182 51.72 447.109 50.8822 445.58 49.3538L442.752 52.1822C445.159 54.5898 448.318 55.72 452.014 55.72V51.72ZM445.58 49.3538C444.052 47.8254 443.214 45.7524 443.214 42.92H439.214C439.214 46.6156 440.344 49.7746 442.752 52.1822L445.58 49.3538ZM443.214 42.92V39.68H439.214V42.92H443.214ZM443.214 39.68C443.214 36.8476 444.052 34.7746 445.58 33.2462L442.752 30.4178C440.344 32.8254 439.214 35.9844 439.214 39.68H443.214ZM445.58 33.2462C447.109 31.7178 449.182 30.88 452.014 30.88V26.88C448.318 26.88 445.159 28.0102 442.752 30.4178L445.58 33.2462ZM452.014 30.88H466.774V26.88H452.014V30.88ZM468.774 28.88V26H464.774V28.88H468.774ZM468.774 26C468.774 24.7853 468.348 23.6654 467.468 22.7858L464.64 25.6142C464.72 25.6946 464.774 25.7747 464.774 26H468.774ZM467.468 22.7858C466.589 21.9062 465.469 21.48 464.254 21.48V25.48C464.479 25.48 464.559 25.5338 464.64 25.6142L467.468 22.7858ZM464.254 21.48C461.074 21.48 457.567 21.6267 453.735 21.9177L454.038 25.9063C457.79 25.6213 461.194 25.48 464.254 25.48V21.48ZM453.733 21.9179C449.993 22.2055 446.98 22.4207 444.689 22.5639L444.939 26.5561C447.256 26.4113 450.291 26.1944 454.039 25.9061L453.733 21.9179ZM446.814 24.56V15.56H442.814V24.56H446.814ZM485.851 65.24H483.851V66.9971L485.594 67.2233L485.851 65.24ZM485.851 55.88V53.88H483.851V55.88H485.851ZM495.859 54.368L494.123 53.3757L494.105 53.4075L494.088 53.44L495.859 54.368ZM495.571 50.12L493.726 50.8919L493.728 50.8961L495.571 50.12ZM480.811 14.84V12.84H477.807L478.966 15.6119L480.811 14.84ZM494.131 14.84L496.008 14.1499L495.527 12.84H494.131V14.84ZM503.131 39.32L501.254 40.0101L503.296 45.5643L505.042 39.9101L503.131 39.32ZM510.691 14.84V12.84H509.216L508.78 14.2499L510.691 14.84ZM524.011 14.84L525.891 15.5235L526.867 12.84H524.011V14.84ZM509.611 54.44L511.489 55.1292L511.491 55.1235L509.611 54.44ZM504.211 63.008L502.899 61.4988L502.89 61.5068L502.881 61.515L504.211 63.008ZM495.211 63.96C492.783 63.96 489.755 63.7302 486.109 63.2567L485.594 67.2233C489.34 67.7098 492.552 67.96 495.211 67.96V63.96ZM487.851 65.24V55.88H483.851V65.24H487.851ZM485.851 57.88H492.331V53.88H485.851V57.88ZM492.331 57.88C494.417 57.88 496.58 57.3021 497.631 55.296L494.088 53.44C494.064 53.4858 494.014 53.5691 493.793 53.6637C493.537 53.7738 493.079 53.88 492.331 53.88V57.88ZM497.596 55.3603C498.645 53.5247 498.258 51.3465 497.415 49.3439L493.728 50.8961C494.421 52.5415 494.226 53.1953 494.123 53.3757L497.596 55.3603ZM497.416 49.3481L482.656 14.0681L478.966 15.6119L493.726 50.8919L497.416 49.3481ZM480.811 16.84H494.131V12.84H480.811V16.84ZM492.254 15.5301L501.254 40.0101L505.008 38.6299L496.008 14.1499L492.254 15.5301ZM505.042 39.9101L512.602 15.4301L508.78 14.2499L501.22 38.7299L505.042 39.9101ZM510.691 16.84H524.011V12.84H510.691V16.84ZM522.132 14.1565L507.732 53.7565L511.491 55.1235L525.891 15.5235L522.132 14.1565ZM507.734 53.7508C506.416 57.3408 504.774 59.8684 502.899 61.4988L505.524 64.5172C508.065 62.3077 510.023 59.1232 511.489 55.1292L507.734 53.7508ZM502.881 61.515C501.133 63.0726 498.655 63.96 495.211 63.96V67.96C499.351 67.96 502.874 66.8794 505.542 64.501L502.881 61.515Z" fill="white" fill-opacity="0.06"/>
</svg>
