<svg width="354" height="47" viewBox="0 0 354 47" fill="none" xmlns="http://www.w3.org/2000/svg">
<path d="M30.7975 2.4L32.73 1.88467L32.3341 0.399998H30.7975V2.4ZM36.5575 24L34.625 24.5153L38.5052 24.4545L36.5575 24ZM41.5975 2.4V0.399998H40.0104L39.6498 1.94554L41.5975 2.4ZM50.9575 2.4L52.8877 2.9239L53.5727 0.399998H50.9575V2.4ZM41.8375 36V38H43.367L43.7677 36.5239L41.8375 36ZM32.7175 36L30.7895 36.5319L31.1945 38H32.7175V36ZM26.9575 15.12L28.8855 14.5881L26.9575 7.59919L25.0295 14.5881L26.9575 15.12ZM21.1975 36V38H22.7205L23.1255 36.5319L21.1975 36ZM12.0775 36L10.1473 36.5239L10.548 38H12.0775V36ZM2.9575 2.4V0.399998H0.342279L1.02734 2.9239L2.9575 2.4ZM12.3175 2.4L14.2652 1.94554L13.9046 0.399998H12.3175V2.4ZM17.3575 24L15.4098 24.4545L19.29 24.5153L17.3575 24ZM23.1175 2.4V0.399998H21.5809L21.185 1.88467L23.1175 2.4ZM28.865 2.91532L34.625 24.5153L38.49 23.4847L32.73 1.88467L28.865 2.91532ZM38.5052 24.4545L43.5452 2.85446L39.6498 1.94554L34.6098 23.5455L38.5052 24.4545ZM41.5975 4.4H50.9575V0.399998H41.5975V4.4ZM49.0273 1.8761L39.9073 35.4761L43.7677 36.5239L52.8877 2.9239L49.0273 1.8761ZM41.8375 34H32.7175V38H41.8375V34ZM34.6455 35.4681L28.8855 14.5881L25.0295 15.6519L30.7895 36.5319L34.6455 35.4681ZM25.0295 14.5881L19.2695 35.4681L23.1255 36.5319L28.8855 15.6519L25.0295 14.5881ZM21.1975 34H12.0775V38H21.1975V34ZM14.0077 35.4761L4.88766 1.8761L1.02734 2.9239L10.1473 36.5239L14.0077 35.4761ZM2.9575 4.4H12.3175V0.399998H2.9575V4.4ZM10.3698 2.85446L15.4098 24.4545L19.3052 23.5455L14.2652 1.94554L10.3698 2.85446ZM19.29 24.5153L25.05 2.91532L21.185 1.88467L15.425 23.4847L19.29 24.5153ZM23.1175 4.4H30.7975V0.399998H23.1175V4.4ZM61.3 11.04H59.3V13.4944L61.7039 12.9988L61.3 11.04ZM76.852 12.048L75.4378 13.4622L75.4378 13.4622L76.852 12.048ZM78.82 36V38H80.82V36H78.82ZM70.42 36H68.42V38H70.42V36ZM63.7 16.752L63.4519 14.7674L63.4441 14.7684L63.7 16.752ZM61.3 17.04L61.0906 15.051L59.3 15.2395V17.04H61.3ZM61.3 36V38H63.3V36H61.3ZM52.9 36H50.9V38H52.9V36ZM52.9 2.4V0.399998H50.9V2.4H52.9ZM61.3 2.4H63.3V0.399998H61.3V2.4ZM61.7039 12.9988C64.7186 12.3772 67.2979 12.08 69.46 12.08V8.08C66.9501 8.08 64.0894 8.42279 60.8961 9.0812L61.7039 12.9988ZM69.46 12.08H71.62V8.08H69.46V12.08ZM71.62 12.08C73.3644 12.08 74.5654 12.5898 75.4378 13.4622L78.2662 10.6338C76.5146 8.8822 74.2276 8.08 71.62 8.08V12.08ZM75.4378 13.4622C76.3102 14.3346 76.82 15.5356 76.82 17.28H80.82C80.82 14.6724 80.0178 12.3854 78.2662 10.6338L75.4378 13.4622ZM76.82 17.28V36H80.82V17.28H76.82ZM78.82 34H70.42V38H78.82V34ZM72.42 36V18.24H68.42V36H72.42ZM72.42 18.24C72.42 17.2653 72.0738 16.3454 71.3542 15.6258L68.5258 18.4542C68.5041 18.4325 68.4687 18.3869 68.443 18.3228C68.4183 18.261 68.42 18.2254 68.42 18.24H72.42ZM71.3542 15.6258C70.6346 14.9062 69.7147 14.56 68.74 14.56V18.56C68.7546 18.56 68.719 18.5617 68.6572 18.537C68.5931 18.5113 68.5475 18.4759 68.5258 18.4542L71.3542 15.6258ZM68.74 14.56H67.06V18.56H68.74V14.56ZM67.06 14.56C65.7752 14.56 64.5712 14.6275 63.4519 14.7674L63.9481 18.7366C64.8768 18.6205 65.9128 18.56 67.06 18.56V14.56ZM63.4441 14.7684C62.4592 14.8955 61.6765 14.9893 61.0906 15.051L61.5094 19.029C62.1395 18.9627 62.9568 18.8645 63.9559 18.7356L63.4441 14.7684ZM59.3 17.04V36H63.3V17.04H59.3ZM61.3 34H52.9V38H61.3V34ZM54.9 36V2.4H50.9V36H54.9ZM52.9 4.4H61.3V0.399998H52.9V4.4ZM59.3 2.4V11.04H63.3V2.4H59.3ZM98.9744 28.8L99.5464 30.7164L100.974 30.2902V28.8H98.9744ZM98.9744 25.92H100.974V23.92H98.9744V25.92ZM90.8144 26.4L92.2286 27.8142L92.2286 27.8142L90.8144 26.4ZM90.8144 29.28L89.4002 30.6942L89.4002 30.6942L90.8144 29.28ZM84.3344 11.04L84.1171 9.05184L82.3344 9.24667V11.04H84.3344ZM105.406 12.048L103.992 13.4622L103.992 13.4622L105.406 12.048ZM107.374 36V38H109.374V36H107.374ZM99.9344 36L97.9732 36.3922L98.2948 38H99.9344V36ZM99.4544 33.6L101.416 33.2078L100.833 30.2949L98.3532 31.9305L99.4544 33.6ZM94.7984 35.808L95.3478 37.731L95.3605 37.7274L95.3731 37.7237L94.7984 35.808ZM83.9024 34.512L82.4882 35.9262L82.4882 35.9262L83.9024 34.512ZM83.9024 21.888L85.3166 23.3022L85.3166 23.3022L83.9024 21.888ZM98.9744 19.92V21.92H100.974V19.92H98.9744ZM98.4944 16.8L97.0802 18.2142L97.0802 18.2142L98.4944 16.8ZM90.3824 16.608L90.2309 14.6137L90.229 14.6139L90.3824 16.608ZM84.3344 17.04H82.3344V19.1689L84.4591 19.0361L84.3344 17.04ZM93.2144 31.76C95.1546 31.76 97.2723 31.3953 99.5464 30.7164L98.4023 26.8836C96.3885 27.4847 94.6662 27.76 93.2144 27.76V31.76ZM100.974 28.8V25.92H96.9744V28.8H100.974ZM98.9744 23.92H92.0144V27.92H98.9744V23.92ZM92.0144 23.92C91.0397 23.92 90.1198 24.2662 89.4002 24.9858L92.2286 27.8142C92.2069 27.8359 92.1612 27.8713 92.0972 27.897C92.0354 27.9217 91.9998 27.92 92.0144 27.92V23.92ZM89.4002 24.9858C88.6806 25.7054 88.3344 26.6253 88.3344 27.6H92.3344C92.3344 27.5854 92.336 27.621 92.3113 27.6828C92.2857 27.7469 92.2503 27.7925 92.2286 27.8142L89.4002 24.9858ZM88.3344 27.6V28.08H92.3344V27.6H88.3344ZM88.3344 28.08C88.3344 29.0547 88.6806 29.9746 89.4002 30.6942L92.2286 27.8658C92.2503 27.8875 92.2857 27.9331 92.3113 27.9972C92.336 28.059 92.3344 28.0946 92.3344 28.08H88.3344ZM89.4002 30.6942C90.1198 31.4138 91.0397 31.76 92.0144 31.76V27.76C91.9998 27.76 92.0354 27.7583 92.0972 27.783C92.1612 27.8087 92.2069 27.8441 92.2286 27.8658L89.4002 30.6942ZM92.0144 31.76H93.2144V27.76H92.0144V31.76ZM84.5517 13.0282C90.3526 12.3942 95.5584 12.08 100.174 12.08V8.08C95.3824 8.08 90.0281 8.40582 84.1171 9.05184L84.5517 13.0282ZM100.174 12.08C101.919 12.08 103.12 12.5898 103.992 13.4622L106.821 10.6338C105.069 8.8822 102.782 8.08 100.174 8.08V12.08ZM103.992 13.4622C104.865 14.3346 105.374 15.5356 105.374 17.28H109.374C109.374 14.6724 108.572 12.3854 106.821 10.6338L103.992 13.4622ZM105.374 17.28V36H109.374V17.28H105.374ZM107.374 34H99.9344V38H107.374V34ZM101.896 35.6078L101.416 33.2078L97.4932 33.9922L97.9732 36.3922L101.896 35.6078ZM98.3532 31.9305C96.999 32.8236 95.6231 33.4725 94.2237 33.8923L95.3731 37.7237C97.1737 37.1835 98.9017 36.3604 100.556 35.2695L98.3532 31.9305ZM94.2489 33.885C92.78 34.3046 91.6488 34.48 90.8144 34.48V38.48C92.156 38.48 93.6807 38.2074 95.3478 37.731L94.2489 33.885ZM90.8144 34.48H89.1344V38.48H90.8144V34.48ZM89.1344 34.48C87.39 34.48 86.189 33.9702 85.3166 33.0978L82.4882 35.9262C84.2397 37.6778 86.5267 38.48 89.1344 38.48V34.48ZM85.3166 33.0978C84.4442 32.2254 83.9344 31.0244 83.9344 29.28H79.9344C79.9344 31.8876 80.7366 34.1746 82.4882 35.9262L85.3166 33.0978ZM83.9344 29.28V27.12H79.9344V29.28H83.9344ZM83.9344 27.12C83.9344 25.3756 84.4442 24.1746 85.3166 23.3022L82.4882 20.4738C80.7366 22.2254 79.9344 24.5124 79.9344 27.12H83.9344ZM85.3166 23.3022C86.189 22.4298 87.39 21.92 89.1344 21.92V17.92C86.5267 17.92 84.2397 18.7222 82.4882 20.4738L85.3166 23.3022ZM89.1344 21.92H98.9744V17.92H89.1344V21.92ZM100.974 19.92V18H96.9744V19.92H100.974ZM100.974 18C100.974 17.0253 100.628 16.1054 99.9086 15.3858L97.0802 18.2142C97.0585 18.1925 97.0231 18.1469 96.9974 18.0828C96.9727 18.021 96.9744 17.9854 96.9744 18H100.974ZM99.9086 15.3858C99.189 14.6662 98.2691 14.32 97.2944 14.32V18.32C97.3089 18.32 97.2733 18.3217 97.2116 18.297C97.1475 18.2713 97.1018 18.2359 97.0802 18.2142L99.9086 15.3858ZM97.2944 14.32C95.1543 14.32 92.7989 14.4187 90.2309 14.6137L90.5338 18.6023C93.0219 18.4133 95.2744 18.32 97.2944 18.32V14.32ZM90.229 14.6139C87.7374 14.8055 85.7321 14.9487 84.2096 15.0439L84.4591 19.0361C86.0087 18.9393 88.0353 18.7944 90.5358 18.6021L90.229 14.6139ZM86.3344 17.04V11.04H82.3344V17.04H86.3344ZM129.441 36L129.646 37.9895L131.441 37.8044V36H129.441ZM115.089 34.512L116.503 33.0978L116.503 33.0978L115.089 34.512ZM113.121 17.04H115.121V15.04H113.121V17.04ZM110.241 17.04H108.241V19.04H110.241V17.04ZM110.241 10.56V8.56H108.241V10.56H110.241ZM113.121 10.56V12.56H114.816L115.094 10.8888L113.121 10.56ZM114.081 4.8V2.8H112.387L112.108 4.4712L114.081 4.8ZM121.521 4.8H123.521V2.8H121.521V4.8ZM121.521 10.56H119.521V12.56H121.521V10.56ZM127.521 10.56H129.521V8.56H127.521V10.56ZM127.521 17.04V19.04H129.521V17.04H127.521ZM121.521 17.04V15.04H119.521V17.04H121.521ZM122.001 29.28L120.587 30.6942L120.587 30.6942L122.001 29.28ZM129.441 29.76H131.441V27.76H129.441V29.76ZM129.236 34.0105C126.197 34.3239 123.226 34.48 120.321 34.48V38.48C123.369 38.48 126.477 38.3161 129.646 37.9895L129.236 34.0105ZM120.321 34.48C118.577 34.48 117.376 33.9702 116.503 33.0978L113.675 35.9262C115.427 37.6778 117.714 38.48 120.321 38.48V34.48ZM116.503 33.0978C115.631 32.2254 115.121 31.0244 115.121 29.28H111.121C111.121 31.8876 111.923 34.1746 113.675 35.9262L116.503 33.0978ZM115.121 29.28V17.04H111.121V29.28H115.121ZM113.121 15.04H110.241V19.04H113.121V15.04ZM112.241 17.04V10.56H108.241V17.04H112.241ZM110.241 12.56H113.121V8.56H110.241V12.56ZM115.094 10.8888L116.054 5.1288L112.108 4.4712L111.148 10.2312L115.094 10.8888ZM114.081 6.8H121.521V2.8H114.081V6.8ZM119.521 4.8V10.56H123.521V4.8H119.521ZM121.521 12.56H127.521V8.56H121.521V12.56ZM125.521 10.56V17.04H129.521V10.56H125.521ZM127.521 15.04H121.521V19.04H127.521V15.04ZM119.521 17.04V28.08H123.521V17.04H119.521ZM119.521 28.08C119.521 29.0547 119.867 29.9746 120.587 30.6942L123.415 27.8658C123.437 27.8875 123.473 27.9331 123.498 27.9972C123.523 28.059 123.521 28.0946 123.521 28.08H119.521ZM120.587 30.6942C121.307 31.4138 122.227 31.76 123.201 31.76V27.76C123.187 27.76 123.222 27.7583 123.284 27.783C123.348 27.8087 123.394 27.8441 123.415 27.8658L120.587 30.6942ZM123.201 31.76H129.441V27.76H123.201V31.76ZM127.441 29.76V36H131.441V29.76H127.441ZM164.973 36L165.178 37.9895L166.973 37.8044V36H164.973ZM150.621 34.512L152.035 33.0978L152.035 33.0978L150.621 34.512ZM148.653 17.04H150.653V15.04H148.653V17.04ZM145.773 17.04H143.773V19.04H145.773V17.04ZM145.773 10.56V8.56H143.773V10.56H145.773ZM148.653 10.56V12.56H150.347L150.625 10.8888L148.653 10.56ZM149.613 4.8V2.8H147.918L147.64 4.4712L149.613 4.8ZM157.053 4.8H159.053V2.8H157.053V4.8ZM157.053 10.56H155.053V12.56H157.053V10.56ZM163.053 10.56H165.053V8.56H163.053V10.56ZM163.053 17.04V19.04H165.053V17.04H163.053ZM157.053 17.04V15.04H155.053V17.04H157.053ZM157.533 29.28L156.118 30.6942L156.118 30.6942L157.533 29.28ZM164.973 29.76H166.973V27.76H164.973V29.76ZM164.767 34.0105C161.728 34.3239 158.757 34.48 155.853 34.48V38.48C158.9 38.48 162.009 38.3161 165.178 37.9895L164.767 34.0105ZM155.853 34.48C154.108 34.48 152.907 33.9702 152.035 33.0978L149.206 35.9262C150.958 37.6778 153.245 38.48 155.853 38.48V34.48ZM152.035 33.0978C151.162 32.2254 150.653 31.0244 150.653 29.28H146.653C146.653 31.8876 147.455 34.1746 149.206 35.9262L152.035 33.0978ZM150.653 29.28V17.04H146.653V29.28H150.653ZM148.653 15.04H145.773V19.04H148.653V15.04ZM147.773 17.04V10.56H143.773V17.04H147.773ZM145.773 12.56H148.653V8.56H145.773V12.56ZM150.625 10.8888L151.585 5.1288L147.64 4.4712L146.68 10.2312L150.625 10.8888ZM149.613 6.8H157.053V2.8H149.613V6.8ZM155.053 4.8V10.56H159.053V4.8H155.053ZM157.053 12.56H163.053V8.56H157.053V12.56ZM161.053 10.56V17.04H165.053V10.56H161.053ZM163.053 15.04H157.053V19.04H163.053V15.04ZM155.053 17.04V28.08H159.053V17.04H155.053ZM155.053 28.08C155.053 29.0547 155.399 29.9746 156.118 30.6942L158.947 27.8658C158.968 27.8875 159.004 27.9331 159.029 27.9972C159.054 28.059 159.053 28.0946 159.053 28.08H155.053ZM156.118 30.6942C156.838 31.4138 157.758 31.76 158.733 31.76V27.76C158.718 27.76 158.754 27.7583 158.815 27.783C158.879 27.8087 158.925 27.8441 158.947 27.8658L156.118 30.6942ZM158.733 31.76H164.973V27.76H158.733V31.76ZM162.973 29.76V36H166.973V29.76H162.973ZM176.753 11.04H174.753V13.4944L177.157 12.9988L176.753 11.04ZM192.305 12.048L190.891 13.4622L190.891 13.4622L192.305 12.048ZM194.273 36V38H196.273V36H194.273ZM185.873 36H183.873V38H185.873V36ZM179.153 16.752L178.905 14.7674L178.897 14.7684L179.153 16.752ZM176.753 17.04L176.544 15.051L174.753 15.2395V17.04H176.753ZM176.753 36V38H178.753V36H176.753ZM168.353 36H166.353V38H168.353V36ZM168.353 2.4V0.399998H166.353V2.4H168.353ZM176.753 2.4H178.753V0.399998H176.753V2.4ZM177.157 12.9988C180.172 12.3772 182.751 12.08 184.913 12.08V8.08C182.403 8.08 179.543 8.42279 176.349 9.0812L177.157 12.9988ZM184.913 12.08H187.073V8.08H184.913V12.08ZM187.073 12.08C188.817 12.08 190.018 12.5898 190.891 13.4622L193.719 10.6338C191.968 8.8822 189.681 8.08 187.073 8.08V12.08ZM190.891 13.4622C191.763 14.3346 192.273 15.5356 192.273 17.28H196.273C196.273 14.6724 195.471 12.3854 193.719 10.6338L190.891 13.4622ZM192.273 17.28V36H196.273V17.28H192.273ZM194.273 34H185.873V38H194.273V34ZM187.873 36V18.24H183.873V36H187.873ZM187.873 18.24C187.873 17.2653 187.527 16.3454 186.807 15.6258L183.979 18.4542C183.957 18.4325 183.922 18.3869 183.896 18.3228C183.871 18.261 183.873 18.2254 183.873 18.24H187.873ZM186.807 15.6258C186.088 14.9062 185.168 14.56 184.193 14.56V18.56C184.208 18.56 184.172 18.5617 184.11 18.537C184.046 18.5113 184.001 18.4759 183.979 18.4542L186.807 15.6258ZM184.193 14.56H182.513V18.56H184.193V14.56ZM182.513 14.56C181.228 14.56 180.024 14.6275 178.905 14.7674L179.401 18.7366C180.33 18.6205 181.366 18.56 182.513 18.56V14.56ZM178.897 14.7684C177.912 14.8955 177.13 14.9893 176.544 15.051L176.962 19.029C177.593 18.9627 178.41 18.8645 179.409 18.7356L178.897 14.7684ZM174.753 17.04V36H178.753V17.04H174.753ZM176.753 34H168.353V38H176.753V34ZM170.353 36V2.4H166.353V36H170.353ZM168.353 4.4H176.753V0.399998H168.353V4.4ZM174.753 2.4V11.04H178.753V2.4H174.753ZM206.508 20.64H204.508V22.64H206.508V20.64ZM214.668 20.64V22.64H216.668V20.64H214.668ZM222.108 35.52L222.314 37.5093L224.108 37.3235V35.52H222.108ZM200.076 34.512L198.661 35.9262L198.661 35.9262L200.076 34.512ZM200.124 12.144L201.538 13.5582L201.538 13.5582L200.124 12.144ZM221.004 12.144L219.573 13.5415L219.589 13.5583L219.606 13.5748L221.004 12.144ZM223.068 26.64V28.64H225.068V26.64H223.068ZM206.508 26.64V24.64H204.508V26.64H206.508ZM206.988 29.76L208.402 28.3458L208.402 28.3458L206.988 29.76ZM222.108 29.52H224.108V27.3568L221.951 27.5261L222.108 29.52ZM208.428 14.08C207.479 14.08 206.401 14.3184 205.573 15.1458C204.746 15.9731 204.508 17.0517 204.508 18H208.508C208.508 17.9226 208.512 17.8679 208.517 17.8328C208.522 17.7979 208.527 17.7862 208.525 17.7925C208.523 17.7993 208.514 17.8238 208.492 17.859C208.471 17.8949 208.441 17.9351 208.402 17.9742C208.363 18.0134 208.322 18.0435 208.286 18.065C208.251 18.0861 208.227 18.0951 208.22 18.0974C208.214 18.0994 208.225 18.0949 208.26 18.0899C208.295 18.0849 208.35 18.08 208.428 18.08V14.08ZM204.508 18V20.64H208.508V18H204.508ZM206.508 22.64H214.668V18.64H206.508V22.64ZM216.668 20.64V18H212.668V20.64H216.668ZM216.668 18C216.668 17.0517 216.429 15.9731 215.602 15.1458C214.774 14.3184 213.696 14.08 212.748 14.08V18.08C212.825 18.08 212.88 18.0849 212.915 18.0899C212.95 18.0949 212.961 18.0994 212.955 18.0974C212.948 18.0951 212.924 18.0861 212.889 18.065C212.853 18.0435 212.812 18.0134 212.773 17.9742C212.734 17.9351 212.704 17.8949 212.683 17.859C212.661 17.8238 212.652 17.7993 212.65 17.7925C212.648 17.7862 212.653 17.7979 212.658 17.8328C212.663 17.8679 212.668 17.9226 212.668 18H216.668ZM212.748 14.08H208.428V18.08H212.748V14.08ZM221.901 33.5307C215.779 34.1651 210.249 34.48 205.308 34.48V38.48C210.414 38.48 216.084 38.1549 222.314 37.5093L221.901 33.5307ZM205.308 34.48C203.563 34.48 202.362 33.9702 201.49 33.0978L198.661 35.9262C200.413 37.6778 202.7 38.48 205.308 38.48V34.48ZM201.49 33.0978C200.617 32.2254 200.108 31.0244 200.108 29.28H196.108C196.108 31.8876 196.91 34.1746 198.661 35.9262L201.49 33.0978ZM200.108 29.28V17.76H196.108V29.28H200.108ZM200.108 17.76C200.108 15.7437 200.661 14.4348 201.538 13.5582L198.709 10.7298C196.898 12.5412 196.108 14.9763 196.108 17.76H200.108ZM201.538 13.5582C202.455 12.6409 203.787 12.08 205.788 12.08V8.08C202.988 8.08 200.544 8.89508 198.709 10.7298L201.538 13.5582ZM205.788 12.08H215.388V8.08H205.788V12.08ZM215.388 12.08C217.39 12.08 218.694 12.6415 219.573 13.5415L222.434 10.7465C220.625 8.89454 218.185 8.08 215.388 8.08V12.08ZM219.606 13.5748C220.506 14.4538 221.068 15.757 221.068 17.76H225.068C225.068 14.963 224.253 12.5222 222.401 10.7132L219.606 13.5748ZM221.068 17.76V26.64H225.068V17.76H221.068ZM223.068 24.64H206.508V28.64H223.068V24.64ZM204.508 26.64V28.56H208.508V26.64H204.508ZM204.508 28.56C204.508 29.5347 204.854 30.4546 205.573 31.1742L208.402 28.3458C208.423 28.3675 208.459 28.4131 208.484 28.4772C208.509 28.539 208.508 28.5746 208.508 28.56H204.508ZM205.573 31.1742C206.293 31.8938 207.213 32.24 208.188 32.24V28.24C208.173 28.24 208.209 28.2383 208.27 28.263C208.334 28.2887 208.38 28.3241 208.402 28.3458L205.573 31.1742ZM208.188 32.24C211.436 32.24 216.139 31.9949 222.264 31.5139L221.951 27.5261C215.852 28.0051 211.275 28.24 208.188 28.24V32.24ZM220.108 29.52V35.52H224.108V29.52H220.108ZM227.38 44.16H225.38V45.9171L227.122 46.1433L227.38 44.16ZM227.38 37.92V35.92H225.38V37.92H227.38ZM234.052 36.912L232.316 35.9197L232.297 35.9515L232.28 35.984L234.052 36.912ZM233.86 34.08L232.015 34.8519L232.017 34.8561L233.86 34.08ZM224.02 10.56V8.56H221.015L222.175 11.3319L224.02 10.56ZM232.9 10.56L234.777 9.86987L234.296 8.56H232.9V10.56ZM238.9 26.88L237.023 27.5701L239.065 33.1243L240.811 27.4701L238.9 26.88ZM243.94 10.56V8.56H242.464L242.029 9.96985L243.94 10.56ZM252.82 10.56L254.7 11.2435L255.675 8.56H252.82V10.56ZM243.22 36.96L245.098 37.6492L245.1 37.6435L243.22 36.96ZM239.62 42.672L238.308 41.1628L238.298 41.1708L238.289 41.179L239.62 42.672ZM233.62 42.64C232.04 42.64 230.052 42.4902 227.638 42.1767L227.122 46.1433C229.636 46.4698 231.808 46.64 233.62 46.64V42.64ZM229.38 44.16V37.92H225.38V44.16H229.38ZM227.38 39.92H231.7V35.92H227.38V39.92ZM231.7 39.92C233.177 39.92 234.949 39.5101 235.824 37.84L232.28 35.984C232.305 35.9371 232.34 35.8917 232.38 35.857C232.416 35.8244 232.435 35.8199 232.412 35.8297C232.351 35.8558 232.144 35.92 231.7 35.92V39.92ZM235.788 37.9043C236.645 36.4047 236.29 34.6985 235.703 33.3039L232.017 34.8561C232.218 35.3345 232.284 35.6519 232.297 35.8353C232.308 36.0024 232.272 35.9953 232.316 35.9197L235.788 37.9043ZM235.705 33.3081L225.865 9.78809L222.175 11.3319L232.015 34.8519L235.705 33.3081ZM224.02 12.56H232.9V8.56H224.02V12.56ZM231.023 11.2501L237.023 27.5701L240.777 26.1899L234.777 9.86987L231.023 11.2501ZM240.811 27.4701L245.851 11.1501L242.029 9.96985L236.989 26.2899L240.811 27.4701ZM243.94 12.56H252.82V8.56H243.94V12.56ZM250.94 9.87651L241.34 36.2765L245.1 37.6435L254.7 11.2435L250.94 9.87651ZM241.343 36.2708C240.489 38.5968 239.447 40.1724 238.308 41.1628L240.932 44.1812C242.737 42.6117 244.095 40.3792 245.097 37.6492L241.343 36.2708ZM238.289 41.179C237.278 42.0806 235.8 42.64 233.62 42.64V46.64C236.496 46.64 239.018 45.8874 240.951 44.165L238.289 41.179ZM267.706 29.28L267.853 27.2854L265.706 27.1268V29.28H267.706ZM284.266 29.52L285.68 30.9342L285.68 30.9342L284.266 29.52ZM284.746 26.64H286.746V24.64H284.746V26.64ZM269.194 24.672L270.608 23.2578L270.608 23.2578L269.194 24.672ZM269.194 12.528L270.608 13.9422L269.194 12.528ZM290.746 10.56H292.746V8.56H290.746V10.56ZM290.746 16.8V18.8H292.746V16.8H290.746ZM276.106 17.28L277.52 18.6942L277.52 18.6942L276.106 17.28ZM276.106 19.68L274.691 21.0942L274.691 21.0942L276.106 19.68ZM291.178 22.128L292.592 20.7138L292.592 20.7138L291.178 22.128ZM291.178 34.512L292.592 35.9262L292.592 35.9262L291.178 34.512ZM267.706 35.52H265.706V37.3326L267.51 37.5104L267.706 35.52ZM267.558 31.2746C274.073 31.756 279.249 32 283.066 32V28C279.394 28 274.33 27.764 267.853 27.2854L267.558 31.2746ZM283.066 32C284.04 32 284.96 31.6538 285.68 30.9342L282.851 28.1058C282.873 28.0841 282.919 28.0487 282.983 28.023C283.045 27.9983 283.08 28 283.066 28V32ZM285.68 30.9342C286.399 30.2146 286.746 29.2947 286.746 28.32H282.746C282.746 28.3346 282.744 28.299 282.769 28.2372C282.794 28.1731 282.83 28.1275 282.851 28.1058L285.68 30.9342ZM286.746 28.32V26.64H282.746V28.32H286.746ZM284.746 24.64H274.426V28.64H284.746V24.64ZM274.426 24.64C272.681 24.64 271.48 24.1302 270.608 23.2578L267.779 26.0862C269.531 27.8378 271.818 28.64 274.426 28.64V24.64ZM270.608 23.2578C269.735 22.3854 269.226 21.1844 269.226 19.44H265.226C265.226 22.0476 266.028 24.3346 267.779 26.0862L270.608 23.2578ZM269.226 19.44V17.76H265.226V19.44H269.226ZM269.226 17.76C269.226 16.0156 269.735 14.8146 270.608 13.9422L267.779 11.1138C266.028 12.8654 265.226 15.1524 265.226 17.76H269.226ZM270.608 13.9422C271.48 13.0698 272.681 12.56 274.426 12.56V8.56C271.818 8.56 269.531 9.3622 267.779 11.1138L270.608 13.9422ZM274.426 12.56H290.746V8.56H274.426V12.56ZM288.746 10.56V16.8H292.746V10.56H288.746ZM290.746 14.8H277.306V18.8H290.746V14.8ZM277.306 14.8C276.331 14.8 275.411 15.1462 274.691 15.8658L277.52 18.6942C277.498 18.7159 277.452 18.7513 277.388 18.777C277.327 18.8017 277.291 18.8 277.306 18.8V14.8ZM274.691 15.8658C273.972 16.5854 273.626 17.5053 273.626 18.48H277.626C277.626 18.4654 277.627 18.501 277.603 18.5628C277.577 18.6269 277.542 18.6725 277.52 18.6942L274.691 15.8658ZM273.626 18.48C273.626 19.4547 273.972 20.3746 274.691 21.0942L277.52 18.2658C277.542 18.2875 277.577 18.3331 277.603 18.3972C277.627 18.459 277.626 18.4946 277.626 18.48H273.626ZM274.691 21.0942C275.411 21.8138 276.331 22.16 277.306 22.16V18.16C277.291 18.16 277.327 18.1583 277.388 18.183C277.452 18.2087 277.498 18.2441 277.52 18.2658L274.691 21.0942ZM277.306 22.16H285.946V18.16H277.306V22.16ZM285.946 22.16C287.69 22.16 288.891 22.6698 289.763 23.5422L292.592 20.7138C290.84 18.9622 288.553 18.16 285.946 18.16V22.16ZM289.763 23.5422C290.636 24.4146 291.146 25.6156 291.146 27.36H295.146C295.146 24.7524 294.343 22.4654 292.592 20.7138L289.763 23.5422ZM291.146 27.36V29.28H295.146V27.36H291.146ZM291.146 29.28C291.146 31.0244 290.636 32.2254 289.763 33.0978L292.592 35.9262C294.343 34.1746 295.146 31.8876 295.146 29.28H291.146ZM289.763 33.0978C288.891 33.9702 287.69 34.48 285.946 34.48V38.48C288.553 38.48 290.84 37.6778 292.592 35.9262L289.763 33.0978ZM285.946 34.48C280.356 34.48 274.342 34.1642 267.902 33.5296L267.51 37.5104C274.061 38.1558 280.207 38.48 285.946 38.48V34.48ZM269.706 35.52V29.28H265.706V35.52H269.706ZM312.349 28.8L312.921 30.7164L314.349 30.2902V28.8H312.349ZM312.349 25.92H314.349V23.92H312.349V25.92ZM304.189 26.4L305.604 27.8142L305.604 27.8142L304.189 26.4ZM304.189 29.28L302.775 30.6942L302.775 30.6942L304.189 29.28ZM297.709 11.04L297.492 9.05184L295.709 9.24667V11.04H297.709ZM318.781 12.048L317.367 13.4622L317.367 13.4622L318.781 12.048ZM320.749 36V38H322.749V36H320.749ZM313.309 36L311.348 36.3922L311.67 38H313.309V36ZM312.829 33.6L314.791 33.2078L314.208 30.2949L311.728 31.9305L312.829 33.6ZM308.173 35.808L308.723 37.731L308.735 37.7274L308.748 37.7237L308.173 35.808ZM297.277 34.512L295.863 35.9262L295.863 35.9262L297.277 34.512ZM297.277 21.888L298.692 23.3022L298.692 23.3022L297.277 21.888ZM312.349 19.92V21.92H314.349V19.92H312.349ZM311.869 16.8L310.455 18.2142L310.455 18.2142L311.869 16.8ZM303.757 16.608L303.606 14.6137L303.604 14.6139L303.757 16.608ZM297.709 17.04H295.709V19.1689L297.834 19.0361L297.709 17.04ZM306.589 31.76C308.53 31.76 310.647 31.3953 312.921 30.7164L311.777 26.8836C309.763 27.4847 308.041 27.76 306.589 27.76V31.76ZM314.349 28.8V25.92H310.349V28.8H314.349ZM312.349 23.92H305.389V27.92H312.349V23.92ZM305.389 23.92C304.415 23.92 303.495 24.2662 302.775 24.9858L305.604 27.8142C305.582 27.8359 305.536 27.8713 305.472 27.897C305.41 27.9217 305.375 27.92 305.389 27.92V23.92ZM302.775 24.9858C302.056 25.7054 301.709 26.6253 301.709 27.6H305.709C305.709 27.5854 305.711 27.621 305.686 27.6828C305.661 27.7469 305.625 27.7925 305.604 27.8142L302.775 24.9858ZM301.709 27.6V28.08H305.709V27.6H301.709ZM301.709 28.08C301.709 29.0547 302.056 29.9746 302.775 30.6942L305.604 27.8658C305.625 27.8875 305.661 27.9331 305.686 27.9972C305.711 28.059 305.709 28.0946 305.709 28.08H301.709ZM302.775 30.6942C303.495 31.4138 304.415 31.76 305.389 31.76V27.76C305.375 27.76 305.41 27.7583 305.472 27.783C305.536 27.8087 305.582 27.8441 305.604 27.8658L302.775 30.6942ZM305.389 31.76H306.589V27.76H305.389V31.76ZM297.927 13.0282C303.728 12.3942 308.933 12.08 313.549 12.08V8.08C308.757 8.08 303.403 8.40582 297.492 9.05184L297.927 13.0282ZM313.549 12.08C315.294 12.08 316.495 12.5898 317.367 13.4622L320.196 10.6338C318.444 8.8822 316.157 8.08 313.549 8.08V12.08ZM317.367 13.4622C318.24 14.3346 318.749 15.5356 318.749 17.28H322.749C322.749 14.6724 321.947 12.3854 320.196 10.6338L317.367 13.4622ZM318.749 17.28V36H322.749V17.28H318.749ZM320.749 34H313.309V38H320.749V34ZM315.271 35.6078L314.791 33.2078L310.868 33.9922L311.348 36.3922L315.271 35.6078ZM311.728 31.9305C310.374 32.8236 308.998 33.4725 307.599 33.8923L308.748 37.7237C310.549 37.1835 312.277 36.3604 313.931 35.2695L311.728 31.9305ZM307.624 33.885C306.155 34.3046 305.024 34.48 304.189 34.48V38.48C305.531 38.48 307.056 38.2074 308.723 37.731L307.624 33.885ZM304.189 34.48H302.509V38.48H304.189V34.48ZM302.509 34.48C300.765 34.48 299.564 33.9702 298.692 33.0978L295.863 35.9262C297.615 37.6778 299.902 38.48 302.509 38.48V34.48ZM298.692 33.0978C297.819 32.2254 297.309 31.0244 297.309 29.28H293.309C293.309 31.8876 294.112 34.1746 295.863 35.9262L298.692 33.0978ZM297.309 29.28V27.12H293.309V29.28H297.309ZM297.309 27.12C297.309 25.3756 297.819 24.1746 298.692 23.3022L295.863 20.4738C294.112 22.2254 293.309 24.5124 293.309 27.12H297.309ZM298.692 23.3022C299.564 22.4298 300.765 21.92 302.509 21.92V17.92C299.902 17.92 297.615 18.7222 295.863 20.4738L298.692 23.3022ZM302.509 21.92H312.349V17.92H302.509V21.92ZM314.349 19.92V18H310.349V19.92H314.349ZM314.349 18C314.349 17.0253 314.003 16.1054 313.284 15.3858L310.455 18.2142C310.433 18.1925 310.398 18.1469 310.372 18.0828C310.348 18.021 310.349 17.9854 310.349 18H314.349ZM313.284 15.3858C312.564 14.6662 311.644 14.32 310.669 14.32V18.32C310.684 18.32 310.648 18.3217 310.587 18.297C310.523 18.2713 310.477 18.2359 310.455 18.2142L313.284 15.3858ZM310.669 14.32C308.529 14.32 306.174 14.4187 303.606 14.6137L303.909 18.6023C306.397 18.4133 308.649 18.32 310.669 18.32V14.32ZM303.604 14.6139C301.112 14.8055 299.107 14.9487 297.585 15.0439L297.834 19.0361C299.384 18.9393 301.41 18.7944 303.911 18.6021L303.604 14.6139ZM299.709 17.04V11.04H295.709V17.04H299.709ZM325.068 44.16H323.068V45.9171L324.81 46.1433L325.068 44.16ZM325.068 37.92V35.92H323.068V37.92H325.068ZM331.74 36.912L330.003 35.9197L329.985 35.9515L329.968 35.984L331.74 36.912ZM331.548 34.08L329.702 34.8519L329.704 34.8561L331.548 34.08ZM321.707 10.56V8.56H318.703L319.862 11.3319L321.707 10.56ZM330.588 10.56L332.465 9.86987L331.983 8.56H330.588V10.56ZM336.588 26.88L334.71 27.5701L336.752 33.1243L338.498 27.4701L336.588 26.88ZM341.628 10.56V8.56H340.152L339.717 9.96985L341.628 10.56ZM350.508 10.56L352.387 11.2435L353.363 8.56H350.508V10.56ZM340.908 36.96L342.785 37.6492L342.787 37.6435L340.908 36.96ZM337.308 42.672L335.995 41.1628L335.986 41.1708L335.977 41.179L337.308 42.672ZM331.308 42.64C329.727 42.64 327.739 42.4902 325.325 42.1767L324.81 46.1433C327.324 46.4698 329.496 46.64 331.308 46.64V42.64ZM327.068 44.16V37.92H323.068V44.16H327.068ZM325.068 39.92H329.388V35.92H325.068V39.92ZM329.388 39.92C330.865 39.92 332.636 39.5101 333.511 37.84L329.968 35.984C329.992 35.9371 330.028 35.8917 330.067 35.857C330.104 35.8244 330.123 35.8199 330.1 35.8297C330.039 35.8558 329.831 35.92 329.388 35.92V39.92ZM333.476 37.9043C334.333 36.4047 333.978 34.6985 333.391 33.3039L329.704 34.8561C329.906 35.3345 329.972 35.6519 329.984 35.8353C329.995 36.0024 329.96 35.9953 330.003 35.9197L333.476 37.9043ZM333.393 33.3081L323.553 9.78809L319.862 11.3319L329.702 34.8519L333.393 33.3081ZM321.707 12.56H330.588V8.56H321.707V12.56ZM328.71 11.2501L334.71 27.5701L338.465 26.1899L332.465 9.86987L328.71 11.2501ZM338.498 27.4701L343.538 11.1501L339.717 9.96985L334.677 26.2899L338.498 27.4701ZM341.628 12.56H350.508V8.56H341.628V12.56ZM348.628 9.87651L339.028 36.2765L342.787 37.6435L352.387 11.2435L348.628 9.87651ZM339.03 36.2708C338.176 38.5968 337.134 40.1724 335.995 41.1628L338.62 44.1812C340.425 42.6117 341.783 40.3792 342.785 37.6492L339.03 36.2708ZM335.977 41.179C334.965 42.0806 333.487 42.64 331.308 42.64V46.64C334.184 46.64 336.706 45.8874 338.638 44.165L335.977 41.179Z" fill="white" fill-opacity="0.06"/>
</svg>
