<svg width="702" height="90" viewBox="0 0 702 90" fill="none" xmlns="http://www.w3.org/2000/svg">
<path d="M59.095 2.8L61.0275 2.28467L60.6316 0.799995H59.095V2.8ZM70.615 46L68.6825 46.5153L72.5627 46.4545L70.615 46ZM80.695 2.8V0.799995H79.1079L78.7473 2.34554L80.695 2.8ZM99.415 2.8L101.345 3.3239L102.03 0.799995H99.415V2.8ZM81.175 70V72H82.7045L83.1052 70.5239L81.175 70ZM62.935 70L61.007 70.5319L61.412 72H62.935V70ZM51.415 28.24L53.343 27.7081L51.415 20.7192L49.487 27.7081L51.415 28.24ZM39.895 70V72H41.418L41.823 70.5319L39.895 70ZM21.655 70L19.7248 70.5239L20.1255 72H21.655V70ZM3.415 2.8V0.799995H0.799778L1.48484 3.3239L3.415 2.8ZM22.135 2.8L24.0827 2.34554L23.7221 0.799995H22.135V2.8ZM32.215 46L30.2673 46.4545L34.1475 46.5153L32.215 46ZM43.735 2.8V0.799995H42.1984L41.8025 2.28467L43.735 2.8ZM57.1625 3.31532L68.6825 46.5153L72.5475 45.4847L61.0275 2.28467L57.1625 3.31532ZM72.5627 46.4545L82.6427 3.25445L78.7473 2.34554L68.6673 45.5455L72.5627 46.4545ZM80.695 4.8H99.415V0.799995H80.695V4.8ZM97.4848 2.27609L79.2448 69.4761L83.1052 70.5239L101.345 3.3239L97.4848 2.27609ZM81.175 68H62.935V72H81.175V68ZM64.863 69.4681L53.343 27.7081L49.487 28.7719L61.007 70.5319L64.863 69.4681ZM49.487 27.7081L37.967 69.4681L41.823 70.5319L53.343 28.7719L49.487 27.7081ZM39.895 68H21.655V72H39.895V68ZM23.5852 69.4761L5.34516 2.27609L1.48484 3.3239L19.7248 70.5239L23.5852 69.4761ZM3.415 4.8H22.135V0.799995H3.415V4.8ZM20.1873 3.25445L30.2673 46.4545L34.1627 45.5455L24.0827 2.34554L20.1873 3.25445ZM34.1475 46.5153L45.6675 3.31532L41.8025 2.28467L30.2825 45.4847L34.1475 46.5153ZM43.735 4.8H59.095V0.799995H43.735V4.8ZM120.1 20.08H118.1V22.5344L120.504 22.0388L120.1 20.08ZM151.204 22.096L149.79 23.5102L149.79 23.5102L151.204 22.096ZM155.14 70V72H157.14V70H155.14ZM138.34 70H136.34V72H138.34V70ZM124.9 31.504L124.652 29.5194L124.644 29.5204L124.9 31.504ZM120.1 32.08L119.891 30.091L118.1 30.2795V32.08H120.1ZM120.1 70V72H122.1V70H120.1ZM103.3 70H101.3V72H103.3V70ZM103.3 2.8V0.799995H101.3V2.8H103.3ZM120.1 2.8H122.1V0.799995H120.1V2.8ZM120.504 22.0388C126.623 20.7772 131.922 20.16 136.42 20.16V16.16C131.574 16.16 125.993 16.8228 119.696 18.1212L120.504 22.0388ZM136.42 20.16H140.74V16.16H136.42V20.16ZM140.74 20.16C144.66 20.16 147.605 21.3258 149.79 23.5102L152.618 20.6818C149.555 17.6182 145.524 16.16 140.74 16.16V20.16ZM149.79 23.5102C151.974 25.6946 153.14 28.6396 153.14 32.56H157.14C157.14 27.7764 155.682 23.7454 152.618 20.6818L149.79 23.5102ZM153.14 32.56V70H157.14V32.56H153.14ZM155.14 68H138.34V72H155.14V68ZM140.34 70V34.48H136.34V70H140.34ZM140.34 34.48C140.34 33.0253 139.834 31.7054 138.794 30.6658L135.966 33.4942C136.206 33.7346 136.34 34.0147 136.34 34.48H140.34ZM138.794 30.6658C137.755 29.6262 136.435 29.12 134.98 29.12V33.12C135.445 33.12 135.725 33.2538 135.966 33.4942L138.794 30.6658ZM134.98 29.12H131.62V33.12H134.98V29.12ZM131.62 29.12C129.119 29.12 126.795 29.2515 124.652 29.5194L125.148 33.4886C127.101 33.2445 129.257 33.12 131.62 33.12V29.12ZM124.644 29.5204C122.667 29.7755 121.084 29.9653 119.891 30.091L120.309 34.069C121.548 33.9387 123.165 33.7445 125.156 33.4876L124.644 29.5204ZM118.1 32.08V70H122.1V32.08H118.1ZM120.1 68H103.3V72H120.1V68ZM105.3 70V2.8H101.3V70H105.3ZM103.3 4.8H120.1V0.799995H103.3V4.8ZM118.1 2.8V20.08H122.1V2.8H118.1ZM195.449 55.6L196.021 57.5164L197.449 57.0902V55.6H195.449ZM195.449 49.84H197.449V47.84H195.449V49.84ZM179.129 50.8L180.543 52.2142L180.543 52.2142L179.129 50.8ZM179.129 56.56L177.715 57.9742L177.715 57.9742L179.129 56.56ZM166.169 20.08L165.951 18.0918L164.169 18.2867V20.08H166.169ZM208.313 22.096L206.899 23.5102L206.899 23.5102L208.313 22.096ZM212.249 70V72H214.249V70H212.249ZM197.369 70L195.408 70.3922L195.729 72H197.369V70ZM196.409 65.2L198.37 64.8078L197.787 61.8949L195.308 63.5305L196.409 65.2ZM187.097 69.616L187.646 71.539L187.659 71.5354L187.671 71.5317L187.097 69.616ZM165.305 67.024L163.891 68.4382L163.891 68.4382L165.305 67.024ZM165.305 41.776L166.719 43.1902L166.719 43.1902L165.305 41.776ZM195.449 37.84V39.84H197.449V37.84H195.449ZM194.489 31.6L193.075 33.0142L193.075 33.0142L194.489 31.6ZM178.265 31.216L178.113 29.2217L178.111 29.2219L178.265 31.216ZM166.169 32.08H164.169V34.2089L166.294 34.0761L166.169 32.08ZM183.929 59.52C187.565 59.52 191.603 58.8353 196.021 57.5164L194.877 53.6836C190.719 54.9247 187.077 55.52 183.929 55.52V59.52ZM197.449 55.6V49.84H193.449V55.6H197.449ZM195.449 47.84H181.529V51.84H195.449V47.84ZM181.529 47.84C180.074 47.84 178.754 48.3462 177.715 49.3858L180.543 52.2142C180.783 51.9738 181.063 51.84 181.529 51.84V47.84ZM177.715 49.3858C176.675 50.4254 176.169 51.7453 176.169 53.2H180.169C180.169 52.7347 180.303 52.4546 180.543 52.2142L177.715 49.3858ZM176.169 53.2V54.16H180.169V53.2H176.169ZM176.169 54.16C176.169 55.6147 176.675 56.9346 177.715 57.9742L180.543 55.1458C180.303 54.9054 180.169 54.6253 180.169 54.16H176.169ZM177.715 57.9742C178.754 59.0138 180.074 59.52 181.529 59.52V55.52C181.063 55.52 180.783 55.3862 180.543 55.1458L177.715 57.9742ZM181.529 59.52H183.929V55.52H181.529V59.52ZM166.386 22.0682C178.043 20.7942 188.529 20.16 197.849 20.16V16.16C188.353 16.16 177.719 16.8058 165.951 18.0918L166.386 22.0682ZM197.849 20.16C201.769 20.16 204.714 21.3258 206.899 23.5102L209.727 20.6818C206.663 17.6182 202.632 16.16 197.849 16.16V20.16ZM206.899 23.5102C209.083 25.6946 210.249 28.6396 210.249 32.56H214.249C214.249 27.7764 212.791 23.7454 209.727 20.6818L206.899 23.5102ZM210.249 32.56V70H214.249V32.56H210.249ZM212.249 68H197.369V72H212.249V68ZM199.33 69.6078L198.37 64.8078L194.448 65.5922L195.408 70.3922L199.33 69.6078ZM195.308 63.5305C192.449 65.4156 189.521 66.8005 186.522 67.7003L187.671 71.5317C191.072 70.5115 194.352 68.9524 197.51 66.8695L195.308 63.5305ZM186.547 67.693C183.51 68.5606 181.051 68.96 179.129 68.96V72.96C181.558 72.96 184.411 72.4634 187.646 71.539L186.547 67.693ZM179.129 68.96H175.769V72.96H179.129V68.96ZM175.769 68.96C171.848 68.96 168.903 67.7942 166.719 65.6098L163.891 68.4382C166.954 71.5018 170.985 72.96 175.769 72.96V68.96ZM166.719 65.6098C164.535 63.4254 163.369 60.4804 163.369 56.56H159.369C159.369 61.3436 160.827 65.3746 163.891 68.4382L166.719 65.6098ZM163.369 56.56V52.24H159.369V56.56H163.369ZM163.369 52.24C163.369 48.3196 164.535 45.3746 166.719 43.1902L163.891 40.3618C160.827 43.4254 159.369 47.4564 159.369 52.24H163.369ZM166.719 43.1902C168.903 41.0058 171.848 39.84 175.769 39.84V35.84C170.985 35.84 166.954 37.2982 163.891 40.3618L166.719 43.1902ZM175.769 39.84H195.449V35.84H175.769V39.84ZM197.449 37.84V34H193.449V37.84H197.449ZM197.449 34C197.449 32.5453 196.943 31.2254 195.903 30.1858L193.075 33.0142C193.315 33.2546 193.449 33.5347 193.449 34H197.449ZM195.903 30.1858C194.863 29.1462 193.543 28.64 192.089 28.64V32.64C192.554 32.64 192.834 32.7738 193.075 33.0142L195.903 30.1858ZM192.089 28.64C187.869 28.64 183.209 28.8347 178.113 29.2217L178.416 33.2103C183.432 32.8293 187.989 32.64 192.089 32.64V28.64ZM178.111 29.2219C173.124 29.6055 169.102 29.8927 166.044 30.0839L166.294 34.0761C169.379 33.8833 173.422 33.5944 178.418 33.2101L178.111 29.2219ZM168.169 32.08V20.08H164.169V32.08H168.169ZM256.383 70L256.588 71.9895L258.383 71.8044V70H256.383ZM227.679 67.024L229.093 65.6098L229.093 65.6098L227.679 67.024ZM223.743 32.08H225.743V30.08H223.743V32.08ZM217.983 32.08H215.983V34.08H217.983V32.08ZM217.983 19.12V17.12H215.983V19.12H217.983ZM223.743 19.12V21.12H225.437L225.715 19.4488L223.743 19.12ZM225.663 7.6V5.6H223.968L223.69 7.2712L225.663 7.6ZM240.543 7.6H242.543V5.6H240.543V7.6ZM240.543 19.12H238.543V21.12H240.543V19.12ZM252.543 19.12H254.543V17.12H252.543V19.12ZM252.543 32.08V34.08H254.543V32.08H252.543ZM240.543 32.08V30.08H238.543V32.08H240.543ZM241.503 56.56L240.088 57.9742L240.088 57.9742L241.503 56.56ZM256.383 57.52H258.383V55.52H256.383V57.52ZM256.177 68.0105C250.034 68.6439 244.023 68.96 238.143 68.96V72.96C244.166 72.96 250.315 72.6361 256.588 71.9895L256.177 68.0105ZM238.143 68.96C234.222 68.96 231.277 67.7942 229.093 65.6098L226.264 68.4382C229.328 71.5018 233.359 72.96 238.143 72.96V68.96ZM229.093 65.6098C226.908 63.4254 225.743 60.4804 225.743 56.56H221.743C221.743 61.3436 223.201 65.3746 226.264 68.4382L229.093 65.6098ZM225.743 56.56V32.08H221.743V56.56H225.743ZM223.743 30.08H217.983V34.08H223.743V30.08ZM219.983 32.08V19.12H215.983V32.08H219.983ZM217.983 21.12H223.743V17.12H217.983V21.12ZM225.715 19.4488L227.635 7.92879L223.69 7.2712L221.77 18.7912L225.715 19.4488ZM225.663 9.6H240.543V5.6H225.663V9.6ZM238.543 7.6V19.12H242.543V7.6H238.543ZM240.543 21.12H252.543V17.12H240.543V21.12ZM250.543 19.12V32.08H254.543V19.12H250.543ZM252.543 30.08H240.543V34.08H252.543V30.08ZM238.543 32.08V54.16H242.543V32.08H238.543ZM238.543 54.16C238.543 55.6147 239.049 56.9346 240.088 57.9742L242.917 55.1458C242.676 54.9054 242.543 54.6253 242.543 54.16H238.543ZM240.088 57.9742C241.128 59.0138 242.448 59.52 243.903 59.52V55.52C243.437 55.52 243.157 55.3862 242.917 55.1458L240.088 57.9742ZM243.903 59.52H256.383V55.52H243.903V59.52ZM254.383 57.52V70H258.383V57.52H254.383ZM327.445 70L327.65 71.9895L329.445 71.8044V70H327.445ZM298.741 67.024L300.155 65.6098L300.155 65.6098L298.741 67.024ZM294.805 32.08H296.805V30.08H294.805V32.08ZM289.045 32.08H287.045V34.08H289.045V32.08ZM289.045 19.12V17.12H287.045V19.12H289.045ZM294.805 19.12V21.12H296.499L296.778 19.4488L294.805 19.12ZM296.725 7.6V5.6H295.031L294.752 7.2712L296.725 7.6ZM311.605 7.6H313.605V5.6H311.605V7.6ZM311.605 19.12H309.605V21.12H311.605V19.12ZM323.605 19.12H325.605V17.12H323.605V19.12ZM323.605 32.08V34.08H325.605V32.08H323.605ZM311.605 32.08V30.08H309.605V32.08H311.605ZM312.565 56.56L311.151 57.9742L311.151 57.9742L312.565 56.56ZM327.445 57.52H329.445V55.52H327.445V57.52ZM327.24 68.0105C321.097 68.6439 315.085 68.96 309.205 68.96V72.96C315.229 72.96 321.377 72.6361 327.65 71.9895L327.24 68.0105ZM309.205 68.96C305.285 68.96 302.34 67.7942 300.155 65.6098L297.327 68.4382C300.39 71.5018 304.421 72.96 309.205 72.96V68.96ZM300.155 65.6098C297.971 63.4254 296.805 60.4804 296.805 56.56H292.805C292.805 61.3436 294.263 65.3746 297.327 68.4382L300.155 65.6098ZM296.805 56.56V32.08H292.805V56.56H296.805ZM294.805 30.08H289.045V34.08H294.805V30.08ZM291.045 32.08V19.12H287.045V32.08H291.045ZM289.045 21.12H294.805V17.12H289.045V21.12ZM296.778 19.4488L298.698 7.92879L294.752 7.2712L292.832 18.7912L296.778 19.4488ZM296.725 9.6H311.605V5.6H296.725V9.6ZM309.605 7.6V19.12H313.605V7.6H309.605ZM311.605 21.12H323.605V17.12H311.605V21.12ZM321.605 19.12V32.08H325.605V19.12H321.605ZM323.605 30.08H311.605V34.08H323.605V30.08ZM309.605 32.08V54.16H313.605V32.08H309.605ZM309.605 54.16C309.605 55.6147 310.111 56.9346 311.151 57.9742L313.979 55.1458C313.739 54.9054 313.605 54.6253 313.605 54.16H309.605ZM311.151 57.9742C312.19 59.0138 313.51 59.52 314.965 59.52V55.52C314.5 55.52 314.22 55.3862 313.979 55.1458L311.151 57.9742ZM314.965 59.52H327.445V55.52H314.965V59.52ZM325.445 57.52V70H329.445V57.52H325.445ZM351.006 20.08H349.006V22.5344L351.41 22.0388L351.006 20.08ZM382.11 22.096L380.696 23.5102L380.696 23.5102L382.11 22.096ZM386.046 70V72H388.046V70H386.046ZM369.246 70H367.246V72H369.246V70ZM355.806 31.504L355.558 29.5194L355.55 29.5204L355.806 31.504ZM351.006 32.08L350.797 30.091L349.006 30.2795V32.08H351.006ZM351.006 70V72H353.006V70H351.006ZM334.206 70H332.206V72H334.206V70ZM334.206 2.8V0.799995H332.206V2.8H334.206ZM351.006 2.8H353.006V0.799995H351.006V2.8ZM351.41 22.0388C357.529 20.7772 362.828 20.16 367.326 20.16V16.16C362.48 16.16 356.9 16.8228 350.602 18.1212L351.41 22.0388ZM367.326 20.16H371.646V16.16H367.326V20.16ZM371.646 20.16C375.567 20.16 378.512 21.3258 380.696 23.5102L383.524 20.6818C380.461 17.6182 376.43 16.16 371.646 16.16V20.16ZM380.696 23.5102C382.88 25.6946 384.046 28.6396 384.046 32.56H388.046C388.046 27.7764 386.588 23.7454 383.524 20.6818L380.696 23.5102ZM384.046 32.56V70H388.046V32.56H384.046ZM386.046 68H369.246V72H386.046V68ZM371.246 70V34.48H367.246V70H371.246ZM371.246 34.48C371.246 33.0253 370.74 31.7054 369.7 30.6658L366.872 33.4942C367.112 33.7346 367.246 34.0147 367.246 34.48H371.246ZM369.7 30.6658C368.661 29.6262 367.341 29.12 365.886 29.12V33.12C366.352 33.12 366.632 33.2538 366.872 33.4942L369.7 30.6658ZM365.886 29.12H362.526V33.12H365.886V29.12ZM362.526 29.12C360.025 29.12 357.701 29.2515 355.558 29.5194L356.054 33.4886C358.007 33.2445 360.163 33.12 362.526 33.12V29.12ZM355.55 29.5204C353.573 29.7755 351.991 29.9653 350.797 30.091L351.216 34.069C352.454 33.9387 354.071 33.7445 356.062 33.4876L355.55 29.5204ZM349.006 32.08V70H353.006V32.08H349.006ZM351.006 68H334.206V72H351.006V68ZM336.206 70V2.8H332.206V70H336.206ZM334.206 4.8H351.006V0.799995H334.206V4.8ZM349.006 2.8V20.08H353.006V2.8H349.006ZM410.515 39.28H408.515V41.28H410.515V39.28ZM426.835 39.28V41.28H428.835V39.28H426.835ZM441.715 69.04L441.921 71.0293L443.715 70.8435V69.04H441.715ZM397.651 67.024L396.237 68.4382L396.237 68.4382L397.651 67.024ZM397.747 22.288L399.161 23.7022L399.161 23.7022L397.747 22.288ZM439.507 22.288L438.076 23.6855L438.093 23.7023L438.11 23.7188L439.507 22.288ZM443.635 51.28V53.28H445.635V51.28H443.635ZM410.515 51.28V49.28H408.515V51.28H410.515ZM411.475 57.52L412.889 56.1058L412.889 56.1058L411.475 57.52ZM441.715 57.04H443.715V54.8768L441.558 55.0461L441.715 57.04ZM414.355 28.16C412.767 28.16 411.208 28.5584 410.061 29.7058C408.913 30.8531 408.515 32.4117 408.515 34H412.515C412.515 33.0283 412.757 32.6669 412.889 32.5342C413.022 32.4016 413.383 32.16 414.355 32.16V28.16ZM408.515 34V39.28H412.515V34H408.515ZM410.515 41.28H426.835V37.28H410.515V41.28ZM428.835 39.28V34H424.835V39.28H428.835ZM428.835 34C428.835 32.4117 428.437 30.8531 427.289 29.7058C426.142 28.5584 424.583 28.16 422.995 28.16V32.16C423.967 32.16 424.328 32.4016 424.461 32.5342C424.593 32.6669 424.835 33.0283 424.835 34H428.835ZM422.995 28.16H414.355V32.16H422.995V28.16ZM441.509 67.0507C429.21 68.3251 418.08 68.96 408.115 68.96V72.96C418.246 72.96 429.516 72.3149 441.921 71.0293L441.509 67.0507ZM408.115 68.96C404.195 68.96 401.25 67.7942 399.065 65.6098L396.237 68.4382C399.3 71.5018 403.331 72.96 408.115 72.96V68.96ZM399.065 65.6098C396.881 63.4254 395.715 60.4804 395.715 56.56H391.715C391.715 61.3436 393.173 65.3746 396.237 68.4382L399.065 65.6098ZM395.715 56.56V33.52H391.715V56.56H395.715ZM395.715 33.52C395.715 29.1037 396.941 25.9228 399.161 23.7022L396.333 20.8738C393.177 24.0292 391.715 28.3363 391.715 33.52H395.715ZM399.161 23.7022C401.455 21.4089 404.674 20.16 409.075 20.16V16.16C403.876 16.16 399.543 17.6631 396.333 20.8738L399.161 23.7022ZM409.075 20.16H428.275V16.16H409.075V20.16ZM428.275 20.16C432.678 20.16 435.853 21.4095 438.076 23.6855L440.938 20.8905C437.785 17.6625 433.472 16.16 428.275 16.16V20.16ZM438.11 23.7188C440.386 25.9418 441.635 29.117 441.635 33.52H445.635C445.635 28.323 444.132 24.0102 440.904 20.8572L438.11 23.7188ZM441.635 33.52V51.28H445.635V33.52H441.635ZM443.635 49.28H410.515V53.28H443.635V49.28ZM408.515 51.28V55.12H412.515V51.28H408.515ZM408.515 55.12C408.515 56.5747 409.021 57.8946 410.061 58.9342L412.889 56.1058C412.649 55.8654 412.515 55.5853 412.515 55.12H408.515ZM410.061 58.9342C411.1 59.9738 412.42 60.48 413.875 60.48V56.48C413.41 56.48 413.13 56.3462 412.889 56.1058L410.061 58.9342ZM413.875 60.48C420.291 60.48 429.634 59.9949 441.872 59.0339L441.558 55.0461C429.348 56.0051 420.131 56.48 413.875 56.48V60.48ZM439.715 57.04V69.04H443.715V57.04H439.715ZM452.26 86.32H450.26V88.0771L452.002 88.3033L452.26 86.32ZM452.26 73.84V71.84H450.26V73.84H452.26ZM465.604 71.824L463.868 70.8317L463.849 70.8635L463.832 70.896L465.604 71.824ZM465.22 66.16L463.375 66.9319L463.377 66.9361L465.22 66.16ZM445.54 19.12V17.12H442.535L443.695 19.8919L445.54 19.12ZM463.3 19.12L465.177 18.4299L464.696 17.12H463.3V19.12ZM475.3 51.76L473.423 52.4501L475.465 58.0043L477.211 52.3501L475.3 51.76ZM485.38 19.12V17.12H483.904L483.469 18.5299L485.38 19.12ZM503.14 19.12L505.02 19.8035L505.995 17.12H503.14V19.12ZM483.94 71.92L485.818 72.6092L485.82 72.6035L483.94 71.92ZM476.74 83.344L475.428 81.8348L475.418 81.8428L475.409 81.851L476.74 83.344ZM464.74 85.28C461.464 85.28 457.396 84.9702 452.518 84.3367L452.002 88.3033C456.98 88.9498 461.232 89.28 464.74 89.28V85.28ZM454.26 86.32V73.84H450.26V86.32H454.26ZM452.26 75.84H460.9V71.84H452.26V75.84ZM460.9 75.84C463.593 75.84 466.149 75.0941 467.376 72.752L463.832 70.896C463.651 71.2419 463.071 71.84 460.9 71.84V75.84ZM467.34 72.8163C468.581 70.6447 468.162 67.9945 467.063 65.3839L463.377 66.9361C464.326 69.1895 464.163 70.3153 463.868 70.8317L467.34 72.8163ZM467.065 65.3881L447.385 18.3481L443.695 19.8919L463.375 66.9319L467.065 65.3881ZM445.54 21.12H463.3V17.12H445.54V21.12ZM461.423 19.8101L473.423 52.4501L477.177 51.0699L465.177 18.4299L461.423 19.8101ZM477.211 52.3501L487.291 19.7101L483.469 18.5299L473.389 51.1699L477.211 52.3501ZM485.38 21.12H503.14V17.12H485.38V21.12ZM501.26 18.4365L482.06 71.2365L485.82 72.6035L505.02 19.8035L501.26 18.4365ZM482.063 71.2308C480.281 76.0848 478.039 79.5644 475.428 81.8348L478.052 84.8532C481.329 82.0037 483.887 77.8672 485.817 72.6092L482.063 71.2308ZM475.409 81.851C472.926 84.0646 469.448 85.28 464.74 85.28V89.28C470.144 89.28 474.666 87.8714 478.071 84.837L475.409 81.851ZM532.911 56.56L533.059 54.5654L530.911 54.4068V56.56H532.911ZM566.031 57.04L567.445 58.4542L567.445 58.4542L566.031 57.04ZM566.991 51.28H568.991V49.28H566.991V51.28ZM535.887 47.344L537.301 45.9298L537.301 45.9298L535.887 47.344ZM535.887 23.056L537.301 24.4702L535.887 23.056ZM578.991 19.12H580.991V17.12H578.991V19.12ZM578.991 31.6V33.6H580.991V31.6H578.991ZM549.711 32.56L551.125 33.9742L551.125 33.9742L549.711 32.56ZM549.711 37.36L548.297 38.7742L548.297 38.7742L549.711 37.36ZM579.855 42.256L581.269 40.8418L581.269 40.8418L579.855 42.256ZM579.855 67.024L581.269 68.4382L581.269 68.4382L579.855 67.024ZM532.911 69.04H530.911V70.8526L532.715 71.0304L532.911 69.04ZM532.764 58.5546C545.775 59.516 556.071 60 563.631 60V56C556.215 56 546.032 55.524 533.059 54.5654L532.764 58.5546ZM563.631 60C565.086 60 566.406 59.4938 567.445 58.4542L564.617 55.6258C564.377 55.8662 564.097 56 563.631 56V60ZM567.445 58.4542C568.485 57.4146 568.991 56.0947 568.991 54.64H564.991C564.991 55.1053 564.857 55.3854 564.617 55.6258L567.445 58.4542ZM568.991 54.64V51.28H564.991V54.64H568.991ZM566.991 49.28H546.351V53.28H566.991V49.28ZM546.351 49.28C542.431 49.28 539.486 48.1142 537.301 45.9298L534.473 48.7582C537.537 51.8218 541.568 53.28 546.351 53.28V49.28ZM537.301 45.9298C535.117 43.7454 533.951 40.8004 533.951 36.88H529.951C529.951 41.6636 531.409 45.6946 534.473 48.7582L537.301 45.9298ZM533.951 36.88V33.52H529.951V36.88H533.951ZM533.951 33.52C533.951 29.5996 535.117 26.6546 537.301 24.4702L534.473 21.6418C531.409 24.7054 529.951 28.7364 529.951 33.52H533.951ZM537.301 24.4702C539.486 22.2858 542.431 21.12 546.351 21.12V17.12C541.568 17.12 537.537 18.5782 534.473 21.6418L537.301 24.4702ZM546.351 21.12H578.991V17.12H546.351V21.12ZM576.991 19.12V31.6H580.991V19.12H576.991ZM578.991 29.6H552.111V33.6H578.991V29.6ZM552.111 29.6C550.657 29.6 549.337 30.1062 548.297 31.1458L551.125 33.9742C551.366 33.7338 551.646 33.6 552.111 33.6V29.6ZM548.297 31.1458C547.257 32.1854 546.751 33.5053 546.751 34.96H550.751C550.751 34.4947 550.885 34.2146 551.125 33.9742L548.297 31.1458ZM546.751 34.96C546.751 36.4147 547.257 37.7346 548.297 38.7742L551.125 35.9458C550.885 35.7054 550.751 35.4253 550.751 34.96H546.751ZM548.297 38.7742C549.337 39.8138 550.657 40.32 552.111 40.32V36.32C551.646 36.32 551.366 36.1862 551.125 35.9458L548.297 38.7742ZM552.111 40.32H569.391V36.32H552.111V40.32ZM569.391 40.32C573.312 40.32 576.257 41.4858 578.441 43.6702L581.269 40.8418C578.206 37.7782 574.175 36.32 569.391 36.32V40.32ZM578.441 43.6702C580.625 45.8546 581.791 48.7996 581.791 52.72H585.791C585.791 47.9364 584.333 43.9054 581.269 40.8418L578.441 43.6702ZM581.791 52.72V56.56H585.791V52.72H581.791ZM581.791 56.56C581.791 60.4804 580.625 63.4254 578.441 65.6098L581.269 68.4382C584.333 65.3746 585.791 61.3436 585.791 56.56H581.791ZM578.441 65.6098C576.257 67.7942 573.312 68.96 569.391 68.96V72.96C574.175 72.96 578.206 71.5018 581.269 68.4382L578.441 65.6098ZM569.391 68.96C558.138 68.96 546.044 68.3242 533.107 67.0496L532.715 71.0304C545.763 72.3158 557.989 72.96 569.391 72.96V68.96ZM534.911 69.04V56.56H530.911V69.04H534.911ZM622.199 55.6L622.771 57.5164L624.199 57.0902V55.6H622.199ZM622.199 49.84H624.199V47.84H622.199V49.84ZM605.879 50.8L607.293 52.2142L607.293 52.2142L605.879 50.8ZM605.879 56.56L604.465 57.9742L604.465 57.9742L605.879 56.56ZM592.919 20.08L592.701 18.0918L590.919 18.2867V20.08H592.919ZM635.063 22.096L633.649 23.5102L633.649 23.5102L635.063 22.096ZM638.999 70V72H640.999V70H638.999ZM624.119 70L622.158 70.3922L622.479 72H624.119V70ZM623.159 65.2L625.12 64.8078L624.537 61.8949L622.058 63.5305L623.159 65.2ZM613.847 69.616L614.396 71.539L614.409 71.5354L614.421 71.5317L613.847 69.616ZM592.055 67.024L590.641 68.4382L590.641 68.4382L592.055 67.024ZM592.055 41.776L593.469 43.1902L593.469 43.1902L592.055 41.776ZM622.199 37.84V39.84H624.199V37.84H622.199ZM621.239 31.6L619.825 33.0142L619.825 33.0142L621.239 31.6ZM605.015 31.216L604.863 29.2217L604.861 29.2219L605.015 31.216ZM592.919 32.08H590.919V34.2089L593.044 34.0761L592.919 32.08ZM610.679 59.52C614.315 59.52 618.353 58.8353 622.771 57.5164L621.627 53.6836C617.469 54.9247 613.827 55.52 610.679 55.52V59.52ZM624.199 55.6V49.84H620.199V55.6H624.199ZM622.199 47.84H608.279V51.84H622.199V47.84ZM608.279 47.84C606.824 47.84 605.504 48.3462 604.465 49.3858L607.293 52.2142C607.533 51.9738 607.813 51.84 608.279 51.84V47.84ZM604.465 49.3858C603.425 50.4254 602.919 51.7453 602.919 53.2H606.919C606.919 52.7347 607.053 52.4546 607.293 52.2142L604.465 49.3858ZM602.919 53.2V54.16H606.919V53.2H602.919ZM602.919 54.16C602.919 55.6147 603.425 56.9346 604.465 57.9742L607.293 55.1458C607.053 54.9054 606.919 54.6253 606.919 54.16H602.919ZM604.465 57.9742C605.504 59.0138 606.824 59.52 608.279 59.52V55.52C607.813 55.52 607.533 55.3862 607.293 55.1458L604.465 57.9742ZM608.279 59.52H610.679V55.52H608.279V59.52ZM593.136 22.0682C604.793 20.7942 615.279 20.16 624.599 20.16V16.16C615.103 16.16 604.469 16.8058 592.701 18.0918L593.136 22.0682ZM624.599 20.16C628.519 20.16 631.464 21.3258 633.649 23.5102L636.477 20.6818C633.413 17.6182 629.382 16.16 624.599 16.16V20.16ZM633.649 23.5102C635.833 25.6946 636.999 28.6396 636.999 32.56H640.999C640.999 27.7764 639.541 23.7454 636.477 20.6818L633.649 23.5102ZM636.999 32.56V70H640.999V32.56H636.999ZM638.999 68H624.119V72H638.999V68ZM626.08 69.6078L625.12 64.8078L621.198 65.5922L622.158 70.3922L626.08 69.6078ZM622.058 63.5305C619.199 65.4156 616.271 66.8005 613.272 67.7003L614.421 71.5317C617.822 70.5115 621.102 68.9524 624.26 66.8695L622.058 63.5305ZM613.297 67.693C610.26 68.5606 607.801 68.96 605.879 68.96V72.96C608.308 72.96 611.161 72.4634 614.396 71.539L613.297 67.693ZM605.879 68.96H602.519V72.96H605.879V68.96ZM602.519 68.96C598.598 68.96 595.653 67.7942 593.469 65.6098L590.641 68.4382C593.704 71.5018 597.735 72.96 602.519 72.96V68.96ZM593.469 65.6098C591.285 63.4254 590.119 60.4804 590.119 56.56H586.119C586.119 61.3436 587.577 65.3746 590.641 68.4382L593.469 65.6098ZM590.119 56.56V52.24H586.119V56.56H590.119ZM590.119 52.24C590.119 48.3196 591.285 45.3746 593.469 43.1902L590.641 40.3618C587.577 43.4254 586.119 47.4564 586.119 52.24H590.119ZM593.469 43.1902C595.653 41.0058 598.598 39.84 602.519 39.84V35.84C597.735 35.84 593.704 37.2982 590.641 40.3618L593.469 43.1902ZM602.519 39.84H622.199V35.84H602.519V39.84ZM624.199 37.84V34H620.199V37.84H624.199ZM624.199 34C624.199 32.5453 623.693 31.2254 622.653 30.1858L619.825 33.0142C620.065 33.2546 620.199 33.5347 620.199 34H624.199ZM622.653 30.1858C621.613 29.1462 620.293 28.64 618.839 28.64V32.64C619.304 32.64 619.584 32.7738 619.825 33.0142L622.653 30.1858ZM618.839 28.64C614.619 28.64 609.959 28.8347 604.863 29.2217L605.166 33.2103C610.182 32.8293 614.739 32.64 618.839 32.64V28.64ZM604.861 29.2219C599.874 29.6055 595.852 29.8927 592.794 30.0839L593.044 34.0761C596.129 33.8833 600.172 33.5944 605.168 33.2101L604.861 29.2219ZM594.919 32.08V20.08H590.919V32.08H594.919ZM647.635 86.32H645.635V88.0771L647.377 88.3033L647.635 86.32ZM647.635 73.84V71.84H645.635V73.84H647.635ZM660.979 71.824L659.243 70.8317L659.224 70.8635L659.207 70.896L660.979 71.824ZM660.595 66.16L658.75 66.9319L658.752 66.9361L660.595 66.16ZM640.915 19.12V17.12H637.91L639.07 19.8919L640.915 19.12ZM658.675 19.12L660.552 18.4299L660.071 17.12H658.675V19.12ZM670.675 51.76L668.798 52.4501L670.84 58.0043L672.586 52.3501L670.675 51.76ZM680.755 19.12V17.12H679.279L678.844 18.5299L680.755 19.12ZM698.515 19.12L700.395 19.8035L701.37 17.12H698.515V19.12ZM679.315 71.92L681.193 72.6092L681.195 72.6035L679.315 71.92ZM672.115 83.344L670.803 81.8348L670.793 81.8428L670.784 81.851L672.115 83.344ZM660.115 85.28C656.839 85.28 652.771 84.9702 647.893 84.3367L647.377 88.3033C652.355 88.9498 656.607 89.28 660.115 89.28V85.28ZM649.635 86.32V73.84H645.635V86.32H649.635ZM647.635 75.84H656.275V71.84H647.635V75.84ZM656.275 75.84C658.968 75.84 661.524 75.0941 662.751 72.752L659.207 70.896C659.026 71.2419 658.446 71.84 656.275 71.84V75.84ZM662.715 72.8163C663.956 70.6447 663.537 67.9945 662.438 65.3839L658.752 66.9361C659.701 69.1895 659.538 70.3153 659.243 70.8317L662.715 72.8163ZM662.44 65.3881L642.76 18.3481L639.07 19.8919L658.75 66.9319L662.44 65.3881ZM640.915 21.12H658.675V17.12H640.915V21.12ZM656.798 19.8101L668.798 52.4501L672.552 51.0699L660.552 18.4299L656.798 19.8101ZM672.586 52.3501L682.666 19.7101L678.844 18.5299L668.764 51.1699L672.586 52.3501ZM680.755 21.12H698.515V17.12H680.755V21.12ZM696.635 18.4365L677.435 71.2365L681.195 72.6035L700.395 19.8035L696.635 18.4365ZM677.438 71.2308C675.656 76.0848 673.414 79.5644 670.803 81.8348L673.427 84.8532C676.704 82.0037 679.262 77.8672 681.192 72.6092L677.438 71.2308ZM670.784 81.851C668.301 84.0646 664.823 85.28 660.115 85.28V89.28C665.519 89.28 670.041 87.8714 673.446 84.837L670.784 81.851Z" fill="white" fill-opacity="0.06"/>
</svg>
