<svg width="1049" height="131" viewBox="0 0 1049 131" fill="none" xmlns="http://www.w3.org/2000/svg">
<path d="M86.3925 2.19999L88.325 1.68467L87.9291 0.199993H86.3925V2.19999ZM103.673 67L101.74 67.5153L105.62 67.4545L103.673 67ZM118.793 2.19999V0.199993H117.205L116.845 1.74553L118.793 2.19999ZM146.873 2.19999L148.803 2.7239L149.488 0.199993H146.873V2.19999ZM119.513 103V105H121.042L121.443 103.524L119.513 103ZM92.1525 103L90.2245 103.532L90.6295 105H92.1525V103ZM74.8725 40.36L76.8005 39.8281L74.8725 32.8392L72.9445 39.8281L74.8725 40.36ZM57.5925 103V105H59.1155L59.5205 103.532L57.5925 103ZM30.2325 103L28.3023 103.524L28.703 105H30.2325V103ZM2.8725 2.19999V0.199993H0.257278L0.942337 2.7239L2.8725 2.19999ZM30.9525 2.19999L32.9002 1.74553L32.5396 0.199993H30.9525V2.19999ZM46.0725 67L44.1248 67.4545L48.005 67.5153L46.0725 67ZM63.3525 2.19999V0.199993H61.8159L61.42 1.68467L63.3525 2.19999ZM84.46 2.71532L101.74 67.5153L105.605 66.4847L88.325 1.68467L84.46 2.71532ZM105.62 67.4545L120.74 2.65445L116.845 1.74553L101.725 66.5455L105.62 67.4545ZM118.793 4.19999H146.873V0.199993H118.793V4.19999ZM144.942 1.67609L117.582 102.476L121.443 103.524L148.803 2.7239L144.942 1.67609ZM119.513 101H92.1525V105H119.513V101ZM94.0805 102.468L76.8005 39.8281L72.9445 40.8919L90.2245 103.532L94.0805 102.468ZM72.9445 39.8281L55.6645 102.468L59.5205 103.532L76.8005 40.8919L72.9445 39.8281ZM57.5925 101H30.2325V105H57.5925V101ZM32.1627 102.476L4.80266 1.67609L0.942337 2.7239L28.3023 103.524L32.1627 102.476ZM2.8725 4.19999H30.9525V0.199993H2.8725V4.19999ZM29.0048 2.65445L44.1248 67.4545L48.0202 66.5455L32.9002 1.74553L29.0048 2.65445ZM48.005 67.5153L65.285 2.71532L61.42 1.68467L44.14 66.4847L48.005 67.5153ZM63.3525 4.19999H86.3925V0.199993H63.3525V4.19999ZM177.9 28.12H175.9V30.5744L178.304 30.0788L177.9 28.12ZM224.556 31.144L223.142 32.5582L224.556 31.144ZM230.46 103V105H232.46V103H230.46ZM205.26 103H203.26V105H205.26V103ZM185.1 45.256L184.852 43.2714L184.844 43.2724L185.1 45.256ZM177.9 46.12L177.691 44.131L175.9 44.3195V46.12H177.9ZM177.9 103V105H179.9V103H177.9ZM152.7 103H150.7V105H152.7V103ZM152.7 2.19999V0.199993H150.7V2.19999H152.7ZM177.9 2.19999H179.9V0.199993H177.9V2.19999ZM178.304 30.0788C187.527 28.1772 195.546 27.24 202.38 27.24V23.24C195.198 23.24 186.897 24.2228 177.496 26.1612L178.304 30.0788ZM202.38 27.24H208.86V23.24H202.38V27.24ZM208.86 27.24C214.956 27.24 219.645 29.0618 223.142 32.5582L225.97 29.7298C221.595 25.3542 215.82 23.24 208.86 23.24V27.24ZM223.142 32.5582C226.638 36.0546 228.46 40.7436 228.46 46.84H232.46C232.46 39.8803 230.346 34.1054 225.97 29.7298L223.142 32.5582ZM228.46 46.84V103H232.46V46.84H228.46ZM230.46 101H205.26V105H230.46V101ZM207.26 103V49.72H203.26V103H207.26ZM207.26 49.72C207.26 47.7853 206.594 46.0654 205.234 44.7058L202.406 47.5342C202.966 48.0946 203.26 48.7747 203.26 49.72H207.26ZM205.234 44.7058C203.875 43.3462 202.155 42.68 200.22 42.68V46.68C201.165 46.68 201.845 46.9738 202.406 47.5342L205.234 44.7058ZM200.22 42.68H195.18V46.68H200.22V42.68ZM195.18 42.68C191.463 42.68 188.019 42.8755 184.852 43.2714L185.348 47.2406C188.325 46.8685 191.601 46.68 195.18 46.68V42.68ZM184.844 43.2724C181.875 43.6555 179.492 43.9413 177.691 44.131L178.109 48.109C179.956 47.9147 182.373 47.6245 185.356 47.2396L184.844 43.2724ZM175.9 46.12V103H179.9V46.12H175.9ZM177.9 101H152.7V105H177.9V101ZM154.7 103V2.19999H150.7V103H154.7ZM152.7 4.19999H177.9V0.199993H152.7V4.19999ZM175.9 2.19999V28.12H179.9V2.19999H175.9ZM290.923 81.4L291.495 83.3164L292.923 82.8902V81.4H290.923ZM290.923 72.76H292.923V70.76H290.923V72.76ZM266.443 74.2L267.857 75.6142L266.443 74.2ZM266.443 82.84L265.029 84.2542L266.443 82.84ZM247.003 28.12L246.786 26.1318L245.003 26.3267V28.12H247.003ZM310.219 31.144L308.805 32.5582L310.219 31.144ZM316.123 103V105H318.123V103H316.123ZM293.803 103L291.842 103.392L292.164 105H293.803V103ZM292.363 95.8L294.324 95.4078L293.742 92.4949L291.262 94.1305L292.363 95.8ZM278.395 102.424L278.945 104.347L278.957 104.343L278.97 104.34L278.395 102.424ZM245.707 98.536L244.293 99.9502L245.707 98.536ZM245.707 60.664L247.121 62.0782L245.707 60.664ZM290.923 54.76V56.76H292.923V54.76H290.923ZM289.483 45.4L288.069 46.8142V46.8142L289.483 45.4ZM265.147 44.824L264.996 42.8297L264.994 42.8299L265.147 44.824ZM247.003 46.12H245.003V48.2489L247.128 48.1161L247.003 46.12ZM273.643 86.28C278.975 86.28 284.933 85.2753 291.495 83.3164L290.351 79.4836C284.049 81.3647 278.487 82.28 273.643 82.28V86.28ZM292.923 81.4V72.76H288.923V81.4H292.923ZM290.923 70.76H270.043V74.76H290.923V70.76ZM270.043 70.76C268.108 70.76 266.388 71.4262 265.029 72.7858L267.857 75.6142C268.418 75.0538 269.098 74.76 270.043 74.76V70.76ZM265.029 72.7858C263.669 74.1454 263.003 75.8653 263.003 77.8H267.003C267.003 76.8547 267.297 76.1746 267.857 75.6142L265.029 72.7858ZM263.003 77.8V79.24H267.003V77.8H263.003ZM263.003 79.24C263.003 81.1747 263.669 82.8946 265.029 84.2542L267.857 81.4258C267.297 80.8654 267.003 80.1853 267.003 79.24H263.003ZM265.029 84.2542C266.389 85.6138 268.108 86.28 270.043 86.28V82.28C269.098 82.28 268.418 81.9862 267.857 81.4258L265.029 84.2542ZM270.043 86.28H273.643V82.28H270.043V86.28ZM247.22 30.1082C264.733 28.1942 280.499 27.24 294.523 27.24V23.24C280.323 23.24 264.409 24.2058 246.786 26.1318L247.22 30.1082ZM294.523 27.24C300.619 27.24 305.309 29.0618 308.805 32.5582L311.633 29.7298C307.258 25.3542 301.483 23.24 294.523 23.24V27.24ZM308.805 32.5582C312.301 36.0546 314.123 40.7436 314.123 46.84H318.123C318.123 39.8803 316.009 34.1054 311.633 29.7298L308.805 32.5582ZM314.123 46.84V103H318.123V46.84H314.123ZM316.123 101H293.803V105H316.123V101ZM295.764 102.608L294.324 95.4078L290.402 96.1922L291.842 103.392L295.764 102.608ZM291.262 94.1305C286.9 97.0076 282.42 99.1285 277.82 100.508L278.97 104.34C283.97 102.839 288.802 100.544 293.464 97.4695L291.262 94.1305ZM277.846 100.501C273.241 101.817 269.454 102.44 266.443 102.44V106.44C269.961 106.44 274.141 105.719 278.945 104.347L277.846 100.501ZM266.443 102.44H261.403V106.44H266.443V102.44ZM261.403 102.44C255.307 102.44 250.618 100.618 247.121 97.1218L244.293 99.9502C248.669 104.326 254.443 106.44 261.403 106.44V102.44ZM247.121 97.1218C243.625 93.6254 241.803 88.9364 241.803 82.84H237.803C237.803 89.7996 239.917 95.5746 244.293 99.9502L247.121 97.1218ZM241.803 82.84V76.36H237.803V82.84H241.803ZM241.803 76.36C241.803 70.2636 243.625 65.5746 247.121 62.0782L244.293 59.2498C239.917 63.6254 237.803 69.4004 237.803 76.36H241.803ZM247.121 62.0782C250.618 58.5818 255.307 56.76 261.403 56.76V52.76C254.443 52.76 248.669 54.8742 244.293 59.2498L247.121 62.0782ZM261.403 56.76H290.923V52.76H261.403V56.76ZM292.923 54.76V49H288.923V54.76H292.923ZM292.923 49C292.923 47.0653 292.257 45.3454 290.897 43.9858L288.069 46.8142C288.629 47.3746 288.923 48.0547 288.923 49H292.923ZM290.897 43.9858C289.538 42.6262 287.818 41.96 285.883 41.96V45.96C286.828 45.96 287.509 46.2538 288.069 46.8142L290.897 43.9858ZM285.883 41.96C279.583 41.96 272.62 42.2507 264.996 42.8297L265.299 46.8183C272.843 46.2453 279.703 45.96 285.883 45.96V41.96ZM264.994 42.8299C257.51 43.4055 251.473 43.8367 246.878 44.1239L247.128 48.1161C251.749 47.8273 257.808 47.3944 265.301 46.8181L264.994 42.8299ZM249.003 46.12V28.12H245.003V46.12H249.003ZM382.324 103L382.529 104.989L384.324 104.804V103H382.324ZM339.268 98.536L340.682 97.1218L339.268 98.536ZM333.364 46.12H335.364V44.12H333.364V46.12ZM324.724 46.12H322.724V48.12H324.724V46.12ZM324.724 26.68V24.68H322.724V26.68H324.724ZM333.364 26.68V28.68H335.058L335.337 27.0088L333.364 26.68ZM336.244 9.39999V7.39999H334.549L334.271 9.0712L336.244 9.39999ZM358.564 9.39999H360.564V7.39999H358.564V9.39999ZM358.564 26.68H356.564V28.68H358.564V26.68ZM376.564 26.68H378.564V24.68H376.564V26.68ZM376.564 46.12V48.12H378.564V46.12H376.564ZM358.564 46.12V44.12H356.564V46.12H358.564ZM360.004 82.84L358.59 84.2542L360.004 82.84ZM382.324 84.28H384.324V82.28H382.324V84.28ZM382.119 101.011C372.872 101.964 363.82 102.44 354.964 102.44V106.44C363.963 106.44 373.152 105.956 382.529 104.989L382.119 101.011ZM354.964 102.44C348.867 102.44 344.178 100.618 340.682 97.1218L337.854 99.9502C342.229 104.326 348.004 106.44 354.964 106.44V102.44ZM340.682 97.1218C337.186 93.6254 335.364 88.9364 335.364 82.84H331.364C331.364 89.7996 333.478 95.5746 337.854 99.9502L340.682 97.1218ZM335.364 82.84V46.12H331.364V82.84H335.364ZM333.364 44.12H324.724V48.12H333.364V44.12ZM326.724 46.12V26.68H322.724V46.12H326.724ZM324.724 28.68H333.364V24.68H324.724V28.68ZM335.337 27.0088L338.217 9.72879L334.271 9.0712L331.391 26.3512L335.337 27.0088ZM336.244 11.4H358.564V7.39999H336.244V11.4ZM356.564 9.39999V26.68H360.564V9.39999H356.564ZM358.564 28.68H376.564V24.68H358.564V28.68ZM374.564 26.68V46.12H378.564V26.68H374.564ZM376.564 44.12H358.564V48.12H376.564V44.12ZM356.564 46.12V79.24H360.564V46.12H356.564ZM356.564 79.24C356.564 81.1747 357.23 82.8946 358.59 84.2542L361.418 81.4258C360.858 80.8654 360.564 80.1853 360.564 79.24H356.564ZM358.59 84.2542C359.949 85.6138 361.669 86.28 363.604 86.28V82.28C362.658 82.28 361.978 81.9862 361.418 81.4258L358.59 84.2542ZM363.604 86.28H382.324V82.28H363.604V86.28ZM380.324 84.28V103H384.324V84.28H380.324ZM488.918 103L489.123 104.989L490.918 104.804V103H488.918ZM445.862 98.536L447.276 97.1218L445.862 98.536ZM439.957 46.12H441.957V44.12H439.957V46.12ZM431.318 46.12H429.318V48.12H431.318V46.12ZM431.318 26.68V24.68H429.318V26.68H431.318ZM439.957 26.68V28.68H441.652L441.93 27.0088L439.957 26.68ZM442.837 9.39999V7.39999H441.143L440.865 9.0712L442.837 9.39999ZM465.158 9.39999H467.158V7.39999H465.158V9.39999ZM465.158 26.68H463.158V28.68H465.158V26.68ZM483.158 26.68H485.158V24.68H483.158V26.68ZM483.158 46.12V48.12H485.158V46.12H483.158ZM465.158 46.12V44.12H463.158V46.12H465.158ZM466.598 82.84L465.183 84.2542L466.598 82.84ZM488.918 84.28H490.918V82.28H488.918V84.28ZM488.712 101.011C479.465 101.964 470.414 102.44 461.557 102.44V106.44C470.557 106.44 479.746 105.956 489.123 104.989L488.712 101.011ZM461.557 102.44C455.461 102.44 450.772 100.618 447.276 97.1218L444.447 99.9502C448.823 104.326 454.598 106.44 461.557 106.44V102.44ZM447.276 97.1218C443.779 93.6254 441.957 88.9364 441.957 82.84H437.957C437.957 89.7996 440.072 95.5746 444.447 99.9502L447.276 97.1218ZM441.957 82.84V46.12H437.957V82.84H441.957ZM439.957 44.12H431.318V48.12H439.957V44.12ZM433.318 46.12V26.68H429.318V46.12H433.318ZM431.318 28.68H439.957V24.68H431.318V28.68ZM441.93 27.0088L444.81 9.72879L440.865 9.0712L437.985 26.3512L441.93 27.0088ZM442.837 11.4H465.158V7.39999H442.837V11.4ZM463.158 9.39999V26.68H467.158V9.39999H463.158ZM465.158 28.68H483.158V24.68H465.158V28.68ZM481.158 26.68V46.12H485.158V26.68H481.158ZM483.158 44.12H465.158V48.12H483.158V44.12ZM463.158 46.12V79.24H467.158V46.12H463.158ZM463.158 79.24C463.158 81.1747 463.824 82.8946 465.183 84.2542L468.012 81.4258C467.451 80.8654 467.158 80.1853 467.158 79.24H463.158ZM465.183 84.2542C466.543 85.6138 468.263 86.28 470.198 86.28V82.28C469.252 82.28 468.572 81.9862 468.012 81.4258L465.183 84.2542ZM470.198 86.28H488.918V82.28H470.198V86.28ZM486.918 84.28V103H490.918V84.28H486.918ZM524.259 28.12H522.259V30.5744L524.663 30.0788L524.259 28.12ZM570.915 31.144L569.501 32.5582L570.915 31.144ZM576.819 103V105H578.819V103H576.819ZM551.619 103H549.619V105H551.619V103ZM531.459 45.256L531.211 43.2714L531.203 43.2724L531.459 45.256ZM524.259 46.12L524.05 44.131L522.259 44.3195V46.12H524.259ZM524.259 103V105H526.259V103H524.259ZM499.059 103H497.059V105H499.059V103ZM499.059 2.19999V0.199993H497.059V2.19999H499.059ZM524.259 2.19999H526.259V0.199993H524.259V2.19999ZM524.663 30.0788C533.886 28.1772 541.905 27.24 548.739 27.24V23.24C541.557 23.24 533.257 24.2228 523.856 26.1612L524.663 30.0788ZM548.739 27.24H555.219V23.24H548.739V27.24ZM555.219 27.24C561.316 27.24 566.005 29.0618 569.501 32.5582L572.33 29.7298C567.954 25.3542 562.179 23.24 555.219 23.24V27.24ZM569.501 32.5582C572.998 36.0546 574.819 40.7436 574.819 46.84H578.819C578.819 39.8803 576.705 34.1054 572.33 29.7298L569.501 32.5582ZM574.819 46.84V103H578.819V46.84H574.819ZM576.819 101H551.619V105H576.819V101ZM553.619 103V49.72H549.619V103H553.619ZM553.619 49.72C553.619 47.7853 552.953 46.0654 551.594 44.7058L548.765 47.5342C549.326 48.0946 549.619 48.7747 549.619 49.72H553.619ZM551.594 44.7058C550.234 43.3462 548.514 42.68 546.579 42.68V46.68C547.525 46.68 548.205 46.9738 548.765 47.5342L551.594 44.7058ZM546.579 42.68H541.539V46.68H546.579V42.68ZM541.539 42.68C537.823 42.68 534.379 42.8755 531.211 43.2714L531.707 47.2406C534.684 46.8685 537.96 46.68 541.539 46.68V42.68ZM531.203 43.2724C528.235 43.6555 525.852 43.9413 524.05 44.131L524.469 48.109C526.315 47.9147 528.732 47.6245 531.715 47.2396L531.203 43.2724ZM522.259 46.12V103H526.259V46.12H522.259ZM524.259 101H499.059V105H524.259V101ZM501.059 103V2.19999H497.059V103H501.059ZM499.059 4.19999H524.259V0.199993H499.059V4.19999ZM522.259 2.19999V28.12H526.259V2.19999H522.259ZM613.523 56.92H611.523V58.92H613.523V56.92ZM638.003 56.92V58.92H640.003V56.92H638.003ZM660.323 101.56L660.529 103.549L662.323 103.363V101.56H660.323ZM594.227 98.536L592.812 99.9502H592.812L594.227 98.536ZM594.37 31.432L595.785 32.8462L594.37 31.432ZM657.01 31.432L655.58 32.8295L655.596 32.8463L655.613 32.8628L657.01 31.432ZM663.203 74.92V76.92H665.203V74.92H663.203ZM613.523 74.92V72.92H611.523V74.92H613.523ZM614.963 84.28L616.377 82.8658L614.963 84.28ZM660.323 83.56H662.323V81.3968L660.166 81.5661L660.323 83.56ZM619.283 41.24C617.054 41.24 615.016 41.7984 613.548 43.2658C612.081 44.7331 611.523 46.7717 611.523 49H615.523C615.523 47.3883 615.924 46.5469 616.377 46.0942C616.829 45.6416 617.671 45.24 619.283 45.24V41.24ZM611.523 49V56.92H615.523V49H611.523ZM613.523 58.92H638.003V54.92H613.523V58.92ZM640.003 56.92V49H636.003V56.92H640.003ZM640.003 49C640.003 46.7717 639.444 44.7331 637.977 43.2658C636.509 41.7984 634.471 41.24 632.242 41.24V45.24C633.854 45.24 634.696 45.6416 635.148 46.0942C635.601 46.5469 636.003 47.3883 636.003 49H640.003ZM632.242 41.24H619.283V45.24H632.242V41.24ZM660.116 99.5706C641.642 101.485 624.912 102.44 609.922 102.44V106.44C625.077 106.44 641.947 105.475 660.529 103.549L660.116 99.5706ZM609.922 102.44C603.826 102.44 599.137 100.618 595.641 97.1218L592.812 99.9502C597.188 104.326 602.963 106.44 609.922 106.44V102.44ZM595.641 97.1218C592.144 93.6254 590.323 88.9364 590.323 82.84H586.323C586.323 89.7996 588.437 95.5746 592.812 99.9502L595.641 97.1218ZM590.323 82.84V48.28H586.323V82.84H590.323ZM590.323 48.28C590.323 41.4637 592.22 36.4108 595.785 32.8462L592.956 30.0178C588.457 34.5172 586.323 40.6963 586.323 48.28H590.323ZM595.785 32.8462C599.454 29.1769 604.562 27.24 611.362 27.24V23.24C603.763 23.24 597.543 25.4311 592.956 30.0178L595.785 32.8462ZM611.362 27.24H640.162V23.24H611.362V27.24ZM640.162 27.24C646.965 27.24 652.013 29.1775 655.58 32.8295L658.441 30.0345C653.944 25.4305 647.76 23.24 640.162 23.24V27.24ZM655.613 32.8628C659.265 36.4298 661.203 41.477 661.203 48.28H665.203C665.203 40.683 663.012 34.4982 658.408 30.0012L655.613 32.8628ZM661.203 48.28V74.92H665.203V48.28H661.203ZM663.203 72.92H613.523V76.92H663.203V72.92ZM611.523 74.92V80.68H615.523V74.92H611.523ZM611.523 80.68C611.523 82.6147 612.189 84.3346 613.548 85.6942L616.377 82.8658C615.816 82.3054 615.523 81.6253 615.523 80.68H611.523ZM613.548 85.6942C614.908 87.0538 616.628 87.72 618.562 87.72V83.72C617.617 83.72 616.937 83.4262 616.377 82.8658L613.548 85.6942ZM618.562 87.72C628.147 87.72 642.13 86.9949 660.479 85.5539L660.166 81.5661C641.844 83.0051 627.986 83.72 618.562 83.72V87.72ZM658.323 83.56V101.56H662.323V83.56H658.323ZM676.14 127.48H674.14V129.237L675.882 129.463L676.14 127.48ZM676.14 108.76V106.76H674.14V108.76H676.14ZM696.156 105.736L694.419 104.744L694.401 104.776L694.384 104.808L696.156 105.736ZM695.58 97.24L693.735 98.0119L693.737 98.0161L695.58 97.24ZM666.06 26.68V24.68H663.055L664.215 27.4519L666.06 26.68ZM692.7 26.68L694.577 25.9899L694.096 24.68H692.7V26.68ZM710.7 75.64L708.823 76.3301L710.865 81.8843L712.611 76.2301L710.7 75.64ZM725.82 26.68V24.68H724.344L723.909 26.0898L725.82 26.68ZM752.46 26.68L754.34 27.3635L755.315 24.68H752.46V26.68ZM723.66 105.88L725.538 106.569L725.54 106.563L723.66 105.88ZM712.86 123.016L711.548 121.507L711.538 121.515L711.529 121.523L712.86 123.016ZM694.86 126.92C689.888 126.92 683.74 126.45 676.398 125.497L675.882 129.463C683.324 130.43 689.656 130.92 694.86 130.92V126.92ZM678.14 127.48V108.76H674.14V127.48H678.14ZM676.14 110.76H689.1V106.76H676.14V110.76ZM689.1 110.76C693.01 110.76 696.349 109.678 697.928 106.664L694.384 104.808C693.851 105.826 692.487 106.76 689.1 106.76V110.76ZM697.893 106.728C699.517 103.885 699.034 100.29 697.423 96.4639L693.737 98.0161C695.198 101.486 695.099 103.555 694.419 104.744L697.893 106.728ZM697.425 96.4681L667.905 25.9081L664.215 27.4519L693.735 98.0119L697.425 96.4681ZM666.06 28.68H692.7V24.68H666.06V28.68ZM690.823 27.3701L708.823 76.3301L712.577 74.9499L694.577 25.9899L690.823 27.3701ZM712.611 76.2301L727.731 27.2701L723.909 26.0898L708.789 75.0499L712.611 76.2301ZM725.82 28.68H752.46V24.68H725.82V28.68ZM750.58 25.9965L721.78 105.197L725.54 106.563L754.34 27.3635L750.58 25.9965ZM721.783 105.191C719.073 112.573 715.631 117.956 711.548 121.507L714.172 124.525C718.921 120.396 722.679 114.355 725.537 106.569L721.783 105.191ZM711.529 121.523C707.574 125.049 702.096 126.92 694.86 126.92V130.92C702.792 130.92 709.314 128.855 714.191 124.509L711.529 121.523ZM797.117 82.84L797.264 80.8454L795.117 80.6868V82.84H797.117ZM846.797 83.56L848.211 84.9742L846.797 83.56ZM848.237 74.92H850.237V72.92H848.237V74.92ZM801.581 69.016L802.995 67.6018L801.581 69.016ZM801.581 32.584L802.995 33.9982L801.581 32.584ZM866.237 26.68H868.237V24.68H866.237V26.68ZM866.237 45.4V47.4H868.237V45.4H866.237ZM822.317 46.84L823.731 48.2542L822.317 46.84ZM822.317 54.04L820.903 55.4542V55.4542L822.317 54.04ZM867.533 61.384L868.947 59.9698L867.533 61.384ZM867.533 98.536L868.947 99.9502L867.533 98.536ZM797.117 101.56H795.117V103.373L796.921 103.55L797.117 101.56ZM796.969 84.8346C816.476 86.276 831.893 87 843.197 87V83C832.037 83 816.733 82.284 797.264 80.8454L796.969 84.8346ZM843.197 87C845.132 87 846.852 86.3338 848.211 84.9742L845.383 82.1458C844.822 82.7062 844.142 83 843.197 83V87ZM848.211 84.9742C849.571 83.6146 850.237 81.8947 850.237 79.96H846.237C846.237 80.9053 845.943 81.5854 845.383 82.1458L848.211 84.9742ZM850.237 79.96V74.92H846.237V79.96H850.237ZM848.237 72.92H817.277V76.92H848.237V72.92ZM817.277 72.92C811.181 72.92 806.492 71.0982 802.995 67.6018L800.167 70.4302C804.542 74.8058 810.317 76.92 817.277 76.92V72.92ZM802.995 67.6018C799.499 64.1054 797.677 59.4164 797.677 53.32H793.677C793.677 60.2796 795.791 66.0546 800.167 70.4302L802.995 67.6018ZM797.677 53.32V48.28H793.677V53.32H797.677ZM797.677 48.28C797.677 42.1836 799.499 37.4946 802.995 33.9982L800.167 31.1698C795.791 35.5454 793.677 41.3204 793.677 48.28H797.677ZM802.995 33.9982C806.492 30.5018 811.181 28.68 817.277 28.68V24.68C810.317 24.68 804.542 26.7942 800.167 31.1698L802.995 33.9982ZM817.277 28.68H866.237V24.68H817.277V28.68ZM864.237 26.68V45.4H868.237V26.68H864.237ZM866.237 43.4H825.917V47.4H866.237V43.4ZM825.917 43.4C823.982 43.4 822.262 44.0662 820.903 45.4258L823.731 48.2542C824.292 47.6938 824.972 47.4 825.917 47.4V43.4ZM820.903 45.4258C819.543 46.7854 818.877 48.5053 818.877 50.44H822.877C822.877 49.4947 823.171 48.8146 823.731 48.2542L820.903 45.4258ZM818.877 50.44C818.877 52.3747 819.543 54.0946 820.903 55.4542L823.731 52.6258C823.171 52.0654 822.877 51.3853 822.877 50.44H818.877ZM820.903 55.4542C822.262 56.8138 823.982 57.48 825.917 57.48V53.48C824.972 53.48 824.292 53.1862 823.731 52.6258L820.903 55.4542ZM825.917 57.48H851.837V53.48H825.917V57.48ZM851.837 57.48C857.933 57.48 862.622 59.3018 866.119 62.7982L868.947 59.9698C864.572 55.5942 858.797 53.48 851.837 53.48V57.48ZM866.119 62.7982C869.615 66.2946 871.437 70.9836 871.437 77.08H875.437C875.437 70.1204 873.323 64.3454 868.947 59.9698L866.119 62.7982ZM871.437 77.08V82.84H875.437V77.08H871.437ZM871.437 82.84C871.437 88.9364 869.615 93.6254 866.119 97.1218L868.947 99.9502C873.323 95.5746 875.437 89.7996 875.437 82.84H871.437ZM866.119 97.1218C862.622 100.618 857.933 102.44 851.837 102.44V106.44C858.797 106.44 864.572 104.326 868.947 99.9502L866.119 97.1218ZM851.837 102.44C834.919 102.44 816.745 101.484 797.313 99.5696L796.921 103.55C816.464 105.476 834.77 106.44 851.837 106.44V102.44ZM799.117 101.56V82.84H795.117V101.56H799.117ZM931.048 81.4L931.62 83.3164L933.048 82.8902V81.4H931.048ZM931.048 72.76H933.048V70.76H931.048V72.76ZM906.568 74.2L907.982 75.6142L906.568 74.2ZM906.568 82.84L905.154 84.2542L906.568 82.84ZM887.128 28.12L886.911 26.1318L885.128 26.3267V28.12H887.128ZM950.344 31.144L948.93 32.5582L950.344 31.144ZM956.248 103V105H958.248V103H956.248ZM933.928 103L931.967 103.392L932.289 105H933.928V103ZM932.488 95.8L934.449 95.4078L933.867 92.4949L931.387 94.1305L932.488 95.8ZM918.52 102.424L919.07 104.347L919.082 104.343L919.095 104.34L918.52 102.424ZM885.832 98.536L884.418 99.9502L885.832 98.536ZM885.832 60.664L887.246 62.0782L885.832 60.664ZM931.048 54.76V56.76H933.048V54.76H931.048ZM929.608 45.4L928.194 46.8142V46.8142L929.608 45.4ZM905.272 44.824L905.121 42.8297L905.119 42.8299L905.272 44.824ZM887.128 46.12H885.128V48.2489L887.253 48.1161L887.128 46.12ZM913.768 86.28C919.1 86.28 925.058 85.2753 931.62 83.3164L930.476 79.4836C924.174 81.3647 918.612 82.28 913.768 82.28V86.28ZM933.048 81.4V72.76H929.048V81.4H933.048ZM931.048 70.76H910.168V74.76H931.048V70.76ZM910.168 70.76C908.233 70.76 906.513 71.4262 905.154 72.7858L907.982 75.6142C908.543 75.0538 909.223 74.76 910.168 74.76V70.76ZM905.154 72.7858C903.794 74.1454 903.128 75.8653 903.128 77.8H907.128C907.128 76.8547 907.422 76.1746 907.982 75.6142L905.154 72.7858ZM903.128 77.8V79.24H907.128V77.8H903.128ZM903.128 79.24C903.128 81.1747 903.794 82.8946 905.154 84.2542L907.982 81.4258C907.422 80.8654 907.128 80.1853 907.128 79.24H903.128ZM905.154 84.2542C906.513 85.6138 908.233 86.28 910.168 86.28V82.28C909.223 82.28 908.543 81.9862 907.982 81.4258L905.154 84.2542ZM910.168 86.28H913.768V82.28H910.168V86.28ZM887.345 30.1082C904.858 28.1942 920.624 27.24 934.648 27.24V23.24C920.448 23.24 904.534 24.2058 886.911 26.1318L887.345 30.1082ZM934.648 27.24C940.745 27.24 945.433 29.0618 948.93 32.5582L951.758 29.7298C947.383 25.3542 941.608 23.24 934.648 23.24V27.24ZM948.93 32.5582C952.426 36.0546 954.248 40.7436 954.248 46.84H958.248C958.248 39.8803 956.134 34.1054 951.758 29.7298L948.93 32.5582ZM954.248 46.84V103H958.248V46.84H954.248ZM956.248 101H933.928V105H956.248V101ZM935.889 102.608L934.449 95.4078L930.527 96.1922L931.967 103.392L935.889 102.608ZM931.387 94.1305C927.025 97.0076 922.545 99.1285 917.945 100.508L919.095 104.34C924.095 102.839 928.927 100.544 933.589 97.4695L931.387 94.1305ZM917.971 100.501C913.366 101.817 909.579 102.44 906.568 102.44V106.44C910.086 106.44 914.266 105.719 919.07 104.347L917.971 100.501ZM906.568 102.44H901.528V106.44H906.568V102.44ZM901.528 102.44C895.432 102.44 890.743 100.618 887.246 97.1218L884.418 99.9502C888.794 104.326 894.568 106.44 901.528 106.44V102.44ZM887.246 97.1218C883.75 93.6254 881.928 88.9364 881.928 82.84H877.928C877.928 89.7996 880.042 95.5746 884.418 99.9502L887.246 97.1218ZM881.928 82.84V76.36H877.928V82.84H881.928ZM881.928 76.36C881.928 70.2636 883.75 65.5746 887.246 62.0782L884.418 59.2498C880.042 63.6254 877.928 69.4004 877.928 76.36H881.928ZM887.246 62.0782C890.743 58.5818 895.432 56.76 901.528 56.76V52.76C894.568 52.76 888.794 54.8742 884.418 59.2498L887.246 62.0782ZM901.528 56.76H931.048V52.76H901.528V56.76ZM933.048 54.76V49H929.048V54.76H933.048ZM933.048 49C933.048 47.0653 932.382 45.3454 931.022 43.9858L928.194 46.8142C928.754 47.3746 929.048 48.0547 929.048 49H933.048ZM931.022 43.9858C929.663 42.6262 927.943 41.96 926.008 41.96V45.96C926.953 45.96 927.633 46.2538 928.194 46.8142L931.022 43.9858ZM926.008 41.96C919.708 41.96 912.745 42.2507 905.121 42.8297L905.424 46.8183C912.968 46.2453 919.828 45.96 926.008 45.96V41.96ZM905.119 42.8299C897.635 43.4055 891.598 43.8367 887.003 44.1239L887.253 48.1161C891.874 47.8273 897.933 47.3944 905.426 46.8181L905.119 42.8299ZM889.128 46.12V28.12H885.128V46.12H889.128ZM969.203 127.48H967.203V129.237L968.945 129.463L969.203 127.48ZM969.203 108.76V106.76H967.203V108.76H969.203ZM989.219 105.736L987.482 104.744L987.464 104.776L987.447 104.808L989.219 105.736ZM988.643 97.24L986.797 98.0119L986.799 98.0161L988.643 97.24ZM959.122 26.68V24.68H956.118L957.277 27.4519L959.122 26.68ZM985.763 26.68L987.64 25.9899L987.158 24.68H985.763V26.68ZM1003.76 75.64L1001.89 76.3301L1003.93 81.8843L1005.67 76.2301L1003.76 75.64ZM1018.88 26.68V24.68H1017.41L1016.97 26.0898L1018.88 26.68ZM1045.52 26.68L1047.4 27.3635L1048.38 24.68H1045.52V26.68ZM1016.72 105.88L1018.6 106.569L1018.6 106.563L1016.72 105.88ZM1005.92 123.016L1004.61 121.507L1004.6 121.515L1004.59 121.523L1005.92 123.016ZM987.922 126.92C982.95 126.92 976.802 126.45 969.46 125.497L968.945 129.463C976.387 130.43 982.719 130.92 987.922 130.92V126.92ZM971.203 127.48V108.76H967.203V127.48H971.203ZM969.203 110.76H982.162V106.76H969.203V110.76ZM982.162 110.76C986.072 110.76 989.411 109.678 990.99 106.664L987.447 104.808C986.914 105.826 985.549 106.76 982.162 106.76V110.76ZM990.955 106.728C992.58 103.885 992.097 100.29 990.486 96.4639L986.799 98.0161C988.26 101.486 988.161 103.555 987.482 104.744L990.955 106.728ZM990.488 96.4681L960.968 25.9081L957.277 27.4519L986.797 98.0119L990.488 96.4681ZM959.122 28.68H985.763V24.68H959.122V28.68ZM983.885 27.3701L1001.89 76.3301L1005.64 74.9499L987.64 25.9899L983.885 27.3701ZM1005.67 76.2301L1020.79 27.2701L1016.97 26.0898L1001.85 75.0499L1005.67 76.2301ZM1018.88 28.68H1045.52V24.68H1018.88V28.68ZM1043.64 25.9965L1014.84 105.197L1018.6 106.563L1047.4 27.3635L1043.64 25.9965ZM1014.85 105.191C1012.14 112.573 1008.69 117.956 1004.61 121.507L1007.23 124.525C1011.98 120.396 1015.74 114.355 1018.6 106.569L1014.85 105.191ZM1004.59 121.523C1000.64 125.049 995.158 126.92 987.922 126.92V130.92C995.855 130.92 1002.38 128.855 1007.25 124.509L1004.59 121.523Z" fill="white" fill-opacity="0.06"/>
</svg>
