<svg width="28" height="25" viewBox="0 0 28 25" fill="none" xmlns="http://www.w3.org/2000/svg">
<path d="M25.1485 6.12511C25.1661 6.39391 25.1661 6.66277 25.1661 6.93157C25.1661 15.1304 19.4458 24.5773 8.99082 24.5773C5.76983 24.5773 2.77769 23.5596 0.260742 21.7932C0.718384 21.8508 1.15836 21.87 1.63361 21.87C4.29131 21.87 6.73788 20.8908 8.6916 19.2203C6.19226 19.1626 4.09774 17.377 3.37609 14.9192C3.72813 14.9768 4.08013 15.0152 4.44978 15.0152C4.9602 15.0152 5.47066 14.9384 5.94586 14.804C3.34092 14.2279 1.38716 11.7318 1.38716 8.71726V8.64048C2.14397 9.10131 3.02409 9.38932 3.95687 9.42768C2.42559 8.314 1.42237 6.41312 1.42237 4.26259C1.42237 3.11055 1.70394 2.05449 2.19679 1.13283C4.99536 4.89623 9.20201 7.35392 13.919 7.62279C13.831 7.16196 13.7782 6.68198 13.7782 6.20194C13.7782 2.78412 16.3128 0 19.4633 0C21.1002 0 22.5787 0.748839 23.6171 1.95851C24.902 1.6897 26.134 1.17125 27.2253 0.460828C26.8029 1.90094 25.9052 3.11061 24.726 3.87859C25.8701 3.74425 26.9789 3.39856 27.9998 2.91858C27.2255 4.14739 26.2573 5.24181 25.1485 6.12511Z" fill="#464646"/>
</svg>
