<svg width="116" height="89" fill="none" xmlns="http://www.w3.org/2000/svg"><circle cx="3.78" cy="85.1" r="3.78" transform="rotate(-90 3.78 85.1)" fill="#D9D9D9"/><circle cx="3.78" cy="57.994" r="3.78" transform="rotate(-90 3.78 57.994)" fill="#D9D9D9"/><circle cx="3.78" cy="30.887" r="3.78" transform="rotate(-90 3.78 30.887)" fill="#D9D9D9"/><circle cx="3.78" cy="3.78" r="3.78" transform="rotate(-90 3.78 3.78)" fill="#D9D9D9"/><circle cx="30.887" cy="85.1" r="3.78" transform="rotate(-90 30.887 85.1)" fill="#D9D9D9"/><circle cx="30.887" cy="57.994" r="3.78" transform="rotate(-90 30.887 57.994)" fill="#D9D9D9"/><circle cx="30.887" cy="30.887" r="3.78" transform="rotate(-90 30.887 30.887)" fill="#D9D9D9"/><circle cx="30.887" cy="3.78" r="3.78" transform="rotate(-90 30.887 3.78)" fill="#D9D9D9"/><circle cx="57.994" cy="85.1" r="3.78" transform="rotate(-90 57.994 85.1)" fill="#D9D9D9"/><circle cx="57.994" cy="57.994" r="3.78" transform="rotate(-90 57.994 57.994)" fill="#D9D9D9"/><circle cx="57.994" cy="30.887" r="3.78" transform="rotate(-90 57.994 30.887)" fill="#D9D9D9"/><circle cx="57.994" cy="3.78" r="3.78" transform="rotate(-90 57.994 3.78)" fill="#D9D9D9"/><circle cx="85.101" cy="85.1" r="3.78" transform="rotate(-90 85.1 85.1)" fill="#D9D9D9"/><circle cx="85.101" cy="57.994" r="3.78" transform="rotate(-90 85.1 57.994)" fill="#D9D9D9"/><circle cx="85.101" cy="30.887" r="3.78" transform="rotate(-90 85.1 30.887)" fill="#D9D9D9"/><circle cx="85.101" cy="3.78" r="3.78" transform="rotate(-90 85.1 3.78)" fill="#D9D9D9"/><circle cx="112.207" cy="85.1" r="3.78" transform="rotate(-90 112.207 85.1)" fill="#D9D9D9"/><circle cx="112.207" cy="57.994" r="3.78" transform="rotate(-90 112.207 57.994)" fill="#D9D9D9"/><circle cx="112.207" cy="30.887" r="3.78" transform="rotate(-90 112.207 30.887)" fill="#D9D9D9"/><circle cx="112.207" cy="3.78" r="3.78" transform="rotate(-90 112.207 3.78)" fill="#D9D9D9"/></svg>