<svg width="1458" height="132" fill="none" xmlns="http://www.w3.org/2000/svg"><path d="M-79.2 58.8h1v-3.832l-1.873 3.343.873.489zm-25.2 45v1h.586l.287-.511-.873-.489zm-25.2 0l-.873.489.287.511h.586v-1zm-25.2-45l.873-.489-1.873-3.343V58.8h1zm0 70.2v1h1v-1h-1zm-32.4 0h-1v1h1v-1zm0-126V2h-1v1h1zm34.2 0l.88-.476-.284-.524H-153v1zm36 66.6l-.88.476.88 1.627.88-1.627-.88-.476zM-81 3V2h-.596l-.284.524L-81 3zm34.2 0h1V2h-1v1zm0 126v1h1v-1h-1zm-32.4 0h-1v1h1v-1zm-.873-70.689l-25.199 45 1.745.978 25.2-45-1.746-.978zM-104.4 102.8h-25.2v2h25.2v-2zm-24.327.511l-25.2-45-1.746.978 25.2 45 1.746-.978zM-155.8 58.8V129h2V58.8h-2zm1 69.2h-32.4v2h32.4v-2zm-31.4 1V3h-2v126h2zm-1-125h34.2V2h-34.2v2zm33.32-.524l36 66.6 1.76-.951-36-66.6-1.76.95zm37.76 66.6l36-66.6-1.76-.952-36 66.6 1.76.952zM-81 4h34.2V2H-81v2zm33.2-1v126h2V3h-2zm1 125h-32.4v2h32.4v-2zm-31.4 1V58.8h-2V129h2zm75.57 0v1h.703l.238-.661-.94-.339zm-35.1 0l-.935-.354-.513 1.354h1.448v-1zM9.97 3V2h-.69l-.245.646L9.97 3zm36 0l.936-.354L46.66 2h-.69v1zm47.7 126v1h1.448l-.512-1.354-.936.354zm-35.1 0l-.94.339.237.661h.703v-1zm-8.1-22.5l.941-.339-.238-.661h-.703v1zm-45 0v-1h-.703l-.238.661.941.339zm8.1-23.4l-.946-.322-.45 1.322h1.396v-1zm28.8 0v1h1.397l-.45-1.322-.947.322zm-14.4-42.3l.947-.322-.947-2.781-.946 2.78.946.323zM-2.63 128h-35.1v2h35.1v-2zm-34.164 1.354l47.7-126-1.87-.708-47.7 126 1.87.708zM9.97 4h36V2h-36v2zm35.065-.646l47.7 126 1.87-.708-47.7-126-1.87.708zM93.67 128h-35.1v2h35.1v-2zm-34.159.661l-8.1-22.5-1.882.678 8.1 22.5 1.882-.678zm-9.04-23.161h-45v2h45v-2zm-45.942.661l-8.1 22.5 1.882.678 8.1-22.5-1.882-.678zM13.57 84.1h28.8v-2h-28.8v2zm29.747-1.322l-14.4-42.3-1.893.644 14.4 42.3 1.893-.644zm-16.293-42.3l-14.4 42.3 1.893.644 14.4-42.3-1.893-.644zM180.148 3V2h-1v1h1zm32.4 0h1V2h-1v1zm-8.64 119.34l-.707-.707.707.707zm-96.3 0l-.715.7.008.007.007.008.7-.715zM99.148 3V2h-1v1h1zm32.4 0h1V2h-1v1zm48.6 1h32.4V2h-32.4v2zm31.4-1v91.8h2V3h-2zm0 91.8c0 12.476-2.856 21.341-8.347 26.833l1.414 1.414c6.028-6.028 8.933-15.523 8.933-28.247h-2zm-8.347 26.833c-5.369 5.368-14.17 8.167-26.653 8.167v2c12.716 0 22.155-2.841 28.067-8.753l-1.414-1.414zm-26.653 8.167h-41.4v2h41.4v-2zm-41.4 0c-12.481 0-21.349-2.798-26.841-8.175l-1.399 1.43c6.029 5.903 15.521 8.745 28.24 8.745v-2zm-26.826-8.16c-5.377-5.491-8.174-14.359-8.174-26.84h-2c0 12.719 2.842 22.211 8.745 28.24l1.429-1.4zm-8.174-26.84V3h-2v91.8h2zm-1-90.8h32.4V2h-32.4v2zm31.4-1v91.8h2V3h-2zm0 91.8c0 3.754.939 6.753 2.993 8.807 2.053 2.054 5.053 2.993 8.807 2.993v-2c-3.446 0-5.847-.861-7.393-2.407-1.547-1.546-2.407-3.947-2.407-7.393h-2zm11.8 11.8h27v-2h-27v2zm27 0c3.754 0 6.753-.939 8.807-2.993 2.053-2.054 2.993-5.053 2.993-8.807h-2c0 3.446-.861 5.847-2.407 7.393-1.547 1.546-3.947 2.407-7.393 2.407v2zm11.8-11.8V3h-2v91.8h2zm162.8 34.2v1h1v-1h-1zm-34.2 0l-.869.496.288.504h.581v-1zm-43.2-75.6l.868-.496-1.868-3.27V53.4h1zm0 75.6v1h1v-1h-1zm-32.4 0h-1v1h1v-1zm0-126V2h-1v1h1zm34.2 0l.868-.496-.288-.504h-.58v1zm43.2 75.6l-.869.496 1.869 3.27V78.6h-1zm0-75.6V2h-1v1h1zm32.4 0h1V2h-1v1zm0 125h-34.2v2h34.2v-2zm-33.332.504l-43.2-75.6-1.737.992 43.2 75.6 1.737-.992zM265.548 53.4V129h2V53.4h-2zm1 74.6h-32.4v2h32.4v-2zm-31.4 1V3h-2v126h2zm-1-125h34.2V2h-34.2v2zm33.331-.504l43.2 75.6 1.737-.992-43.2-75.6-1.737.992zM312.548 78.6V3h-2v75.6h2zm-1-74.6h32.4V2h-32.4v2zm31.4-1v126h2V3h-2zm130.684 123.3l.106.994.894-.095v-.899h-1zm-103.32-3.78l.707-.707-.707.707zm.18-110.88l.707.707-.707-.707zM462.832 3h1V2h-1v1zm0 25.2v1h1v-1h-1zm-66.06 75.06l-.733.68.025.028.028.025.68-.733zm44.46 1.44l.053.999.947-.05v-.949h-1zm0-26.1h1v-1h-1v1zm-23.4 0h-1v1h1v-1zm0-21.6v-1h-1v1h1zm55.8 0h1v-1h-1v1zm-.106 68.306c-28.052 2.997-53.816 4.494-77.294 4.494v2c23.562 0 49.398-1.503 77.506-4.506l-.212-1.988zm-77.294 4.494c-11.627 0-19.957-2.731-25.213-7.987l-1.414 1.414c5.784 5.784 14.734 8.573 26.627 8.573v-2zm-25.213-7.987c-5.256-5.256-7.987-13.586-7.987-25.213h-2c0 11.893 2.789 20.843 8.573 26.627l1.414-1.414zM363.032 96.6V39h-2v57.6h2zm0-57.6c0-12.483 2.799-21.284 8.167-26.653l-1.414-1.414c-5.912 5.911-8.753 15.35-8.753 28.067h2zm8.167-26.653C376.691 6.855 385.556 4 398.032 4V2c-12.724 0-22.219 2.905-28.247 8.933l1.414 1.414zM398.032 4h64.8V2h-64.8v2zm63.8-1v25.2h2V3h-2zm1 24.2h-57.6v2h57.6v-2zm-57.6 0c-3.754 0-6.753.94-8.807 2.993-2.054 2.054-2.993 5.053-2.993 8.807h2c0-3.446.861-5.847 2.407-7.393 1.546-1.546 3.947-2.407 7.393-2.407v-2zm-11.8 11.8v57.6h2V39h-2zm0 57.6c0 2.958.842 5.439 2.607 7.34l1.466-1.36c-1.355-1.459-2.073-3.418-2.073-5.98h-2zm2.66 7.393c1.901 1.765 4.382 2.607 7.34 2.607v-2c-2.562 0-4.521-.718-5.979-2.073l-1.361 1.466zm7.34 2.607c13.814 0 26.432-.3 37.853-.901l-.105-1.998c-11.38.599-23.962.899-37.748.899v2zm38.8-1.9V78.6h-2v26.1h2zm-1-27.1h-23.4v2h23.4v-2zm-22.4 1V57h-2v21.6h2zm-1-20.6h55.8v-2h-55.8v2zm54.8-1v69.3h2V57h-2zm69.22 45.9l.055-.999-1.055-.057v1.056h1zm73.26.36l-.707-.707.707.707zm2.52-22.86h1v-1h-1v1zm-68.94-8.46l-.714.7.007.007.007.007.7-.714zm0-60.3l.707.707-.707-.707zM639.412 3h1V2h-1v1zm0 25.2v1h1v-1h-1zm2.34 94.32l-.707-.707.707.707zm-45.36 7.92l-.043.999h.008l.035-.999zm-16.56-.72l-.049.999h.006l.043-.999zm-37.98-2.52h-1v.921l.918.076.082-.997zm-.055-23.302c32.877 1.8 55.164 2.702 66.835 2.702v-2c-11.608 0-33.842-.898-66.725-2.699l-.11 1.997zm66.835 2.702c2.955 0 5.395-.841 7.187-2.633l-1.414-1.414c-1.328 1.328-3.208 2.047-5.773 2.047v2zm7.187-2.633c1.898-1.898 2.813-4.388 2.813-7.367h-2c0 2.541-.765 4.491-2.227 5.953l1.414 1.414zm2.813-7.367V80.4h-2v16.2h2zm-1-17.2h-41.4v2h41.4v-2zm-41.4 0c-12.481 0-21.349-2.798-26.84-8.175l-1.4 1.43c6.029 5.903 15.521 8.745 28.24 8.745v-2zm-26.825-8.16c-5.377-5.49-8.175-14.359-8.175-26.84h-2c0 12.719 2.842 22.21 8.746 28.24l1.429-1.4zm-8.175-26.84V39h-2v5.4h2zm0-5.4c0-12.483 2.799-21.284 8.167-26.653l-1.414-1.414c-5.912 5.911-8.753 15.35-8.753 28.067h2zm8.167-26.653C554.891 6.855 563.756 4 576.232 4V2c-12.724 0-22.219 2.905-28.247 8.933l1.414 1.414zM576.232 4h63.18V2h-63.18v2zm62.18-1v25.2h2V3h-2zm1 24.2h-55.98v2h55.98v-2zm-55.98 0c-3.754 0-6.753.94-8.807 2.993-2.054 2.054-2.993 5.053-2.993 8.807h2c0-3.446.861-5.847 2.407-7.393 1.546-1.546 3.947-2.407 7.393-2.407v-2zm-11.8 11.8v3.6h2V39h-2zm0 3.6c0 3.754.939 6.753 2.993 8.807 2.054 2.054 5.053 2.993 8.807 2.993v-2c-3.446 0-5.847-.86-7.393-2.407-1.546-1.546-2.407-3.947-2.407-7.393h-2zm11.8 11.8h32.4v-2h-32.4v2zm32.4 0c11.627 0 19.957 2.731 25.213 7.987l1.414-1.414c-5.784-5.784-14.734-8.573-26.627-8.573v2zm25.213 7.987c5.256 5.256 7.987 13.586 7.987 25.213h2c0-11.893-2.789-20.843-8.573-26.627l-1.414 1.414zm7.987 25.213v9h2v-9h-2zm0 9c0 11.627-2.731 19.957-7.987 25.213l1.414 1.414c5.784-5.784 8.573-14.734 8.573-26.627h-2zm-7.987 25.213c-5.256 5.256-13.586 7.987-25.213 7.987v2c11.893 0 20.843-2.789 26.627-8.573l-1.414-1.414zm-25.213 7.987c-6.107 0-12.575-.12-19.405-.359l-.07 1.998c6.85.241 13.342.361 19.475.361v-2zm-19.397-.359l-16.56-.72-.086 1.998 16.56.72.086-1.998zm-16.554-.72a1136.26 1136.26 0 01-37.947-2.518l-.164 1.994c13.09 1.08 25.761 1.921 38.013 2.522l.098-1.998zm-37.029-1.521v-24.3h-2v24.3h2zM666.218 3V2h-1v1h1zm102.96 8.64l-.715.7.008.007.007.008.7-.715zm0 72.9l.707.707-.707-.707zM698.618 93v-1h-1v1h1zm0 36v1h1v-1h-1zm-32.4 0h-1v1h1v-1zm32.4-100.8v-1h-1v1h1zm0 39.6h-1v1h1v-1zM666.218 4h75.6V2h-75.6v2zm75.6 0c12.479 0 21.276 2.856 26.645 8.34l1.429-1.4C763.982 4.904 754.539 2 741.818 2v2zm26.66 8.354c5.484 5.37 8.34 14.167 8.34 26.646h2c0-12.721-2.904-22.164-8.94-28.075l-1.4 1.43zM776.818 39v18h2V39h-2zm0 18c0 12.476-2.855 21.341-8.347 26.833l1.414 1.414c6.028-6.028 8.933-15.523 8.933-28.247h-2zm-8.347 26.833C763.102 89.2 754.302 92 741.818 92v2c12.716 0 22.156-2.841 28.067-8.753l-1.414-1.414zM741.818 92h-43.2v2h43.2v-2zm-44.2 1v36h2V93h-2zm1 35h-32.4v2h32.4v-2zm-31.4 1V3h-2v126h2zm79.2-90c0-3.754-.939-6.753-2.993-8.807-2.054-2.054-5.053-2.993-8.807-2.993v2c3.446 0 5.847.86 7.393 2.407 1.546 1.546 2.407 3.947 2.407 7.393h2zm-11.8-11.8h-36v2h36v-2zm-37 1v39.6h2V28.2h-2zm1 40.6h36v-2h-36v2zm36 0c3.754 0 6.753-.94 8.807-2.993 2.054-2.054 2.993-5.053 2.993-8.807h-2c0 3.446-.861 5.847-2.407 7.393-1.546 1.546-3.947 2.407-7.393 2.407v2zm11.8-11.8V39h-2v18h2zm152.353 65.34l-.707-.707.707.707zm-99.9 0l-.715.7.008.007.007.008.7-.715zm0-112.5l-.707-.707.707.707zm99.9 0l-.715.7.008.007.007.008.7-.715zm-22.76 27.36c0-3.754-.939-6.753-2.993-8.807-2.054-2.054-5.053-2.993-8.807-2.993v2c3.446 0 5.846.86 7.393 2.407 1.546 1.546 2.407 3.947 2.407 7.393h2zm-11.8-11.8h-30.6v2h30.6v-2zm-30.6 0c-3.754 0-6.753.94-8.807 2.993-2.054 2.054-2.993 5.053-2.993 8.807h2c0-3.446.861-5.847 2.407-7.393 1.546-1.546 3.947-2.407 7.393-2.407v-2zm-11.8 11.8v57.6h2V37.2h-2zm0 57.6c0 3.754.939 6.753 2.993 8.807 2.054 2.054 5.053 2.993 8.807 2.993v-2c-3.446 0-5.847-.861-7.393-2.407-1.546-1.546-2.407-3.947-2.407-7.393h-2zm11.8 11.8h30.6v-2h-30.6v2zm30.6 0c3.754 0 6.753-.939 8.807-2.993 2.054-2.054 2.993-5.053 2.993-8.807h-2c0 3.446-.861 5.847-2.407 7.393-1.547 1.546-3.947 2.407-7.393 2.407v2zm11.8-11.8V37.2h-2v57.6h2zm30.4 0c0 12.476-2.855 21.341-8.347 26.833l1.414 1.414c6.028-6.028 8.933-15.523 8.933-28.247h-2zm-8.347 26.833c-5.369 5.368-14.169 8.167-26.653 8.167v2c12.716 0 22.156-2.841 28.067-8.753l-1.414-1.414zm-26.653 8.167h-45v2h45v-2zm-45 0c-12.481 0-21.349-2.798-26.84-8.175l-1.4 1.43c6.029 5.903 15.521 8.745 28.24 8.745v-2zm-26.826-8.16c-5.376-5.491-8.174-14.359-8.174-26.84h-2c0 12.719 2.842 22.211 8.745 28.24l1.429-1.4zm-8.174-26.84V37.2h-2v57.6h2zm0-57.6c0-12.484 2.799-21.284 8.167-26.653l-1.414-1.414c-5.912 5.911-8.753 15.35-8.753 28.067h2zm8.167-26.653C805.07 5.055 813.935 2.2 826.411 2.2v-2c-12.724 0-22.219 2.905-28.247 8.933l1.414 1.414zM826.411 2.2h45v-2h-45v2zm45 0c12.479 0 21.276 2.856 26.645 8.34l1.429-1.4C893.574 3.104 884.132.2 871.411.2v2zm26.66 8.355c5.484 5.369 8.34 14.166 8.34 26.645h2c0-12.721-2.904-22.164-8.94-28.075l-1.4 1.43zm8.34 26.645v57.6h2V37.2h-2zM925.495 3V2h-1v1h1zm102.965 8.64l-.72.7.01.007.01.008.7-.715zm3.6 66.78l-.86-.52v.007l-.01.007.87.506zM1016.4 89.4l-.25-.97-1.27.32.65 1.144.87-.494zm22.5 39.6v1h1.71l-.85-1.494-.86.494zm-35.1 0l-.88.48.28.52h.6v-1zm-20.705-37.8l.877-.48-.284-.52h-.593v1zm-25.2 0v-1h-1v1h1zm0 37.8v1h1v-1h-1zm-32.4 0h-1v1h1v-1zm32.4-100.8v-1h-1v1h1zm0 37.8h-1v1h1v-1zm-32.4-62h75.605V2h-75.605v2zm75.605 0c12.47 0 21.27 2.856 26.64 8.34l1.43-1.4C1023.26 4.904 1013.82 2 1001.1 2v2zm26.66 8.354c5.48 5.37 8.34 14.167 8.34 26.646h2c0-12.721-2.91-22.164-8.95-28.075l-1.39 1.43zM1036.1 39v16.2h2V39h-2zm0 16.2c0 9.868-1.67 17.4-4.9 22.7l1.71 1.04c3.49-5.74 5.19-13.688 5.19-23.74h-2zm-4.91 22.714c-3.08 5.251-8.05 8.77-15.04 10.516l.49 1.94c7.41-1.854 12.88-5.655 16.28-11.444l-1.73-1.012zm-15.66 11.98l22.5 39.6 1.73-.988-22.5-39.6-1.73.988zM1038.9 128h-35.1v2h35.1v-2zm-34.23.52l-20.698-37.8-1.754.96 20.702 37.8 1.75-.96zM983.095 90.2h-25.2v2h25.2v-2zm-26.2 1V129h2V91.2h-2zm1 36.8h-32.4v2h32.4v-2zm-31.4 1V3h-2v126h2zm79.205-90c0-3.754-.94-6.753-3-8.807-2.05-2.054-5.051-2.993-8.805-2.993v2c3.446 0 5.847.86 7.395 2.407 1.54 1.546 2.41 3.947 2.41 7.393h2zm-11.805-11.8h-36v2h36v-2zm-37 1V66h2V28.2h-2zm1 38.8h36v-2h-36v2zm36 0c3.754 0 6.755-.94 8.805-2.993 2.06-2.054 3-5.053 3-8.807h-2c0 3.446-.87 5.847-2.41 7.393-1.548 1.546-3.949 2.407-7.395 2.407v2zm11.805-11.8V39h-2v16.2h2zm110.55 73.8v1h1v-1h-1zm-32.4 0h-1v1h1v-1zm0-100.8h1v-1h-1v1zm-37.8 0h-1v1h1v-1zm0-25.2V2h-1v1h1zm108 0h1V2h-1v1zm0 25.2v1h1v-1h-1zm-37.8 0v-1h-1v1h1zm0 99.8h-32.4v2h32.4v-2zm-31.4 1V28.2h-2V129h2zm-1-101.8h-37.8v2h37.8v-2zm-36.8 1V3h-2v25.2h2zm-1-24.2h108V2h-108v2zm107-1v25.2h2V3h-2zm1 24.2h-37.8v2h37.8v-2zm-38.8 1V129h2V28.2h-2zm35.29 50.4h-1v1h1v-1zm0-25.2v-1h-1v1h1zm73.8 0h1v-1h-1v1zm0 25.2v1h1v-1h-1zm-72.8 0V53.4h-2v25.2h2zm-1-24.2h73.8v-2h-73.8v2zm72.8-1v25.2h2V53.4h-2zm1 24.2h-73.8v2h73.8v-2zm124.16 48.7l.1.994.9-.095v-.899h-1zm-103.32-3.78l.7-.707-.7.707zm.18-110.88l.7.707-.7-.707zM1337.7 3h1V2h-1v1zm0 25.2v1h1v-1h-1zm-66.06 75.06l-.74.68.03.028.02.025.69-.733zm44.46 1.44l.05.999.95-.05v-.949h-1zm0-26.1h1v-1h-1v1zm-23.4 0h-1v1h1v-1zm0-21.6v-1h-1v1h1zm55.8 0h1v-1h-1v1zm-.11 68.306c-28.05 2.997-53.82 4.494-77.29 4.494v2c23.56 0 49.39-1.503 77.5-4.506l-.21-1.988zm-77.29 4.494c-11.63 0-19.96-2.731-25.22-7.987l-1.41 1.414c5.78 5.784 14.73 8.573 26.63 8.573v-2zm-25.22-7.987c-5.25-5.256-7.98-13.586-7.98-25.213h-2c0 11.893 2.78 20.843 8.57 26.627l1.41-1.414zM1237.9 96.6V39h-2v57.6h2zm0-57.6c0-12.483 2.79-21.284 8.16-26.653l-1.41-1.414c-5.91 5.911-8.75 15.35-8.75 28.067h2zm8.16-26.653C1251.55 6.855 1260.42 4 1272.9 4V2c-12.73 0-22.22 2.905-28.25 8.933l1.41 1.414zM1272.9 4h64.8V2h-64.8v2zm63.8-1v25.2h2V3h-2zm1 24.2h-57.6v2h57.6v-2zm-57.6 0c-3.76 0-6.76.94-8.81 2.993-2.06 2.054-2.99 5.053-2.99 8.807h2c0-3.446.86-5.847 2.4-7.393 1.55-1.546 3.95-2.407 7.4-2.407v-2zM1268.3 39v57.6h2V39h-2zm0 57.6c0 2.958.84 5.439 2.6 7.34l1.47-1.36c-1.36-1.459-2.07-3.418-2.07-5.98h-2zm2.65 7.393c1.91 1.765 4.39 2.607 7.35 2.607v-2c-2.57 0-4.53-.718-5.98-2.073l-1.37 1.466zm7.35 2.607c13.81 0 26.43-.3 37.85-.901l-.11-1.998c-11.38.599-23.96.899-37.74.899v2zm38.8-1.9V78.6h-2v26.1h2zm-1-27.1h-23.4v2h23.4v-2zm-22.4 1V57h-2v21.6h2zm-1-20.6h55.8v-2h-55.8v2zm54.8-1v69.3h2V57h-2zm71.27 72v1h1v-1h-1zm-32.4 0h-1v1h1v-1zm0-100.8h1v-1h-1v1zm-37.8 0h-1v1h1v-1zm0-25.2V2h-1v1h1zm108 0h1V2h-1v1zm0 25.2v1h1v-1h-1zm-37.8 0v-1h-1v1h1zm0 99.8h-32.4v2h32.4v-2zm-31.4 1V28.2h-2V129h2zm-1-101.8h-37.8v2h37.8v-2zm-36.8 1V3h-2v25.2h2zm-1-24.2h108V2h-108v2zm107-1v25.2h2V3h-2zm1 24.2h-37.8v2h37.8v-2zm-38.8 1V129h2V28.2h-2z" fill="#fff" fill-opacity=".11"/></svg>