<svg width="31" height="29" fill="none" xmlns="http://www.w3.org/2000/svg"><path d="M28.1 0H2.154C.965 0 0 .939 0 2.09v24.82C0 28.06.966 29 2.155 29h25.944c1.19 0 2.162-.939 2.162-2.09V2.09C30.26.94 29.288 0 28.099 0zM9.145 24.857H4.66v-13.84h4.492v13.84h-.007zM6.903 9.127c-1.438 0-2.6-1.12-2.6-2.492 0-1.372 1.162-2.492 2.6-2.492 1.432 0 2.6 1.12 2.6 2.492 0 1.379-1.161 2.492-2.6 2.492zm19.055 15.73h-4.485v-6.732c0-1.605-.034-3.67-2.33-3.67-2.337 0-2.695 1.748-2.695 3.554v6.848h-4.486v-13.84h4.303v1.89h.061c.601-1.087 2.067-2.233 4.249-2.233 4.539 0 5.383 2.868 5.383 6.596v7.587z" fill="#464646"/></svg>