<svg width="22" height="22" fill="none" xmlns="http://www.w3.org/2000/svg"><path d="M21.292 15.84c-.038-.033-4.43-3.186-5.624-2.97-.572.103-.9.493-1.555 1.273-.106.126-.36.428-.557.643a10.046 10.046 0 01-6.339-6.339c.216-.198.518-.451.647-.56.778-.653 1.168-.98 1.27-1.553C9.34 5.146 6.197.75 6.164.71A1.679 1.679 0 004.914 0C3.638 0 0 4.72 0 5.515c0 .047.067 4.743 5.858 10.634C11.743 21.933 16.438 22 16.485 22 17.279 22 22 18.361 22 17.087a1.674 1.674 0 00-.708-1.247z" fill="#fff"/><path d="M11.733 5.867a4.404 4.404 0 014.4 4.4.734.734 0 001.467 0A5.873 5.873 0 0011.733 4.4a.733.733 0 100 1.467z" fill="#FFD600"/><path d="M11.733 2.2a8.076 8.076 0 018.067 8.067.734.734 0 001.467 0A9.544 9.544 0 0011.733.733a.733.733 0 100 1.467z" fill="#FFD600"/></svg>