<svg width="1045" height="132" fill="none" xmlns="http://www.w3.org/2000/svg"><path d="M3.858 84.12l.11-1.997-2.11-.116v2.113h2zm58.608.288l-1.414-1.414 1.414 1.414zm2.016-18.288h2v-2h-2v2zM9.33 59.352l-1.429 1.4.015.014.015.015 1.4-1.429zm0-48.24l1.414 1.414-1.414-1.414zM81.906 4.2h2v-2h-2v2zm0 20.16v2h2v-2h-2zm1.872 75.456l-1.414-1.414 1.414 1.414zm-36.288 6.336l-.087 1.998h.009l.008.001.07-1.999zm-13.248-.576l-.098 1.998h.011l.087-1.998zM3.858 103.56h-2v1.842l1.836.151.164-1.993zm-.11-17.443c26.298 1.44 44.16 2.163 53.534 2.163v-4c-9.249 0-27.004-.717-53.314-2.157l-.22 3.994zm53.534 2.163c2.598 0 4.886-.746 6.598-2.458l-2.828-2.828c-.784.784-1.952 1.286-3.77 1.286v4zm6.598-2.458c1.78-1.78 2.602-4.096 2.602-6.742h-4c0 1.77-.522 3.006-1.43 3.914l2.828 2.828zm2.602-6.742V66.12h-4v12.96h4zm-2-14.96h-33.12v4h33.12v-4zm-33.12 0c-9.842 0-16.562-2.211-20.633-6.197l-2.798 2.858c5.145 5.038 13.113 7.339 23.431 7.339v-4zM10.76 57.953c-3.986-4.07-6.197-10.79-6.197-20.633h-4c0 10.318 2.301 18.286 7.34 23.431l2.857-2.798zM4.562 37.32V33h-4v4.32h4zm0-4.32c0-9.847 2.213-16.505 6.182-20.474L7.916 9.698C2.861 14.753.562 22.688.562 33h4zm6.182-20.474C14.816 8.455 21.53 6.2 31.362 6.2v-4C21.035 2.2 13.06 4.553 7.916 9.698l2.828 2.828zM31.362 6.2h50.544v-4H31.362v4zm48.544-2v20.16h4V4.2h-4zm2 18.16H37.122v4h44.784v-4zm-44.784 0c-3.188 0-5.947.798-7.894 2.746-1.947 1.947-2.746 4.706-2.746 7.894h4c0-2.572.642-4.133 1.574-5.066.933-.932 2.495-1.574 5.066-1.574v-4zM26.482 33v2.88h4V33h-4zm0 2.88c0 3.188.799 5.947 2.746 7.894 1.947 1.948 4.706 2.746 7.894 2.746v-4c-2.572 0-4.133-.642-5.066-1.574-.932-.933-1.574-2.494-1.574-5.066h-4zm10.64 10.64h25.92v-4h-25.92v4zm25.92 0c9.143 0 15.434 2.15 19.322 6.038l2.828-2.828c-4.944-4.944-12.476-7.21-22.15-7.21v4zm19.322 6.038c3.888 3.888 6.038 10.18 6.038 19.322h4c0-9.673-2.266-17.206-7.21-22.15l-2.828 2.828zm6.038 19.322v7.2h4v-7.2h-4zm0 7.2c0 9.143-2.15 15.434-6.038 19.322l2.828 2.828c4.945-4.944 7.21-12.477 7.21-22.15h-4zm-6.038 19.322c-3.888 3.888-10.18 6.038-19.322 6.038v4c9.674 0 17.206-2.266 22.15-7.21l-2.828-2.828zm-19.322 6.038c-4.87 0-10.03-.096-15.482-.287l-.14 3.998c5.493.192 10.7.289 15.622.289v-4zm-15.465-.286l-13.248-.576-.174 3.996 13.248.576.174-3.996zm-13.237-.576a908.94 908.94 0 01-30.317-2.011l-.33 3.986a915.936 915.936 0 0030.451 2.021l.196-3.996zm-28.482-.018V84.12h-4v19.44h4zM127.111 51l-.572-1.916-1.428.426V51h2zm0 34.56h-2v2h2v-2zm25.92-36l1.414-1.414-1.414 1.414zM127.111 105v-2h-2v2h2zm0 24.48v2h2v-2h-2zm-25.2 0h-2v2h2v-2zm0-100.8v-2h-2v2h2zm22.32 0l1.961-.392-.321-1.608h-1.64v2zm1.44 7.2l-1.961.392.582 2.913 2.48-1.636-1.101-1.669zm13.824-6.48l.549 1.923.013-.004.013-.003-.575-1.916zm34.272 3.744l-1.414 1.414 1.414-1.414zm-.288 65.808l1.414 1.414-1.414-1.414zM144.391 46.12c-5.332 0-11.29 1.005-17.852 2.964l1.144 3.832c6.302-1.88 11.864-2.796 16.708-2.796v-4zM125.111 51v34.56h4V51h-4zm2 36.56h21.6v-4h-21.6v4zm21.6 0c2.228 0 4.267-.558 5.734-2.026 1.468-1.467 2.026-3.506 2.026-5.734h-4c0 1.612-.402 2.453-.854 2.906-.453.452-1.294.854-2.906.854v4zm7.76-7.76V53.16h-4V79.8h4zm0-26.64c0-1.935-.666-3.655-2.026-5.014l-2.828 2.828c.56.56.854 1.24.854 2.186h4zm-2.026-5.014c-1.359-1.36-3.079-2.026-5.014-2.026v4c.945 0 1.625.294 2.186.854l2.828-2.828zm-5.014-2.026h-5.04v4h5.04v-4zM125.111 105v24.48h4V105h-4zm2 22.48h-25.2v4h25.2v-4zm-23.2 2V28.68h-4v100.8h4zm-2-98.8h22.32v-4h-22.32v4zm20.359-1.608l1.44 7.2 3.922-.784-1.44-7.2-3.922.784zm4.502 8.478c4.36-2.876 8.783-4.944 13.272-6.227l-1.099-3.846c-4.919 1.405-9.711 3.657-14.375 6.734l2.202 3.339zm13.298-6.234c4.702-1.41 8.526-2.076 11.521-2.076v-4c-3.533 0-7.773.775-12.671 2.244l1.15 3.832zm11.521-2.076h6.48v-4h-6.48v4zm6.48 0c6.096 0 10.785 1.822 14.282 5.318l2.828-2.828c-4.375-4.376-10.15-6.49-17.11-6.49v4zm14.282 5.318c3.496 3.497 5.318 8.186 5.318 14.282h4c0-6.96-2.114-12.735-6.49-17.11l-2.828 2.828zm5.318 14.282v33.12h4V48.84h-4zm0 33.12c0 6.8-1.937 11.909-5.606 15.578l2.828 2.828c4.587-4.587 6.778-10.807 6.778-18.406h-4zm-5.606 15.578c-3.565 3.564-8.618 5.462-15.434 5.462v4c7.584 0 13.763-2.134 18.262-6.634l-2.828-2.828zM156.631 103h-29.52v4h29.52v-4zm59.743-44.08h-2v2h2v-2zm24.48 0v2h2v-2h-2zm22.32 44.64l.206 1.989 1.794-.186v-1.803h-2zm-66.096-3.024l-1.414 1.414 1.414-1.414zm.144-67.104l1.414 1.414-1.414-1.414zm62.64 0l-1.431 1.398.017.016.017.017 1.397-1.431zm6.192 43.488v2h2v-2h-2zm-49.68 0v-2h-2v2h2zm1.44 9.36l1.414-1.414-1.414 1.414zm45.36-.72h2v-2.163l-2.157.17.157 1.993zm-41.04-42.32c-2.228 0-4.267.558-5.734 2.026-1.468 1.467-2.026 3.506-2.026 5.734h4c0-1.612.402-2.453.854-2.906.453-.452 1.294-.854 2.906-.854v-4zm-7.76 7.76v7.92h4V51h-4zm2 9.92h24.48v-4h-24.48v4zm26.48-2V51h-4v7.92h4zm0-7.92c0-2.228-.558-4.267-2.026-5.734-1.467-1.468-3.506-2.026-5.734-2.026v4c1.612 0 2.453.402 2.906.854.452.453.854 1.294.854 2.906h4zm-7.76-7.76h-12.96v4h12.96v-4zm27.874 58.331c-18.475 1.914-35.205 2.869-50.194 2.869v4c15.155 0 32.025-.965 50.606-2.891l-.412-3.978zm-50.194 2.869c-6.096 0-10.785-1.822-14.282-5.318l-2.828 2.828c4.375 4.376 10.15 6.49 17.11 6.49v-4zm-14.282-5.318c-3.496-3.497-5.318-8.186-5.318-14.282h-4c0 6.96 2.114 12.735 6.49 17.11l2.828-2.828zm-5.318-14.282V50.28h-4v34.56h4zm0-34.56c0-6.816 1.898-11.87 5.462-15.434l-2.828-2.828c-4.5 4.5-6.634 10.678-6.634 18.262h4zm5.462-15.434c3.67-3.67 8.777-5.606 15.578-5.606v-4c-7.599 0-13.819 2.191-18.406 6.778l2.828 2.828zm15.578-5.606h28.8v-4h-28.8v4zm28.8 0c6.803 0 11.85 1.938 15.417 5.59l2.862-2.795c-4.497-4.604-10.682-6.795-18.279-6.795v4zm15.451 5.623c3.652 3.567 5.589 8.614 5.589 15.417h4c0-7.597-2.19-13.782-6.794-18.279l-2.795 2.862zm5.589 15.417v26.64h4V50.28h-4zm2 24.64h-49.68v4h49.68v-4zm-51.68 2v5.76h4v-5.76h-4zm0 5.76c0 1.935.666 3.655 2.026 5.014l2.828-2.828c-.56-.56-.854-1.24-.854-2.186h-4zm2.026 5.014c1.359 1.36 3.079 2.026 5.014 2.026v-4c-.945 0-1.625-.294-2.186-.854l-2.828 2.828zm5.014 2.026c9.584 0 23.567-.725 41.917-2.166l-.314-3.988c-18.322 1.44-32.179 2.154-41.603 2.154v4zm39.76-4.16v18h4v-18h-4zm85.464 18l.212 1.989 1.788-.192v-1.797h-2zm-63.216-3.024l-1.414 1.414 1.414-1.414zm.144-65.664l1.414 1.414-1.414-1.414zm63.072-6.192h2v-2h-2v2zm0 19.44v2h2v-2h-2zm0 36.72h2v-2.174l-2.166.18.166 1.994zm-.213 16.731c-17.902 1.915-33.668 2.869-47.307 2.869v4c13.817 0 29.73-.966 47.732-2.891l-.425-3.978zm-47.307 2.869c-6.097 0-10.786-1.822-14.282-5.318l-2.828 2.828c4.375 4.376 10.15 6.49 17.11 6.49v-4zm-14.282-5.318c-3.496-3.497-5.318-8.186-5.318-14.282h-4c0 6.96 2.114 12.735 6.49 17.11l2.828-2.828zm-5.318-14.282V51.72h-4v33.12h4zm0-33.12c0-6.816 1.897-11.87 5.462-15.434l-2.828-2.828c-4.5 4.5-6.634 10.678-6.634 18.262h4zm5.462-15.434c3.669-3.67 8.777-5.606 15.578-5.606v-4c-7.599 0-13.82 2.191-18.406 6.778l2.828 2.828zm15.578-5.606h46.08v-4h-46.08v4zm44.08-2v19.44h4V28.68h-4zm2 17.44h-38.16v4h38.16v-4zm-38.16 0c-2.228 0-4.267.558-5.734 2.026-1.468 1.467-2.026 3.506-2.026 5.734h4c0-1.612.401-2.453.854-2.906.453-.452 1.294-.854 2.906-.854v-4zm-7.76 7.76v28.08h4V53.88h-4zm0 28.08c0 1.935.666 3.655 2.026 5.014l2.828-2.828c-.56-.56-.854-1.24-.854-2.186h-4zm2.026 5.014c1.359 1.36 3.079 2.026 5.014 2.026v-4c-.945 0-1.626-.294-2.186-.854l-2.828 2.828zM307.758 89c8.726 0 21.754-.726 39.046-2.167l-.332-3.986C329.204 84.286 316.311 85 307.758 85v4zm36.88-4.16v18.72h4V84.84h-4zm45.172-53.28h2v-2h-2v2zm0 73.44v2h2v-2h-2zm-25.2 0h-2v2h2v-2zm0-54h2v-2h-2v2zm-10.8 0h-2v2h2v-2zm0-19.44v-2h-2v2h2zm10.8-28.8v-2h-2v2h2zm25.2 0h2v-2h-2v2zm0 20.16v2h2v-2h-2zm-25.2 0h-2v2h2v-2zm23.2 8.64V105h4V31.56h-4zm2 71.44h-25.2v4h25.2v-4zm-23.2 2V51h-4v54h4zm-2-56h-10.8v4h10.8v-4zm-8.8 2V31.56h-4V51h4zm-2-17.44h36v-4h-36v4zm10.8-28.8h25.2v-4h-25.2v4zm23.2-2v20.16h4V2.76h-4zm2 18.16h-25.2v4h25.2v-4zm-23.2 2V2.76h-4v20.16h4zm85.165 60.48l.572 1.916 1.428-.426V83.4h-2zm0-8.64h2v-2h-2v2zm-24.48 1.44l1.414 1.414-1.414-1.414zm0 8.64l-1.415 1.414 1.415-1.414zm-19.44-54.72l-.218-1.988-1.782.195v1.793h2zm63.216 3.024l-1.415 1.414 1.415-1.414zM476.975 105v2h2v-2h-2zm-22.32 0l-1.961.392.321 1.608h1.64v-2zm-1.44-7.2l1.961-.392-.583-2.913-2.48 1.635 1.102 1.67zm-13.968 6.624l.549 1.923.013-.004.012-.003-.574-1.916zm-32.688-3.888l-1.415 1.414 1.415-1.414zm0-37.872l1.414 1.414-1.414-1.414zm45.216-5.904v2h2v-2h-2zm-1.44-9.36l-1.415 1.414 1.415-1.414zm-24.336-.576l-.152-1.994h-.002l.154 1.994zm-18.144 1.296h-2v2.129l2.124-.133-.124-1.996zm26.64 40.16c5.332 0 11.29-1.005 17.852-2.964l-1.144-3.832c-6.302 1.88-11.864 2.796-16.708 2.796v4zm19.28-4.88v-8.64h-4v8.64h4zm-2-10.64h-20.88v4h20.88v-4zm-20.88 0c-1.935 0-3.655.666-5.015 2.026l2.829 2.828c.56-.56 1.24-.854 2.186-.854v-4zm-5.015 2.026c-1.359 1.36-2.025 3.08-2.025 5.014h4c0-.945.293-1.625.854-2.186l-2.829-2.828zm-2.025 5.014v1.44h4V79.8h-4zm0 1.44c0 1.935.666 3.655 2.025 5.014l2.829-2.828c-.561-.56-.854-1.24-.854-2.186h-4zm2.025 5.014c1.36 1.36 3.08 2.026 5.015 2.026v-4c-.946 0-1.626-.294-2.186-.854l-2.829 2.828zm5.015 2.026h3.6v-4h-3.6v4zm-22.823-56.172c17.513-1.914 33.279-2.868 47.303-2.868v-4c-14.2 0-30.115.966-47.738 2.892l.435 3.976zm47.303-2.868c6.096 0 10.785 1.822 14.281 5.318l2.829-2.828c-4.376-4.376-10.151-6.49-17.11-6.49v4zm14.281 5.318c3.497 3.497 5.319 8.186 5.319 14.282h4c0-6.96-2.115-12.735-6.49-17.11l-2.829 2.828zm5.319 14.282V105h4V48.84h-4zm2 54.16h-22.32v4h22.32v-4zm-20.359 1.608l-1.44-7.2-3.922.784 1.44 7.2 3.922-.784zm-4.503-8.478c-4.362 2.878-8.842 4.999-13.441 6.378l1.149 3.832c5.001-1.501 9.833-3.796 14.495-6.87l-2.203-3.34zm-13.416 6.371c-4.605 1.316-8.392 1.939-11.402 1.939v4c3.517 0 7.698-.721 12.501-2.093l-1.099-3.846zm-11.402 1.939h-5.04v4h5.04v-4zm-5.04 0c-6.097 0-10.786-1.822-14.282-5.318l-2.829 2.828c4.376 4.376 10.151 6.49 17.111 6.49v-4zm-14.282-5.318c-3.496-3.497-5.318-8.186-5.318-14.282h-4c0 6.96 2.114 12.735 6.489 17.11l2.829-2.828zm-5.318-14.282v-6.48h-4v6.48h4zm0-6.48c0-6.096 1.822-10.785 5.318-14.282l-2.829-2.828c-4.375 4.375-6.489 10.15-6.489 17.11h4zm5.318-14.282c3.496-3.496 8.185-5.318 14.282-5.318v-4c-6.96 0-12.735 2.114-17.111 6.49l2.829 2.828zm14.282-5.318h29.52v-4h-29.52v4zm31.52-2V51h-4v5.76h4zm0-5.76c0-1.935-.667-3.655-2.026-5.014l-2.829 2.828c.561.56.855 1.24.855 2.186h4zm-2.026-5.014c-1.36-1.36-3.08-2.026-5.014-2.026v4c.945 0 1.625.294 2.185.854l2.829-2.828zm-5.014-2.026c-6.3 0-13.264.29-20.888.87l.303 3.988c7.544-.573 14.405-.858 20.585-.858v-4zm-20.89.87c-7.483.576-13.521 1.007-18.115 1.294l.249 3.992c4.622-.289 10.681-.722 18.173-1.298l-.307-3.988zm-15.99 3.29v-18h-4v18h4zM528.775 105l.296 1.978 1.704-.254V105h-2zm-32.976-4.464l1.415-1.414-1.415 1.414zM489.895 4.2v-2h-2v2h2zm25.2 0h2v-2h-2v2zm13.68 82.08h2v-2h-2v2zm-.295 16.742c-6.345.947-12.39 1.418-18.137 1.418v4c5.965 0 12.208-.489 18.728-1.462l-.591-3.956zm-18.137 1.418c-5.25 0-9.583-1.772-13.129-5.318l-2.829 2.828c4.326 4.326 9.688 6.49 15.958 6.49v-4zm-13.129-5.318c-3.497-3.497-5.319-8.186-5.319-14.282h-4c0 6.96 2.115 12.735 6.49 17.11l2.829-2.828zm-5.319-14.282V4.2h-4v80.64h4zm-2-78.64h25.2v-4h-25.2v4zm23.2-2v77.04h4V4.2h-4zm0 77.04c0 1.935.667 3.655 2.026 5.014l2.829-2.828c-.561-.56-.855-1.24-.855-2.186h-4zm2.026 5.014c1.36 1.36 3.08 2.026 5.014 2.026v-4c-.945 0-1.625-.294-2.185-.854l-2.829 2.828zm5.014 2.026h8.64v-4h-8.64v4zm6.64-2V105h4V86.28h-4zm140.478 13.392l-1.414-1.414 1.414 1.414zm-79.92 0l-1.429 1.399.014.015.015.015 1.4-1.429zm0-90l-1.415-1.414 1.415 1.414zm79.92 0l-1.429 1.4.014.014.015.015 1.4-1.429zM650.245 31.56c0-3.188-.799-5.947-2.746-7.894-1.947-1.948-4.706-2.746-7.894-2.746v4c2.571 0 4.133.642 5.065 1.574.933.933 1.575 2.494 1.575 5.066h4zm-10.64-10.64h-24.48v4h24.48v-4zm-24.48 0c-3.189 0-5.947.798-7.895 2.746-1.947 1.947-2.745 4.706-2.745 7.894h4c0-2.572.641-4.133 1.574-5.066.933-.932 2.494-1.574 5.066-1.574v-4zm-10.64 10.64v46.08h4V31.56h-4zm0 46.08c0 3.188.798 5.947 2.745 7.894 1.948 1.948 4.706 2.746 7.895 2.746v-4c-2.572 0-4.133-.642-5.066-1.574-.933-.933-1.574-2.494-1.574-5.066h-4zm10.64 10.64h24.48v-4h-24.48v4zm24.48 0c3.188 0 5.947-.798 7.894-2.746 1.947-1.947 2.746-4.706 2.746-7.894h-4c0 2.572-.642 4.133-1.575 5.066-.932.932-2.494 1.574-5.065 1.574v4zm10.64-10.64V31.56h-4v46.08h4zm21.92 0c0 9.833-2.255 16.546-6.326 20.618l2.828 2.828c5.144-5.144 7.498-13.119 7.498-23.446h-4zm-6.326 20.618c-3.969 3.969-10.627 6.182-20.474 6.182v4c10.313 0 18.247-2.299 23.302-7.354l-2.828-2.828zm-20.474 6.182h-36v4h36v-4zm-36 0c-9.842 0-16.562-2.211-20.633-6.197l-2.799 2.858c5.146 5.038 13.114 7.339 23.432 7.339v-4zm-20.603-6.167c-3.986-4.07-6.197-10.79-6.197-20.633h-4c0 10.318 2.3 18.286 7.339 23.431l2.858-2.798zm-6.197-20.633V31.56h-4v46.08h4zm0-46.08c0-9.847 2.213-16.505 6.182-20.474l-2.829-2.828c-5.055 5.055-7.353 12.99-7.353 23.302h4zm6.182-20.474c4.071-4.071 10.785-6.326 20.618-6.326v-4c-10.328 0-18.302 2.353-23.447 7.498l2.829 2.828zm20.618-6.326h36v-4h-36v4zm36 0c9.837 0 16.489 2.257 20.459 6.311l2.858-2.798C663.628 3.11 655.687.76 645.365.76v4zm20.488 6.341c4.055 3.97 6.312 10.622 6.312 20.459h4c0-10.323-2.352-18.263-7.513-23.317l-2.799 2.858zm6.312 20.459v46.08h4V31.56h-4zm76.947-7.92l-.137 1.995 2.137.148V23.64h-2zm-29.52 0l1.414 1.414-1.414-1.414zm-1.44 10.8h-2v2h2v-2zm23.76 0h2v-2h-2v2zm0 19.44v2h2v-2h-2zm-23.76 0v-2h-2v2h2zm0 51.12v2h2v-2h-2zm-25.2 0h-2v2h2v-2zm0-51.12h2v-2h-2v2zm-10.08 0h-2v2h2v-2zm0-19.44v-2h-2v2h2zm10.08 0v2h2v-2h-2zm5.904-25.776l1.414 1.414-1.414-1.414zM749.112 4.2h2V2.29l-1.907-.088-.093 1.998zm.138 17.445a812.252 812.252 0 01-11.06-.862l-.332 3.986c4.612.384 8.319.673 11.117.866l.275-3.99zm-11.06-.862c-4.644-.387-8.686-.583-12.118-.583v4c3.289 0 7.214.188 11.786.57l.332-3.987zm-12.118-.583c-1.759 0-3.298.124-4.574.408-1.24.275-2.451.748-3.32 1.618l2.828 2.828c.091-.09.44-.337 1.36-.542.885-.196 2.105-.312 3.706-.312v-4zm-7.894 2.026c-1.36 1.36-2.026 3.08-2.026 5.014h4c0-.945.294-1.625.854-2.186l-2.828-2.828zm-2.026 5.014v7.2h4v-7.2h-4zm2 9.2h23.76v-4h-23.76v4zm21.76-2v19.44h4V34.44h-4zm2 17.44h-23.76v4h23.76v-4zm-25.76 2V105h4V53.88h-4zm2 49.12h-25.2v4h25.2v-4zm-23.2 2V53.88h-4V105h4zm-2-53.12h-10.08v4h10.08v-4zm-8.08 2V34.44h-4v19.44h4zm-2-17.44h10.08v-4h-10.08v4zm12.08-2V24.36h-4v10.08h4zm0-10.08c0-6.096 1.822-10.785 5.318-14.282l-2.828-2.828c-4.376 4.375-6.49 10.15-6.49 17.11h4zm5.318-14.282c3.497-3.496 8.186-5.318 14.282-5.318v-4c-6.959 0-12.734 2.114-17.11 6.49l2.828 2.828zm14.282-5.318c5.813 0 11.965.19 18.459.573l.235-3.994C726.683.953 720.452.76 714.552.76v4zm18.459.573c6.532.384 11.869.672 16.008.865l.186-3.996c-4.116-.191-9.435-.479-15.959-.863l-.235 3.994zM747.112 4.2v19.44h4V4.2h-4zm66.828 19.44l-.137 1.995 2.137.148V23.64h-2zm-29.52 0l1.415 1.414-1.415-1.414zm-1.44 10.8h-2v2h2v-2zm23.76 0h2v-2h-2v2zm0 19.44v2h2v-2h-2zm-23.76 0v-2h-2v2h2zm0 51.12v2h2v-2h-2zm-25.2 0h-2v2h2v-2zm0-51.12h2v-2h-2v2zm-10.08 0h-2v2h2v-2zm0-19.44v-2h-2v2h2zm10.08 0v2h2v-2h-2zm5.904-25.776l1.415 1.414-1.415-1.414zM813.94 4.2h2V2.29l-1.907-.088-.093 1.998zm.138 17.445a813.51 813.51 0 01-11.06-.862l-.332 3.986c4.612.384 8.319.673 11.117.866l.275-3.99zm-11.06-.862c-4.644-.387-8.686-.583-12.118-.583v4c3.289 0 7.215.188 11.786.57l.332-3.987zM790.9 20.2c-1.759 0-3.298.124-4.574.408-1.24.275-2.451.748-3.32 1.618l2.829 2.828c.09-.09.439-.337 1.359-.542.885-.196 2.105-.312 3.706-.312v-4zm-7.894 2.026c-1.36 1.36-2.026 3.08-2.026 5.014h4c0-.945.294-1.625.855-2.186l-2.829-2.828zm-2.026 5.014v7.2h4v-7.2h-4zm2 9.2h23.76v-4h-23.76v4zm21.76-2v19.44h4V34.44h-4zm2 17.44h-23.76v4h23.76v-4zm-25.76 2V105h4V53.88h-4zm2 49.12h-25.2v4h25.2v-4zm-23.2 2V53.88h-4V105h4zm-2-53.12H747.7v4h10.08v-4zm-8.08 2V34.44h-4v19.44h4zm-2-17.44h10.08v-4H747.7v4zm12.08-2V24.36h-4v10.08h4zm0-10.08c0-6.096 1.822-10.785 5.319-14.282L762.27 7.25c-4.375 4.375-6.49 10.15-6.49 17.11h4zm5.319-14.282c3.496-3.496 8.185-5.318 14.281-5.318v-4c-6.959 0-12.734 2.114-17.11 6.49l2.829 2.828zM779.38 4.76c5.813 0 11.966.19 18.459.573l.235-3.994C791.511.953 785.28.76 779.38.76v4zm18.459.573c6.532.384 11.869.672 16.008.865l.186-3.996c-4.116-.191-9.435-.479-15.959-.863l-.235 3.994zM811.94 4.2v19.44h4V4.2h-4zm28.668 54.72h-2v2h2v-2zm24.48 0v2h2v-2h-2zm22.32 44.64l.207 1.989 1.793-.186v-1.803h-2zm-66.096-3.024l-1.414 1.414 1.414-1.414zm.144-67.104l1.415 1.414-1.415-1.414zm62.64 0l-1.43 1.398.016.016.017.017 1.397-1.431zm6.192 43.488v2h2v-2h-2zm-49.68 0v-2h-2v2h2zm1.44 9.36l1.415-1.414-1.415 1.414zm45.36-.72h2v-2.163l-2.156.17.156 1.993zm-41.04-42.32c-2.228 0-4.266.558-5.734 2.026-1.467 1.467-2.026 3.506-2.026 5.734h4c0-1.612.402-2.453.855-2.906.452-.452 1.294-.854 2.905-.854v-4zm-7.76 7.76v7.92h4V51h-4zm2 9.92h24.48v-4h-24.48v4zm26.48-2V51h-4v7.92h4zm0-7.92c0-2.228-.558-4.267-2.025-5.734-1.468-1.468-3.506-2.026-5.735-2.026v4c1.612 0 2.454.402 2.906.854.453.453.854 1.294.854 2.906h4zm-7.76-7.76h-12.96v4h12.96v-4zm27.874 58.331c-18.474 1.914-35.204 2.869-50.194 2.869v4c15.155 0 32.025-.965 50.607-2.891l-.413-3.978zm-50.194 2.869c-6.096 0-10.785-1.822-14.281-5.318l-2.829 2.828c4.376 4.376 10.151 6.49 17.11 6.49v-4zm-14.281-5.318c-3.497-3.497-5.319-8.186-5.319-14.282h-4c0 6.96 2.115 12.735 6.49 17.11l2.829-2.828zm-5.319-14.282V50.28h-4v34.56h4zm0-34.56c0-6.816 1.898-11.87 5.463-15.434l-2.829-2.828c-4.499 4.5-6.634 10.678-6.634 18.262h4zm5.463-15.434c3.669-3.67 8.777-5.606 15.577-5.606v-4c-7.599 0-13.819 2.191-18.406 6.778l2.829 2.828zm15.577-5.606h28.8v-4h-28.8v4zm28.8 0c6.803 0 11.851 1.938 15.418 5.59l2.861-2.795c-4.497-4.604-10.682-6.795-18.279-6.795v4zm15.451 5.623c3.652 3.567 5.589 8.614 5.589 15.417h4c0-7.597-2.19-13.782-6.794-18.279l-2.795 2.862zm5.589 15.417v26.64h4V50.28h-4zm2 24.64h-49.68v4h49.68v-4zm-51.68 2v5.76h4v-5.76h-4zm0 5.76c0 1.935.667 3.655 2.026 5.014l2.829-2.828c-.561-.56-.855-1.24-.855-2.186h-4zm2.026 5.014c1.36 1.36 3.08 2.026 5.014 2.026v-4c-.945 0-1.625-.294-2.185-.854l-2.829 2.828zm5.014 2.026c9.585 0 23.567-.725 41.917-2.166l-.313-3.988c-18.323 1.44-32.18 2.154-41.604 2.154v4zm39.76-4.16v18h4v-18h-4zm42.984-31.68l-.817-1.825-1.183.53v1.295h2zm0 51.12v2h2v-2h-2zm-25.2 0h-2v2h2v-2zm0-76.32v-2h-2v2h2zm22.32 0l1.977-.304-.261-1.696h-1.716v2zm1.44 9.36l-1.977.304.553 3.592 2.739-2.389-1.315-1.507zm32.4-10.8h2v-2h-2v2zm0 22.32v2h2v-2h-2zm-12.24-2c-6.372 0-12.89 1.518-19.537 4.495l1.635 3.65c6.217-2.783 12.179-4.145 17.902-4.145v-4zm-20.72 6.32V105h4V53.88h-4zm2 49.12h-25.2v4h25.2v-4zm-23.2 2V28.68h-4V105h4zm-2-74.32h22.32v-4h-22.32v4zm20.343-1.696l1.44 9.36 3.954-.608-1.44-9.36-3.954.608zm4.732 10.563c7.973-6.953 16.163-10.307 24.605-10.307v-4c-9.605 0-18.695 3.846-27.234 11.293l2.629 3.014zm24.605-10.307h6.48v-4h-6.48v4zm4.48-2v22.32h4V27.24h-4zm2 20.32h-12.24v4h12.24v-4zm7.195 37.28l.147-1.995-2.147-.158v2.153h2zm49.683.72l1.41 1.414-1.41-1.414zm1.44-8.64h2v-2h-2v2zm-46.659-5.904l1.414-1.414-1.414 1.414zm0-36.432l1.414 1.414-1.414-1.414zm64.659-5.904h2v-2h-2v2zm0 18.72v2h2v-2h-2zm-43.923 1.44l1.414 1.414-1.414-1.414zm0 7.2l-1.415 1.414 1.415-1.414zm45.213 7.344l1.42-1.414-1.42 1.414zm0 37.152l1.42 1.414-1.42-1.414zm-70.413 3.024h-2v1.813l1.803.177.197-1.99zm-.148-16.725C985.906 88.276 1001.32 89 1012.63 89v-4c-11.16 0-26.467-.716-45.936-2.155l-.295 3.99zM1012.63 89c1.93 0 3.65-.666 5.01-2.026l-2.83-2.828c-.56.56-1.24.854-2.18.854v4zm5.01-2.026c1.36-1.36 2.03-3.08 2.03-5.014h-4c0 .945-.3 1.625-.86 2.186l2.83 2.828zm2.03-5.014v-5.04h-4v5.04h4zm-2-7.04h-30.963v4h30.963v-4zm-30.963 0c-6.097 0-10.786-1.822-14.282-5.318l-2.829 2.828c4.376 4.376 10.151 6.49 17.111 6.49v-4zm-14.282-5.318c-3.497-3.497-5.318-8.186-5.318-14.282h-4c0 6.96 2.114 12.735 6.489 17.11l2.829-2.828zm-5.318-14.282v-5.04h-4v5.04h4zm0-5.04c0-6.096 1.821-10.785 5.318-14.282l-2.829-2.828c-4.375 4.375-6.489 10.15-6.489 17.11h4zm5.318-14.282c3.496-3.496 8.185-5.318 14.282-5.318v-4c-6.96 0-12.735 2.114-17.111 6.49l2.829 2.828zm14.282-5.318h48.963v-4h-48.963v4zm46.963-2V47.4h4V28.68h-4zm2 16.72h-40.323v4h40.323v-4zm-40.323 0c-1.935 0-3.655.666-5.015 2.026l2.829 2.828c.56-.56 1.24-.854 2.186-.854v-4zm-5.015 2.026c-1.359 1.36-2.025 3.08-2.025 5.014h4c0-.945.293-1.625.854-2.186l-2.829-2.828zm-2.025 5.014c0 1.935.666 3.655 2.025 5.014l2.829-2.828c-.561-.56-.854-1.24-.854-2.186h-4zm2.025 5.014c1.36 1.36 3.08 2.026 5.015 2.026v-4c-.946 0-1.626-.294-2.186-.854l-2.829 2.828zm5.015 2.026h25.923v-4h-25.923v4zm25.923 0c6.09 0 10.78 1.822 14.28 5.318l2.83-2.828c-4.38-4.376-10.15-6.49-17.11-6.49v4zm14.28 5.318c3.49 3.497 5.32 8.186 5.32 14.282h4c0-6.96-2.12-12.735-6.49-17.11l-2.83 2.828zm5.32 14.282v5.76h4v-5.76h-4zm0 5.76c0 6.096-1.83 10.785-5.32 14.282l2.83 2.828c4.37-4.375 6.49-10.15 6.49-17.11h-4zm-5.32 14.282c-3.5 3.496-8.19 5.318-14.28 5.318v4c6.96 0 12.73-2.114 17.11-6.49l-2.83-2.828zm-14.28 5.318c-16.92 0-35.095-.956-54.527-2.87l-.393 3.98c19.544 1.926 37.85 2.89 54.92 2.89v-4zm-52.723-.88V84.84h-4v18.72h4z" fill="#000" fill-opacity=".06"/></svg>