<svg width="467" height="61" fill="none" xmlns="http://www.w3.org/2000/svg"><path d="M2.715 38.72l.11-1.997-2.11-.115v2.112h2zm26.048.128l-1.415-1.414 1.415 1.414zm.896-8.128h2v-2h-2v2zM5.147 27.712l-1.43 1.4.015.014.015.015 1.4-1.429zm0-21.44L6.56 7.686 5.147 6.272zM37.403 3.2h2v-2h-2v2zm0 8.96v2h2v-2h-2zm.832 33.536l-1.414-1.414 1.414 1.414zm-16.128 2.816l-.087 1.998h.017l.07-1.998zm-5.888-.256l-.098 1.998h.01l.088-1.998zM2.715 47.36h-2v1.842l1.835.151.165-1.993zm-.11-6.643c11.684.64 19.652.963 23.854.963v-4c-4.076 0-11.938-.317-23.635-.957l-.219 3.994zm23.854.963c1.37 0 2.7-.4 3.718-1.418l-2.828-2.828c-.091.09-.299.246-.89.246v4zm3.718-1.418c1.033-1.033 1.482-2.363 1.482-3.782h-4c0 .544-.149.792-.31.954l2.828 2.828zm1.482-3.782v-5.76h-4v5.76h4zm-2-7.76h-14.72v4h14.72v-4zm-14.72 0c-4.242 0-6.882-.958-8.393-2.437l-2.799 2.858c2.586 2.532 6.474 3.579 11.192 3.579v-4zm-8.363-2.407c-1.48-1.51-2.437-4.15-2.437-8.393h-4c0 4.718 1.047 8.606 3.579 11.191l2.858-2.798zM4.139 17.92V16h-4v1.92h4zm0-1.92c0-4.247.96-6.851 2.422-8.314L3.733 4.858C1.184 7.406.139 11.288.139 16h4zM6.56 7.686C8.072 6.175 10.706 5.2 14.939 5.2v-4c-4.728 0-8.622 1.073-11.206 3.658L6.56 7.686zM14.939 5.2h22.464v-4H14.939v4zm20.464-2v8.96h4V3.2h-4zm2 6.96H17.499v4h19.904v-4zm-19.904 0c-1.588 0-3.147.398-4.294 1.546-1.148 1.147-1.546 2.706-1.546 4.294h4c0-.972.241-1.333.374-1.466.133-.132.494-.374 1.466-.374v-4zM11.659 16v1.28h4V16h-4zm0 1.28c0 1.588.398 3.147 1.545 4.294 1.148 1.148 2.707 1.546 4.295 1.546v-4c-.972 0-1.333-.242-1.466-.374-.133-.133-.374-.494-.374-1.466h-4zm5.84 5.84h11.52v-4h-11.52v4zm11.52 0c3.916 0 6.367.924 7.802 2.358l2.828-2.828c-2.49-2.491-6.184-3.53-10.63-3.53v4zm7.802 2.358c1.434 1.435 2.358 3.886 2.358 7.802h4c0-4.447-1.04-8.14-3.53-10.63l-2.828 2.828zm2.358 7.802v3.2h4v-3.2h-4zm0 3.2c0 3.916-.924 6.367-2.358 7.802l2.828 2.828c2.49-2.49 3.53-6.183 3.53-10.63h-4zm-2.358 7.802c-1.435 1.434-3.886 2.358-7.802 2.358v4c4.447 0 8.14-1.039 10.63-3.53l-2.828-2.828zm-7.802 2.358c-2.15 0-4.43-.042-6.842-.127l-.14 3.998c2.452.086 4.78.129 6.982.129v-4zm-6.825-.126l-5.888-.256-.174 3.996 5.888.256.174-3.996zm-5.877-.256a403.73 403.73 0 01-13.438-.891l-.329 3.986c4.671.386 9.195.686 13.57.9l.197-3.995zM4.715 47.36v-8.64h-4v8.64h4zM57.494 24l-.572-1.916-1.428.426V24h2zm0 15.36h-2v2h2v-2zm11.52-16l1.414-1.414-1.414 1.414zM57.494 48v-2h-2v2h2zm0 10.88v2h2v-2h-2zm-11.2 0h-2v2h2v-2zm0-44.8v-2h-2v2h2zm9.92 0l1.96-.392-.32-1.608h-1.64v2zm.64 3.2l-1.961.392.582 2.913 2.48-1.636-1.101-1.669zm6.144-2.88l.55 1.923.012-.004.012-.003-.574-1.916zm15.232 1.664l-1.415 1.414 1.415-1.414zm-.128 29.248l1.414 1.414-1.414-1.414zM65.174 20.72c-2.506 0-5.264.471-8.252 1.364l1.144 3.832c2.728-.814 5.09-1.196 7.108-1.196v-4zM55.494 24v15.36h4V24h-4zm2 17.36h9.6v-4h-9.6v4zm9.6 0c1.161 0 2.4-.292 3.334-1.226.934-.934 1.226-2.172 1.226-3.334h-4c0 .545-.135.587-.054.506.08-.08.039.054-.506.054v4zm4.56-4.56V24.96h-4V36.8h4zm0-11.84c0-1.135-.4-2.188-1.226-3.014L67.6 24.774c.017.018.026.03.03.035a.07.07 0 01.007.014.38.38 0 01.017.137h4zm-1.226-3.014c-.826-.827-1.88-1.226-3.014-1.226v4a.38.38 0 01.137.017.066.066 0 01.013.007.241.241 0 01.036.03l2.828-2.828zm-3.014-1.226h-2.24v4h2.24v-4zM55.494 48v10.88h4V48h-4zm2 8.88h-11.2v4h11.2v-4zm-9.2 2v-44.8h-4v44.8h4zm-2-42.8h9.92v-4h-9.92v4zm7.959-1.608l.64 3.2 3.922-.784-.64-3.2-3.922.784zm3.702 4.478c1.853-1.223 3.717-2.091 5.592-2.627l-1.099-3.846c-2.306.659-4.538 1.71-6.695 3.133l2.202 3.34zm5.617-2.634c2.036-.61 3.62-.876 4.802-.876v-4c-1.72 0-3.72.375-5.95 1.044l1.148 3.832zm4.802-.876h2.88v-4h-2.88v4zm2.88 0c2.47 0 4.252.729 5.561 2.038l2.829-2.828c-2.189-2.19-5.057-3.21-8.39-3.21v4zm5.561 2.038c1.31 1.31 2.039 3.092 2.039 5.562h4c0-3.333-1.021-6.201-3.21-8.39l-2.829 2.828zm2.039 5.562v14.72h4V23.04h-4zm0 14.72c0 2.8-.79 4.762-2.166 6.138l2.828 2.828c2.293-2.293 3.338-5.367 3.338-8.966h-4zm-2.166 6.138C75.362 45.222 73.43 46 70.614 46v4c3.584 0 6.642-1.014 8.902-3.274l-2.829-2.828zM70.614 46h-13.12v4h13.12v-4zm26.552-18.48h-2v2h2v-2zm10.88 0v2h2v-2h-2zm9.92 19.84l.206 1.99 1.794-.187V47.36h-2zM88.59 46.016l-1.414 1.414 1.414-1.414zm.064-29.824l1.415 1.414-1.415-1.414zm27.84 0l-1.431 1.398.017.016.017.017 1.397-1.431zm2.752 19.328v2h2v-2h-2zm-22.08 0v-2h-2v2h2zm.64 4.16l1.415-1.414-1.415 1.414zm20.16-.32h2v-2.163l-2.156.17.156 1.993zm-18.24-19.92c-1.161 0-2.4.292-3.334 1.226-.934.934-1.226 2.172-1.226 3.334h4c0-.545.135-.587.055-.506-.081.08-.04-.054.505-.054v-4zM95.166 24v3.52h4V24h-4zm2 5.52h10.88v-4h-10.88v4zm12.88-2V24h-4v3.52h4zm0-3.52c0-1.162-.292-2.4-1.226-3.334-.934-.934-2.172-1.226-3.334-1.226v4c.545 0 .587.135.506.054-.081-.08.054-.039.054.506h4zm-4.56-4.56h-5.76v4h5.76v-4zm12.274 25.93c-8.181.849-15.578 1.27-22.194 1.27v4c6.782 0 14.318-.432 22.606-1.29l-.412-3.98zm-22.194 1.27c-2.47 0-4.252-.729-5.562-2.038l-2.828 2.828c2.189 2.19 5.057 3.21 8.39 3.21v-4zm-5.562-2.038c-1.31-1.31-2.038-3.092-2.038-5.562h-4c0 3.333 1.021 6.201 3.21 8.39l2.828-2.828zm-2.038-5.562V23.68h-4v15.36h4zm0-15.36c0-2.816.778-4.75 2.103-6.074l-2.829-2.828c-2.26 2.26-3.274 5.318-3.274 8.902h4zm2.103-6.074c1.375-1.376 3.336-2.166 6.137-2.166v-4c-3.599 0-6.673 1.044-8.966 3.338l2.829 2.828zm6.137-2.166h12.8v-4h-12.8v4zm12.8 0c2.803 0 4.73.79 6.057 2.15l2.862-2.796c-2.257-2.31-5.322-3.354-8.919-3.354v4zm6.091 2.183c1.358 1.327 2.149 3.254 2.149 6.057h4c0-3.597-1.044-6.662-3.354-8.919l-2.795 2.862zm2.149 6.057v11.84h4V23.68h-4zm2 9.84h-22.08v4h22.08v-4zm-24.08 2v2.56h4v-2.56h-4zm0 2.56c0 1.135.4 2.188 1.226 3.014l2.829-2.828a.233.233 0 01-.03-.035.067.067 0 01-.008-.014.382.382 0 01-.017-.137h-4zm1.226 3.014c.826.826 1.88 1.226 3.014 1.226v-4a.38.38 0 01-.137-.017.063.063 0 01-.013-.007.234.234 0 01-.035-.03l-2.829 2.828zm3.014 1.226c4.305 0 10.554-.325 18.717-.966l-.313-3.988c-8.136.64-14.26.954-18.404.954v4zm16.56-2.96v8h4v-8h-4zm39.095 8l.213 1.989 1.787-.191V47.36h-2zm-28.096-1.344l-1.414 1.414 1.414-1.414zm.064-29.184l1.414 1.414-1.414-1.414zm28.032-2.752h2v-2h-2v2zm0 8.64v2h2v-2h-2zm0 16.32h2v-2.174l-2.166.18.166 1.994zm-.212 6.331c-7.929.848-14.896 1.269-20.908 1.269v4c6.191 0 13.304-.433 21.333-1.291l-.425-3.978zm-20.908 1.269c-2.469 0-4.252-.729-5.562-2.038l-2.828 2.828c2.189 2.19 5.057 3.21 8.39 3.21v-4zm-5.562-2.038c-1.309-1.31-2.038-3.092-2.038-5.562h-4c0 3.333 1.021 6.201 3.21 8.39l2.828-2.828zm-2.038-5.562V24.32h-4v14.72h4zm0-14.72c0-2.816.778-4.75 2.102-6.074l-2.828-2.828c-2.259 2.26-3.274 5.318-3.274 8.902h4zm2.102-6.074c1.376-1.376 3.337-2.166 6.138-2.166v-4c-3.599 0-6.673 1.044-8.966 3.338l2.828 2.828zm6.138-2.166h20.48v-4h-20.48v4zm18.48-2v8.64h4v-8.64h-4zm2 6.64h-16.96v4h16.96v-4zm-16.96 0c-1.161 0-2.4.292-3.334 1.226-.934.934-1.226 2.172-1.226 3.334h4c0-.545.135-.587.054-.506-.08.08-.039-.054.506-.054v-4zm-4.56 4.56v12.48h4V25.28h-4zm0 12.48c0 1.135.4 2.188 1.226 3.014l2.828-2.828a.342.342 0 01-.03-.035.201.201 0 01-.007-.014.38.38 0 01-.017-.137h-4zm1.226 3.014c.826.826 1.88 1.226 3.014 1.226v-4a.382.382 0 01-.137-.017.216.216 0 01-.049-.037l-2.828 2.828zM137.781 42c3.927 0 9.754-.326 17.446-.967l-.332-3.986c-7.668.639-13.36.953-17.114.953v4zm15.28-2.96v8.32h4v-8.32h-4zm21.188-23.68h2v-2h-2v2zm0 32.64v2h2v-2h-2zm-11.2 0h-2v2h2v-2zm0-24h2v-2h-2v2zm-4.8 0h-2v2h2v-2zm0-8.64v-2h-2v2h2zm4.8-12.8v-2h-2v2h2zm11.2 0h2v-2h-2v2zm0 8.96v2h2v-2h-2zm-11.2 0h-2v2h2v-2zm9.2 3.84V48h4V15.36h-4zm2 30.64h-11.2v4h11.2v-4zm-9.2 2V24h-4v24h4zm-2-26h-4.8v4h4.8v-4zm-2.8 2v-8.64h-4V24h4zm-2-6.64h16v-4h-16v4zm4.8-12.8h11.2v-4h-11.2v4zm9.2-2v8.96h4V2.56h-4zm2 6.96h-11.2v4h11.2v-4zm-9.2 2V2.56h-4v8.96h4zm36.74 26.88l.572 1.916 1.428-.426V38.4h-2zm0-3.84h2v-2h-2v2zm-10.88.64l1.414 1.414-1.414-1.414zm0 3.84l-1.414 1.414 1.414-1.414zm-8.64-24.32l-.218-1.988-1.782.195v1.793h2zm28.096 1.344l-1.414 1.414 1.414-1.414zM212.989 48v2h2v-2h-2zm-9.92 0l-1.961.392.321 1.608h1.64v-2zm-.64-3.2l1.961-.392-.583-2.913-2.479 1.636 1.101 1.669zm-6.208 2.944l.549 1.923.013-.004.012-.003-.574-1.916zm-14.528-1.728l-1.414 1.414 1.414-1.414zm0-16.832l1.414 1.414-1.414-1.414zm20.096-2.624v2h2v-2h-2zm-.64-4.16l-1.414 1.414 1.414-1.414zm-10.816-.256l-.152-1.994h-.002l.154 1.994zm-8.064.576h-2v2.129l2.125-.133-.125-1.996zm11.84 18.96c2.505 0 5.263-.471 8.252-1.364l-1.144-3.832c-2.729.814-5.091 1.196-7.108 1.196v4zm9.68-3.28v-3.84h-4v3.84h4zm-2-5.84h-9.28v4h9.28v-4zm-9.28 0c-1.135 0-2.188.4-3.014 1.226l2.828 2.828c.018-.018.03-.026.035-.03a.049.049 0 01.014-.007.37.37 0 01.137-.017v-4zm-3.014 1.226c-.827.826-1.226 1.88-1.226 3.014h4a.38.38 0 01.017-.137.035.035 0 01.007-.014c.004-.005.012-.017.03-.035l-2.828-2.828zm-1.226 3.014v.64h4v-.64h-4zm0 .64c0 1.135.399 2.188 1.226 3.014l2.828-2.828c-.018-.018-.026-.03-.03-.035a.035.035 0 01-.007-.014.38.38 0 01-.017-.137h-4zm1.226 3.014c.826.827 1.879 1.226 3.014 1.226v-4a.37.37 0 01-.137-.017.049.049 0 01-.014-.007c-.005-.004-.017-.012-.035-.03l-2.828 2.828zm3.014 1.226h1.6v-4h-1.6v4zm-10.023-24.972c7.753-.847 14.719-1.268 20.903-1.268v-4c-6.36 0-13.474.433-21.338 1.292l.435 3.976zm20.903-1.268c2.469 0 4.252.729 5.562 2.038l2.828-2.828c-2.189-2.19-5.057-3.21-8.39-3.21v4zm5.562 2.038c1.309 1.31 2.038 3.092 2.038 5.562h4c0-3.333-1.021-6.201-3.21-8.39l-2.828 2.828zm2.038 5.562V48h4V23.04h-4zm2 22.96h-9.92v4h9.92v-4zm-7.959 1.608l-.64-3.2-3.922.784.64 3.2 3.922-.784zm-3.702-4.477c-1.856 1.223-3.749 2.117-5.682 2.697l1.149 3.832c2.334-.7 4.58-1.769 6.735-3.19l-2.202-3.34zm-5.657 2.69c-1.991.569-3.565.819-4.762.819v4c1.704 0 3.671-.347 5.861-.973l-1.099-3.846zm-4.762.819h-2.24v4h2.24v-4zm-2.24 0c-2.47 0-4.252-.729-5.562-2.038l-2.828 2.828c2.188 2.19 5.057 3.21 8.39 3.21v-4zm-5.562-2.038c-1.31-1.31-2.038-3.092-2.038-5.562h-4c0 3.333 1.021 6.201 3.21 8.39l2.828-2.828zm-2.038-5.562v-2.88h-4v2.88h4zm0-2.88c0-2.47.728-4.252 2.038-5.562l-2.828-2.828c-2.189 2.189-3.21 5.057-3.21 8.39h4zm2.038-5.562c1.31-1.31 3.092-2.038 5.562-2.038v-4c-3.333 0-6.202 1.02-8.39 3.21l2.828 2.828zm5.562-2.038h13.12v-4h-13.12v4zm15.12-2V24h-4v2.56h4zm0-2.56c0-1.135-.4-2.188-1.226-3.014l-2.828 2.828c.017.018.026.03.03.035l.007.014a.38.38 0 01.017.137h4zm-1.226-3.014c-.826-.826-1.88-1.226-3.014-1.226v4c.094 0 .132.015.137.017a.216.216 0 01.049.037l2.828-2.828zm-3.014-1.226c-2.834 0-5.957.13-9.368.39l.303 3.988c3.331-.253 6.351-.378 9.065-.378v-4zm-9.37.39a588.44 588.44 0 01-8.035.574l.25 3.992a590.72 590.72 0 008.092-.578l-.307-3.988zm-5.91 2.57v-8h-4v8h4zM236.011 48l.295 1.978 1.705-.254V48h-2zm-14.656-1.984l1.414-1.414-1.414 1.414zM218.731 3.2v-2h-2v2h2zm11.2 0h2v-2h-2v2zm6.08 36.48h2v-2h-2v2zm-.295 6.342c-2.771.414-5.403.618-7.897.618v4c2.712 0 5.542-.222 8.487-.662l-.59-3.956zm-7.897.618c-2.05 0-3.69-.678-5.05-2.038l-2.828 2.828c2.139 2.139 4.808 3.21 7.878 3.21v-4zm-5.05-2.038c-1.309-1.31-2.038-3.092-2.038-5.562h-4c0 3.333 1.021 6.201 3.21 8.39l2.828-2.828zm-2.038-5.562V3.2h-4v35.84h4zm-2-33.84h11.2v-4h-11.2v4zm9.2-2v34.24h4V3.2h-4zm0 34.24c0 1.135.4 2.188 1.226 3.014l2.828-2.828a.342.342 0 01-.03-.035.201.201 0 01-.007-.014.38.38 0 01-.017-.137h-4zm1.226 3.014c.826.827 1.88 1.226 3.014 1.226v-4a.382.382 0 01-.137-.017.216.216 0 01-.049-.037l-2.828 2.828zm3.014 1.226h3.84v-4h-3.84v4zm1.84-2V48h4v-8.32h-4zm63.546 5.952l-1.414-1.414 1.414 1.414zm-35.52 0l-1.429 1.4.014.014.016.015 1.399-1.429zm0-40l-1.414-1.414 1.414 1.414zm35.52 0l-1.429 1.4.014.014.016.015 1.399-1.429zm-6.448 9.728c0-1.588-.399-3.147-1.546-4.294-1.147-1.148-2.706-1.546-4.294-1.546v4c.971 0 1.333.242 1.466.374.132.133.374.494.374 1.466h4zm-5.84-5.84h-10.88v4h10.88v-4zm-10.88 0c-1.589 0-3.147.398-4.294 1.546-1.148 1.147-1.546 2.706-1.546 4.294h4c0-.972.241-1.333.374-1.466.133-.132.494-.374 1.466-.374v-4zm-5.84 5.84v20.48h4V15.36h-4zm0 20.48c0 1.588.398 3.147 1.546 4.294 1.147 1.148 2.705 1.546 4.294 1.546v-4c-.972 0-1.333-.242-1.466-.374-.133-.133-.374-.494-.374-1.466h-4zm5.84 5.84h10.88v-4h-10.88v4zm10.88 0c1.588 0 3.147-.398 4.294-1.546 1.147-1.147 1.546-2.706 1.546-4.294h-4c0 .972-.242 1.333-.374 1.466-.133.132-.495.374-1.466.374v4zm5.84-5.84V15.36h-4v20.48h4zm7.52 0c0 4.233-.975 6.866-2.486 8.378l2.828 2.828c2.584-2.584 3.658-6.479 3.658-11.206h-4zm-2.486 8.378c-1.463 1.462-4.067 2.422-8.314 2.422v4c4.713 0 8.594-1.045 11.142-3.594l-2.828-2.828zm-8.314 2.422h-16v4h16v-4zm-16 0c-4.242 0-6.882-.958-8.393-2.437l-2.798 2.858c2.585 2.532 6.473 3.579 11.191 3.579v-4zm-8.363-2.407c-1.479-1.51-2.437-4.15-2.437-8.393h-4c0 4.718 1.047 8.606 3.579 11.191l2.858-2.798zm-2.437-8.393V15.36h-4v20.48h4zm0-20.48c0-4.247.96-6.851 2.422-8.314l-2.828-2.828c-2.549 2.548-3.594 6.43-3.594 11.142h4zm2.422-8.314c1.511-1.511 4.145-2.486 8.378-2.486v-4c-4.728 0-8.622 1.073-11.206 3.658l2.828 2.828zm8.378-2.486h16v-4h-16v4zm16 0c4.237 0 6.835.977 8.299 2.471l2.858-2.798C296.439 1.63 292.551.56 287.829.56v4zm8.329 2.501c1.494 1.463 2.471 4.062 2.471 8.299h4c0-4.723-1.072-8.61-3.673-11.157l-2.798 2.858zm2.471 8.299v20.48h4V15.36h-4zm35.31-3.52l-.138 1.995 2.138.148V11.84h-2zm-13.12 0l1.414 1.414-1.414-1.414zm-.64 4.8h-2v2h2v-2zm10.56 0h2v-2h-2v2zm0 8.64v2h2v-2h-2zm-10.56 0v-2h-2v2h2zm0 22.72v2h2v-2h-2zm-11.2 0h-2v2h2v-2zm0-22.72h2v-2h-2v2zm-4.48 0h-2v2h2v-2zm0-8.64v-2h-2v2h2zm4.48 0v2h2v-2h-2zm2.624-11.456l1.414 1.414-1.414-1.414zM333.939 3.2h2V1.29l-1.907-.088-.093 1.998zm.137 6.645a362.444 362.444 0 01-4.899-.382l-.332 3.986c2.052.171 3.705.3 4.956.386l.275-3.99zm-4.899-.382c-2.085-.174-3.913-.263-5.478-.263v4c1.421 0 3.134.082 5.146.25l.332-3.987zm-5.478-.263c-.826 0-1.599.058-2.274.208-.64.142-1.418.415-2.02 1.018l2.828 2.828c-.176.176-.26.13.06.058.284-.063.738-.112 1.406-.112v-4zm-4.294 1.226c-.827.826-1.226 1.88-1.226 3.014h4a.38.38 0 01.017-.137.035.035 0 01.007-.014c.004-.005.012-.017.03-.035l-2.828-2.828zm-1.226 3.014v3.2h4v-3.2h-4zm2 5.2h10.56v-4h-10.56v4zm8.56-2v8.64h4v-8.64h-4zm2 6.64h-10.56v4h10.56v-4zm-12.56 2V48h4V25.28h-4zm2 20.72h-11.2v4h11.2v-4zm-9.2 2V25.28h-4V48h4zm-2-24.72h-4.48v4h4.48v-4zm-2.48 2v-8.64h-4v8.64h4zm-2-6.64h4.48v-4h-4.48v4zm6.48-2v-4.48h-4v4.48h4zm0-4.48c0-2.47.728-4.252 2.038-5.562l-2.828-2.828c-2.189 2.189-3.21 5.057-3.21 8.39h4zm2.038-5.562c1.31-1.31 3.092-2.038 5.562-2.038v-4c-3.333 0-6.202 1.02-8.39 3.21l2.828 2.828zm5.562-2.038c2.559 0 5.272.084 8.138.253l.235-3.994a143.479 143.479 0 00-8.373-.259v4zm8.138.253c2.906.17 5.283.299 7.129.385l.186-3.996a599.593 599.593 0 01-7.08-.383l-.235 3.994zm5.222-1.613v8.64h4V3.2h-4zm30.812 8.64l-.137 1.995 2.137.148V11.84h-2zm-13.12 0l1.414 1.414-1.414-1.414zm-.64 4.8h-2v2h2v-2zm10.56 0h2v-2h-2v2zm0 8.64v2h2v-2h-2zm-10.56 0v-2h-2v2h2zm0 22.72v2h2v-2h-2zm-11.2 0h-2v2h2v-2zm0-22.72h2v-2h-2v2zm-4.48 0h-2v2h2v-2zm0-8.64v-2h-2v2h2zm4.48 0v2h2v-2h-2zm2.624-11.456l1.414 1.414-1.414-1.414zM362.751 3.2h2V1.29l-1.907-.088-.093 1.998zm.138 6.645a361.108 361.108 0 01-4.9-.382l-.332 3.986c2.052.171 3.706.3 4.957.386l.275-3.99zm-4.9-.382c-2.084-.174-3.913-.263-5.478-.263v4c1.422 0 3.135.082 5.146.25l.332-3.987zm-5.478-.263c-.825 0-1.598.058-2.274.208-.64.142-1.417.415-2.02 1.018l2.828 2.828c-.175.176-.26.13.06.058.285-.063.739-.112 1.406-.112v-4zm-4.294 1.226c-.826.826-1.226 1.88-1.226 3.014h4a.38.38 0 01.017-.137.201.201 0 01.007-.014.342.342 0 01.03-.035l-2.828-2.828zm-1.226 3.014v3.2h4v-3.2h-4zm2 5.2h10.56v-4h-10.56v4zm8.56-2v8.64h4v-8.64h-4zm2 6.64h-10.56v4h10.56v-4zm-12.56 2V48h4V25.28h-4zm2 20.72h-11.2v4h11.2v-4zm-9.2 2V25.28h-4V48h4zm-2-24.72h-4.48v4h4.48v-4zm-2.48 2v-8.64h-4v8.64h4zm-2-6.64h4.48v-4h-4.48v4zm6.48-2v-4.48h-4v4.48h4zm0-4.48c0-2.47.729-4.252 2.038-5.562l-2.828-2.828c-2.189 2.189-3.21 5.057-3.21 8.39h4zm2.038-5.562c1.31-1.31 3.093-2.038 5.562-2.038v-4c-3.333 0-6.201 1.02-8.39 3.21l2.828 2.828zm5.562-2.038c2.56 0 5.272.084 8.139.253l.235-3.994a143.512 143.512 0 00-8.374-.259v4zm8.139.253c2.905.17 5.282.299 7.128.385l.186-3.996a600.762 600.762 0 01-7.079-.383l-.235 3.994zm5.221-1.613v8.64h4V3.2h-4zm13.853 24.32h-2v2h2v-2zm10.88 0v2h2v-2h-2zm9.92 19.84l.206 1.99 1.794-.187V47.36h-2zm-29.376-1.344l-1.414 1.414 1.414-1.414zm.064-29.824l1.414 1.414-1.414-1.414zm27.84 0l-1.431 1.398.016.016.017.017 1.398-1.431zm2.752 19.328v2h2v-2h-2zm-22.08 0v-2h-2v2h2zm.64 4.16l1.414-1.414-1.414 1.414zm20.16-.32h2v-2.163l-2.157.17.157 1.993zm-18.24-19.92c-1.162 0-2.4.292-3.334 1.226-.934.934-1.226 2.172-1.226 3.334h4c0-.545.135-.587.054-.506-.081.08-.039-.054.506-.054v-4zm-4.56 4.56v3.52h4V24h-4zm2 5.52h10.88v-4h-10.88v4zm12.88-2V24h-4v3.52h4zm0-3.52c0-1.162-.292-2.4-1.226-3.334-.934-.934-2.173-1.226-3.334-1.226v4c.545 0 .586.135.506.054-.081-.08.054-.039.054.506h4zm-4.56-4.56h-5.76v4h5.76v-4zm12.274 25.93c-8.182.849-15.578 1.27-22.194 1.27v4c6.781 0 14.318-.432 22.606-1.29l-.412-3.98zm-22.194 1.27c-2.47 0-4.252-.729-5.562-2.038l-2.828 2.828c2.188 2.19 5.057 3.21 8.39 3.21v-4zm-5.562-2.038c-1.31-1.31-2.038-3.092-2.038-5.562h-4c0 3.333 1.021 6.201 3.21 8.39l2.828-2.828zm-2.038-5.562V23.68h-4v15.36h4zm0-15.36c0-2.816.777-4.75 2.102-6.074l-2.828-2.828c-2.26 2.26-3.274 5.318-3.274 8.902h4zm2.102-6.074c1.376-1.376 3.337-2.166 6.138-2.166v-4c-3.599 0-6.673 1.044-8.966 3.338l2.828 2.828zm6.138-2.166h12.8v-4h-12.8v4zm12.8 0c2.803 0 4.73.79 6.057 2.15l2.862-2.796c-2.257-2.31-5.322-3.354-8.919-3.354v4zm6.09 2.183c1.359 1.327 2.15 3.254 2.15 6.057h4c0-3.597-1.044-6.662-3.355-8.919l-2.795 2.862zm2.15 6.057v11.84h4V23.68h-4zm2 9.84h-22.08v4h22.08v-4zm-24.08 2v2.56h4v-2.56h-4zm0 2.56c0 1.135.399 2.188 1.226 3.014l2.828-2.828c-.018-.018-.026-.03-.03-.035a.035.035 0 01-.007-.014.38.38 0 01-.017-.137h-4zm1.226 3.014c.826.826 1.879 1.226 3.014 1.226v-4a.37.37 0 01-.137-.017.049.049 0 01-.014-.007c-.005-.004-.017-.012-.035-.03l-2.828 2.828zm3.014 1.226c4.304 0 10.553-.325 18.716-.966l-.313-3.988c-8.136.64-14.26.954-18.403.954v4zm16.56-2.96v8h4v-8h-4zm20.215-14.08l-.818-1.825-1.182.53v1.295h2zm0 22.72v2h2v-2h-2zm-11.2 0h-2v2h2v-2zm0-33.92v-2h-2v2h2zm9.92 0l1.976-.304-.26-1.696h-1.716v2zm.64 4.16l-1.977.304.553 3.592 2.738-2.389-1.314-1.507zm14.4-4.8h2v-2h-2v2zm0 9.92v2h2v-2h-2zm-5.44-2c-3.013 0-6.064.718-9.138 2.095l1.635 3.65c2.644-1.183 5.139-1.745 7.503-1.745v-4zm-10.32 3.92V48h4V25.28h-4zm2 20.72h-11.2v4h11.2v-4zm-9.2 2V14.08h-4V48h4zm-2-31.92h9.92v-4h-9.92v4zm7.943-1.696l.64 4.16 3.953-.608-.64-4.16-3.953.608zm3.931 5.363c3.387-2.953 6.776-4.307 10.206-4.307v-4c-4.592 0-8.883 1.846-12.835 5.293l2.629 3.014zm10.206-4.307h2.88v-4h-2.88v4zm.88-2v9.92h4v-9.92h-4zm2 7.92h-5.44v4h5.44v-4zm3.197 17.68l.148-1.995-2.148-.158v2.153h2zm22.08.32l1.414 1.414-1.414-1.414zm.64-3.84h2v-2h-2v2zm-20.736-2.624l1.414-1.414-1.414 1.414zm0-16.192l1.414 1.414-1.414-1.414zm28.736-2.624h2v-2h-2v2zm0 8.32v2h2v-2h-2zm-19.52.64l1.414 1.414-1.414-1.414zm0 3.2l-1.414 1.414 1.414-1.414zm20.096 3.264l1.414-1.414-1.414 1.414zm0 16.512l1.414 1.414-1.414-1.414zm-31.296 1.344h-2v1.813l1.804.177.196-1.99zm-.147-6.325c8.68.641 15.563.965 20.627.965v-4c-4.92 0-11.69-.316-20.332-.955l-.295 3.99zm20.627.965c1.135 0 2.188-.4 3.014-1.226l-2.828-2.828c-.018.018-.03.026-.035.03a.049.049 0 01-.014.007.37.37 0 01-.137.017v4zm3.014-1.226c.827-.826 1.226-1.88 1.226-3.014h-4a.38.38 0 01-.017.137.035.035 0 01-.007.014c-.004.005-.012.017-.03.035l2.828 2.828zm1.226-3.014v-2.24h-4v2.24h4zm-2-4.24h-13.76v4h13.76v-4zm-13.76 0c-2.469 0-4.252-.729-5.562-2.038l-2.828 2.828c2.189 2.19 5.057 3.21 8.39 3.21v-4zm-5.562-2.038c-1.309-1.31-2.038-3.092-2.038-5.562h-4c0 3.333 1.021 6.201 3.21 8.39l2.828-2.828zm-2.038-5.562v-2.24h-4v2.24h4zm0-2.24c0-2.47.729-4.252 2.038-5.562l-2.828-2.828c-2.189 2.189-3.21 5.057-3.21 8.39h4zm2.038-5.562c1.31-1.31 3.093-2.038 5.562-2.038v-4c-3.333 0-6.201 1.02-8.39 3.21l2.828 2.828zm5.562-2.038h21.76v-4h-21.76v4zm19.76-2v8.32h4v-8.32h-4zm2 6.32h-17.92v4h17.92v-4zm-17.92 0c-1.134 0-2.188.4-3.014 1.226l2.828 2.828a.216.216 0 01.049-.037.382.382 0 01.137-.017v-4zm-3.014 1.226c-.826.826-1.226 1.88-1.226 3.014h4a.38.38 0 01.017-.137.201.201 0 01.007-.014.342.342 0 01.03-.035l-2.828-2.828zm-1.226 3.014c0 1.135.4 2.188 1.226 3.014l2.828-2.828a.342.342 0 01-.03-.035.201.201 0 01-.007-.014.38.38 0 01-.017-.137h-4zm1.226 3.014c.826.826 1.88 1.226 3.014 1.226v-4a.382.382 0 01-.137-.017.216.216 0 01-.049-.037l-2.828 2.828zm3.014 1.226h11.52v-4h-11.52v4zm11.52 0c2.47 0 4.252.729 5.562 2.038l2.828-2.828c-2.188-2.19-5.057-3.21-8.39-3.21v4zm5.562 2.038c1.31 1.31 2.038 3.092 2.038 5.562h4c0-3.333-1.021-6.201-3.21-8.39l-2.828 2.828zm2.038 5.562v2.56h4v-2.56h-4zm0 2.56c0 2.47-.728 4.252-2.038 5.562l2.828 2.828c2.189-2.189 3.21-5.057 3.21-8.39h-4zm-2.038 5.562c-1.31 1.31-3.092 2.038-5.562 2.038v4c3.333 0 6.202-1.02 8.39-3.21l-2.828-2.828zm-5.562 2.038c-7.477 0-15.518-.422-24.124-1.27l-.392 3.98c8.717.86 16.89 1.29 24.516 1.29v-4zm-22.32.72v-8.32h-4v8.32h4z" fill="#000" fill-opacity=".06"/></svg>