<svg width="698" height="90" fill="none" xmlns="http://www.w3.org/2000/svg"><path d="M3.072 57.08l.11-1.997-2.11-.115v2.112h2zm39.072.192l-1.414-1.414 1.414 1.414zm1.344-12.192h2v-2h-2v2zM6.72 40.568l-1.429 1.4.015.014.015.015 1.4-1.429zm0-32.16l1.414 1.414L6.72 8.408zM55.104 3.8h2v-2h-2v2zm0 13.44v2h2v-2h-2zm1.248 50.304l-1.414-1.414 1.414 1.414zM32.16 71.768l-.087 1.998h.017l.07-1.998zm-8.832-.384l-.098 1.998h.011l.087-1.998zM3.072 70.04h-2v1.842l1.836.151.164-1.993zm-.11-10.963c17.53.96 29.455 1.443 35.726 1.443v-4c-6.145 0-17.964-.477-35.507-1.437l-.218 3.994zm35.726 1.443c1.862 0 3.574-.538 4.87-1.834l-2.828-2.828c-.368.368-.96.662-2.042.662v4zm4.87-1.834c1.332-1.332 1.93-3.056 1.93-4.966h-4c0 1.034-.298 1.678-.758 2.138l2.828 2.828zm1.93-4.966v-8.64h-4v8.64h4zm-2-10.64h-22.08v4h22.08v-4zm-22.08 0c-6.482 0-10.754-1.46-13.289-3.941l-2.798 2.858c3.61 3.534 9.13 5.083 16.087 5.083v-4zM8.15 39.169c-2.482-2.535-3.94-6.807-3.94-13.289h-4c0 6.958 1.548 12.478 5.082 16.087L8.15 39.17zM4.21 25.88V23h-4v2.88h4zm0-2.88c0-6.487 1.46-10.713 3.925-13.178L5.306 6.994C1.755 10.544.208 16.047.208 23h4zM8.133 9.822C10.67 7.287 14.935 5.8 21.408 5.8v-4c-6.967 0-12.494 1.585-16.102 5.194l2.828 2.828zM21.408 5.8h33.696v-4H21.408v4zm31.696-2v13.44h4V3.8h-4zm2 11.44H25.248v4h29.856v-4zm-29.856 0c-2.228 0-4.267.558-5.734 2.026-1.467 1.467-2.026 3.506-2.026 5.734h4c0-1.612.402-2.453.854-2.906.453-.452 1.294-.854 2.906-.854v-4zM17.488 23v1.92h4V23h-4zm0 1.92c0 2.228.559 4.267 2.026 5.734 1.467 1.468 3.506 2.026 5.734 2.026v-4c-1.612 0-2.453-.402-2.906-.854-.452-.453-.854-1.294-.854-2.906h-4zm7.76 7.76h17.28v-4h-17.28v4zm17.28 0c6.007 0 9.994 1.414 12.41 3.83l2.828-2.828c-3.472-3.472-8.7-5.002-15.238-5.002v4zm12.41 3.83c2.416 2.416 3.83 6.403 3.83 12.41h4c0-6.537-1.53-11.766-5.002-15.238l-2.828 2.828zm3.83 12.41v4.8h4v-4.8h-4zm0 4.8c0 6.007-1.414 9.994-3.83 12.41l2.828 2.828c3.473-3.472 5.002-8.7 5.002-15.238h-4zm-3.83 12.41c-2.416 2.416-6.403 3.83-12.41 3.83v4c6.538 0 11.766-1.53 15.238-5.002l-2.828-2.828zm-12.41 3.83c-3.238 0-6.67-.063-10.298-.19l-.14 3.997c3.669.129 7.148.193 10.438.193v-4zm-10.281-.19l-8.832-.384-.174 3.996 8.832.384.174-3.996zm-8.821-.384a606.202 606.202 0 01-20.19-1.34l-.328 3.987a610.41 610.41 0 0020.322 1.349l.196-3.996zm-18.354.654V57.08h-4v12.96h4zM85.241 35l-.572-1.916-1.428.426V35h2zm0 23.04h-2v2h2v-2zm17.28-24l1.414-1.414-1.414 1.414zM85.241 71v-2h-2v2h2zm0 16.32v2h2v-2h-2zm-16.8 0h-2v2h2v-2zm0-67.2v-2h-2v2h2zm14.88 0l1.96-.392-.32-1.608h-1.64v2zm.96 4.8l-1.962.392.583 2.913 2.48-1.636-1.101-1.669zm9.216-4.32l.55 1.923.012-.004.012-.003-.574-1.916zm22.848 2.496l-1.415 1.414 1.415-1.414zm-.192 43.872l1.414 1.414-1.414-1.414zM96.761 31.08c-3.637 0-7.674.685-12.092 2.004l1.144 3.832c4.157-1.24 7.8-1.836 10.948-1.836v-4zM83.24 35v23.04h4V35h-4zm2 25.04h14.4v-4h-14.4v4zm14.4 0c1.588 0 3.146-.398 4.294-1.546 1.147-1.147 1.546-2.706 1.546-4.294h-4c0 .972-.242 1.333-.375 1.466-.132.132-.494.374-1.465.374v4zm5.84-5.84V36.44h-4V54.2h4zm0-17.76c0-1.455-.507-2.775-1.546-3.814l-2.829 2.828c.241.24.375.52.375.986h4zm-1.546-3.814c-1.04-1.04-2.36-1.546-3.814-1.546v4c.465 0 .745.134.985.374l2.829-2.828zm-3.814-1.546h-3.36v4h3.36v-4zM83.241 71v16.32h4V71h-4zm2 14.32h-16.8v4h16.8v-4zm-14.8 2v-67.2h-4v67.2h4zm-2-65.2h14.88v-4H68.44v4zm12.918-1.608l.96 4.8 3.923-.784-.96-4.8-3.922.784zm4.023 6.078c2.855-1.884 5.743-3.232 8.664-4.067l-1.099-3.846c-3.35.957-6.607 2.489-9.768 4.573l2.203 3.34zm8.69-4.074c3.101-.93 5.582-1.356 7.489-1.356v-4c-2.446 0-5.341.535-8.64 1.524l1.15 3.832zm7.489-1.356h4.32v-4h-4.32v4zm4.32 0c3.92 0 6.865 1.166 9.049 3.35l2.829-2.828c-3.064-3.064-7.095-4.522-11.878-4.522v4zm9.049 3.35c2.185 2.185 3.351 5.13 3.351 9.05h4c0-4.784-1.459-8.815-4.522-11.878l-2.829 2.828zm3.351 9.05v22.08h4V33.56h-4zm0 22.08c0 4.4-1.249 7.62-3.543 9.914l2.829 2.828c3.211-3.21 4.714-7.543 4.714-12.742h-4zm-3.543 9.914c-2.22 2.22-5.401 3.446-9.817 3.446v4c5.183 0 9.49-1.462 12.646-4.618l-2.829-2.828zM104.921 69h-19.68v4h19.68v-4zm39.828-28.72h-2v2h2v-2zm16.32 0v2h2v-2h-2zm14.88 29.76l.207 1.99 1.793-.186V70.04h-2zm-44.064-2.016l-1.414 1.414 1.414-1.414zm.096-44.736l1.415 1.414-1.415-1.414zm41.76 0l-1.43 1.398.016.016.017.017 1.397-1.431zm4.128 28.992v2h2v-2h-2zm-33.12 0v-2h-2v2h2zm.96 6.24l1.415-1.414-1.415 1.414zm30.24-.48h2v-2.163l-2.156.17.156 1.993zm-27.36-28.88c-1.588 0-3.146.398-4.294 1.546-1.147 1.147-1.546 2.706-1.546 4.294h4c0-.972.242-1.333.375-1.466.132-.132.494-.374 1.465-.374v-4zm-5.84 5.84v5.28h4V35h-4zm2 7.28h16.32v-4h-16.32v4zm18.32-2V35h-4v5.28h4zm0-5.28c0-1.588-.398-3.147-1.545-4.294-1.148-1.148-2.706-1.546-4.295-1.546v4c.972 0 1.334.242 1.466.374.133.133.374.494.374 1.466h4zm-5.84-5.84h-8.64v4h8.64v-4zm18.514 38.89c-12.299 1.275-23.428 1.91-33.394 1.91v4c10.131 0 21.401-.645 33.807-1.93l-.413-3.98zm-33.394 1.91c-3.92 0-6.865-1.166-9.049-3.35l-2.829 2.828c3.064 3.064 7.095 4.522 11.878 4.522v-4zm-9.049-3.35c-2.185-2.185-3.351-5.13-3.351-9.05h-4c0 4.784 1.459 8.815 4.522 11.878l2.829-2.828zm-3.351-9.05V34.52h-4v23.04h4zm0-23.04c0-4.416 1.226-7.597 3.447-9.818l-2.829-2.828c-3.155 3.155-4.618 7.462-4.618 12.646h4zm3.447-9.818c2.293-2.293 5.513-3.542 9.913-3.542v-4c-5.199 0-9.531 1.503-12.742 4.714l2.829 2.828zm9.913-3.542h19.2v-4h-19.2v4zm19.2 0c4.403 0 7.579 1.25 9.802 3.526l2.861-2.796c-3.153-3.227-7.466-4.73-12.663-4.73v4zm9.835 3.559c2.276 2.223 3.525 5.398 3.525 9.801h4c0-5.197-1.502-9.51-4.73-12.663l-2.795 2.862zm3.525 9.801v17.76h4V34.52h-4zm2 15.76h-33.12v4h33.12v-4zm-35.12 2v3.84h4v-3.84h-4zm0 3.84c0 1.455.507 2.775 1.546 3.814l2.829-2.828c-.241-.24-.375-.52-.375-.986h-4zm1.546 3.814c1.04 1.04 2.36 1.546 3.814 1.546v-4c-.465 0-.745-.134-.985-.374l-2.829 2.828zm3.814 1.546c6.417 0 15.759-.485 27.997-1.446l-.313-3.988c-12.211.96-21.428 1.434-27.684 1.434v4zm25.84-3.44v12h4v-12h-4zm57.643 12l.213 1.989 1.787-.191V70.04h-2zm-42.144-2.016l-1.414 1.414 1.414-1.414zm.096-43.776l1.414 1.414-1.414-1.414zm42.048-4.128h2v-2h-2v2zm0 12.96v2h2v-2h-2zm0 24.48h2v-2.174l-2.166.18.166 1.994zm-.213 10.491c-11.918 1.275-22.404 1.909-31.467 1.909v4c9.241 0 19.875-.646 31.893-1.931l-.426-3.978zm-31.467 1.909c-3.92 0-6.865-1.166-9.05-3.35l-2.828 2.828c3.063 3.064 7.094 4.522 11.878 4.522v-4zm-9.05-3.35c-2.184-2.185-3.35-5.13-3.35-9.05h-4c0 4.784 1.458 8.815 4.522 11.878l2.828-2.828zm-3.35-9.05V35.48h-4v22.08h4zm0-22.08c0-4.416 1.226-7.597 3.446-9.818l-2.828-2.828c-3.156 3.155-4.618 7.462-4.618 12.646h4zm3.446-9.818c2.293-2.293 5.513-3.542 9.914-3.542v-4c-5.199 0-9.532 1.503-12.742 4.714l2.828 2.828zm9.914-3.542h30.72v-4h-30.72v4zm28.72-2v12.96h4V20.12h-4zm2 10.96h-25.44v4h25.44v-4zm-25.44 0c-1.588 0-3.147.398-4.294 1.546-1.148 1.147-1.546 2.706-1.546 4.294h4c0-.972.241-1.333.374-1.466.133-.132.494-.374 1.466-.374v-4zm-5.84 5.84v18.72h4V36.92h-4zm0 18.72c0 1.455.506 2.775 1.546 3.814l2.828-2.828c-.24-.24-.374-.52-.374-.986h-4zm1.546 3.814c1.039 1.04 2.359 1.546 3.814 1.546v-4c-.465 0-.746-.134-.986-.374l-2.828 2.828zM205.672 61c5.846 0 14.554-.486 26.086-1.447l-.332-3.986C219.918 56.526 211.345 57 205.672 57v4zm23.92-3.44v12.48h4V57.56h-4zm30.781-35.52h2v-2h-2v2zm0 48.96v2h2v-2h-2zm-16.8 0h-2v2h2v-2zm0-36h2v-2h-2v2zm-7.2 0h-2v2h2v-2zm0-12.96v-2h-2v2h2zm7.2-19.2v-2h-2v2h2zm16.8 0h2v-2h-2v2zm0 13.44v2h2v-2h-2zm-16.8 0h-2v2h2v-2zm14.8 5.76V71h4V22.04h-4zm2 46.96h-16.8v4h16.8v-4zm-14.8 2V35h-4v36h4zm-2-38h-7.2v4h7.2v-4zm-5.2 2V22.04h-4V35h4zm-2-10.96h24v-4h-24v4zm7.2-19.2h16.8v-4h-16.8v4zm14.8-2v13.44h4V2.84h-4zm2 11.44h-16.8v4h16.8v-4zm-14.8 2V2.84h-4v13.44h4zm56.11 40.32l.572 1.916 1.428-.426V56.6h-2zm0-5.76h2v-2h-2v2zm-16.32.96l1.414 1.414-1.414-1.414zm0 5.76l-1.414 1.414 1.414-1.414zm-12.96-36.48l-.217-1.988-1.783.195v1.793h2zm42.144 2.016l-1.414 1.414 1.414-1.414zM318.483 71v2h2v-2h-2zm-14.88 0l-1.961.392.322 1.608h1.639v-2zm-.96-4.8l1.961-.392-.582-2.913-2.48 1.636 1.101 1.669zm-9.312 4.416l.55 1.923.012-.004.013-.003-.575-1.916zm-21.792-2.592l-1.414 1.414 1.414-1.414zm0-25.248l1.414 1.414-1.414-1.414zm30.144-3.936v2h2v-2h-2zm-.96-6.24l-1.414 1.414 1.414-1.414zm-16.224-.384l-.151-1.994h-.002l.153 1.994zm-12.096.864h-2v2.129l2.125-.133-.125-1.996zm17.76 27.44c3.636 0 7.674-.685 12.092-2.004l-1.144-3.832c-4.158 1.24-7.8 1.836-10.948 1.836v4zm13.52-3.92v-5.76h-4v5.76h4zm-2-7.76h-13.92v4h13.92v-4zm-13.92 0c-1.455 0-2.774.506-3.814 1.546l2.828 2.828c.241-.24.521-.374.986-.374v-4zm-3.814 1.546c-1.04 1.04-1.546 2.36-1.546 3.814h4c0-.465.134-.745.374-.986l-2.828-2.828zm-1.546 3.814v.96h4v-.96h-4zm0 .96c0 1.455.506 2.775 1.546 3.814l2.828-2.828c-.24-.24-.374-.52-.374-.986h-4zm1.546 3.814c1.04 1.04 2.359 1.546 3.814 1.546v-4c-.465 0-.745-.134-.986-.374l-2.828 2.828zm3.814 1.546h2.4v-4h-2.4v4zM272.62 23.068c11.657-1.274 22.143-1.908 31.463-1.908v-4c-9.496 0-20.13.646-31.897 1.932l.434 3.976zm31.463-1.908c3.92 0 6.865 1.166 9.05 3.35l2.828-2.828c-3.063-3.064-7.094-4.522-11.878-4.522v4zm9.05 3.35c2.184 2.185 3.35 5.13 3.35 9.05h4c0-4.784-1.458-8.815-4.522-11.878l-2.828 2.828zm3.35 9.05V71h4V33.56h-4zm2 35.44h-14.88v4h14.88v-4zm-12.919 1.608l-.96-4.8-3.922.784.96 4.8 3.922-.784zm-4.022-6.078c-2.858 1.886-5.786 3.27-8.786 4.17l1.15 3.832c3.4-1.02 6.68-2.58 9.838-4.662l-2.202-3.34zm-8.76 4.163c-3.037.868-5.496 1.267-7.419 1.267v4c2.43 0 5.282-.497 8.518-1.421l-1.099-3.846zm-7.419 1.267h-3.36v4h3.36v-4zm-3.36 0c-3.92 0-6.865-1.166-9.05-3.35l-2.828 2.828c3.063 3.064 7.094 4.522 11.878 4.522v-4zm-9.05-3.35c-2.184-2.185-3.35-5.13-3.35-9.05h-4c0 4.784 1.458 8.815 4.522 11.878l2.828-2.828zm-3.35-9.05v-4.32h-4v4.32h4zm0-4.32c0-3.92 1.166-6.865 3.35-9.05l-2.828-2.828c-3.064 3.063-4.522 7.094-4.522 11.878h4zm3.35-9.05c2.185-2.184 5.13-3.35 9.05-3.35v-4c-4.784 0-8.815 1.458-11.878 4.522l2.828 2.828zm9.05-3.35h19.68v-4h-19.68v4zm21.68-2V35h-4v3.84h4zm0-3.84c0-1.455-.506-2.775-1.546-3.814l-2.828 2.828c.24.24.374.52.374.986h4zm-1.546-3.814c-1.039-1.04-2.359-1.546-3.814-1.546v4c.465 0 .746.134.986.374l2.828-2.828zm-3.814-1.546c-4.22 0-8.879.195-13.975.582l.303 3.988c5.016-.38 9.572-.57 13.672-.57v-4zm-13.977.582c-4.988.383-9.009.67-12.068.862l.25 3.992a886.2 886.2 0 0012.125-.866l-.307-3.988zm-9.943 2.858v-12h-4v12h4zM353.017 71l.295 1.978 1.705-.254V71h-2zm-21.984-2.976l1.414-1.414-1.414 1.414zM327.097 3.8v-2h-2v2h2zm16.8 0h2v-2h-2v2zm9.12 54.72h2v-2h-2v2zm-.295 10.502c-4.201.627-8.198.938-11.993.938v4c4.013 0 8.208-.329 12.583-.982l-.59-3.956zm-11.993.938c-3.33 0-6.047-1.116-8.282-3.35l-2.828 2.828c3.013 3.014 6.76 4.522 11.11 4.522v-4zm-8.282-3.35c-2.184-2.185-3.35-5.13-3.35-9.05h-4c0 4.784 1.458 8.815 4.522 11.878l2.828-2.828zm-3.35-9.05V3.8h-4v53.76h4zm-2-51.76h16.8v-4h-16.8v4zm14.8-2v51.36h4V3.8h-4zm0 51.36c0 1.455.506 2.775 1.546 3.814l2.828-2.828c-.24-.24-.374-.52-.374-.986h-4zm1.546 3.814c1.039 1.04 2.359 1.546 3.814 1.546v-4c-.465 0-.746-.134-.986-.374l-2.828 2.828zm3.814 1.546h5.76v-4h-5.76v4zm3.76-2V71h4V58.52h-4zm94.318 8.928l-1.414-1.414 1.414 1.414zm-53.28 0l-1.429 1.4.015.014.015.015 1.399-1.429zm0-60l-1.414-1.414 1.414 1.414zm53.28 0l-1.429 1.4.015.014.015.015 1.399-1.429zM434.663 22.04c0-2.228-.558-4.267-2.026-5.734-1.467-1.468-3.506-2.026-5.734-2.026v4c1.612 0 2.453.402 2.906.854.453.453.854 1.294.854 2.906h4zm-7.76-7.76h-16.32v4h16.32v-4zm-16.32 0c-2.228 0-4.267.558-5.734 2.026-1.467 1.467-2.026 3.506-2.026 5.734h4c0-1.612.402-2.453.854-2.906.453-.452 1.294-.854 2.906-.854v-4zm-7.76 7.76v30.72h4V22.04h-4zm0 30.72c0 2.228.559 4.267 2.026 5.734 1.467 1.468 3.506 2.026 5.734 2.026v-4c-1.612 0-2.453-.402-2.906-.854-.452-.453-.854-1.294-.854-2.906h-4zm7.76 7.76h16.32v-4h-16.32v4zm16.32 0c2.228 0 4.267-.558 5.734-2.026 1.468-1.467 2.026-3.506 2.026-5.734h-4c0 1.612-.401 2.453-.854 2.906-.453.452-1.294.854-2.906.854v4zm7.76-7.76V22.04h-4v30.72h4zm13.28 0c0 6.473-1.487 10.738-4.022 13.274l2.828 2.828c3.609-3.608 5.194-9.135 5.194-16.102h-4zm-4.022 13.274c-2.465 2.465-6.691 3.926-13.178 3.926v4c6.953 0 12.455-1.547 16.006-5.098l-2.828-2.828zm-13.178 3.926h-24v4h24v-4zm-24 0c-6.482 0-10.754-1.46-13.289-3.941l-2.798 2.858c3.609 3.534 9.129 5.083 16.087 5.083v-4zm-13.259-3.911c-2.482-2.535-3.941-6.807-3.941-13.289h-4c0 6.958 1.549 12.478 5.083 16.087l2.858-2.798zm-3.941-13.289V22.04h-4v30.72h4zm0-30.72c0-6.487 1.461-10.713 3.926-13.178l-2.828-2.828c-3.551 3.55-5.098 9.053-5.098 16.006h4zm3.926-13.178c2.536-2.535 6.801-4.022 13.274-4.022v-4c-6.967 0-12.494 1.585-16.102 5.194l2.828 2.828zm13.274-4.022h24v-4h-24v4zm24 0c6.478 0 10.697 1.489 13.163 4.007l2.858-2.798C443.214 2.423 437.706.84 430.743.84v4zm13.193 4.037c2.518 2.466 4.007 6.686 4.007 13.163h4c0-6.963-1.583-12.471-5.209-16.021l-2.798 2.858zm4.007 13.163v30.72h4V22.04h-4zm51.965-5.28l-.137 1.995 2.137.148V16.76h-2zm-19.68 0l1.414 1.414-1.414-1.414zm-.96 7.2h-2v2h2v-2zm15.84 0h2v-2h-2v2zm0 12.96v2h2v-2h-2zm-15.84 0v-2h-2v2h2zm0 34.08v2h2v-2h-2zm-16.8 0h-2v2h2v-2zm0-34.08h2v-2h-2v2zm-6.72 0h-2v2h2v-2zm0-12.96v-2h-2v2h2zm6.72 0v2h2v-2h-2zm3.936-17.184l1.414 1.414-1.414-1.414zM499.908 3.8h2V1.89l-1.907-.088-.093 1.998zm.138 10.965a540.058 540.058 0 01-7.364-.574l-.332 3.986c3.076.256 5.551.45 7.421.578l.275-3.99zm-7.364-.574c-3.108-.26-5.822-.391-8.134-.391v4c2.169 0 4.766.124 7.802.377l.332-3.986zm-8.134-.391c-1.199 0-2.278.084-3.194.288-.88.195-1.831.549-2.54 1.258l2.828 2.828c-.069.07.02-.057.58-.182.524-.116 1.285-.192 2.326-.192v-4zm-5.734 1.546c-1.04 1.04-1.546 2.36-1.546 3.814h4c0-.465.134-.745.374-.986l-2.828-2.828zm-1.546 3.814v4.8h4v-4.8h-4zm2 6.8h15.84v-4h-15.84v4zm13.84-2v12.96h4V23.96h-4zm2 10.96h-15.84v4h15.84v-4zm-17.84 2V71h4V36.92h-4zm2 32.08h-16.8v4h16.8v-4zm-14.8 2V36.92h-4V71h4zm-2-36.08h-6.72v4h6.72v-4zm-4.72 2V23.96h-4v12.96h4zm-2-10.96h6.72v-4h-6.72v4zm8.72-2v-6.72h-4v6.72h4zm0-6.72c0-3.92 1.166-6.865 3.35-9.05l-2.828-2.828c-3.064 3.063-4.522 7.094-4.522 11.878h4zm3.35-9.05c2.185-2.184 5.13-3.35 9.05-3.35v-4c-4.784 0-8.815 1.458-11.878 4.522l2.828 2.828zm9.05-3.35c3.861 0 7.949.127 12.267.38l.235-3.993A213.343 213.343 0 00476.868.84v4zm12.267.38c4.356.257 7.917.45 10.68.578l.186-3.996a901.844 901.844 0 01-10.631-.575l-.235 3.994zm8.773-1.42v12.96h4V3.8h-4zm45.219 12.96l-.138 1.995 2.138.148V16.76h-2zm-19.68 0l1.414 1.414-1.414-1.414zm-.96 7.2h-2v2h2v-2zm15.84 0h2v-2h-2v2zm0 12.96v2h2v-2h-2zm-15.84 0v-2h-2v2h2zm0 34.08v2h2v-2h-2zm-16.8 0h-2v2h2v-2zm0-34.08h2v-2h-2v2zm-6.72 0h-2v2h2v-2zm0-12.96v-2h-2v2h2zm6.72 0v2h2v-2h-2zm3.936-17.184l1.414 1.414-1.414-1.414zM543.127 3.8h2V1.89l-1.907-.088-.093 1.998zm.137 10.965a541.377 541.377 0 01-7.363-.574l-.332 3.986c3.076.256 5.551.45 7.42.578l.275-3.99zm-7.363-.574c-3.108-.26-5.823-.391-8.134-.391v4c2.168 0 4.766.124 7.802.377l.332-3.986zm-8.134-.391c-1.199 0-2.278.084-3.194.288-.88.195-1.831.549-2.54 1.258l2.828 2.828c-.069.07.02-.057.58-.182.524-.116 1.285-.192 2.326-.192v-4zm-5.734 1.546c-1.04 1.04-1.546 2.36-1.546 3.814h4c0-.465.134-.745.374-.986l-2.828-2.828zm-1.546 3.814v4.8h4v-4.8h-4zm2 6.8h15.84v-4h-15.84v4zm13.84-2v12.96h4V23.96h-4zm2 10.96h-15.84v4h15.84v-4zm-17.84 2V71h4V36.92h-4zm2 32.08h-16.8v4h16.8v-4zm-14.8 2V36.92h-4V71h4zm-2-36.08h-6.72v4h6.72v-4zm-4.72 2V23.96h-4v12.96h4zm-2-10.96h6.72v-4h-6.72v4zm8.72-2v-6.72h-4v6.72h4zm0-6.72c0-3.92 1.166-6.865 3.35-9.05l-2.828-2.828c-3.064 3.063-4.522 7.094-4.522 11.878h4zm3.35-9.05c2.185-2.184 5.13-3.35 9.05-3.35v-4c-4.784 0-8.815 1.458-11.878 4.522l2.828 2.828zm9.05-3.35c3.861 0 7.949.127 12.266.38l.235-3.993A213.31 213.31 0 00520.087.84v4zm12.266.38c4.357.257 7.918.45 10.681.578l.186-3.996a901.837 901.837 0 01-10.632-.575l-.235 3.994zm8.774-1.42v12.96h4V3.8h-4zm19.779 36.48h-2v2h2v-2zm16.32 0v2h2v-2h-2zm14.88 29.76l.206 1.99 1.794-.186V70.04h-2zm-44.064-2.016l-1.415 1.414 1.415-1.414zm.096-44.736l1.414 1.414-1.414-1.414zm41.76 0l-1.431 1.398.016.016.017.017 1.398-1.431zm4.128 28.992v2h2v-2h-2zm-33.12 0v-2h-2v2h2zm.96 6.24l1.414-1.414-1.414 1.414zm30.24-.48h2v-2.163l-2.157.17.157 1.993zm-27.36-28.88c-1.589 0-3.147.398-4.295 1.546-1.147 1.147-1.545 2.706-1.545 4.294h4c0-.972.241-1.333.374-1.466.132-.132.494-.374 1.466-.374v-4zm-5.84 5.84v5.28h4V35h-4zm2 7.28h16.32v-4h-16.32v4zm18.32-2V35h-4v5.28h4zm0-5.28c0-1.588-.399-3.147-1.546-4.294-1.148-1.148-2.706-1.546-4.294-1.546v4c.971 0 1.333.242 1.465.374.133.133.375.494.375 1.466h4zm-5.84-5.84h-8.64v4h8.64v-4zm18.513 38.89c-12.298 1.275-23.428 1.91-33.393 1.91v4c10.13 0 21.401-.645 33.806-1.93l-.413-3.98zm-33.393 1.91c-3.921 0-6.866-1.166-9.05-3.35l-2.829 2.828c3.064 3.064 7.095 4.522 11.879 4.522v-4zm-9.05-3.35c-2.185-2.185-3.35-5.13-3.35-9.05h-4c0 4.784 1.458 8.815 4.521 11.878l2.829-2.828zm-3.35-9.05V34.52h-4v23.04h4zm0-23.04c0-4.416 1.225-7.597 3.446-9.818l-2.829-2.828c-3.155 3.155-4.617 7.462-4.617 12.646h4zm3.446-9.818c2.293-2.293 5.513-3.542 9.914-3.542v-4c-5.2 0-9.532 1.503-12.743 4.714l2.829 2.828zm9.914-3.542h19.2v-4h-19.2v4zm19.2 0c4.403 0 7.578 1.25 9.801 3.526l2.861-2.796c-3.153-3.227-7.465-4.73-12.662-4.73v4zm9.834 3.559c2.276 2.223 3.526 5.398 3.526 9.801h4c0-5.197-1.503-9.51-4.731-12.663L588.5 24.72zm3.526 9.801v17.76h4V34.52h-4zm2 15.76h-33.12v4h33.12v-4zm-35.12 2v3.84h4v-3.84h-4zm0 3.84c0 1.455.506 2.775 1.545 3.814l2.829-2.828c-.241-.24-.374-.52-.374-.986h-4zm1.545 3.814c1.04 1.04 2.36 1.546 3.815 1.546v-4c-.466 0-.746-.134-.986-.374l-2.829 2.828zm3.815 1.546c6.416 0 15.759-.485 27.996-1.446l-.313-3.988c-12.21.96-21.428 1.434-27.683 1.434v4zm25.84-3.44v12h4v-12h-4zm29.322-21.12l-.817-1.825-1.183.53v1.295h2zm0 34.08v2h2v-2h-2zm-16.8 0h-2v2h2v-2zm0-50.88v-2h-2v2h2zm14.88 0l1.977-.304-.261-1.696h-1.716v2zm.96 6.24l-1.977.304.553 3.592 2.739-2.389-1.315-1.507zm21.6-7.2h2v-2h-2v2zm0 14.88v2h2v-2h-2zm-8.16-2c-4.356 0-8.794 1.038-13.297 3.055l1.634 3.65c4.073-1.823 7.956-2.705 11.663-2.705v-4zm-14.48 4.88V71h4V36.92h-4zm2 32.08h-16.8v4h16.8v-4zm-14.8 2V20.12h-4V71h4zm-2-48.88h14.88v-4h-14.88v4zm12.903-1.696l.96 6.24 3.954-.608-.96-6.24-3.954.608zm4.252 7.443c5.221-4.553 10.531-6.707 15.965-6.707v-4c-6.597 0-12.808 2.646-18.594 7.693l2.629 3.014zm15.965-6.707h4.32v-4h-4.32v4zm2.32-2v14.88h4V19.16h-4zm2 12.88h-8.16v4h8.16v-4zm4.796 25.52l.148-1.995-2.148-.158v2.153h2zm33.12.48l1.415 1.414-1.415-1.414zm.96-5.76h2v-2h-2v2zm-31.104-3.936l1.415-1.414-1.415 1.414zm0-24.288l1.415 1.414-1.415-1.414zm43.104-3.936h2v-2h-2v2zm0 12.48v2h2v-2h-2zm-29.28.96l1.415 1.414-1.415-1.414zm0 4.8l-1.414 1.414 1.414-1.414zm30.144 4.896l1.415-1.414-1.415 1.414zm0 24.768l1.415 1.414-1.415-1.414zm-46.944 2.016h-2v1.813l1.804.177.196-1.99zm-.147-10.485c13.011.961 23.307 1.445 30.867 1.445v-4c-7.415 0-17.599-.476-30.572-1.435l-.295 3.99zM675.584 61c1.455 0 2.775-.506 3.815-1.546l-2.829-2.828c-.24.24-.52.374-.986.374v4zm3.815-1.546c1.039-1.04 1.545-2.36 1.545-3.814h-4c0 .465-.133.745-.374.986l2.829 2.828zm1.545-3.814v-3.36h-4v3.36h4zm-2-5.36h-20.64v4h20.64v-4zm-20.64 0c-3.92 0-6.865-1.166-9.049-3.35l-2.829 2.828c3.064 3.064 7.095 4.522 11.878 4.522v-4zm-9.049-3.35c-2.185-2.185-3.351-5.13-3.351-9.05h-4c0 4.784 1.459 8.815 4.522 11.878l2.829-2.828zm-3.351-9.05v-3.36h-4v3.36h4zm0-3.36c0-3.92 1.166-6.865 3.351-9.05l-2.829-2.828c-3.063 3.063-4.522 7.094-4.522 11.878h4zm3.351-9.05c2.184-2.184 5.129-3.35 9.049-3.35v-4c-4.783 0-8.814 1.458-11.878 4.522l2.829 2.828zm9.049-3.35h32.64v-4h-32.64v4zm30.64-2V32.6h4V20.12h-4zm2 10.48h-26.88v4h26.88v-4zm-26.88 0c-1.454 0-2.774.506-3.814 1.546l2.829 2.828c.24-.24.52-.374.985-.374v-4zm-3.814 1.546c-1.039 1.04-1.546 2.36-1.546 3.814h4c0-.465.134-.745.375-.986l-2.829-2.828zm-1.546 3.814c0 1.455.507 2.775 1.546 3.814l2.829-2.828c-.241-.24-.375-.52-.375-.986h-4zm1.546 3.814c1.04 1.04 2.36 1.546 3.814 1.546v-4c-.465 0-.745-.134-.985-.374l-2.829 2.828zm3.814 1.546h17.28v-4h-17.28v4zm17.28 0c3.921 0 6.866 1.166 9.05 3.35l2.829-2.828c-3.064-3.064-7.095-4.522-11.879-4.522v4zm9.05 3.35c2.185 2.185 3.35 5.13 3.35 9.05h4c0-4.784-1.458-8.815-4.521-11.878l-2.829 2.828zm3.35 9.05v3.84h4v-3.84h-4zm0 3.84c0 3.92-1.165 6.865-3.35 9.05l2.829 2.828c3.063-3.063 4.521-7.094 4.521-11.878h-4zm-3.35 9.05c-2.184 2.184-5.129 3.35-9.05 3.35v4c4.784 0 8.815-1.458 11.879-4.522l-2.829-2.828zm-9.05 3.35c-11.253 0-23.347-.636-36.284-1.91l-.392 3.98c13.048 1.286 25.274 1.93 36.676 1.93v-4zm-34.48.08V57.56h-4v12.48h4z" fill="#000" fill-opacity=".06"/></svg>