<svg width="265" height="37" fill="none" xmlns="http://www.w3.org/2000/svg"><path d="M2.465 22.78l.109-1.997-2.11-.116v2.113h2zm14.651.072l-1.414-1.414 1.414 1.414zm.505-4.572h2v-2h-2v2zM3.832 16.588l-1.43 1.4.015.014.015.015 1.4-1.429zm0-12.06l1.414 1.414-1.414-1.414zM21.976 2.8h2v-2h-2v2zm0 5.04v2h2v-2h-2zm.469 18.864L21.03 25.29l1.415 1.414zm-9.072 1.584l-.087 1.998h.016l.07-1.998zm-3.313-.144l-.097 1.998h.01l.087-1.998zm-7.595-.504h-2v1.842l1.835.151.165-1.993zm-.11-2.863c6.57.36 11.075.543 13.466.543v-4c-2.265 0-6.664-.177-13.247-.537l-.219 3.994zm13.466.543c.941 0 1.934-.278 2.71-1.054l-2.829-2.828a.544.544 0 01.177-.116c.041-.015.031-.002-.059-.002v4zm2.71-1.054c.772-.772 1.09-1.756 1.09-2.746h-4c0 .073-.011.077.003.04a.351.351 0 01.078-.122l2.829 2.828zm1.09-2.746v-3.24h-4v3.24h4zm-2-5.24H9.34v4h8.28v-4zm-8.28 0c-2.283 0-3.495-.52-4.11-1.121l-2.798 2.858c1.69 1.654 4.15 2.263 6.908 2.263v-4zm-4.08-1.091c-.601-.615-1.12-1.827-1.12-4.109h-4c0 2.758.608 5.218 2.263 6.907l2.858-2.798zm-1.12-4.109V10h-4v1.08h4zm0-1.08c0-2.287.52-3.473 1.106-4.058L2.418 3.114C.748 4.784.141 7.247.141 10h4zm1.106-4.058C5.862 5.327 7.067 4.8 9.34 4.8v-4c-2.768 0-5.234.625-6.923 2.314l2.829 2.828zM9.34 4.8h12.636v-4H9.34v4zm10.636-2v5.04h4V2.8h-4zm2 3.04H10.78v4h11.197v-4zm-11.197 0c-1.028 0-2.166.258-3.034 1.126C6.88 7.833 6.621 8.972 6.621 10h4c0-.2.025-.292.032-.313.003-.008 0 .003-.014.026a.437.437 0 01-.146.146c-.022.013-.033.016-.025.013a1.08 1.08 0 01.313-.032v-4zM6.62 10v.72h4V10h-4zm0 .72c0 1.028.259 2.167 1.126 3.034.868.868 2.006 1.126 3.034 1.126v-4c-.199 0-.292-.026-.312-.032-.008-.003.003 0 .025.013a.43.43 0 01.146.146c.014.023.017.034.014.026a1.08 1.08 0 01-.033-.313h-4zm4.16 4.16h6.48v-4h-6.48v4zm6.48 0c2.087 0 3.194.494 3.77 1.07l2.829-2.828c-1.632-1.632-3.981-2.242-6.599-2.242v4zm3.77 1.07c.576.576 1.07 1.683 1.07 3.77h4c0-2.617-.61-4.966-2.241-6.598L21.03 15.95zm1.07 3.77v1.8h4v-1.8h-4zm0 1.8c0 2.087-.494 3.194-1.07 3.77l2.829 2.828c1.632-1.632 2.241-3.98 2.241-6.598h-4zm-1.07 3.77c-.576.576-1.683 1.07-3.77 1.07v4c2.618 0 4.967-.61 6.599-2.242L21.03 25.29zm-3.77 1.07c-1.198 0-2.47-.023-3.817-.07l-.14 3.997c1.388.049 2.708.073 3.957.073v-4zm-3.8-.07l-3.313-.144-.173 3.996 3.312.144.173-3.996zm-3.302-.144a225.999 225.999 0 01-7.529-.5L2.3 29.634c2.637.218 5.19.387 7.663.509l.196-3.996zM4.466 27.64v-4.86h-4v4.86h4zM33.278 14.5l-.572-1.916-1.428.426v1.49h2zm0 8.64h-2v2h2v-2zm6.48-9l1.414-1.414-1.414 1.414zM33.278 28v-2h-2v2h2zm0 6.12v2h2v-2h-2zm-6.3 0h-2v2h2v-2zm0-25.2v-2h-2v2h2zm5.58 0l1.96-.392-.32-1.608h-1.64v2zm.36 1.8l-1.961.392.582 2.913 2.48-1.636-1.101-1.669zm3.456-1.62l.55 1.923.012-.004.012-.003-.574-1.916zm8.568.936l-1.414 1.414 1.414-1.414zm-.072 16.452l1.414 1.414-1.414-1.414zM37.598 11.78c-1.516 0-3.154.285-4.892.804l1.144 3.832c1.478-.44 2.72-.636 3.748-.636v-4zm-6.32 2.72v8.64h4V14.5h-4zm2 10.64h5.4v-4h-5.4v4zm5.4 0c.788 0 1.747-.198 2.494-.946.747-.747.946-1.706.946-2.494h-4c0 .172-.042-.067.225-.334.268-.268.506-.226.335-.226v4zm3.44-3.44v-6.66h-4v6.66h4zm0-6.66a3.22 3.22 0 00-.946-2.314l-2.828 2.828a.802.802 0 01-.226-.514h4zm-.946-2.314a3.22 3.22 0 00-2.314-.946v4a.804.804 0 01-.514-.226l2.828-2.828zm-2.314-.946h-1.26v4h1.26v-4zM31.278 28v6.12h4V28h-4zm2 4.12h-6.3v4h6.3v-4zm-4.3 2V8.92h-4v25.2h4zm-2-23.2h5.58v-4h-5.58v4zm3.619-1.608l.36 1.8 3.922-.784-.36-1.8-3.922.784zm3.422 3.078c.976-.644 1.943-1.092 2.904-1.367l-1.099-3.846c-1.39.397-2.727 1.029-4.007 1.873l2.202 3.34zm2.93-1.374c1.101-.33 1.902-.456 2.449-.456v-4c-1.086 0-2.3.235-3.599.624l1.15 3.832zm2.449-.456h1.62v-4h-1.62v4zm1.62 0c1.2 0 1.965.346 2.51.89l2.828-2.828C44.932 7.198 43.08 6.56 41.018 6.56v4zm2.51.89c.544.545.89 1.31.89 2.51h4c0-2.064-.639-3.915-2.062-5.338l-2.828 2.828zm.89 2.51v8.28h4v-8.28h-4zm0 8.28c0 1.4-.39 2.26-.962 2.834l2.828 2.828c1.49-1.49 2.134-3.463 2.134-5.662h-4zm-.962 2.834c-.541.54-1.382.926-2.798.926v4c2.184 0 4.15-.622 5.626-2.098l-2.828-2.828zM40.657 26h-7.38v4h7.38v-4zm14.935-9.52h-2v2h2v-2zm6.12 0v2h2v-2h-2zm5.58 11.16l.207 1.99 1.793-.186V27.64h-2zm-16.524-.756l-1.414 1.414 1.415-1.414zm.037-16.776l1.414 1.414-1.414-1.414zm15.66 0l-1.431 1.397.016.017.017.017 1.398-1.431zm1.547 10.872v2h2v-2h-2zm-12.42 0v-2h-2v2h2zm.36 2.34l1.415-1.414-1.415 1.414zm11.34-.18h2v-2.163l-2.156.17.156 1.993zm-10.26-12.08c-.788 0-1.746.198-2.494.946-.747.747-.946 1.706-.946 2.494h4c0-.172.042.067-.225.334-.268.268-.506.226-.335.226v-4zm-3.44 3.44v1.98h4V14.5h-4zm2 3.98h6.12v-4h-6.12v4zm8.12-2V14.5h-4v1.98h4zm0-1.98c0-.788-.198-1.747-.945-2.494-.748-.748-1.706-.946-2.495-.946v4c.172 0-.066.042-.334-.226-.267-.267-.225-.506-.225-.334h4zm-3.44-3.44h-3.24v4h3.24v-4zm6.814 14.59c-4.578.475-8.708.71-12.394.71v4c3.851 0 8.121-.245 12.807-.73l-.413-3.98zm-12.394.71c-1.2 0-1.965-.346-2.51-.89l-2.828 2.828c1.424 1.424 3.275 2.062 5.339 2.062v-4zm-2.51-.89c-.544-.545-.89-1.31-.89-2.51h-4c0 2.064.639 3.915 2.062 5.338l2.829-2.828zm-.89-2.51v-8.64h-4v8.64h4zm0-8.64c0-1.416.386-2.257.927-2.798L49.39 8.694c-1.475 1.475-2.097 3.442-2.097 5.626h4zm.927-2.798c.573-.573 1.433-.962 2.834-.962v-4c-2.2 0-4.172.643-5.663 2.134l2.829 2.828zm2.834-.962h7.2v-4h-7.2v4zm7.2 0c1.403 0 2.238.39 2.78.945l2.862-2.794C66.422 7.203 64.45 6.56 62.253 6.56v4zm2.814.979c.556.543.945 1.378.945 2.781h4c0-2.197-.642-4.17-2.15-5.643l-2.795 2.862zm.945 2.781v6.66h4v-6.66h-4zm2 4.66h-12.42v4h12.42v-4zm-14.42 2v1.44h4v-1.44h-4zm0 1.44c0 .855.307 1.675.946 2.314l2.829-2.828a.804.804 0 01.225.514h-4zm.946 2.314c.64.64 1.46.946 2.314.946v-4a.804.804 0 01.514.226l-2.828 2.828zm2.314.946c2.457 0 6-.185 10.597-.546l-.313-3.988c-4.57.36-7.988.534-10.284.534v4zm8.44-2.54v4.5h4v-4.5h-4zm22.866 4.5l.213 1.989 1.787-.192V27.64h-2zm-15.803-.756l-1.415 1.414 1.415-1.414zm.035-16.416l1.415 1.414-1.415-1.414zM88.16 8.92h2v-2h-2v2zm0 4.86v2h2v-2h-2zm0 9.18h2v-2.174l-2.166.18.166 1.994zm-.212 2.691c-4.438.475-8.325.709-11.668.709v4c3.522 0 7.555-.246 12.093-.731l-.425-3.978zm-11.668.709c-1.2 0-1.965-.346-2.51-.89l-2.828 2.828c1.424 1.424 3.275 2.062 5.338 2.062v-4zm-2.51-.89c-.544-.545-.89-1.31-.89-2.51h-4c0 2.064.639 3.915 2.062 5.338l2.829-2.828zm-.89-2.51v-8.28h-4v8.28h4zm0-8.28c0-1.416.386-2.257.927-2.798l-2.829-2.828c-1.475 1.475-2.098 3.442-2.098 5.626h4zm.927-2.798c.573-.573 1.433-.962 2.834-.962v-4c-2.2 0-4.172.643-5.663 2.134l2.829 2.828zm2.834-.962h11.52v-4H76.64v4zm9.52-2v4.86h4V8.92h-4zm2 2.86h-9.54v4h9.54v-4zm-9.54 0c-.789 0-1.747.198-2.495.946-.747.747-.945 1.706-.945 2.494h4c0-.172.041.067-.226.334-.268.268-.506.226-.334.226v-4zm-3.44 3.44v7.02h4v-7.02h-4zm0 7.02c0 .855.306 1.675.945 2.314l2.829-2.828a.804.804 0 01.226.514h-4zm.945 2.314c.64.64 1.46.946 2.314.946v-4a.804.804 0 01.514.226l-2.828 2.828zm2.314.946c2.247 0 5.555-.186 9.887-.547l-.333-3.986c-4.308.359-7.48.533-9.553.533v4zm7.72-2.54v4.68h4v-4.68h-4zM98.952 9.64h2v-2h-2v2zm0 18.36v2h2v-2h-2zm-6.3 0h-2v2h2v-2zm0-13.5h2v-2h-2v2zm-2.7 0h-2v2h2v-2zm0-4.86v-2h-2v2h2zm2.7-7.2v-2h-2v2h2zm6.3 0h2v-2h-2v2zm0 5.04v2h2v-2h-2zm-6.3 0h-2v2h2v-2zm4.3 2.16V28h4V9.64h-4zm2 16.36h-6.3v4h6.3v-4zm-4.3 2V14.5h-4V28h4zm-2-15.5h-2.7v4h2.7v-4zm-.7 2V9.64h-4v4.86h4zm-2-2.86h9v-4h-9v4zm2.7-7.2h6.3v-4h-6.3v4zm4.3-2v5.04h4V2.44h-4zm2 3.04h-6.3v4h6.3v-4zm-4.3 2V2.44h-4v5.04h4zm19.792 15.12l.572 1.916 1.428-.426V22.6h-2zm0-2.16h2v-2h-2v2zm-6.12.36l1.414 1.414-1.414-1.414zm0 2.16l-1.415 1.414 1.415-1.414zm-4.86-13.68l-.218-1.988-1.782.195V9.28h2zm15.804.756l-1.415 1.414 1.415-1.414zM120.744 28v2h2v-2h-2zm-5.58 0l-1.961.392.321 1.608h1.64v-2zm-.36-1.8l1.961-.392-.583-2.913-2.48 1.636 1.102 1.669zm-3.492 1.656l.549 1.923.013-.004.012-.003-.574-1.916zm-8.172-.972l-1.415 1.414 1.415-1.414zm0-9.468l1.414 1.414-1.414-1.414zm11.304-1.476v2h2v-2h-2zm-.36-2.34l-1.415 1.414 1.415-1.414zM108 13.456l-.152-1.994h-.002l.154 1.994zm-4.536.324h-2v2.129l2.124-.133-.124-1.996zm6.66 11.54c1.516 0 3.154-.285 4.892-.804l-1.144-3.832c-1.478.44-2.721.636-3.748.636v4zm6.32-2.72v-2.16h-4v2.16h4zm-2-4.16h-5.22v4h5.22v-4zm-5.22 0a3.22 3.22 0 00-2.315.946l2.829 2.828a.8.8 0 01-.514.226v-4zm-2.315.946a3.221 3.221 0 00-.945 2.314h4a.804.804 0 01-.226.514l-2.829-2.828zm-.945 2.314v.36h4v-.36h-4zm0 .36c0 .855.306 1.675.945 2.314l2.829-2.828a.804.804 0 01.226.514h-4zm.945 2.314c.64.64 1.46.946 2.315.946v-4a.8.8 0 01.514.226l-2.829 2.828zm2.315.946h.9v-4h-.9v4zm-5.543-14.052c4.337-.474 8.223-.708 11.663-.708v-4c-3.616 0-7.651.246-12.098.732l.435 3.976zm11.663-.708c1.2 0 1.965.346 2.509.89l2.829-2.828c-1.424-1.424-3.275-2.062-5.338-2.062v4zm2.509.89c.545.545.891 1.31.891 2.51h4c0-2.064-.639-3.915-2.062-5.338l-2.829 2.828zm.891 2.51V28h4V13.96h-4zm2 12.04h-5.58v4h5.58v-4zm-3.619 1.608l-.36-1.8-3.922.784.36 1.8 3.922-.784zm-3.423-3.078a11.248 11.248 0 01-2.965 1.41l1.149 3.832a15.24 15.24 0 004.019-1.902l-2.203-3.34zm-2.94 1.403c-1.077.308-1.876.427-2.438.427v4c1.069 0 2.262-.217 3.537-.581l-1.099-3.846zm-2.438.427h-1.26v4h1.26v-4zm-1.26 0c-1.201 0-1.966-.346-2.51-.89l-2.829 2.828c1.424 1.424 3.275 2.062 5.339 2.062v-4zm-2.51-.89c-.545-.545-.89-1.31-.89-2.51h-4c0 2.064.638 3.915 2.061 5.338l2.829-2.828zm-.89-2.51v-1.62h-4v1.62h4zm0-1.62c0-1.2.345-1.965.89-2.51l-2.829-2.828c-1.423 1.423-2.061 3.274-2.061 5.338h4zm.89-2.51c.544-.544 1.309-.89 2.51-.89v-4c-2.064 0-3.915.638-5.339 2.062l2.829 2.828zm2.51-.89h7.38v-4h-7.38v4zm9.38-2V14.5h-4v1.44h4zm0-1.44a3.22 3.22 0 00-.946-2.314l-2.829 2.828a.803.803 0 01-.225-.514h4zm-.946-2.314a3.22 3.22 0 00-2.314-.946v4a.811.811 0 01-.515-.226l2.829-2.828zm-2.314-.946c-1.62 0-3.4.075-5.336.222l.303 3.988a66.952 66.952 0 015.033-.21v-4zm-5.338.222c-1.867.143-3.369.25-4.507.322l.249 3.992c1.166-.073 2.689-.181 4.565-.326l-.307-3.988zm-2.382 2.318v-4.5h-4v4.5h4zM133.694 28l.295 1.978 1.705-.254V28h-2zm-8.244-1.116l1.414-1.414-1.414 1.414zM123.974 2.8v-2h-2v2h2zm6.3 0h2v-2h-2v2zm3.42 20.52h2v-2h-2v2zm-.295 2.702a29.255 29.255 0 01-4.313.338v4a33.24 33.24 0 004.903-.382l-.59-3.956zm-4.313.338c-.93 0-1.627-.296-2.222-.89l-2.828 2.828c1.373 1.374 3.1 2.062 5.05 2.062v-4zm-2.222-.89c-.544-.545-.89-1.31-.89-2.51h-4c0 2.064.638 3.915 2.062 5.338l2.828-2.828zm-.89-2.51V2.8h-4v20.16h4zm-2-18.16h6.3v-4h-6.3v4zm4.3-2v19.26h4V2.8h-4zm0 19.26c0 .855.306 1.675.946 2.314l2.828-2.828a.804.804 0 01.226.514h-4zm.946 2.314c.639.64 1.459.946 2.314.946v-4a.806.806 0 01.514.226l-2.828 2.828zm2.314.946h2.16v-4h-2.16v4zm.16-2V28h4v-4.68h-4zm36.619 3.348l-1.414-1.414 1.414 1.414zm-19.98 0l-1.429 1.4.015.014.015.015 1.399-1.429zm0-22.5l-1.414-1.414 1.414 1.414zm19.98 0l-1.429 1.4.015.014.015.015 1.399-1.429zm-2.752 5.472c0-1.028-.258-2.167-1.126-3.034-.867-.868-2.006-1.126-3.034-1.126v4c.199 0 .292.026.313.032.008.003-.003 0-.026-.013a.439.439 0 01-.146-.146c-.013-.023-.016-.034-.013-.026.007.02.032.114.032.313h4zm-4.16-4.16h-6.12v4h6.12v-4zm-6.12 0c-1.028 0-2.167.258-3.034 1.126-.867.867-1.126 2.006-1.126 3.034h4c0-.2.026-.292.033-.313.002-.008 0 .003-.014.026a.439.439 0 01-.146.146c-.023.013-.034.016-.025.013.02-.006.113-.032.312-.032v-4zm-4.16 4.16v11.52h4V9.64h-4zm0 11.52c0 1.028.259 2.167 1.126 3.034.867.868 2.006 1.126 3.034 1.126v-4c-.199 0-.292-.026-.312-.032-.009-.003.002 0 .025.013a.435.435 0 01.146.146c.014.023.016.034.014.026a1.055 1.055 0 01-.033-.313h-4zm4.16 4.16h6.12v-4h-6.12v4zm6.12 0c1.028 0 2.167-.258 3.034-1.126.868-.867 1.126-2.006 1.126-3.034h-4c0 .2-.025.292-.032.313-.003.008 0-.003.013-.026a.44.44 0 01.146-.146c.023-.013.034-.016.026-.013a1.09 1.09 0 01-.313.032v4zm4.16-4.16V9.64h-4v11.52h4zm2.48 0c0 2.273-.527 3.478-1.142 4.094l2.828 2.828c1.689-1.688 2.314-4.155 2.314-6.922h-4zm-1.142 4.094c-.585.585-1.771 1.106-4.058 1.106v4c2.753 0 5.215-.607 6.886-2.278l-2.828-2.828zm-4.058 1.106h-9v4h9v-4zm-9 0c-2.282 0-3.494-.52-4.109-1.121l-2.798 2.858c1.689 1.654 4.149 2.263 6.907 2.263v-4zm-4.079-1.091c-.602-.615-1.121-1.827-1.121-4.109h-4c0 2.758.609 5.218 2.263 6.907l2.858-2.798zm-1.121-4.109V9.64h-4v11.52h4zm0-11.52c0-2.287.521-3.473 1.106-4.058l-2.828-2.828c-1.671 1.67-2.278 4.133-2.278 6.886h4zm1.106-4.058c.616-.615 1.822-1.142 4.094-1.142v-4c-2.767 0-5.234.625-6.922 2.314l2.828 2.828zm4.094-1.142h9v-4h-9v4zm9 0c2.278 0 3.457.529 4.043 1.127l2.858-2.798c-1.67-1.706-4.138-2.329-6.901-2.329v4zm4.073 1.157c.598.586 1.127 1.766 1.127 4.043h4c0-2.763-.623-5.231-2.329-6.901l-2.798 2.858zm1.127 4.043v11.52h4V9.64h-4zm20.737-1.98l-.138 1.995 2.138.148V7.66h-2zm-7.38 0l1.414 1.414-1.414-1.414zm-.36 2.7h-2v2h2v-2zm5.94 0h2v-2h-2v2zm0 4.86v2h2v-2h-2zm-5.94 0v-2h-2v2h2zm0 12.78v2h2v-2h-2zm-6.3 0h-2v2h2v-2zm0-12.78h2v-2h-2v2zm-2.52 0h-2v2h2v-2zm0-4.86v-2h-2v2h2zm2.52 0v2h2v-2h-2zm1.476-6.444l1.414 1.414-1.414-1.414zM188.778 2.8h2V.89l-1.907-.088-.093 1.998zm.138 2.865c-.683-.047-1.596-.118-2.744-.214l-.332 3.986c1.156.096 2.091.17 2.8.218l.276-3.99zm-2.744-.214a38.613 38.613 0 00-3.154-.151v4c.768 0 1.706.044 2.822.137l.332-3.986zm-3.154-.151c-.499 0-1.003.034-1.469.138-.43.095-1.056.299-1.565.808l2.828 2.828a1.188 1.188 0 01-.34.244c-.062.03-.088.032-.055.024a1.62 1.62 0 01.201-.027 4.31 4.31 0 01.4-.015v-4zm-3.034.946a3.22 3.22 0 00-.946 2.314h4a.804.804 0 01-.226.514l-2.828-2.828zm-.946 2.314v1.8h4v-1.8h-4zm2 3.8h5.94v-4h-5.94v4zm3.94-2v4.86h4v-4.86h-4zm2 2.86h-5.94v4h5.94v-4zm-7.94 2V28h4V15.22h-4zm2 10.78h-6.3v4h6.3v-4zm-4.3 2V15.22h-4V28h4zm-2-14.78h-2.52v4h2.52v-4zm-.52 2v-4.86h-4v4.86h4zm-2-2.86h2.52v-4h-2.52v4zm4.52-2V7.84h-4v2.52h4zm0-2.52c0-1.2.346-1.965.89-2.51L174.8 2.502c-1.424 1.423-2.062 3.274-2.062 5.338h4zm.89-2.51c.545-.544 1.31-.89 2.51-.89v-4c-2.064 0-3.915.638-5.338 2.062l2.828 2.828zm2.51-.89c1.421 0 2.929.047 4.527.14l.234-3.993a81.225 81.225 0 00-4.761-.147v4zm4.527.14c1.636.097 2.977.17 4.02.218l.186-3.996a336.67 336.67 0 01-3.972-.215l-.234 3.994zm2.113-1.78v4.86h4V2.8h-4zm18.207 4.86l-.138 1.995 2.138.148V7.66h-2zm-7.38 0l1.414 1.414-1.414-1.414zm-.36 2.7h-2v2h2v-2zm5.94 0h2v-2h-2v2zm0 4.86v2h2v-2h-2zm-5.94 0v-2h-2v2h2zm0 12.78v2h2v-2h-2zm-6.3 0h-2v2h2v-2zm0-12.78h2v-2h-2v2zm-2.52 0h-2v2h2v-2zm0-4.86v-2h-2v2h2zm2.52 0v2h2v-2h-2zm1.476-6.444l1.414 1.414-1.414-1.414zM204.985 2.8h2V.89l-1.907-.088-.093 1.998zm.138 2.865c-.683-.047-1.596-.118-2.744-.214l-.332 3.986c1.156.096 2.091.17 2.8.218l.276-3.99zm-2.744-.214a38.613 38.613 0 00-3.154-.151v4c.768 0 1.706.044 2.822.137l.332-3.986zm-3.154-.151c-.499 0-1.003.034-1.469.138-.43.095-1.056.299-1.565.808l2.828 2.828a1.188 1.188 0 01-.34.244c-.062.03-.088.032-.055.024a1.62 1.62 0 01.201-.027 4.31 4.31 0 01.4-.015v-4zm-3.034.946a3.22 3.22 0 00-.946 2.314h4a.804.804 0 01-.226.514l-2.828-2.828zm-.946 2.314v1.8h4v-1.8h-4zm2 3.8h5.94v-4h-5.94v4zm3.94-2v4.86h4v-4.86h-4zm2 2.86h-5.94v4h5.94v-4zm-7.94 2V28h4V15.22h-4zm2 10.78h-6.3v4h6.3v-4zm-4.3 2V15.22h-4V28h4zm-2-14.78h-2.52v4h2.52v-4zm-.52 2v-4.86h-4v4.86h4zm-2-2.86h2.52v-4h-2.52v4zm4.52-2V7.84h-4v2.52h4zm0-2.52c0-1.2.346-1.965.89-2.51l-2.828-2.828c-1.424 1.423-2.062 3.274-2.062 5.338h4zm.89-2.51c.545-.544 1.31-.89 2.51-.89v-4c-2.064 0-3.915.638-5.338 2.062l2.828 2.828zm2.51-.89c1.421 0 2.929.047 4.527.14l.235-3.993a81.284 81.284 0 00-4.762-.147v4zm4.527.14c1.636.097 2.977.17 4.02.218l.186-3.996a335.522 335.522 0 01-3.971-.215l-.235 3.994zm2.113-1.78v4.86h4V2.8h-4zm8.667 13.68h-2v2h2v-2zm6.12 0v2h2v-2h-2zm5.58 11.16l.206 1.99 1.794-.186V27.64h-2zm-16.524-.756l-1.414 1.414 1.414-1.414zm.036-16.776l1.414 1.414-1.414-1.414zm15.66 0l-1.431 1.397.017.017.017.017 1.397-1.431zm1.548 10.872v2h2v-2h-2zm-12.42 0v-2h-2v2h2zm.36 2.34l1.414-1.414-1.414 1.414zm11.34-.18h2v-2.163l-2.156.17.156 1.993zm-10.26-12.08c-.788 0-1.747.198-2.494.946-.747.747-.946 1.706-.946 2.494h4c0-.172.042.067-.226.334-.267.268-.506.226-.334.226v-4zm-3.44 3.44v1.98h4V14.5h-4zm2 3.98h6.12v-4h-6.12v4zm8.12-2V14.5h-4v1.98h4zm0-1.98c0-.788-.198-1.747-.946-2.494-.747-.748-1.706-.946-2.494-.946v4c.172 0-.067.042-.334-.226-.267-.267-.226-.506-.226-.334h4zm-3.44-3.44h-3.24v4h3.24v-4zm6.814 14.59c-4.579.475-8.709.71-12.394.71v4c3.851 0 8.121-.245 12.806-.73l-.412-3.98zm-12.394.71c-1.2 0-1.965-.346-2.51-.89l-2.828 2.828c1.423 1.424 3.274 2.062 5.338 2.062v-4zm-2.51-.89c-.544-.545-.89-1.31-.89-2.51h-4c0 2.064.638 3.915 2.062 5.338l2.828-2.828zm-.89-2.51v-8.64h-4v8.64h4zm0-8.64c0-1.416.386-2.257.926-2.798l-2.828-2.828c-1.476 1.475-2.098 3.442-2.098 5.626h4zm.926-2.798c.574-.573 1.433-.962 2.834-.962v-4c-2.199 0-4.171.643-5.662 2.134l2.828 2.828zm2.834-.962h7.2v-4h-7.2v4zm7.2 0c1.403 0 2.238.39 2.781.945l2.862-2.794c-1.473-1.508-3.446-2.151-5.643-2.151v4zm2.815.979c.556.543.945 1.378.945 2.781h4c0-2.197-.642-4.17-2.15-5.643l-2.795 2.862zm.945 2.781v6.66h4v-6.66h-4zm2 4.66h-12.42v4h12.42v-4zm-14.42 2v1.44h4v-1.44h-4zm0 1.44c0 .855.306 1.675.946 2.314l2.828-2.828a.804.804 0 01.226.514h-4zm.946 2.314c.639.64 1.459.946 2.314.946v-4a.795.795 0 01.514.226l-2.828 2.828zm2.314.946c2.456 0 5.999-.185 10.597-.546l-.313-3.988c-4.571.36-7.988.534-10.284.534v4zm8.44-2.54v4.5h4v-4.5h-4zm12.246-7.92l-.817-1.825-1.183.53v1.295h2zm0 12.78v2h2v-2h-2zm-6.3 0h-2v2h2v-2zm0-19.08v-2h-2v2h2zm5.58 0l1.977-.304-.261-1.696h-1.716v2zm.36 2.34l-1.977.304.553 3.592 2.739-2.389-1.315-1.507zm8.1-2.7h2v-2h-2v2zm0 5.58v2h2v-2h-2zm-3.06-2c-1.836 0-3.674.438-5.497 1.255l1.634 3.65c1.393-.623 2.676-.905 3.863-.905v-4zm-6.68 3.08V28h4V15.22h-4zm2 10.78h-6.3v4h6.3v-4zm-4.3 2V8.92h-4V28h4zm-2-17.08h5.58v-4h-5.58v4zm3.603-1.696l.36 2.34 3.954-.608-.36-2.34-3.954.608zm3.652 3.543c1.781-1.553 3.49-2.207 5.165-2.207v-4c-2.837 0-5.448 1.146-7.794 3.193l2.629 3.014zm5.165-2.207h1.62v-4h-1.62v4zm-.38-2v5.58h4V8.56h-4zm2 3.58h-3.06v4h3.06v-4zm1.799 10.82l.147-1.995-2.147-.158v2.153h2zm12.42.18l1.414 1.414-1.414-1.414zm.36-2.16h2v-2h-2v2zm-11.664-1.476l1.414-1.414-1.414 1.414zm0-9.108l1.414 1.414-1.414-1.414zm16.164-1.476h2v-2h-2v2zm0 4.68v2h2v-2h-2zm-10.98.36l1.414 1.414-1.414-1.414zm0 1.8l-1.415 1.414 1.415-1.414zm11.304 1.836l1.414-1.414-1.414 1.414zm0 9.288l1.414 1.414-1.414-1.414zm-17.604.756h-2v1.813l1.804.177.196-1.99zm-.148-2.685c4.891.361 8.787.545 11.668.545v-4c-2.736 0-6.52-.176-11.373-.535l-.295 3.99zm11.668.545a3.22 3.22 0 002.314-.946l-2.829-2.828a.811.811 0 01.515-.226v4zm2.314-.946c.639-.64.946-1.46.946-2.314h-4a.803.803 0 01.225-.514l2.829 2.828zm.946-2.314v-1.26h-4v1.26h4zm-2-3.26h-7.74v4h7.74v-4zm-7.74 0c-1.201 0-1.966-.346-2.51-.89l-2.829 2.828c1.424 1.424 3.275 2.062 5.339 2.062v-4zm-2.51-.89c-.545-.545-.89-1.31-.89-2.51h-4c0 2.064.638 3.915 2.061 5.338l2.829-2.828zm-.89-2.51v-1.26h-4v1.26h4zm0-1.26c0-1.2.345-1.965.89-2.51l-2.829-2.828c-1.423 1.423-2.061 3.274-2.061 5.338h4zm.89-2.51c.544-.544 1.309-.89 2.51-.89v-4c-2.064 0-3.915.638-5.339 2.062l2.829 2.828zm2.51-.89h12.24v-4h-12.24v4zm10.24-2v4.68h4V8.92h-4zm2 2.68h-10.08v4h10.08v-4zm-10.08 0a3.22 3.22 0 00-2.315.946l2.829 2.828a.8.8 0 01-.514.226v-4zm-2.315.946a3.221 3.221 0 00-.945 2.314h4a.804.804 0 01-.226.514l-2.829-2.828zm-.945 2.314c0 .855.306 1.675.945 2.314l2.829-2.828a.804.804 0 01.226.514h-4zm.945 2.314c.64.64 1.46.946 2.315.946v-4a.8.8 0 01.514.226l-2.829 2.828zm2.315.946h6.48v-4h-6.48v4zm6.48 0c1.2 0 1.965.346 2.509.89l2.829-2.828c-1.424-1.424-3.275-2.062-5.338-2.062v4zm2.509.89c.545.545.891 1.31.891 2.51h4c0-2.064-.639-3.915-2.062-5.338l-2.829 2.828zm.891 2.51v1.44h4v-1.44h-4zm0 1.44c0 1.2-.346 1.965-.891 2.51l2.829 2.828c1.423-1.423 2.062-3.274 2.062-5.338h-4zm-.891 2.51c-.544.544-1.309.89-2.509.89v4c2.063 0 3.914-.638 5.338-2.062l-2.829-2.828zm-2.509.89c-4.174 0-8.668-.236-13.484-.71l-.392 3.98c4.927.486 9.553.73 13.876.73v-4zm-11.68 1.28v-4.68h-4v4.68h4z" fill="#000" fill-opacity=".06"/></svg>