<svg width="525" height="69" fill="none" xmlns="http://www.w3.org/2000/svg"><path d="M2.93 43.56l.108-1.997-2.109-.116v2.113h2zm29.303.144L30.82 42.29l1.414 1.414zm1.008-9.144h2v-2h-2v2zM5.665 31.176l-1.429 1.4.015.014.015.015 1.4-1.429zm0-24.12L7.08 8.47 5.665 7.056zM41.953 3.6h2v-2h-2v2zm0 10.08v2h2v-2h-2zm.936 37.728l-1.414-1.414 1.414 1.414zm-18.144 3.168l-.087 1.998h.017l.07-1.998zm-6.624-.288l-.098 1.998h.011l.087-1.998zM2.93 53.28h-2v1.842l1.836.151.164-1.993zm-.11-7.723c13.146.72 22.103 1.083 26.822 1.083v-4c-4.593 0-13.444-.357-26.603-1.077l-.218 3.994zm26.822 1.083c1.494 0 2.918-.434 4.006-1.522L30.82 42.29c-.16.16-.464.35-1.178.35v4zm4.006-1.522c1.108-1.108 1.594-2.536 1.594-4.078h-4c0 .666-.186 1.014-.422 1.25l2.828 2.828zm1.594-4.078v-6.48h-4v6.48h4zm-2-8.48h-16.56v4h16.56v-4zm-16.56 0c-4.802 0-7.85-1.083-9.617-2.813l-2.798 2.858c2.841 2.782 7.137 3.955 12.415 3.955v-4zm-9.587-2.783c-1.73-1.767-2.813-4.815-2.813-9.617h-4c0 5.278 1.173 9.574 3.955 12.415l2.858-2.798zM4.281 20.16V18h-4v2.16h4zm0-2.16c0-4.807 1.085-7.817 2.798-9.53L4.251 5.642C1.45 8.44.28 12.727.28 18h4zM7.08 8.47c1.768-1.767 4.81-2.87 9.602-2.87v-4c-5.287 0-9.59 1.201-12.43 4.042L7.079 8.47zm9.602-2.87h25.272v-4H16.681v4zm23.272-2v10.08h4V3.6h-4zm2 8.08H19.561v4h22.392v-4zm-22.392 0c-1.748 0-3.427.438-4.654 1.666C13.68 14.573 13.24 16.252 13.24 18h4c0-1.132.282-1.613.494-1.826.213-.212.694-.494 1.826-.494v-4zM13.241 18v1.44h4V18h-4zm0 1.44c0 1.748.439 3.427 1.666 4.654 1.227 1.228 2.906 1.666 4.654 1.666v-4c-1.132 0-1.613-.282-1.826-.494-.212-.213-.494-.694-.494-1.826h-4zm6.32 6.32h12.96v-4h-12.96v4zm12.96 0c4.439 0 7.274 1.046 8.954 2.726l2.828-2.828c-2.736-2.736-6.813-3.898-11.782-3.898v4zm8.954 2.726c1.68 1.68 2.726 4.515 2.726 8.954h4c0-4.97-1.162-9.046-3.898-11.782l-2.828 2.828zM44.2 37.44v3.6h4v-3.6h-4zm0 3.6c0 4.439-1.046 7.274-2.726 8.954l2.828 2.828c2.736-2.736 3.898-6.813 3.898-11.782h-4zm-2.726 8.954c-1.68 1.68-4.515 2.726-8.954 2.726v4c4.97 0 9.046-1.162 11.782-3.898l-2.828-2.828zM32.52 52.72c-2.422 0-4.99-.047-7.706-.143l-.14 3.998c2.757.096 5.372.145 7.846.145v-4zm-7.689-.142l-6.624-.288-.174 3.996 6.624.288.174-3.996zm-6.613-.288a454.123 454.123 0 01-15.125-1.003l-.33 3.986a458.32 458.32 0 0015.26 1.013l.195-3.996zm-13.29.99v-9.72h-4v9.72h4zM64.555 27l-.572-1.916-1.427.426V27h2zm0 17.28h-2v2h2v-2zm12.96-18l1.415-1.414-1.415 1.414zM64.555 54v-2h-2v2h2zm0 12.24v2h2v-2h-2zm-12.6 0h-2v2h2v-2zm0-50.4v-2h-2v2h2zm11.16 0l1.962-.392-.322-1.608h-1.64v2zm.72 3.6l-1.96.392.582 2.913 2.48-1.636-1.101-1.669zm6.913-3.24l.549 1.923.013-.004.012-.003-.575-1.916zm17.135 1.872l-1.414 1.414 1.415-1.414zm-.143 32.904l1.414 1.414-1.414-1.414zM73.196 23.56c-2.789 0-5.867.525-9.213 1.524l1.145 3.832c3.085-.92 5.768-1.356 8.067-1.356v-4zM62.555 27v17.28h4V27h-4zm2 19.28h10.8v-4h-10.8v4zm10.8 0c1.268 0 2.586-.318 3.574-1.306.987-.987 1.305-2.306 1.305-3.574h-4c0 .32-.04.517-.077.628a.498.498 0 01-.043.098c-.008.014-.013.019-.014.02 0 0-.005.005-.02.014a.498.498 0 01-.098.043 2.06 2.06 0 01-.627.077v4zm4.88-4.88V28.08h-4V41.4h4zm0-13.32c0-1.215-.427-2.335-1.306-3.214L76.1 27.694c.08.08.135.16.135.386h4zm-1.306-3.214c-.88-.88-2-1.306-3.215-1.306v4c.226 0 .306.054.386.134l2.829-2.828zm-3.215-1.306h-2.52v4h2.52v-4zM62.556 54v12.24h4V54h-4zm2 10.24h-12.6v4h12.6v-4zm-10.6 2v-50.4h-4v50.4h4zm-2-48.4h11.16v-4h-11.16v4zm9.2-1.608l.72 3.6 3.922-.784-.72-3.6-3.923.784zm3.782 4.878c2.103-1.388 4.223-2.376 6.36-2.987l-1.099-3.846c-2.567.733-5.055 1.905-7.464 3.493l2.203 3.34zm6.385-2.994c2.302-.69 4.11-.996 5.474-.996v-4c-1.902 0-4.125.415-6.623 1.164l1.15 3.832zm5.474-.996h3.24v-4h-3.24v4zm3.24 0c2.832 0 4.905.838 6.433 2.366l2.829-2.828c-2.408-2.408-5.567-3.538-9.263-3.538v4zm6.433 2.366c1.529 1.529 2.367 3.602 2.367 6.434h4c0-3.696-1.13-6.855-3.538-9.262l-2.829 2.828zm2.367 6.434v16.56h4V25.92h-4zm0 16.56c0 3.2-.905 5.477-2.51 7.082l2.828 2.828c2.522-2.523 3.681-5.91 3.681-9.91h-4zm-2.51 7.082C84.775 51.11 82.531 52 79.315 52v4c3.983 0 7.354-1.126 9.838-3.61l-2.829-2.828zM79.315 52h-14.76v4h14.76v-4zm29.871-21.04h-2v2h2v-2zm12.24 0v2h2v-2h-2zm11.16 22.32l.206 1.99 1.794-.187V53.28h-2zm-33.048-1.512l-1.414 1.414 1.414-1.414zm.072-33.552l1.414 1.414-1.414-1.414zm31.32 0l-1.431 1.397.017.017.017.017 1.397-1.431zm3.096 21.744v2h2v-2h-2zm-24.84 0v-2h-2v2h2zm.72 4.68l1.414-1.414-1.414 1.414zm22.68-.36h2v-2.163l-2.157.17.157 1.993zm-20.52-22.16c-1.268 0-2.587.318-3.574 1.306-.988.987-1.306 2.306-1.306 3.574h4c0-.32.041-.517.077-.628a.503.503 0 01.057-.118c.001 0 .006-.006.02-.014a.5.5 0 01.098-.043c.111-.036.309-.077.628-.077v-4zm-4.88 4.88v3.96h4V27h-4zm2 5.96h12.24v-4h-12.24v4zm14.24-2V27h-4v3.96h4zm0-3.96c0-1.268-.318-2.587-1.306-3.574-.987-.988-2.306-1.306-3.574-1.306v4c.319 0 .517.04.628.077a.5.5 0 01.098.043l.02.014a.503.503 0 01.057.118c.036.11.077.309.077.628h4zm-4.88-4.88h-6.48v4h6.48v-4zm13.834 29.17c-9.211.955-17.541 1.43-24.994 1.43v4c7.619 0 16.089-.485 25.406-1.45l-.412-3.98zm-24.994 1.43c-2.832 0-4.905-.838-6.434-2.366l-2.828 2.828c2.407 2.408 5.566 3.538 9.262 3.538v-4zm-6.434-2.366c-1.528-1.529-2.366-3.602-2.366-6.434h-4c0 3.696 1.13 6.855 3.538 9.262l2.828-2.828zm-2.366-6.434V26.64h-4v17.28h4zm0-17.28c0-3.216.89-5.461 2.438-7.01l-2.828-2.828c-2.484 2.483-3.61 5.854-3.61 9.838h4zm2.438-7.01c1.606-1.605 3.881-2.51 7.082-2.51v-4c-3.999 0-7.387 1.16-9.91 3.682l2.828 2.828zm7.082-2.51h14.4v-4h-14.4v4zm14.4 0c3.203 0 5.442.905 6.993 2.493l2.862-2.794c-2.481-2.54-5.858-3.699-9.855-3.699v4zm7.027 2.527c1.588 1.55 2.493 3.79 2.493 6.993h4c0-3.997-1.159-7.374-3.698-9.855l-2.795 2.862zm2.493 6.993v13.32h4V26.64h-4zm2 11.32h-24.84v4h24.84v-4zm-26.84 2v2.88h4v-2.88h-4zm0 2.88c0 1.215.426 2.335 1.306 3.214l2.828-2.828c-.08-.08-.134-.16-.134-.386h-4zm1.306 3.214c.879.88 1.999 1.306 3.214 1.306v-4c-.225 0-.305-.054-.386-.134l-2.828 2.828zm3.214 1.306c4.832 0 11.855-.365 21.037-1.086l-.314-3.988c-9.154.72-16.051 1.074-20.723 1.074v4zm18.88-3.08v9h4v-9h-4zm43.732 9l.213 1.989 1.787-.191V53.28h-2zm-31.608-1.512l-1.414 1.414 1.414-1.414zm.072-32.832l1.414 1.414-1.414-1.414zm31.536-3.096h2v-2h-2v2zm0 9.72v2h2v-2h-2zm0 18.36h2v-2.174l-2.166.18.166 1.994zm-.213 7.371c-8.926.955-16.772 1.429-23.547 1.429v4c6.953 0 14.947-.486 23.973-1.451l-.426-3.978zm-23.547 1.429c-2.832 0-4.905-.838-6.434-2.366l-2.828 2.828c2.407 2.408 5.566 3.538 9.262 3.538v-4zm-6.434-2.366c-1.528-1.529-2.366-3.602-2.366-6.434h-4c0 3.696 1.13 6.855 3.538 9.262l2.828-2.828zm-2.366-6.434V27.36h-4v16.56h4zm0-16.56c0-3.216.89-5.461 2.438-7.01l-2.828-2.828c-2.484 2.483-3.61 5.854-3.61 9.838h4zm2.438-7.01c1.605-1.605 3.881-2.51 7.082-2.51v-4c-3.999 0-7.388 1.16-9.91 3.682l2.828 2.828zm7.082-2.51h23.04v-4h-23.04v4zm21.04-2v9.72h4v-9.72h-4zm2 7.72h-19.08v4h19.08v-4zm-19.08 0c-1.268 0-2.587.318-3.574 1.306-.988.987-1.306 2.306-1.306 3.574h4c0-.32.041-.517.077-.628a.503.503 0 01.057-.118l.02-.014a.5.5 0 01.098-.043c.111-.036.309-.077.628-.077v-4zm-4.88 4.88v14.04h4V28.44h-4zm0 14.04c0 1.215.426 2.335 1.306 3.214l2.828-2.828c-.08-.08-.134-.16-.134-.386h-4zm1.306 3.214c.879.88 1.999 1.306 3.214 1.306v-4c-.225 0-.305-.054-.386-.134l-2.828 2.828zM154.879 47c4.406 0 10.954-.366 19.606-1.087l-.332-3.986c-8.628.719-15.04 1.073-19.274 1.073v4zm17.44-3.08v9.36h4v-9.36h-4zm23.586-26.64h2v-2h-2v2zm0 36.72v2h2v-2h-2zm-12.6 0h-2v2h2v-2zm0-27h2v-2h-2v2zm-5.4 0h-2v2h2v-2zm0-9.72v-2h-2v2h2zm5.4-14.4v-2h-2v2h2zm12.6 0h2v-2h-2v2zm0 10.08v2h2v-2h-2zm-12.6 0h-2v2h2v-2zm10.6 4.32V54h4V17.28h-4zm2 34.72h-12.6v4h12.6v-4zm-10.6 2V27h-4v27h4zm-2-29h-5.4v4h5.4v-4zm-3.4 2v-9.72h-4V27h4zm-2-7.72h18v-4h-18v4zm5.4-14.4h12.6v-4h-12.6v4zm10.6-2v10.08h4V2.88h-4zm2 8.08h-12.6v4h12.6v-4zm-10.6 2V2.88h-4v10.08h4zm41.582 30.24l.572 1.916 1.428-.426V43.2h-2zm0-4.32h2v-2h-2v2zm-12.24.72l1.415 1.414-1.415-1.414zm0 4.32l-1.414 1.414 1.414-1.414zm-9.72-27.36l-.217-1.988-1.783.195v1.793h2zm31.608 1.512l-1.414 1.414 1.414-1.414zM239.487 54v2h2v-2h-2zm-11.16 0l-1.961.392.322 1.608h1.639v-2zm-.72-3.6l1.962-.392-.583-2.913-2.48 1.636 1.101 1.669zm-6.984 3.312l.55 1.923.012-.004.013-.003-.575-1.916zm-16.344-1.944l-1.414 1.414 1.414-1.414zm0-18.936l1.415 1.414-1.415-1.414zm22.608-2.952v2h2v-2h-2zm-.72-4.68l-1.414 1.414 1.414-1.414zm-12.168-.288l-.151-1.994h-.002l.153 1.994zm-9.072.648h-2v2.129l2.125-.133-.125-1.996zm13.32 21.08c2.789 0 5.866-.525 9.212-1.524l-1.144-3.832c-3.086.92-5.768 1.356-8.068 1.356v4zm10.64-3.44v-4.32h-4v4.32h4zm-2-6.32h-10.44v4h10.44v-4zm-10.44 0c-1.214 0-2.334.426-3.214 1.306l2.829 2.828c.08-.08.16-.134.385-.134v-4zm-3.214 1.306c-.879.88-1.306 2-1.306 3.214h4c0-.225.054-.305.135-.386l-2.829-2.828zm-1.306 3.214v.72h4v-.72h-4zm0 .72c0 1.215.427 2.335 1.306 3.214l2.829-2.828c-.081-.08-.135-.16-.135-.386h-4zm1.306 3.214c.88.88 2 1.306 3.214 1.306v-4c-.225 0-.305-.054-.385-.134l-2.829 2.828zm3.214 1.306h1.8v-4h-1.8v4zm-11.302-28.092c8.729-.954 16.574-1.428 23.542-1.428v-4c-7.144 0-15.138.486-23.977 1.452l.435 3.976zm23.542-1.428c2.833 0 4.906.838 6.434 2.366l2.829-2.828c-2.408-2.408-5.567-3.538-9.263-3.538v4zm6.434 2.366c1.529 1.529 2.366 3.602 2.366 6.434h4c0-3.696-1.13-6.855-3.537-9.262l-2.829 2.828zm2.366 6.434V54h4V25.92h-4zm2 26.08h-11.16v4h11.16v-4zm-9.198 1.608l-.72-3.6-3.923.784.72 3.6 3.923-.784zm-3.783-4.877c-2.106 1.389-4.258 2.405-6.457 3.065l1.149 3.832c2.601-.78 5.105-1.972 7.511-3.559l-2.203-3.339zm-6.432 3.058c-2.253.644-4.048.931-5.427.931v4c1.886 0 4.075-.385 6.526-1.085l-1.099-3.846zm-5.427.931h-2.52v4h2.52v-4zm-2.52 0c-2.832 0-4.905-.838-6.433-2.366l-2.829 2.828c2.408 2.408 5.567 3.538 9.262 3.538v-4zm-6.433-2.366c-1.529-1.529-2.367-3.602-2.367-6.434h-4c0 3.696 1.131 6.855 3.538 9.262l2.829-2.828zm-2.367-6.434v-3.24h-4v3.24h4zm0-3.24c0-2.832.838-4.905 2.367-6.434l-2.829-2.828c-2.407 2.407-3.538 5.566-3.538 9.262h4zm2.367-6.434c1.528-1.528 3.601-2.366 6.433-2.366v-4c-3.695 0-6.854 1.13-9.262 3.538l2.829 2.828zm6.433-2.366h14.76v-4h-14.76v4zm16.76-2V27h-4v2.88h4zm0-2.88c0-1.215-.426-2.335-1.305-3.214l-2.829 2.828c.081.08.134.16.134.386h4zm-1.305-3.214c-.88-.88-2-1.306-3.215-1.306v4c.226 0 .306.054.386.134l2.829-2.828zm-3.215-1.306c-3.18 0-6.687.147-10.519.438l.303 3.988c3.752-.285 7.156-.426 10.216-.426v-4zm-10.521.438c-3.74.288-6.753.503-9.043.646l.249 3.992a664.28 664.28 0 009.101-.65l-.307-3.988zm-6.919 2.642v-9h-4v9h4zM265.388 54l.295 1.978 1.705-.254V54h-2zM248.9 51.768l1.414-1.414-1.414 1.414zM245.948 3.6v-2h-2v2h2zm12.6 0h2v-2h-2v2zm6.84 41.04h2v-2h-2v2zm-.296 7.382c-3.128.467-6.101.698-8.92.698v4c3.037 0 6.208-.249 9.511-.742l-.591-3.956zm-8.92.698c-2.371 0-4.28-.788-5.858-2.366l-2.829 2.828c2.358 2.358 5.297 3.538 8.687 3.538v-4zm-5.858-2.366c-1.529-1.529-2.366-3.602-2.366-6.434h-4c0 3.696 1.13 6.855 3.537 9.262l2.829-2.828zm-2.366-6.434V3.6h-4v40.32h4zm-2-38.32h12.6v-4h-12.6v4zm10.6-2v38.52h4V3.6h-4zm0 38.52c0 1.215.426 2.335 1.305 3.214l2.829-2.828c-.081-.08-.134-.16-.134-.386h-4zm1.305 3.214c.88.88 2 1.306 3.215 1.306v-4c-.226 0-.306-.054-.386-.134l-2.829 2.828zm3.215 1.306h4.32v-4h-4.32v4zm2.32-2V54h4v-9.36h-4zm71.238 6.696l-1.414-1.414 1.414 1.414zm-39.96 0l-1.429 1.4.015.014.015.015 1.399-1.429zm0-45l-1.414-1.414 1.414 1.414zm39.96 0l-1.429 1.4.015.014.015.015 1.399-1.429zm-7.504 10.944c0-1.748-.438-3.427-1.665-4.654-1.228-1.228-2.906-1.666-4.655-1.666v4c1.132 0 1.613.282 1.826.494.213.213.494.694.494 1.826h4zm-6.32-6.32h-12.24v4h12.24v-4zm-12.24 0c-1.748 0-3.427.438-4.654 1.666-1.227 1.227-1.666 2.906-1.666 4.654h4c0-1.132.282-1.613.495-1.826.212-.212.694-.494 1.825-.494v-4zm-6.32 6.32v23.04h4V17.28h-4zm0 23.04c0 1.748.439 3.427 1.666 4.654 1.227 1.228 2.906 1.666 4.654 1.666v-4c-1.131 0-1.613-.282-1.825-.494-.213-.213-.495-.694-.495-1.826h-4zm6.32 6.32h12.24v-4h-12.24v4zm12.24 0c1.749 0 3.427-.438 4.655-1.666 1.227-1.227 1.665-2.906 1.665-4.654h-4c0 1.132-.281 1.613-.494 1.826-.213.212-.694.494-1.826.494v4zm6.32-6.32V17.28h-4v23.04h4zm8.96 0c0 4.793-1.102 7.834-2.87 9.602l2.829 2.828c2.84-2.84 4.041-7.143 4.041-12.43h-4zm-2.87 9.602c-1.713 1.713-4.723 2.798-9.53 2.798v4c5.273 0 9.56-1.17 12.359-3.97l-2.829-2.828zm-9.53 2.798h-18v4h18v-4zm-18 0c-4.802 0-7.85-1.083-9.616-2.813l-2.799 2.858c2.841 2.782 7.138 3.955 12.415 3.955v-4zm-9.587-2.783c-1.729-1.767-2.813-4.815-2.813-9.617h-4c0 5.278 1.173 9.574 3.955 12.415l2.858-2.798zm-2.813-9.617V17.28h-4v23.04h4zm0-23.04c0-4.807 1.086-7.817 2.799-9.53l-2.829-2.828c-2.799 2.799-3.97 7.085-3.97 12.358h4zm2.799-9.53c1.767-1.767 4.809-2.87 9.601-2.87v-4c-5.287 0-9.589 1.201-12.43 4.042l2.829 2.828zm9.601-2.87h18v-4h-18v4zm18 0c4.798 0 7.801 1.105 9.515 2.855l2.858-2.798C333.257 2.079 328.965.88 323.682.88v4zm9.545 2.885c1.751 1.714 2.855 4.718 2.855 9.515h4c0-5.283-1.199-9.575-4.056-12.373l-2.799 2.858zm2.855 9.515v23.04h4V17.28h-4zm39.474-3.96l-.138 1.995 2.138.148V13.32h-2zm-14.76 0l1.414 1.414-1.414-1.414zm-.72 5.4h-2v2h2v-2zm11.88 0h2v-2h-2v2zm0 9.72v2h2v-2h-2zm-11.88 0v-2h-2v2h2zm0 25.56v2h2v-2h-2zm-12.6 0h-2v2h2v-2zm0-25.56h2v-2h-2v2zm-5.04 0h-2v2h2v-2zm0-9.72v-2h-2v2h2zm5.04 0v2h2v-2h-2zm2.952-12.888l1.414 1.414-1.414-1.414zM375.556 3.6h2V1.69l-1.907-.088-.093 1.998zm.138 7.725a403.963 403.963 0 01-5.516-.43l-.332 3.986c2.308.192 4.167.337 5.572.434l.276-3.99zm-5.516-.43c-2.34-.195-4.39-.295-6.142-.295v4c1.608 0 3.542.092 5.81.281l.332-3.986zm-6.142-.295c-.919 0-1.768.064-2.504.228-.7.155-1.521.449-2.15 1.078l2.828 2.828c-.149.15-.19.083.19-.002.344-.076.875-.132 1.636-.132v-4zm-4.654 1.306c-.88.88-1.306 2-1.306 3.214h4c0-.225.054-.305.134-.386l-2.828-2.828zm-1.306 3.214v3.6h4v-3.6h-4zm2 5.6h11.88v-4h-11.88v4zm9.88-2v9.72h4v-9.72h-4zm2 7.72h-11.88v4h11.88v-4zm-13.88 2V54h4V28.44h-4zm2 23.56h-12.6v4h12.6v-4zm-10.6 2V28.44h-4V54h4zm-2-27.56h-5.04v4h5.04v-4zm-3.04 2v-9.72h-4v9.72h4zm-2-7.72h5.04v-4h-5.04v4zm7.04-2v-5.04h-4v5.04h4zm0-5.04c0-2.832.838-4.905 2.366-6.434l-2.828-2.828c-2.408 2.407-3.538 5.566-3.538 9.262h4zm2.366-6.434c1.529-1.528 3.602-2.366 6.434-2.366v-4c-3.696 0-6.855 1.13-9.262 3.538l2.828 2.828zm6.434-2.366c2.885 0 5.941.095 9.171.285l.235-3.994a160.535 160.535 0 00-9.406-.291v4zm9.171.285c3.268.192 5.941.336 8.016.433l.186-3.996a674.655 674.655 0 01-7.967-.43l-.235 3.993zm6.109-1.565v9.72h4V3.6h-4zm34.414 9.72l-.137 1.995 2.137.148V13.32h-2zm-14.76 0l1.414 1.414-1.414-1.414zm-.72 5.4h-2v2h2v-2zm11.88 0h2v-2h-2v2zm0 9.72v2h2v-2h-2zm-11.88 0v-2h-2v2h2zm0 25.56v2h2v-2h-2zm-12.6 0h-2v2h2v-2zm0-25.56h2v-2h-2v2zm-5.04 0h-2v2h2v-2zm0-9.72v-2h-2v2h2zm5.04 0v2h2v-2h-2zm2.952-12.888l1.414 1.414-1.414-1.414zM407.97 3.6h2V1.69l-1.907-.088-.093 1.998zm.138 7.725a403.963 403.963 0 01-5.516-.43l-.332 3.986c2.308.192 4.167.337 5.573.434l.275-3.99zm-5.516-.43c-2.34-.195-4.39-.295-6.142-.295v4c1.609 0 3.542.092 5.81.281l.332-3.986zm-6.142-.295c-.919 0-1.768.064-2.504.228-.7.155-1.521.449-2.15 1.078l2.828 2.828c-.149.15-.19.083.19-.002.344-.076.875-.132 1.636-.132v-4zm-4.654 1.306c-.88.88-1.306 2-1.306 3.214h4c0-.225.054-.305.134-.386l-2.828-2.828zm-1.306 3.214v3.6h4v-3.6h-4zm2 5.6h11.88v-4h-11.88v4zm9.88-2v9.72h4v-9.72h-4zm2 7.72h-11.88v4h11.88v-4zm-13.88 2V54h4V28.44h-4zm2 23.56h-12.6v4h12.6v-4zm-10.6 2V28.44h-4V54h4zm-2-27.56h-5.04v4h5.04v-4zm-3.04 2v-9.72h-4v9.72h4zm-2-7.72h5.04v-4h-5.04v4zm7.04-2v-5.04h-4v5.04h4zm0-5.04c0-2.832.838-4.905 2.366-6.434l-2.828-2.828c-2.408 2.407-3.538 5.566-3.538 9.262h4zm2.366-6.434c1.529-1.528 3.602-2.366 6.434-2.366v-4c-3.695 0-6.854 1.13-9.262 3.538l2.828 2.828zm6.434-2.366c2.885 0 5.941.095 9.171.285l.235-3.994A160.509 160.509 0 00390.69.88v4zm9.171.285c3.268.192 5.941.336 8.016.433l.186-3.996a676.98 676.98 0 01-7.967-.43l-.235 3.993zM405.97 3.6v9.72h4V3.6h-4zm15.334 27.36h-2v2h2v-2zm12.24 0v2h2v-2h-2zm11.16 22.32l.206 1.99 1.794-.187V53.28h-2zm-33.048-1.512l-1.414 1.414 1.414-1.414zm.072-33.552l1.414 1.414-1.414-1.414zm31.32 0l-1.431 1.397.017.017.017.017 1.397-1.431zm3.096 21.744v2h2v-2h-2zm-24.84 0v-2h-2v2h2zm.72 4.68l1.414-1.414-1.414 1.414zm22.68-.36h2v-2.163l-2.156.17.156 1.993zm-20.52-22.16c-1.268 0-2.587.318-3.574 1.306-.987.987-1.306 2.306-1.306 3.574h4c0-.32.041-.517.078-.628a.462.462 0 01.042-.098l.014-.02c.001 0 .006-.006.02-.014a.52.52 0 01.099-.043 2.06 2.06 0 01.627-.077v-4zm-4.88 4.88v3.96h4V27h-4zm2 5.96h12.24v-4h-12.24v4zm14.24-2V27h-4v3.96h4zm0-3.96c0-1.268-.318-2.587-1.306-3.574-.987-.988-2.305-1.306-3.574-1.306v4c.32 0 .517.04.628.077a.5.5 0 01.098.043l.02.014a.503.503 0 01.057.118c.037.11.077.309.077.628h4zm-4.88-4.88h-6.48v4h6.48v-4zm13.834 29.17c-9.211.955-17.54 1.43-24.994 1.43v4c7.619 0 16.089-.485 25.406-1.45l-.412-3.98zm-24.994 1.43c-2.832 0-4.905-.838-6.434-2.366l-2.828 2.828c2.408 2.408 5.567 3.538 9.262 3.538v-4zm-6.434-2.366c-1.528-1.529-2.366-3.602-2.366-6.434h-4c0 3.696 1.13 6.855 3.538 9.262l2.828-2.828zm-2.366-6.434V26.64h-4v17.28h4zm0-17.28c0-3.216.89-5.461 2.438-7.01l-2.828-2.828c-2.483 2.483-3.61 5.854-3.61 9.838h4zm2.438-7.01c1.606-1.605 3.881-2.51 7.082-2.51v-4c-3.999 0-7.387 1.16-9.91 3.682l2.828 2.828zm7.082-2.51h14.4v-4h-14.4v4zm14.4 0c3.203 0 5.442.905 6.993 2.493l2.862-2.794c-2.481-2.54-5.858-3.699-9.855-3.699v4zm7.027 2.527c1.588 1.55 2.493 3.79 2.493 6.993h4c0-3.997-1.158-7.374-3.698-9.855l-2.795 2.862zm2.493 6.993v13.32h4V26.64h-4zm2 11.32h-24.84v4h24.84v-4zm-26.84 2v2.88h4v-2.88h-4zm0 2.88c0 1.215.426 2.335 1.306 3.214l2.828-2.828c-.08-.08-.134-.16-.134-.386h-4zm1.306 3.214c.88.88 1.999 1.306 3.214 1.306v-4c-.225 0-.305-.054-.386-.134l-2.828 2.828zm3.214 1.306c4.832 0 11.855-.365 21.037-1.086l-.313-3.988c-9.155.72-16.052 1.074-20.724 1.074v4zm18.88-3.08v9h4v-9h-4zm22.492-15.84l-.817-1.825-1.183.53v1.295h2zm0 25.56v2h2v-2h-2zm-12.6 0h-2v2h2v-2zm0-38.16v-2h-2v2h2zm11.16 0l1.977-.304-.261-1.696h-1.716v2zm.72 4.68l-1.977.304.553 3.592 2.739-2.389-1.315-1.507zm16.2-5.4h2v-2h-2v2zm0 11.16v2h2v-2h-2zm-6.12-2c-3.348 0-6.746.798-10.177 2.335l1.634 3.65c3.001-1.343 5.844-1.985 8.543-1.985v-4zm-11.36 4.16V54h4V28.44h-4zm2 23.56h-12.6v4h12.6v-4zm-10.6 2V15.84h-4V54h4zm-2-36.16h11.16v-4h-11.16v4zm9.183-1.696l.72 4.68 3.954-.608-.72-4.68-3.954.608zm4.012 5.883c3.845-3.353 7.714-4.907 11.645-4.907v-4c-5.093 0-9.864 2.046-14.274 5.893l2.629 3.014zm11.645-4.907h3.24v-4h-3.24v4zm1.24-2v11.16h4V15.12h-4zm2 9.16h-6.12v4h6.12v-4zm3.597 19.64l.148-1.995-2.148-.158v2.153h2zm24.84.36l1.414 1.414-1.414-1.414zm.72-4.32h2v-2h-2v2zm-23.328-2.952l1.414-1.414-1.414 1.414zm0-18.216l1.414 1.414-1.414-1.414zm32.328-2.952h2v-2h-2v2zm0 9.36v2h2v-2h-2zm-21.96.72l1.414 1.414-1.414-1.414zm0 3.6l-1.414 1.414 1.414-1.414zm22.608 3.672l1.414-1.414-1.414 1.414zm0 18.576l1.414 1.414-1.414-1.414zm-35.208 1.512h-2v1.813l1.804.177.196-1.99zm-.147-7.365c9.763.721 17.499 1.085 23.187 1.085v-4c-5.544 0-13.167-.356-22.892-1.075l-.295 3.99zM507.313 47c1.215 0 2.335-.426 3.214-1.306l-2.828-2.828c-.08.08-.16.134-.386.134v4zm3.214-1.306c.88-.88 1.306-2 1.306-3.214h-4c0 .225-.054.305-.134.386l2.828 2.828zm1.306-3.214v-2.52h-4v2.52h4zm-2-4.52h-15.48v4h15.48v-4zm-15.48 0c-2.832 0-4.905-.838-6.434-2.366l-2.828 2.828c2.408 2.408 5.567 3.538 9.262 3.538v-4zm-6.434-2.366c-1.528-1.529-2.366-3.602-2.366-6.434h-4c0 3.696 1.13 6.855 3.538 9.262l2.828-2.828zm-2.366-6.434v-2.52h-4v2.52h4zm0-2.52c0-2.832.838-4.905 2.366-6.434l-2.828-2.828c-2.408 2.407-3.538 5.566-3.538 9.262h4zm2.366-6.434c1.529-1.528 3.602-2.366 6.434-2.366v-4c-3.695 0-6.854 1.13-9.262 3.538l2.828 2.828zm6.434-2.366h24.48v-4h-24.48v4zm22.48-2v9.36h4v-9.36h-4zm2 7.36h-20.16v4h20.16v-4zm-20.16 0c-1.214 0-2.334.426-3.214 1.306l2.828 2.828c.081-.08.161-.134.386-.134v-4zm-3.214 1.306c-.88.88-1.306 2-1.306 3.214h4c0-.225.054-.305.134-.386l-2.828-2.828zm-1.306 3.214c0 1.215.426 2.335 1.306 3.214l2.828-2.828c-.08-.08-.134-.16-.134-.386h-4zm1.306 3.214c.88.88 2 1.306 3.214 1.306v-4c-.225 0-.305-.054-.386-.134l-2.828 2.828zm3.214 1.306h12.96v-4h-12.96v4zm12.96 0c2.833 0 4.906.838 6.434 2.366l2.828-2.828c-2.407-2.408-5.566-3.538-9.262-3.538v4zm6.434 2.366c1.528 1.529 2.366 3.602 2.366 6.434h4c0-3.696-1.13-6.855-3.538-9.262l-2.828 2.828zm2.366 6.434v2.88h4v-2.88h-4zm0 2.88c0 2.832-.838 4.905-2.366 6.434l2.828 2.828c2.408-2.407 3.538-5.566 3.538-9.262h-4zm-2.366 6.434c-1.528 1.528-3.601 2.366-6.434 2.366v4c3.696 0 6.855-1.13 9.262-3.538l-2.828-2.828zm-6.434 2.366c-8.421 0-17.475-.476-27.164-1.43l-.392 3.98c9.8.966 18.986 1.45 27.556 1.45v-4zm-25.36.56v-9.36h-4v9.36h4z" fill="#000" fill-opacity=".06"/></svg>