<svg width="352" height="48" fill="none" xmlns="http://www.w3.org/2000/svg"><path d="M3.286 30.04l.11-1.997-2.11-.116v2.113h2zm19.536.096l-1.414-1.414 1.414 1.414zm.672-6.096h2v-2h-2v2zM5.11 21.784l-1.429 1.4.015.014.015.015 1.4-1.429zm0-16.08l1.414 1.414L5.11 5.704zM29.302 3.4h2v-2h-2v2zm0 6.72v2h2v-2h-2zm.624 25.152l-1.414-1.414 1.414 1.414zM17.83 37.384l-.087 1.998h.017l.07-1.998zm-4.416-.192l-.098 1.998h.011l.087-1.998zM3.286 36.52h-2v1.842l1.835.151.165-1.993zm-.11-4.483c8.762.48 14.751.723 17.918.723v-4c-3.04 0-8.924-.237-17.699-.717l-.218 3.994zm17.918.723c1.126 0 2.262-.33 3.142-1.21l-2.828-2.828c.008-.009.014-.008-.01 0a.935.935 0 01-.304.038v4zm3.142-1.21c.884-.884 1.258-2.016 1.258-3.19h-4c0 .298-.074.35-.086.362l2.828 2.828zm1.258-3.19v-4.32h-4v4.32h4zm-2-6.32h-11.04v4h11.04v-4zm-11.04 0c-3.122 0-4.946-.707-5.945-1.685l-2.798 2.858c2.073 2.03 5.145 2.827 8.743 2.827v-4zM6.54 20.385c-.978-.999-1.685-2.823-1.685-5.945h-4c0 3.598.797 6.67 2.827 8.743l2.858-2.798zM4.854 14.44V13h-4v1.44h4zm0-1.44c0-3.127.71-4.92 1.67-5.882L3.696 4.29C1.649 6.337.854 9.407.854 13h4zm1.67-5.882c1-1 2.817-1.718 5.93-1.718v-4c-3.607 0-6.686.817-8.758 2.89l2.828 2.828zm5.93-1.718h16.848v-4H12.454v4zm14.848-2v6.72h4V3.4h-4zm2 4.72H14.374v4h14.928v-4zm-14.928 0c-1.268 0-2.587.318-3.574 1.306-.988.987-1.306 2.306-1.306 3.574h4c0-.32.04-.517.077-.627a.504.504 0 01.043-.099c.008-.014.013-.019.014-.02l.02-.014a.499.499 0 01.098-.043c.11-.036.309-.077.628-.077v-4zM9.494 13v.96h4V13h-4zm0 .96c0 1.268.318 2.587 1.306 3.574.987.988 2.306 1.306 3.574 1.306v-4c-.32 0-.517-.04-.628-.077a.499.499 0 01-.098-.043l-.02-.014-.014-.02a.504.504 0 01-.043-.098 2.068 2.068 0 01-.077-.628h-4zm4.88 4.88h8.64v-4h-8.64v4zm8.64 0c2.87 0 4.554.678 5.498 1.622l2.828-2.828c-2-2-4.924-2.794-8.326-2.794v4zm5.498 1.622c.944.944 1.622 2.627 1.622 5.498h4c0-3.401-.794-6.326-2.794-8.326l-2.828 2.828zm1.622 5.498v2.4h4v-2.4h-4zm0 2.4c0 2.87-.678 4.554-1.622 5.498l2.828 2.828c2-2 2.794-4.925 2.794-8.326h-4zm-1.622 5.498c-.944.944-2.627 1.622-5.498 1.622v4c3.402 0 6.326-.794 8.326-2.794l-2.828-2.828zm-5.498 1.622c-1.606 0-3.31-.031-5.114-.095l-.14 3.998c1.845.064 3.596.097 5.254.097v-4zm-5.097-.094l-4.416-.192-.174 3.996 4.416.192.174-3.996zm-4.405-.192c-3.24-.158-6.594-.38-10.061-.667l-.33 3.986c3.51.29 6.907.515 10.195.677l.196-3.996zM5.286 36.52v-6.48h-4v6.48h4zM44.37 19l-.572-1.916-1.428.426V19h2zm0 11.52h-2v2h2v-2zm8.64-12l1.415-1.414-1.415 1.414zM44.37 37v-2h-2v2h2zm0 8.16v2h2v-2h-2zm-8.4 0h-2v2h2v-2zm0-33.6v-2h-2v2h2zm7.44 0l1.962-.392-.322-1.608h-1.64v2zm.48 2.4l-1.96.392.582 2.913 2.48-1.636-1.102-1.669zm4.608-2.16l.55 1.923.012-.004.013-.003-.575-1.916zm11.424 1.248l-1.414 1.414 1.414-1.414zm-.096 21.936l1.414 1.414-1.414-1.414zM50.13 16.04c-1.94 0-4.058.365-6.332 1.044l1.144 3.832c2.014-.6 3.736-.876 5.188-.876v-4zM42.37 19v11.52h4V19h-4zm2 13.52h7.2v-4h-7.2v4zm7.2 0c.949 0 2.027-.238 2.855-1.066.827-.827 1.065-1.906 1.065-2.854h-4c0 .077-.005.132-.01.167s-.01.047-.007.04a.61.61 0 01.305-.305 1.206 1.206 0 01-.208.017v4.001zm3.92-3.92v-8.88h-4v8.88h4zm0-8.88c0-.975-.346-1.895-1.066-2.614l-2.828 2.828a.407.407 0 01-.083-.131c-.024-.062-.023-.098-.023-.083h4zm-1.066-2.614c-.72-.72-1.639-1.066-2.614-1.066v4c.015 0-.02.002-.083-.023a.408.408 0 01-.13-.083l2.828-2.828zM51.81 16.04h-1.68v4h1.68v-4zM42.37 37v8.16h4V37h-4zm2 6.16h-8.4v4h8.4v-4zm-6.4 2v-33.6h-4v33.6h4zm-2-31.6h7.44v-4h-7.44v4zm5.48-1.608l.48 2.4 3.922-.784-.48-2.4-3.923.784zm3.541 3.678c1.352-.892 2.704-1.52 4.057-1.907l-1.1-3.846c-1.782.51-3.503 1.321-5.159 2.413l2.203 3.34zm4.082-1.914c1.502-.45 2.639-.636 3.457-.636v-4c-1.357 0-2.908.295-4.606.804l1.149 3.832zm3.457-.636h2.16v-4h-2.16v4zm2.16 0c1.745 0 2.946.51 3.818 1.382l2.828-2.828c-1.75-1.752-4.037-2.554-6.646-2.554v4zm3.818 1.382c.872.873 1.382 2.074 1.382 3.818h4c0-2.608-.802-4.895-2.553-6.646l-2.829 2.828zm1.382 3.818v11.04h4V18.28h-4zm0 11.04c0 2-.56 3.333-1.478 4.25l2.828 2.828c1.835-1.835 2.65-4.279 2.65-7.078h-4zm-1.478 4.25c-.877.876-2.185 1.43-4.202 1.43v4c2.784 0 5.22-.79 7.03-2.602l-2.828-2.828zM54.21 35h-9.84v4h9.84v-4zm19.915-13.36h-2v2h2v-2zm8.16 0v2h2v-2h-2zm7.44 14.88l.206 1.99 1.794-.186V36.52h-2zm-22.032-1.008l-1.415 1.414 1.415-1.414zm.048-22.368l1.414 1.414-1.414-1.414zm20.88 0l-1.431 1.397.016.017.017.017 1.398-1.431zm2.064 14.496v2h2v-2h-2zm-16.56 0v-2h-2v2h2zm.48 3.12l1.414-1.414-1.414 1.414zm15.12-.24h2v-2.163l-2.157.17.157 1.993zm-13.68-15.44c-.949 0-2.027.238-2.855 1.066-.827.827-1.065 1.906-1.065 2.854h4c0-.077.005-.132.01-.167s.01-.047.007-.04a.61.61 0 01-.305.305 1.206 1.206 0 01.208-.017V15.08zM72.125 19v2.64h4V19h-4zm2 4.64h8.16v-4h-8.16v4zm10.16-2V19h-4v2.64h4zm0-2.64c0-.948-.239-2.027-1.066-2.854-.828-.828-1.906-1.066-2.854-1.066v4c.077 0 .132.005.167.01s.047.01.04.007a.601.601 0 01-.305-.305c-.002-.006.003.006.008.04.005.036.01.09.01.168h4zm-3.92-3.92h-4.32v4h4.32v-4zm9.154 19.45c-6.123.635-11.653.95-16.594.95v4c5.106 0 10.777-.325 17.006-.97l-.412-3.98zm-16.594.95c-1.745 0-2.946-.51-3.818-1.382l-2.829 2.828c1.752 1.752 4.039 2.554 6.647 2.554v-4zm-3.818-1.382c-.873-.873-1.382-2.074-1.382-3.818h-4c0 2.608.802 4.895 2.553 6.646l2.829-2.828zm-1.382-3.818V18.76h-4v11.52h4zm0-11.52c0-2.016.553-3.325 1.43-4.202l-2.829-2.828c-1.81 1.811-2.601 4.246-2.601 7.03h4zm1.43-4.202c.917-.917 2.249-1.478 4.25-1.478v-4c-2.8 0-5.244.815-7.079 2.65l2.829 2.828zm4.25-1.478h9.6v-4h-9.6v4zm9.6 0c2.003 0 3.306.562 4.185 1.461l2.861-2.795c-1.808-1.851-4.25-2.666-7.046-2.666v4zm4.218 1.495c.9.879 1.462 2.182 1.462 4.185h4c0-2.797-.815-5.238-2.667-7.047l-2.795 2.862zm1.462 4.185v8.88h4v-8.88h-4zm2 6.88h-16.56v4h16.56v-4zm-18.56 2v1.92h4v-1.92h-4zm0 1.92c0 .975.346 1.895 1.066 2.614l2.828-2.828a.407.407 0 01.083.131c.024.062.023.098.023.083h-4zm1.066 2.614c.72.72 1.639 1.066 2.614 1.066v-4c-.015 0 .02-.002.082.023.065.026.11.061.132.083l-2.829 2.828zm2.614 1.066c3.248 0 7.95-.245 14.076-.726l-.313-3.988c-6.098.48-10.676.714-13.763.714v4zm11.92-2.72v6h4v-6h-4zm29.821 6l.213 1.989 1.787-.191V36.52h-2zm-21.072-1.008l-1.414 1.414 1.414-1.414zm.048-21.888l1.414 1.414-1.414-1.414zm21.024-2.064h2v-2h-2v2zm0 6.48v2h2v-2h-2zm0 12.24h2v-2.174l-2.166.18.166 1.994zm-.213 4.251c-5.934.635-11.14.949-15.627.949v4c4.665 0 10.019-.326 16.053-.971l-.426-3.978zm-15.627.949c-1.744 0-2.945-.51-3.818-1.382l-2.828 2.828c1.751 1.752 4.038 2.554 6.646 2.554v-4zm-3.818-1.382c-.872-.873-1.382-2.074-1.382-3.818h-4c0 2.608.802 4.895 2.554 6.646l2.828-2.828zm-1.382-3.818V19.24h-4v11.04h4zm0-11.04c0-2.016.554-3.325 1.43-4.202l-2.828-2.828c-1.812 1.811-2.602 4.246-2.602 7.03h4zm1.43-4.202c.917-.917 2.249-1.478 4.25-1.478v-4c-2.8 0-5.244.815-7.078 2.65l2.828 2.828zm4.25-1.478h15.36v-4h-15.36v4zm13.36-2v6.48h4v-6.48h-4zm2 4.48h-12.72v4h12.72v-4zm-12.72 0c-.948 0-2.027.238-2.854 1.066-.828.827-1.066 1.906-1.066 2.854h4c0-.077.005-.132.01-.167s.009-.047.007-.04a.334.334 0 01-.032.066.632.632 0 01-.206.206.347.347 0 01-.067.032l.041-.007c.035-.005.09-.01.167-.01v-4zm-3.92 3.92v9.36h4v-9.36h-4zm0 9.36c0 .975.346 1.895 1.066 2.614l2.828-2.828a.408.408 0 01.083.131c.025.062.023.098.023.083h-4zm1.066 2.614c.719.72 1.639 1.066 2.614 1.066v-4c-.015 0 .021-.002.083.023a.41.41 0 01.131.083l-2.828 2.828zM104.586 33c2.966 0 7.354-.246 13.126-.727l-.332-3.986c-5.748.479-10 .713-12.794.713v4zm10.96-2.72v6.24h4v-6.24h-4zm16.391-17.76h2v-2h-2v2zm0 24.48v2h2v-2h-2zm-8.4 0h-2v2h2v-2zm0-18h2v-2h-2v2zm-3.6 0h-2v2h2v-2zm0-6.48v-2h-2v2h2zm3.6-9.6v-2h-2v2h2zm8.4 0h2v-2h-2v2zm0 6.72v2h2v-2h-2zm-8.4 0h-2v2h2v-2zm6.4 2.88V37h4V12.52h-4zm2 22.48h-8.4v4h8.4v-4zm-6.4 2V19h-4v18h4zm-2-20h-3.6v4h3.6v-4zm-1.6 2v-6.48h-4V19h4zm-2-4.48h12v-4h-12v4zm3.6-9.6h8.4v-4h-8.4v4zm6.4-2v6.72h4V2.92h-4zm2 4.72h-8.4v4h8.4v-4zm-6.4 2V2.92h-4v6.72h4zm27.055 20.16l.572 1.916 1.428-.426V29.8h-2zm0-2.88h2v-2h-2v2zm-8.16.48l1.414 1.414-1.414-1.414zm0 2.88l-1.415 1.414 1.415-1.414zm-6.48-18.24l-.218-1.988-1.782.195v1.793h2zm21.072 1.008l-1.415 1.414 1.415-1.414zM160.992 37v2h2v-2h-2zm-7.44 0l-1.962.392.322 1.608h1.64v-2zm-.48-2.4l1.961-.392-.583-2.913-2.48 1.636 1.102 1.669zm-4.656 2.208l.549 1.923.013-.004.012-.003-.574-1.916zm-10.896-1.296l-1.415 1.414 1.415-1.414zm0-12.624l1.414 1.414-1.414-1.414zm15.072-1.968v2h2v-2h-2zm-.48-3.12l-1.415 1.414 1.415-1.414zM144 17.608l-.152-1.994h-.002l.154 1.994zm-6.048.432h-2v2.129l2.124-.133-.124-1.996zm8.88 14.72c1.94 0 4.057-.365 6.332-1.044l-1.145-3.832c-2.013.6-3.736.876-5.187.876v4zm7.76-2.96v-2.88h-4v2.88h4zm-2-4.88h-6.96v4h6.96v-4zm-6.96 0c-.975 0-1.895.346-2.615 1.066l2.829 2.828a.417.417 0 01-.132.083c-.061.025-.097.023-.082.023v-4zm-2.615 1.066c-.719.72-1.065 1.64-1.065 2.614h4c0-.015.001.021-.023.083a.426.426 0 01-.083.131l-2.829-2.828zm-1.065 2.614v.48h4v-.48h-4zm0 .48c0 .975.346 1.895 1.065 2.614l2.829-2.828a.426.426 0 01.083.131c.024.062.023.098.023.083h-4zm1.065 2.614c.72.72 1.64 1.066 2.615 1.066v-4c-.015 0 .021-.002.082.023.064.026.11.061.132.083l-2.829 2.828zm2.615 1.066h1.2v-4h-1.2v4zm-7.463-18.732c5.801-.634 11.007-.948 15.623-.948v-4c-4.792 0-10.147.326-16.058.972l.435 3.976zm15.623-.948c1.744 0 2.945.51 3.817 1.382l2.829-2.828c-1.752-1.752-4.039-2.554-6.646-2.554v4zm3.817 1.382c.873.873 1.383 2.074 1.383 3.818h4c0-2.608-.803-4.895-2.554-6.646l-2.829 2.828zm1.383 3.818V37h4V18.28h-4zm2 16.72h-7.44v4h7.44v-4zm-5.479 1.608l-.48-2.4-3.923.784.48 2.4 3.923-.784zm-3.543-3.677c-1.354.893-2.73 1.541-4.129 1.961l1.149 3.832c1.801-.54 3.529-1.364 5.183-2.454l-2.203-3.34zm-4.104 1.954c-1.469.42-2.6.595-3.434.595v4c1.341 0 2.866-.273 4.533-.749l-1.099-3.846zm-3.434.595h-1.68v4h1.68v-4zm-1.68 0c-1.745 0-2.946-.51-3.818-1.382l-2.829 2.828c1.752 1.752 4.039 2.554 6.647 2.554v-4zm-3.818-1.382c-.873-.873-1.382-2.074-1.382-3.818h-4c0 2.608.802 4.895 2.553 6.646l2.829-2.828zm-1.382-3.818v-2.16h-4v2.16h4zm0-2.16c0-1.744.509-2.945 1.382-3.818l-2.829-2.828c-1.751 1.751-2.553 4.038-2.553 6.646h4zm1.382-3.818c.872-.872 2.073-1.382 3.818-1.382v-4c-2.608 0-4.895.802-6.647 2.554l2.829 2.828zm3.818-1.382h9.84v-4h-9.84v4zm11.84-2V19h-4v1.92h4zm0-1.92c0-.975-.347-1.895-1.066-2.614l-2.829 2.828a.41.41 0 01-.082-.131c-.025-.062-.023-.098-.023-.083h4zm-1.066-2.614c-.72-.72-1.64-1.066-2.614-1.066v4c.014 0-.021.002-.083-.023a.417.417 0 01-.132-.083l2.829-2.828zm-2.614-1.066c-2.14 0-4.496.099-7.064.294l.303 3.988a89.933 89.933 0 016.761-.282v-4zm-7.066.294c-2.491.191-4.497.335-6.019.43l.249 3.992c1.55-.097 3.577-.242 6.077-.434l-.307-3.988zm-3.894 2.426v-6h-4v6h4zM178.258 37l.296 1.978 1.704-.254V37h-2zm-10.992-1.488l1.415-1.414-1.415 1.414zM165.298 3.4v-2h-2v2h2zm8.4 0h2v-2h-2v2zm4.56 27.36h2v-2h-2v2zm-.295 4.262a39.67 39.67 0 01-5.849.458v4c2.061 0 4.208-.169 6.44-.502l-.591-3.956zm-5.849.458c-1.41 0-2.511-.46-3.433-1.382l-2.829 2.828c1.702 1.702 3.833 2.554 6.262 2.554v-4zm-3.433-1.382c-.873-.873-1.383-2.074-1.383-3.818h-4c0 2.608.803 4.895 2.554 6.646l2.829-2.828zm-1.383-3.818V3.4h-4v26.88h4zm-2-24.88h8.4v-4h-8.4v4zm6.4-2v25.68h4V3.4h-4zm0 25.68c0 .975.347 1.895 1.066 2.614l2.829-2.828a.41.41 0 01.082.131c.025.062.023.098.023.083h-4zm1.066 2.614c.72.72 1.64 1.066 2.614 1.066v-4c-.014 0 .021-.002.083.023.064.026.11.061.132.083l-2.829 2.828zm2.614 1.066h2.88v-4h-2.88v4zm.88-2V37h4v-6.24h-4zm48.16 4.464l-1.415-1.414 1.415 1.414zm-26.64 0l-1.429 1.4.014.014.015.015 1.4-1.429zm0-30l-1.415-1.414 1.415 1.414zm26.64 0l-1.429 1.4.014.014.015.015 1.4-1.429zm-4.336 7.296c0-1.268-.319-2.587-1.306-3.574-.988-.988-2.306-1.306-3.574-1.306v4c.319 0 .517.04.627.077a.52.52 0 01.099.043c.014.008.018.013.019.014a.118.118 0 01.015.02.604.604 0 01.042.098c.037.11.078.309.078.628h4zm-4.88-4.88h-8.16v4h8.16v-4zm-8.16 0c-1.269 0-2.587.318-3.575 1.306-.987.987-1.305 2.306-1.305 3.574h4c0-.32.04-.517.077-.627a.503.503 0 01.057-.119c.001 0 .005-.006.02-.014a.472.472 0 01.098-.043c.11-.036.308-.077.628-.077v-4zm-4.88 4.88v15.36h4V12.52h-4zm0 15.36c0 1.268.318 2.587 1.305 3.574.988.988 2.306 1.306 3.575 1.306v-4c-.32 0-.518-.04-.628-.077a.472.472 0 01-.098-.043c-.015-.009-.019-.013-.02-.014a.503.503 0 01-.057-.118c-.037-.11-.077-.309-.077-.628h-4zm4.88 4.88h8.16v-4h-8.16v4zm8.16 0c1.268 0 2.586-.318 3.574-1.306.987-.987 1.306-2.306 1.306-3.574h-4c0 .32-.041.517-.078.628a.604.604 0 01-.042.098.102.102 0 01-.015.02c-.001 0-.005.005-.019.014a.52.52 0 01-.099.043 2.06 2.06 0 01-.627.077v4zm4.88-4.88V12.52h-4v15.36h4zm4.64 0c0 3.113-.719 4.93-1.719 5.93l2.829 2.828c2.072-2.072 2.89-5.15 2.89-8.758h-4zm-1.719 5.93c-.961.96-2.754 1.67-5.881 1.67v4c3.592 0 6.663-.795 8.71-2.842l-2.829-2.828zm-5.881 1.67h-12v4h12v-4zm-12 0c-3.123 0-4.947-.707-5.945-1.685l-2.799 2.858c2.074 2.03 5.146 2.827 8.744 2.827v-4zm-5.915-1.655c-.978-.999-1.685-2.823-1.685-5.945h-4c0 3.598.796 6.67 2.827 8.743l2.858-2.798zm-1.685-5.945V12.52h-4v15.36h4zm0-15.36c0-3.127.709-4.92 1.67-5.882l-2.829-2.828c-2.047 2.047-2.841 5.117-2.841 8.71h4zm1.67-5.882c.999-1 2.817-1.718 5.93-1.718v-4c-3.608 0-6.686.817-8.759 2.89l2.829 2.828zm5.93-1.718h12v-4h-12v4zm12 0c3.117 0 4.904.72 5.867 1.703l2.858-2.798c-2.046-2.09-5.123-2.905-8.725-2.905v4zm5.896 1.733c.983.962 1.704 2.75 1.704 5.867h4c0-3.603-.816-6.68-2.905-8.725l-2.799 2.858zm1.704 5.867v15.36h4V12.52h-4zm26.982-2.64l-.138 1.995 2.138.148V9.88h-2zm-9.84 0l1.414 1.414-1.414-1.414zm-.48 3.6h-2v2h2v-2zm7.92 0h2v-2h-2v2zm0 6.48v2h2v-2h-2zm-7.92 0v-2h-2v2h2zm0 17.04v2h2v-2h-2zm-8.4 0h-2v2h2v-2zm0-17.04h2v-2h-2v2zm-3.36 0h-2v2h2v-2zm0-6.48v-2h-2v2h2zm3.36 0v2h2v-2h-2zm1.968-8.592l1.414 1.414-1.414-1.414zM251.704 3.4h2V1.49l-1.907-.088-.093 1.998zm.138 4.485c-.915-.063-2.136-.158-3.668-.286l-.332 3.986c1.54.128 2.783.225 3.724.29l.276-3.99zm-3.668-.286a50.836 50.836 0 00-4.15-.199v4c1.048 0 2.318.06 3.818.185l.332-3.986zm-4.15-.199c-.639 0-1.258.044-1.814.168-.52.115-1.211.349-1.76.898l2.828 2.828a.935.935 0 01-.261.192c-.03.014-.017.004.061-.014.164-.036.465-.072.946-.072v-4zm-3.574 1.066c-.72.72-1.066 1.64-1.066 2.614h4c0-.015.002.021-.023.083a.408.408 0 01-.083.131l-2.828-2.828zm-1.066 2.614v2.4h4v-2.4h-4zm2 4.4h7.92v-4h-7.92v4zm5.92-2v6.48h4v-6.48h-4zm2 4.48h-7.92v4h7.92v-4zm-9.92 2V37h4V19.96h-4zm2 15.04h-8.4v4h8.4v-4zm-6.4 2V19.96h-4V37h4zm-2-19.04h-3.36v4h3.36v-4zm-1.36 2v-6.48h-4v6.48h4zm-2-4.48h3.36v-4h-3.36v4zm5.36-2v-3.36h-4v3.36h4zm0-3.36c0-1.744.51-2.945 1.382-3.818l-2.828-2.828c-1.752 1.751-2.554 4.038-2.554 6.646h4zm1.382-3.818c.873-.872 2.074-1.382 3.818-1.382v-4c-2.608 0-4.895.802-6.646 2.554l2.828 2.828zm3.818-1.382c1.909 0 3.933.063 6.075.189l.235-3.994c-2.211-.13-4.315-.195-6.31-.195v4zm6.075.189c2.18.128 3.965.224 5.352.289l.186-3.996a448.627 448.627 0 01-5.303-.287l-.235 3.994zm3.445-1.709v6.48h4V3.4h-4zm23.609 6.48l-.137 1.995 2.137.148V9.88h-2zm-9.84 0l1.415 1.414-1.415-1.414zm-.48 3.6h-2v2h2v-2zm7.92 0h2v-2h-2v2zm0 6.48v2h2v-2h-2zm-7.92 0v-2h-2v2h2zm0 17.04v2h2v-2h-2zm-8.4 0h-2v2h2v-2zm0-17.04h2v-2h-2v2zm-3.36 0h-2v2h2v-2zm0-6.48v-2h-2v2h2zm3.36 0v2h2v-2h-2zm1.968-8.592l1.415 1.414-1.415-1.414zM273.313 3.4h2V1.49l-1.907-.088-.093 1.998zm.138 4.485c-.914-.063-2.136-.158-3.667-.286l-.333 3.986c1.541.128 2.783.225 3.725.29l.275-3.99zm-3.667-.286a50.878 50.878 0 00-4.151-.199v4a46.9 46.9 0 013.818.185l.333-3.986zm-4.151-.199c-.639 0-1.258.044-1.813.168-.521.115-1.212.349-1.761.898l2.829 2.828a.966.966 0 01-.261.192c-.031.014-.018.004.06-.014.165-.036.466-.072.946-.072v-4zm-3.574 1.066c-.719.72-1.066 1.64-1.066 2.614h4c0-.015.002.021-.023.083a.41.41 0 01-.082.131l-2.829-2.828zm-1.066 2.614v2.4h4v-2.4h-4zm2 4.4h7.92v-4h-7.92v4zm5.92-2v6.48h4v-6.48h-4zm2 4.48h-7.92v4h7.92v-4zm-9.92 2V37h4V19.96h-4zm2 15.04h-8.4v4h8.4v-4zm-6.4 2V19.96h-4V37h4zm-2-19.04h-3.36v4h3.36v-4zm-1.36 2v-6.48h-4v6.48h4zm-2-4.48h3.36v-4h-3.36v4zm5.36-2v-3.36h-4v3.36h4zm0-3.36c0-1.744.51-2.945 1.383-3.818l-2.829-2.828c-1.751 1.751-2.554 4.038-2.554 6.646h4zm1.383-3.818c.872-.872 2.073-1.382 3.817-1.382v-4c-2.607 0-4.894.802-6.646 2.554l2.829 2.828zm3.817-1.382c1.909 0 3.934.063 6.075.189l.235-3.994c-2.211-.13-4.314-.195-6.31-.195v4zm6.075.189c2.18.128 3.965.224 5.353.289l.185-3.996a450.952 450.952 0 01-5.303-.287l-.235 3.994zm3.445-1.709v6.48h4V3.4h-4zm10.89 18.24h-2v2h2v-2zm8.16 0v2h2v-2h-2zm7.44 14.88l.206 1.99 1.794-.186V36.52h-2zm-22.032-1.008l-1.414 1.414 1.414-1.414zm.048-22.368l1.414 1.414-1.414-1.414zm20.88 0l-1.431 1.397.017.017.016.017 1.398-1.431zm2.064 14.496v2h2v-2h-2zm-16.56 0v-2h-2v2h2zm.48 3.12l1.414-1.414-1.414 1.414zm15.12-.24h2v-2.163l-2.157.17.157 1.993zm-13.68-15.44c-.948 0-2.027.238-2.854 1.066-.828.827-1.066 1.906-1.066 2.854h4c0-.077.005-.132.01-.167s.009-.047.007-.04a.334.334 0 01-.032.066.632.632 0 01-.206.206.347.347 0 01-.067.032l.041-.007a1.19 1.19 0 01.167-.01v-4zm-3.92 3.92v2.64h4V19h-4zm2 4.64h8.16v-4h-8.16v4zm10.16-2V19h-4v2.64h4zm0-2.64c0-.948-.239-2.027-1.066-2.854-.827-.828-1.906-1.066-2.854-1.066v4c.077 0 .132.005.167.01s.047.01.04.007a.594.594 0 01-.272-.238c-.021-.035-.03-.06-.033-.067-.002-.006.003.006.008.04.005.036.01.09.01.168h4zm-3.92-3.92h-4.32v4h4.32v-4zm9.154 19.45c-6.123.635-11.653.95-16.594.95v4c5.106 0 10.777-.325 17.006-.97l-.412-3.98zm-16.594.95c-1.745 0-2.946-.51-3.818-1.382l-2.828 2.828c1.751 1.752 4.038 2.554 6.646 2.554v-4zm-3.818-1.382c-.872-.873-1.382-2.074-1.382-3.818h-4c0 2.608.802 4.895 2.554 6.646l2.828-2.828zm-1.382-3.818V18.76h-4v11.52h4zm0-11.52c0-2.016.553-3.325 1.43-4.202l-2.828-2.828c-1.812 1.811-2.602 4.246-2.602 7.03h4zm1.43-4.202c.917-.917 2.249-1.478 4.25-1.478v-4c-2.799 0-5.244.815-7.078 2.65l2.828 2.828zm4.25-1.478h9.6v-4h-9.6v4zm9.6 0c2.003 0 3.306.562 4.185 1.461l2.862-2.795c-1.809-1.851-4.25-2.666-7.047-2.666v4zm4.218 1.495c.9.879 1.462 2.182 1.462 4.185h4c0-2.797-.815-5.238-2.667-7.047l-2.795 2.862zm1.462 4.185v8.88h4v-8.88h-4zm2 6.88h-16.56v4h16.56v-4zm-18.56 2v1.92h4v-1.92h-4zm0 1.92c0 .975.346 1.895 1.066 2.614l2.828-2.828a.408.408 0 01.083.131c.024.062.023.098.023.083h-4zm1.066 2.614c.719.72 1.639 1.066 2.614 1.066v-4c-.015 0 .021-.002.083.023a.41.41 0 01.131.083l-2.828 2.828zm2.614 1.066c3.248 0 7.951-.245 14.076-.726l-.313-3.988c-6.098.48-10.675.714-13.763.714v4zm11.92-2.72v6h4v-6h-4zm15.661-10.56l-.817-1.825-1.183.53v1.295h2zm0 17.04v2h2v-2h-2zm-8.4 0h-2v2h2v-2zm0-25.44v-2h-2v2h2zm7.44 0l1.977-.304-.261-1.696h-1.716v2zm.48 3.12l-1.977.304.553 3.592 2.739-2.389-1.315-1.507zm10.8-3.6h2v-2h-2v2zm0 7.44v2h2v-2h-2zm-4.08-2c-2.34 0-4.698.558-7.057 1.615l1.634 3.65c1.929-.863 3.732-1.265 5.423-1.265v-4zm-8.24 3.44V37h4V19.96h-4zm2 15.04h-8.4v4h8.4v-4zm-6.4 2V11.56h-4V37h4zm-2-23.44h7.44v-4h-7.44v4zm5.463-1.696l.48 3.12 3.954-.608-.48-3.12-3.954.608zm3.772 4.323c2.469-2.153 4.898-3.107 7.325-3.107v-4c-3.589 0-6.92 1.446-9.954 4.093l2.629 3.014zm7.325-3.107h2.16v-4h-2.16v4zm.16-2v7.44h4v-7.44h-4zm2 5.44h-4.08v4h4.08v-4zm2.398 13.76l.148-1.995-2.148-.158v2.153h2zm16.56.24l1.414 1.414-1.414-1.414zm.48-2.88h2v-2h-2v2zm-15.552-1.968l1.414-1.414-1.414 1.414zm0-12.144l1.414 1.414-1.414-1.414zm21.552-1.968h2v-2h-2v2zm0 6.24v2h2v-2h-2zm-14.64.48l1.414 1.414-1.414-1.414zm0 2.4l-1.414 1.414 1.414-1.414zm15.072 2.448l1.414-1.414-1.414 1.414zm0 12.384l1.414 1.414-1.414-1.414zm-23.472 1.008h-2v1.813l1.804.177.196-1.99zm-.147-4.245c6.515.481 11.691.725 15.507.725v-4c-3.672 0-8.735-.236-15.212-.715l-.295 3.99zm15.507.725c.975 0 1.895-.346 2.614-1.066l-2.828-2.828a.41.41 0 01.131-.083c.062-.025.098-.023.083-.023v4zm2.614-1.066c.72-.72 1.066-1.64 1.066-2.614h-4c0 .015-.001-.021.023-.083a.408.408 0 01.083-.131l2.828 2.828zm1.066-2.614v-1.68h-4v1.68h4zm-2-3.68h-10.32v4h10.32v-4zm-10.32 0c-1.744 0-2.945-.51-3.818-1.382l-2.828 2.828c1.752 1.752 4.039 2.554 6.646 2.554v-4zm-3.818-1.382c-.872-.873-1.382-2.074-1.382-3.818h-4c0 2.608.802 4.895 2.554 6.646l2.828-2.828zm-1.382-3.818v-1.68h-4v1.68h4zm0-1.68c0-1.744.51-2.945 1.382-3.818l-2.828-2.828c-1.752 1.751-2.554 4.038-2.554 6.646h4zm1.382-3.818c.873-.872 2.074-1.382 3.818-1.382v-4c-2.607 0-4.894.802-6.646 2.554l2.828 2.828zm3.818-1.382h16.32v-4h-16.32v4zm14.32-2v6.24h4v-6.24h-4zm2 4.24h-13.44v4h13.44v-4zm-13.44 0c-.975 0-1.894.346-2.614 1.066l2.828 2.828a.398.398 0 01-.131.083c-.062.025-.097.023-.083.023v-4zm-2.614 1.066c-.72.72-1.066 1.64-1.066 2.614h4c0-.015.002.021-.023.083a.391.391 0 01-.083.131l-2.828-2.828zm-1.066 2.614c0 .975.346 1.895 1.066 2.614l2.828-2.828a.391.391 0 01.083.131c.025.062.023.098.023.083h-4zm1.066 2.614c.72.72 1.639 1.066 2.614 1.066v-4c-.014 0 .021-.002.083.023.064.026.11.061.131.083l-2.828 2.828zm2.614 1.066h8.64v-4h-8.64v4zm8.64 0c1.745 0 2.946.51 3.818 1.382l2.828-2.828c-1.751-1.752-4.038-2.554-6.646-2.554v4zm3.818 1.382c.872.873 1.382 2.074 1.382 3.818h4c0-2.608-.802-4.895-2.554-6.646l-2.828 2.828zm1.382 3.818v1.92h4v-1.92h-4zm0 1.92c0 1.744-.51 2.945-1.382 3.818l2.828 2.828c1.752-1.751 2.554-4.038 2.554-6.646h-4zm-1.382 3.818c-.872.872-2.073 1.382-3.818 1.382v4c2.608 0 4.895-.802 6.646-2.554l-2.828-2.828zm-3.818 1.382c-5.589 0-11.603-.316-18.044-.95l-.392 3.98c6.552.646 12.698.97 18.436.97v-4zm-16.24 1.04v-6.24h-4v6.24h4z" fill="#000" fill-opacity=".06"/></svg>