<svg width="179" height="27" fill="none" xmlns="http://www.w3.org/2000/svg"><path d="M3.143 16.52l.11-1.997-2.11-.115v2.112h2zm9.768.048l-1.414-1.414 1.414 1.414zm.336-3.048h2v-2h-2v2zm-9.192-1.128l-1.429 1.4.015.014.015.015 1.399-1.429zm0-8.04l1.414 1.414-1.414-1.414zM16.151 3.2h2v-2h-2v2zm0 3.36v2h2v-2h-2zm.312 12.576l-1.414-1.414 1.414 1.414zm-6.048 1.056l-.087 1.998h.017l.07-1.998zm-2.208-.096l-.098 1.998h.011l.087-1.998zm-5.064-.336h-2v1.842l1.835.151.165-1.993zm-.11-1.243c4.378.24 7.399.363 9.014.363v-4c-1.489 0-4.404-.117-8.795-.357l-.218 3.994zm9.014.363c.758 0 1.606-.226 2.278-.898l-2.828-2.828a.982.982 0 01.363-.233.605.605 0 01.187-.041v4zm2.278-.898c.66-.66.922-1.496.922-2.302h-4c0-.02.003-.098.046-.21a.908.908 0 01.204-.316l2.828 2.828zm.922-2.302v-2.16h-4v2.16h4zm-2-4.16h-5.52v4h5.52v-4zm-5.52 0c-1.442 0-2.042-.331-2.273-.557l-2.798 2.858c1.305 1.278 3.153 1.699 5.071 1.699v-4zm-2.243-.527c-.226-.23-.557-.83-.557-2.273h-4c0 1.918.42 3.766 1.699 5.071l2.858-2.798zM4.927 8.72V8h-4v.72h4zm0-.72c0-1.447.333-2.025.542-2.234L2.641 2.938C1.346 4.233.927 6.088.927 8h4zm.542-2.234c.232-.231.825-.566 2.258-.566v-4c-1.927 0-3.782.433-5.086 1.738l2.828 2.828zM7.727 5.2h8.424v-4H7.727v4zm6.424-2v3.36h4V3.2h-4zm2 1.36H8.687v4h7.464v-4zm-7.464 0c-.788 0-1.747.198-2.494.946-.748.747-.946 1.706-.946 2.494h4c0-.172.042.067-.226.334-.267.268-.506.226-.334.226v-4zM5.247 8v.48h4V8h-4zm0 .48c0 .788.198 1.747.946 2.494.747.748 1.706.946 2.494.946v-4c-.172 0 .067-.042.334.226.268.267.226.506.226.334h-4zm3.44 3.44h4.32v-4h-4.32v4zm4.32 0c1.303 0 1.834.31 2.042.518l2.828-2.828c-1.264-1.264-3.036-1.69-4.87-1.69v4zm2.042.518c.208.208.518.74.518 2.042h4c0-1.833-.426-3.606-1.69-4.87l-2.828 2.828zm.518 2.042v1.2h4v-1.2h-4zm0 1.2c0 1.303-.31 1.834-.518 2.042l2.828 2.828c1.264-1.264 1.69-3.037 1.69-4.87h-4zm-.518 2.042c-.208.208-.74.518-2.042.518v4c1.834 0 3.606-.426 4.87-1.69l-2.828-2.828zm-2.042.518c-.79 0-1.63-.015-2.522-.047l-.14 3.998a75.4 75.4 0 002.662.049v-4zm-2.505-.046l-2.208-.096-.174 3.996 2.208.096.174-3.996zm-2.197-.096a148.559 148.559 0 01-4.997-.331l-.33 3.986c1.765.146 3.475.26 5.131.34l.196-3.995zM5.143 19.76v-3.24h-4v3.24h4zM23.685 11l-.572-1.916-1.428.426V11h2zm0 5.76h-2v2h2v-2zm4.32-6l1.414-1.414-1.414 1.414zM23.685 20v-2h-2v2h2zm0 4.08v2h2v-2h-2zm-4.2 0h-2v2h2v-2zm0-16.8v-2h-2v2h2zm3.72 0l1.961-.392-.321-1.608h-1.64v2zm.24 1.2l-1.961.392.583 2.913 2.48-1.636-1.102-1.669zM25.75 7.4l.55 1.923.012-.004.013-.003L25.75 7.4zm5.712.624l-1.414 1.414 1.414-1.414zm-.048 10.968l1.414 1.414-1.414-1.414zM26.565 8.52c-1.092 0-2.25.205-3.452.564l1.144 3.832c.942-.28 1.704-.396 2.308-.396v-4zM21.685 11v5.76h4V11h-4zm2 7.76h3.6v-4h-3.6v4zm3.6 0c.628 0 1.467-.158 2.134-.826.668-.667.826-1.506.826-2.134h-4s0-.083.043-.213a1.25 1.25 0 01.303-.481 1.23 1.23 0 01.482-.303c.13-.044.212-.043.212-.043v4zm2.96-2.96v-4.44h-4v4.44h4zm0-4.44a2.81 2.81 0 00-.826-2.014l-2.828 2.828a1.202 1.202 0 01-.346-.814h4zm-.826-2.014a2.813 2.813 0 00-2.014-.826v4a1.203 1.203 0 01-.814-.346l2.828-2.828zm-2.014-.826h-.84v4h.84v-4zM21.685 20v4.08h4V20h-4zm2 2.08h-4.2v4h4.2v-4zm-2.2 2V7.28h-4v16.8h4zm-2-14.8h3.72v-4h-3.72v4zm1.759-1.608l.24 1.2 3.922-.784-.24-1.2-3.922.784zm3.302 2.478a6.356 6.356 0 011.753-.827l-1.1-3.846c-.998.285-1.95.737-2.855 1.333l2.202 3.34zm1.778-.834c.702-.21 1.166-.276 1.441-.276v-4c-.813 0-1.692.175-2.59.444l1.149 3.832zm1.441-.276h1.08v-4h-1.08v4zm1.08 0c.657 0 .986.182 1.202.398l2.828-2.828c-1.095-1.096-2.51-1.57-4.03-1.57v4zm1.202.398c.216.217.398.546.398 1.202h4c0-1.52-.474-2.935-1.57-4.03l-2.828 2.828zm.398 1.202v5.52h4v-5.52h-4zm0 5.52c0 .8-.217 1.189-.446 1.418l2.828 2.828c1.147-1.146 1.618-2.647 1.618-4.246h-4zM30 17.578c-.205.204-.578.422-1.394.422v4c1.584 0 3.083-.454 4.222-1.594L30 17.578zM28.605 18h-4.92v4h4.92v-4zm9.957-5.68h-2v2h2v-2zm4.08 0v2h2v-2h-2zm3.72 7.44l.206 1.99 1.794-.186V19.76h-2zm-11.016-.504l-1.414 1.414 1.414-1.414zm.024-11.184l1.415 1.414-1.415-1.414zm10.44 0l-1.43 1.397.016.017.017.017 1.397-1.431zm1.032 7.248v2h2v-2h-2zm-8.28 0v-2h-2v2h2zm.24 1.56l1.415-1.414-1.415 1.414zm7.56-.12h2v-2.163l-2.156.17.156 1.993zm-6.84-8.72c-.628 0-1.466.158-2.134.826-.667.667-.826 1.506-.826 2.134h4s.001.083-.042.213a1.25 1.25 0 01-.303.481 1.252 1.252 0 01-.482.303c-.13.044-.212.043-.213.043v-4zM36.562 11v1.32h4V11h-4zm2 3.32h4.08v-4h-4.08v4zm6.08-2V11h-4v1.32h4zm0-1.32c0-.628-.158-1.467-.825-2.134-.668-.668-1.506-.826-2.135-.826v4s-.082 0-.212-.043a1.252 1.252 0 01-.482-.303 1.25 1.25 0 01-.303-.482c-.043-.13-.043-.211-.043-.212h4zm-2.96-2.96h-2.16v4h2.16v-4zm4.474 9.73c-3.035.315-5.764.47-8.194.47v4c2.595 0 5.465-.165 8.606-.49l-.412-3.98zm-8.194.47c-.656 0-.985-.182-1.201-.398l-2.829 2.828c1.096 1.096 2.51 1.57 4.03 1.57v-4zm-1.201-.398c-.217-.217-.399-.546-.399-1.202h-4c0 1.52.474 2.935 1.57 4.03l2.829-2.828zm-.399-1.202v-5.76h-4v5.76h4zm0-5.76c0-.816.218-1.19.423-1.394l-2.829-2.828c-1.14 1.14-1.594 2.638-1.594 4.222h4zm.423-1.394c.229-.23.617-.446 1.417-.446v-4c-1.599 0-3.1.471-4.246 1.618l2.829 2.828zm1.417-.446h4.8v-4h-4.8v4zm4.8 0c.803 0 1.17.217 1.378.43l2.861-2.795C46.104 5.51 44.6 5.04 43.002 5.04v4zm1.41.463c.213.207.43.574.43 1.377h4c0-1.597-.47-3.102-1.634-4.239l-2.795 2.862zm.43 1.377v4.44h4v-4.44h-4zm2 2.44h-8.28v4h8.28v-4zm-10.28 2v.96h4v-.96h-4zm0 .96c0 .735.267 1.455.826 2.014l2.829-2.828a1.202 1.202 0 01.345.814h-4zm.826 2.014c.56.56 1.28.826 2.014.826v-4a1.203 1.203 0 01.814.346l-2.828 2.828zm2.014.826c1.665 0 4.047-.125 7.117-.366l-.313-3.988c-3.043.24-5.3.354-6.804.354v4zm4.96-2.36v3h4v-3h-4zm15.911 3l.213 1.989 1.787-.191V19.76h-2zm-10.536-.504l-1.414 1.414 1.414-1.414zm.024-10.944l1.414 1.414-1.414-1.414zM60.273 7.28h2v-2h-2v2zm0 3.24v2h2v-2h-2zm0 6.12h2v-2.174l-2.166.18.166 1.994zm-.213 1.131c-2.942.315-5.508.469-7.707.469v4c2.377 0 5.09-.166 8.133-.491l-.426-3.978zm-7.707.469c-.656 0-.985-.182-1.202-.398l-2.828 2.828c1.095 1.096 2.51 1.57 4.03 1.57v-4zm-1.202-.398c-.216-.217-.398-.546-.398-1.202h-4c0 1.52.474 2.935 1.57 4.03l2.828-2.828zm-.398-1.202v-5.52h-4v5.52h4zm0-5.52c0-.816.218-1.19.422-1.394l-2.828-2.828c-1.14 1.14-1.594 2.638-1.594 4.222h4zm.422-1.394c.23-.23.617-.446 1.418-.446v-4c-1.6 0-3.1.471-4.246 1.618l2.828 2.828zm1.418-.446h7.68v-4h-7.68v4zm5.68-2v3.24h4V7.28h-4zm2 1.24h-6.36v4h6.36v-4zm-6.36 0c-.628 0-1.467.158-2.134.826-.668.667-.826 1.506-.826 2.134h4s0 .083-.043.213a1.25 1.25 0 01-.303.481 1.251 1.251 0 01-.482.303c-.13.044-.211.043-.212.043v-4zm-2.96 2.96v4.68h4v-4.68h-4zm0 4.68c0 .735.266 1.455.826 2.014l2.828-2.828a1.2 1.2 0 01.346.814h-4zm.826 2.014c.56.56 1.28.826 2.014.826v-4a1.203 1.203 0 01.814.346l-2.828 2.828zm2.014.826c1.526 0 3.754-.126 6.646-.367l-.332-3.986c-2.868.239-4.96.353-6.314.353v4zm4.48-2.36v3.12h4v-3.12h-4zm9.195-8.88h2v-2h-2v2zm0 12.24v2h2v-2h-2zm-4.2 0h-2v2h2v-2zm0-9h2V9h-2v2zm-1.8 0h-2v2h2v-2zm0-3.24v-2h-2v2h2zm1.8-4.8v-2h-2v2h2zm4.2 0h2v-2h-2v2zm0 3.36v2h2v-2h-2zm-4.2 0h-2v2h2v-2zm2.2 1.44V20h4V7.76h-4zm2 10.24h-4.2v4h4.2v-4zm-2.2 2v-9h-4v9h4zm-2-11h-1.8v4h1.8V9zm.2 2V7.76h-4V11h4zm-2-1.24h6v-4h-6v4zm1.8-4.8h4.2v-4h-4.2v4zm2.2-2v3.36h4V2.96h-4zm2 1.36h-4.2v4h4.2v-4zm-2.2 2V2.96h-4v3.36h4zM77.796 16.4l.572 1.916 1.428-.426V16.4h-2zm0-1.44h2v-2h-2v2zm-4.08.24l1.414 1.414-1.414-1.414zm0 1.44l-1.414 1.414 1.414-1.414zm-3.24-9.12l-.218-1.988-1.782.195V7.52h2zm10.536.504l-1.414 1.414 1.414-1.414zM81.996 20v2h2v-2h-2zm-3.72 0l-1.961.392.321 1.608h1.64v-2zm-.24-1.2l1.96-.392-.582-2.913-2.48 1.636 1.102 1.669zm-2.328 1.104l.55 1.923.012-.004.013-.003-.575-1.916zm-5.448-.648l-1.414 1.414 1.414-1.414zm0-6.312l1.414 1.414-1.414-1.414zm7.536-.984v2h2v-2h-2zm-.24-1.56l-1.414 1.414 1.414-1.414zm-4.056-.096l-.152-1.994h-.002l.154 1.994zm-3.024.216h-2v2.129l2.124-.133-.124-1.996zm4.44 8.36c1.092 0 2.25-.205 3.452-.564l-1.144-3.832c-.942.28-1.704.396-2.308.396v4zm4.88-2.48v-1.44h-4v1.44h4zm-2-3.44h-3.48v4h3.48v-4zm-3.48 0a2.81 2.81 0 00-2.014.826l2.828 2.828a1.202 1.202 0 01-.814.346v-4zm-2.014.826c-.56.56-.826 1.28-.826 2.014h4a1.2 1.2 0 01-.346.814l-2.828-2.828zm-.826 2.014v.24h4v-.24h-4zm0 .24c0 .735.266 1.455.826 2.014l2.828-2.828a1.2 1.2 0 01.346.814h-4zm.826 2.014c.56.56 1.28.826 2.014.826v-4a1.202 1.202 0 01.814.346l-2.828 2.828zm2.014.826h.6v-4h-.6v4zm-3.623-9.372c2.873-.314 5.439-.468 7.703-.468v-4c-2.44 0-5.154.166-8.138.492l.435 3.976zm7.703-.468c.656 0 .985.182 1.202.398l2.828-2.828c-1.096-1.096-2.51-1.57-4.03-1.57v4zm1.202.398c.216.217.398.546.398 1.202h4c0-1.52-.474-2.935-1.57-4.03l-2.828 2.828zm.398 1.202V20h4v-9.36h-4zm2 7.36h-3.72v4h3.72v-4zm-1.76 1.608l-.24-1.2-3.921.784.24 1.2 3.922-.784zm-3.301-2.477a6.834 6.834 0 01-1.802.857l1.15 3.832c1-.3 1.952-.756 2.854-1.35l-2.202-3.34zm-1.777.85c-.685.196-1.152.259-1.442.259v4c.797 0 1.658-.16 2.541-.413l-1.099-3.846zm-1.442.259h-.84v4h.84v-4zm-.84 0c-.657 0-.986-.182-1.202-.398l-2.828 2.828c1.095 1.096 2.51 1.57 4.03 1.57v-4zm-1.202-.398c-.216-.217-.398-.546-.398-1.202h-4c0 1.52.474 2.935 1.57 4.03l2.828-2.828zm-.398-1.202v-1.08h-4v1.08h4zm0-1.08c0-.656.182-.985.398-1.202l-2.828-2.828c-1.096 1.095-1.57 2.51-1.57 4.03h4zm.398-1.202c.216-.216.545-.398 1.202-.398v-4c-1.52 0-2.935.474-4.03 1.57l2.828 2.828zm1.202-.398h4.92v-4h-4.92v4zm6.92-2V11h-4v.96h4zm0-.96a2.81 2.81 0 00-.826-2.014l-2.828 2.828a1.202 1.202 0 01-.346-.814h4zm-.826-2.014a2.813 2.813 0 00-2.014-.826v4a1.201 1.201 0 01-.814-.346l2.828-2.828zm-2.014-.826c-1.1 0-2.304.05-3.608.15l.303 3.988a43.963 43.963 0 013.305-.138v-4zm-3.61.15c-1.243.096-2.24.167-2.995.214l.25 3.992c.781-.049 1.8-.121 3.052-.218l-.307-3.988zm-.87 2.21v-3h-4v3h4zM90.629 20l.295 1.978 1.705-.254V20h-2zm-5.496-.744l1.414-1.414-1.414 1.414zM84.15 3.2v-2h-2v2h2zm4.2 0h2v-2h-2v2zm2.28 13.68h2v-2h-2v2zm-.295 1.142c-.985.147-1.91.218-2.777.218v4a22.83 22.83 0 003.367-.262l-.59-3.956zm-2.777.218c-.45 0-.743-.132-1.01-.398L83.72 20.67c1.045 1.046 2.368 1.57 3.838 1.57v-4zm-1.01-.398c-.216-.217-.398-.546-.398-1.202h-4c0 1.52.474 2.935 1.57 4.03l2.828-2.828zm-.398-1.202V3.2h-4v13.44h4zm-2-11.44h4.2v-4h-4.2v4zm2.2-2v12.84h4V3.2h-4zm0 12.84c0 .735.266 1.455.826 2.014l2.828-2.828a1.202 1.202 0 01.346.814h-4zm.826 2.014c.56.56 1.28.826 2.014.826v-4a1.201 1.201 0 01.814.346l-2.828 2.828zm2.014.826h1.44v-4h-1.44v4zm-.56-2V20h4v-3.12h-4zm25.08 2.232l-1.414-1.414 1.414 1.414zm-13.32 0l-1.43 1.4.016.014.015.015 1.399-1.429zm0-15l-1.414-1.414 1.414 1.414zm13.32 0l-1.429 1.4.014.014.016.015 1.399-1.429zm-1.168 3.648c0-.788-.199-1.747-.946-2.494-.747-.748-1.706-.946-2.494-.946v4c.171 0-.067.042-.334-.226-.268-.267-.226-.506-.226-.334h4zm-3.44-3.44h-4.08v4h4.08v-4zm-4.08 0c-.789 0-1.747.198-2.494.946-.748.747-.946 1.706-.946 2.494h4c0-.172.041.067-.226.334-.267.268-.506.226-.334.226v-4zm-3.44 3.44v7.68h4V7.76h-4zm0 7.68c0 .788.198 1.747.946 2.494.747.748 1.705.946 2.494.946v-4c-.172 0 .067-.042.334.226.267.267.226.506.226.334h-4zm3.44 3.44h4.08v-4h-4.08v4zm4.08 0c.788 0 1.747-.198 2.494-.946.747-.747.946-1.706.946-2.494h-4c0 .172-.042-.067.226-.334.267-.268.505-.226.334-.226v4zm3.44-3.44V7.76h-4v7.68h4zm.32 0c0 1.433-.335 2.026-.566 2.258l2.828 2.828c1.304-1.304 1.738-3.159 1.738-5.086h-4zm-.566 2.258c-.209.209-.787.542-2.234.542v4c1.913 0 3.767-.419 5.062-1.714l-2.828-2.828zm-2.234.542h-6v4h6v-4zm-6 0c-1.442 0-2.042-.331-2.273-.557l-2.798 2.858c1.305 1.278 3.153 1.699 5.071 1.699v-4zm-2.243-.527c-.226-.23-.557-.83-.557-2.273h-4c0 1.918.42 3.766 1.699 5.071l2.858-2.798zm-.557-2.273V7.76h-4v7.68h4zm0-7.68c0-1.447.333-2.025.542-2.234l-2.828-2.828C97.68 3.993 97.26 5.848 97.26 7.76h4zm.542-2.234c.231-.231.825-.566 2.258-.566v-4c-1.928 0-3.782.433-5.086 1.738l2.828 2.828zm2.258-.566h6v-4h-6v4zm6 0c1.437 0 2.009.337 2.219.551l2.858-2.798C113.844 1.39 111.983.96 110.061.96v4zm2.249.581c.214.21.551.782.551 2.219h4c0-1.923-.432-3.783-1.753-5.077l-2.798 2.858zm.551 2.219v7.68h4V7.76h-4zm14.491-1.32l-.138 1.995 2.138.148V6.44h-2zm-4.92 0l1.414 1.414-1.414-1.414zm-.24 1.8h-2v2h2v-2zm3.96 0h2v-2h-2v2zm0 3.24v2h2v-2h-2zm-3.96 0v-2h-2v2h2zm0 8.52v2h2v-2h-2zm-4.2 0h-2v2h2v-2zm0-8.52h2v-2h-2v2zm-1.68 0h-2v2h2v-2zm0-3.24v-2h-2v2h2zm1.68 0v2h2v-2h-2zm.984-4.296l1.414 1.414-1.414-1.414zm8.376-.744h2V1.29l-1.907-.088-.093 1.998zm.138 1.245c-.451-.031-1.056-.078-1.82-.142l-.332 3.986c.772.064 1.399.113 1.876.146l.276-3.99zm-1.82-.142a26.391 26.391 0 00-2.158-.103v4c.488 0 1.094.028 1.826.09l.332-3.987zm-2.158-.103c-.359 0-.748.024-1.124.108-.34.075-.901.249-1.37.718l2.828 2.828a1.47 1.47 0 01-.418.297.889.889 0 01-.172.061c-.016.004.055-.012.256-.012v-4zm-2.494.826c-.56.56-.826 1.28-.826 2.014h4a1.203 1.203 0 01-.346.814l-2.828-2.828zm-.826 2.014v1.2h4v-1.2h-4zm2 3.2h3.96v-4h-3.96v4zm1.96-2v3.24h4V8.24h-4zm2 1.24h-3.96v4h3.96v-4zm-5.96 2V20h4v-8.52h-4zm2 6.52h-4.2v4h4.2v-4zm-2.2 2v-8.52h-4V20h4zm-2-10.52h-1.68v4h1.68v-4zm.32 2V8.24h-4v3.24h4zm-2-1.24h1.68v-4h-1.68v4zm3.68-2V6.56h-4v1.68h4zm0-1.68c0-.656.182-.985.398-1.202l-2.828-2.828c-1.096 1.095-1.57 2.51-1.57 4.03h4zm.398-1.202c.217-.216.546-.398 1.202-.398v-4c-1.52 0-2.935.474-4.03 1.57l2.828 2.828zm1.202-.398c.933 0 1.925.03 2.979.093l.234-3.994a54.808 54.808 0 00-3.213-.099v4zm2.979.093c1.092.064 1.989.112 2.688.145l.186-3.996a223.75 223.75 0 01-2.64-.143l-.234 3.994zm.781-1.853v3.24h4V3.2h-4zm12.805 3.24l-.138 1.995 2.138.148V6.44h-2zm-4.92 0l1.414 1.414-1.414-1.414zm-.24 1.8h-2v2h2v-2zm3.96 0h2v-2h-2v2zm0 3.24v2h2v-2h-2zm-3.96 0v-2h-2v2h2zm0 8.52v2h2v-2h-2zm-4.2 0h-2v2h2v-2zm0-8.52h2v-2h-2v2zm-1.68 0h-2v2h2v-2zm0-3.24v-2h-2v2h2zm1.68 0v2h2v-2h-2zm.984-4.296l1.414 1.414-1.414-1.414zm8.376-.744h2V1.29l-1.907-.088-.093 1.998zm.137 1.245a134.98 134.98 0 01-1.819-.142l-.332 3.986c.772.064 1.398.113 1.876.146l.275-3.99zm-1.819-.142a26.432 26.432 0 00-2.158-.103v4c.488 0 1.094.028 1.826.09l.332-3.987zm-2.158-.103c-.359 0-.749.024-1.124.108-.34.075-.901.249-1.37.718l2.828 2.828a1.472 1.472 0 01-.419.297.828.828 0 01-.171.061c-.016.004.055-.012.256-.012v-4zm-2.494.826c-.56.56-.826 1.28-.826 2.014h4a1.203 1.203 0 01-.346.814l-2.828-2.828zm-.826 2.014v1.2h4v-1.2h-4zm2 3.2h3.96v-4h-3.96v4zm1.96-2v3.24h4V8.24h-4zm2 1.24h-3.96v4h3.96v-4zm-5.96 2V20h4v-8.52h-4zm2 6.52h-4.2v4h4.2v-4zm-2.2 2v-8.52h-4V20h4zm-2-10.52h-1.68v4h1.68v-4zm.32 2V8.24h-4v3.24h4zm-2-1.24h1.68v-4h-1.68v4zm3.68-2V6.56h-4v1.68h4zm0-1.68c0-.656.182-.985.398-1.202l-2.828-2.828c-1.096 1.095-1.57 2.51-1.57 4.03h4zm.398-1.202c.216-.216.545-.398 1.202-.398v-4c-1.52 0-2.935.474-4.03 1.57l2.828 2.828zm1.202-.398c.932 0 1.925.03 2.978.093l.235-3.994a54.835 54.835 0 00-3.213-.099v4zm2.978.093c1.092.064 1.989.112 2.689.145l.186-3.996a223.75 223.75 0 01-2.64-.143l-.235 3.994zm.782-1.853v3.24h4V3.2h-4zm6.444 9.12h-2v2h2v-2zm4.08 0v2h2v-2h-2zm3.72 7.44l.207 1.99 1.793-.186V19.76h-2zm-11.016-.504l-1.414 1.414 1.414-1.414zm.024-11.184l1.415 1.414-1.415-1.414zm10.44 0l-1.43 1.397.016.017.017.017 1.397-1.431zm1.032 7.248v2h2v-2h-2zm-8.28 0v-2h-2v2h2zm.24 1.56l1.415-1.414-1.415 1.414zm7.56-.12h2v-2.163l-2.156.17.156 1.993zm-6.84-8.72c-.628 0-1.466.158-2.134.826-.667.667-.826 1.506-.826 2.134h4s.001.083-.042.213a1.26 1.26 0 01-.303.481 1.26 1.26 0 01-.482.303c-.13.044-.212.043-.213.043v-4zm-2.96 2.96v1.32h4V11h-4zm2 3.32h4.08v-4h-4.08v4zm6.08-2V11h-4v1.32h4zm0-1.32c0-.628-.158-1.467-.825-2.134-.668-.668-1.506-.826-2.135-.826v4s-.082 0-.212-.043a1.26 1.26 0 01-.482-.303 1.26 1.26 0 01-.303-.482c-.043-.13-.043-.211-.043-.212h4zm-2.96-2.96h-2.16v4h2.16v-4zm4.474 9.73c-3.034.315-5.764.47-8.194.47v4c2.595 0 5.465-.165 8.607-.49l-.413-3.98zm-8.194.47c-.656 0-.985-.182-1.201-.398l-2.829 2.828c1.096 1.096 2.511 1.57 4.03 1.57v-4zm-1.201-.398c-.217-.217-.399-.546-.399-1.202h-4c0 1.52.475 2.935 1.57 4.03l2.829-2.828zm-.399-1.202v-5.76h-4v5.76h4zm0-5.76c0-.816.218-1.19.423-1.394l-2.829-2.828c-1.139 1.14-1.594 2.638-1.594 4.222h4zm.423-1.394c.229-.23.617-.446 1.417-.446v-4c-1.599 0-3.099.471-4.246 1.618l2.829 2.828zm1.417-.446h4.8v-4h-4.8v4zm4.8 0c.803 0 1.171.217 1.378.43l2.861-2.795c-1.137-1.164-2.642-1.635-4.239-1.635v4zm1.411.463c.212.207.429.574.429 1.377h4c0-1.597-.47-3.102-1.634-4.239l-2.795 2.862zm.429 1.377v4.44h4v-4.44h-4zm2 2.44h-8.28v4h8.28v-4zm-10.28 2v.96h4v-.96h-4zm0 .96c0 .735.267 1.455.826 2.014l2.829-2.828a1.201 1.201 0 01.345.814h-4zm.826 2.014c.56.56 1.28.826 2.014.826v-4a1.21 1.21 0 01.815.346l-2.829 2.828zm2.014.826c1.665 0 4.047-.125 7.117-.366l-.313-3.988c-3.043.24-5.3.354-6.804.354v4zm4.96-2.36v3h4v-3h-4zm8.831-5.28l-.817-1.825-1.183.53v1.295h2zm0 8.52v2h2v-2h-2zm-4.2 0h-2v2h2v-2zm0-12.72v-2h-2v2h2zm3.72 0l1.977-.304-.261-1.696h-1.716v2zm.24 1.56l-1.977.304.553 3.592 2.739-2.389-1.315-1.507zm5.4-1.8h2v-2h-2v2zm0 3.72v2h2v-2h-2zm-2.04-2c-1.332 0-2.65.318-3.937.895l1.634 3.65c.857-.383 1.619-.545 2.303-.545v-4zm-5.12 2.72V20h4v-8.52h-4zm2 6.52h-4.2v4h4.2v-4zm-2.2 2V7.28h-4V20h4zm-2-10.72h3.72v-4h-3.72v4zm1.743-1.696l.24 1.56 3.954-.608-.24-1.56-3.954.608zm3.532 2.763c1.093-.953 2.082-1.307 3.005-1.307v-4c-2.085 0-3.976.846-5.634 2.293l2.629 3.014zm3.005-1.307h1.08v-4h-1.08v4zm-.92-2v3.72h4V7.04h-4zm2 1.72h-2.04v4h2.04v-4zm1.199 7.88l.147-1.995-2.147-.158v2.153h2zm8.28.12l1.414 1.414-1.414-1.414zm.24-1.44h2v-2h-2v2zm-7.776-.984l1.414-1.414-1.414 1.414zm0-6.072l1.414 1.414-1.414-1.414zm10.776-.984h2v-2h-2v2zm0 3.12v2h2v-2h-2zm-7.32.24l1.414 1.414-1.414-1.414zm0 1.2l-1.414 1.414 1.414-1.414zm7.536 1.224l1.414-1.414-1.414 1.414zm0 6.192l1.414 1.414-1.414-1.414zm-11.736.504h-2v1.813l1.804.177.196-1.99zm-.147-1.125c3.267.241 5.883.365 7.827.365v-4c-1.8 0-4.303-.116-7.533-.355l-.294 3.99zm7.827.365a2.81 2.81 0 002.014-.826l-2.828-2.828a1.205 1.205 0 01.814-.346v4zm2.014-.826c.56-.56.826-1.28.826-2.014h-4a1.203 1.203 0 01.346-.814l2.828 2.828zm.826-2.014v-.84h-4v.84h4zm-2-2.84h-5.16v4h5.16v-4zm-5.16 0c-.656 0-.985-.182-1.202-.398l-2.828 2.828c1.095 1.096 2.51 1.57 4.03 1.57v-4zm-1.202-.398c-.216-.217-.398-.546-.398-1.202h-4c0 1.52.474 2.935 1.57 4.03l2.828-2.828zm-.398-1.202v-.84h-4v.84h4zm0-.84c0-.656.182-.985.398-1.202l-2.828-2.828c-1.096 1.095-1.57 2.51-1.57 4.03h4zm.398-1.202c.217-.216.546-.398 1.202-.398v-4c-1.52 0-2.935.474-4.03 1.57l2.828 2.828zm1.202-.398h8.16v-4h-8.16v4zm6.16-2v3.12h4V7.28h-4zm2 1.12h-6.72v4h6.72v-4zm-6.72 0a2.81 2.81 0 00-2.014.826l2.828 2.828a1.194 1.194 0 01-.814.346v-4zm-2.014.826c-.56.56-.826 1.28-.826 2.014h4a1.203 1.203 0 01-.346.814l-2.828-2.828zm-.826 2.014c0 .735.266 1.455.826 2.014l2.828-2.828a1.203 1.203 0 01.346.814h-4zm.826 2.014a2.81 2.81 0 002.014.826v-4a1.194 1.194 0 01.814.346l-2.828 2.828zm2.014.826h4.32v-4h-4.32v4zm4.32 0c.656 0 .985.182 1.202.398l2.828-2.828c-1.095-1.096-2.51-1.57-4.03-1.57v4zm1.202.398c.216.217.398.546.398 1.202h4c0-1.52-.474-2.935-1.57-4.03l-2.828 2.828zm.398 1.202v.96h4v-.96h-4zm0 .96c0 .656-.182.985-.398 1.202l2.828 2.828c1.096-1.095 1.57-2.51 1.57-4.03h-4zm-.398 1.202c-.217.216-.546.398-1.202.398v4c1.52 0 2.935-.474 4.03-1.57l-2.828-2.828zm-1.202.398c-2.757 0-5.731-.156-8.924-.47l-.392 3.98c3.304.326 6.41.49 9.316.49v-4zm-7.12 1.52v-3.12h-4v3.12h4z" fill="#000" fill-opacity=".06"/></svg>