<svg width="93" height="16" fill="none" xmlns="http://www.w3.org/2000/svg"><path d="M83.584.529l-2.076 3.93-4.645.632c-.833.112-1.166 1.071-.562 1.62l3.36 3.057-.795 4.319c-.143.78.738 1.365 1.475 1l4.155-2.039 4.155 2.04c.738.361 1.618-.22 1.475-1.001l-.795-4.319 3.36-3.057c.605-.549.27-1.508-.562-1.62l-4.645-.633L85.41.528c-.372-.7-1.45-.709-1.825 0zm-25.331 0l-2.076 3.93-4.644.632c-.833.112-1.167 1.071-.563 1.62l3.36 3.057-.795 4.319c-.143.78.738 1.365 1.475 1l4.155-2.039 4.155 2.04c.738.361 1.619-.22 1.475-1.001l-.794-4.319 3.36-3.057c.604-.549.27-1.508-.563-1.62l-4.644-.633-2.076-3.93c-.372-.7-1.45-.709-1.825 0zm-25.331 0l-2.076 3.93-4.644.632c-.833.112-1.167 1.071-.563 1.62L29 9.768l-.794 4.319c-.143.78.737 1.365 1.475 1l4.155-2.039 4.155 2.04c.737.361 1.618-.22 1.475-1.001l-.795-4.319 3.36-3.057c.604-.549.27-1.508-.563-1.62l-4.644-.633-2.076-3.93c-.372-.7-1.45-.709-1.825 0zm-25.331 0l-2.075 3.93L.87 5.09C.038 5.203-.296 6.162.308 6.71l3.36 3.057-.794 4.319c-.143.78.737 1.365 1.475 1l4.155-2.039 4.155 2.04c.737.361 1.618-.22 1.475-1.001l-.795-4.319 3.36-3.057c.604-.549.27-1.508-.562-1.62l-4.645-.633L9.416.528c-.372-.7-1.45-.709-1.825 0z" fill="#FFF500"/></svg>