<svg width="1244" height="130" fill="none" xmlns="http://www.w3.org/2000/svg"><path d="M89.48 104v1h1v-1h-1zm-25.92 0h-1v1h1v-1zm0-41.04h1v-1h-1v1zm-36 0v-1h-1v1h1zm0 41.04v1h1v-1h-1zm-25.92 0h-1v1h1v-1zm0-100.8v-1h-1v1h1zm25.92 0h1v-1h-1v1zm0 39.6h-1v1h1v-1zm36 0v1h1v-1h-1zm0-39.6v-1h-1v1h1zm25.92 0h1v-1h-1v1zm0 99.8H63.56v2h25.92v-2zm-24.92 1V62.96h-2V104h2zm-1-42.04h-36v2h36v-2zm-37 1V104h2V62.96h-2zm1 40.04H1.64v2h25.92v-2zm-24.92 1V3.2h-2V104h2zm-1-99.8h25.92v-2H1.64v2zm24.92-1v39.6h2V3.2h-2zm1 40.6h36v-2h-36v2zm37-1V3.2h-2v39.6h2zm-1-38.6h25.92v-2H63.56v2zm24.92-1V104h2V3.2h-2zm64.428 79.2l.286.958.714-.213V82.4h-1zm0-8.64h1v-1h-1v1zm-24.48 1.44l.707.707-.707-.707zm0 8.64l-.708.707.708-.707zm-19.44-54.72l-.109-.994-.891.097v.897h1zm63.216 3.024l-.708.707.708-.707zM178.107 104v1h1v-1h-1zm-22.319 0l-.981.196.161.804h.82v-1zm-1.44-7.2l.98-.196-.291-1.457-1.24.818.551.835zm-13.968 6.624l.274.962.013-.004-.287-.958zm-32.689-3.888l-.707.707.707-.707zm0-37.872l.708.707-.708-.707zm45.217-5.904v1h1v-1h-1zm-1.441-9.36l-.707.707.707-.707zm-24.335-.576l-.076-.997h-.001l.077.997zm-18.144 1.296h-1v1.064l1.062-.066-.062-.998zm26.64 39.16c5.21 0 11.068-.982 17.566-2.922l-.573-1.916c-6.366 1.9-12.028 2.838-16.993 2.838v2zm18.28-3.88v-8.64h-2v8.64h2zm-1-9.64h-20.881v2h20.881v-2zm-20.881 0c-1.687 0-3.147.573-4.307 1.733l1.415 1.414c.76-.76 1.7-1.147 2.892-1.147v-2zm-4.307 1.733c-1.159 1.16-1.732 2.62-1.732 4.307h2c0-1.193.386-2.133 1.147-2.893l-1.415-1.414zm-1.732 4.307v1.44h2V78.8h-2zm0 1.44c0 1.687.573 3.147 1.732 4.307l1.415-1.414c-.761-.76-1.147-1.7-1.147-2.893h-2zm1.732 4.307c1.16 1.16 2.62 1.733 4.307 1.733v-2c-1.192 0-2.132-.387-2.892-1.147l-1.415 1.414zm4.307 1.733h3.601v-2h-3.601v2zm-22.931-56.166c17.541-1.917 33.343-2.874 47.412-2.874v-2c-14.156 0-30.034.963-47.629 2.886l.217 1.988zm47.412-2.874c6.312 0 11.272 1.895 14.988 5.611l1.415-1.414c-4.156-4.156-9.66-6.197-16.403-6.197v2zm14.988 5.611c3.717 3.716 5.611 8.677 5.611 14.989h2c0-6.744-2.041-12.247-6.196-16.403l-1.415 1.414zm5.611 14.989V104h2V47.84h-2zm1 55.16h-22.319v2h22.319v-2zm-21.339.804l-1.44-7.2-1.961.392 1.44 7.2 1.961-.392zm-2.971-7.839c-4.437 2.927-9.005 5.091-13.705 6.501l.575 1.916c4.9-1.47 9.644-3.722 14.231-6.747l-1.101-1.67zm-13.692 6.497c-4.655 1.33-8.54 1.978-11.677 1.978v2c3.39 0 7.473-.696 12.226-2.054l-.549-1.924zm-11.677 1.978h-5.041v2h5.041v-2zm-5.041 0c-6.312 0-11.272-1.895-14.988-5.611l-1.415 1.414c4.156 4.156 9.66 6.197 16.403 6.197v-2zm-14.988-5.611c-3.717-3.716-5.612-8.677-5.612-14.989h-2c0 6.744 2.042 12.247 6.197 16.403l1.415-1.414zm-5.612-14.989v-6.48h-2v6.48h2zm0-6.48c0-6.312 1.895-11.273 5.612-14.989l-1.415-1.414c-4.155 4.156-6.197 9.66-6.197 16.403h2zm5.612-14.989c3.716-3.716 8.676-5.611 14.988-5.611v-2c-6.743 0-12.247 2.041-16.403 6.197l1.415 1.414zm14.988-5.611h29.521v-2h-29.521v2zm30.521-1V50h-2v5.76h2zm0-5.76c0-1.687-.574-3.147-1.733-4.307l-1.415 1.414c.761.76 1.148 1.7 1.148 2.893h2zm-1.733-4.307c-1.16-1.16-2.62-1.733-4.307-1.733v2c1.192 0 2.132.387 2.892 1.147l1.415-1.414zm-4.307-1.733c-6.271 0-13.208.29-20.812.867l.151 1.994c7.564-.574 14.451-.861 20.661-.861v-2zm-20.813.867c-7.486.576-13.529 1.007-18.13 1.295l.125 1.996c4.615-.288 10.668-.72 18.158-1.297l-.153-1.994zm-17.067 2.293v-18h-2v18h2zm130.754-19.44v-1h-.73l-.223.696.953.304zm26.64 0l.935.353.511-1.353h-1.446v1zm-28.8 76.32v1h.691l.244-.647-.935-.353zm-28.8 0l-.936.353.244.647h.692v-1zm-28.8-76.32v-1h-1.446l.51 1.353.936-.353zm26.64 0l.952-.304-.222-.696h-.73v1zm16.56 51.84l-.953.304.953 2.982.952-2.982-.952-.304zm16.56-50.84h26.64v-2h-26.64v2zm25.704-1.353l-28.8 76.32 1.871.706 28.8-76.32-1.871-.706zM238.582 103h-28.8v2h28.8v-2zm-27.865.647l-28.8-76.32-1.871.706 28.8 76.32 1.871-.706zM180.982 28.68h26.64v-2h-26.64v2zm25.687-.696l16.56 51.84 1.905-.608-16.56-51.84-1.905.608zm18.465 51.84l16.56-51.84-1.905-.608-16.56 51.84 1.905.608zm70.373-21.904h-1v1h1v-1zm24.48 0v1h1v-1h-1zm22.32 44.64l.103.995.897-.093v-.902h-1zm-66.096-3.024l-.707.707.707-.707zm.144-67.104l.707.707-.707-.707zm62.64 0l-.715.699.008.008.008.008.699-.715zm6.192 43.488v1h1v-1h-1zm-49.68 0v-1h-1v1h1zm1.44 9.36l.707-.707-.707.707zm45.36-.72h1v-1.082l-1.078.085.078.997zm-41.04-41.32c-2.074 0-3.814.52-5.027 1.733-1.214 1.214-1.733 2.953-1.733 5.027h2c0-1.766.441-2.907 1.147-3.613s1.847-1.147 3.613-1.147v-2zm-6.76 6.76v7.92h2V50h-2zm1 8.92h24.48v-2h-24.48v2zm25.48-1V50h-2v7.92h2zm0-7.92c0-2.074-.519-3.813-1.733-5.027s-2.953-1.733-5.027-1.733v2c1.766 0 2.906.44 3.613 1.147.706.706 1.147 1.847 1.147 3.613h2zm-6.76-6.76h-12.96v2h12.96v-2zm27.977 58.325c-18.502 1.918-35.266 2.875-50.297 2.875v2c15.113 0 31.948-.963 50.503-2.885l-.206-1.99zm-50.297 2.875c-6.312 0-11.273-1.895-14.989-5.611l-1.414 1.414c4.156 4.156 9.659 6.197 16.403 6.197v-2zm-14.989-5.611c-3.716-3.716-5.611-8.677-5.611-14.989h-2c0 6.744 2.041 12.247 6.197 16.403l1.414-1.414zm-5.611-14.989V49.28h-2v34.56h2zm0-34.56c0-7.008 1.957-12.343 5.755-16.14l-1.414-1.415c-4.266 4.266-6.341 10.163-6.341 17.555h2zm5.755-16.14c3.899-3.9 9.284-5.9 16.285-5.9v-2c-7.4 0-13.342 2.128-17.699 6.485l1.414 1.414zm16.285-5.9h28.8v-2h-28.8v2zm28.8 0c7.001 0 12.333 2 16.133 5.89l1.43-1.397c-4.264-4.366-10.165-6.493-17.563-6.493v2zm16.149 5.907c3.89 3.8 5.891 9.132 5.891 16.133h2c0-7.398-2.127-13.299-6.493-17.563l-1.398 1.43zm5.891 16.133v26.64h2V49.28h-2zm1 25.64h-49.68v2h49.68v-2zm-50.68 1v5.76h2v-5.76h-2zm0 5.76c0 1.687.573 3.147 1.733 4.307l1.414-1.414c-.76-.76-1.147-1.7-1.147-2.893h-2zm1.733 4.307c1.16 1.16 2.62 1.733 4.307 1.733v-2c-1.193 0-2.133-.387-2.893-1.147l-1.414 1.414zm4.307 1.733c9.544 0 23.495-.722 41.838-2.163l-.156-1.994c-18.33 1.44-32.218 2.157-41.682 2.157v2zm40.76-3.16v18h2v-18h-2zm107.476-2.16l.286.958.714-.213V82.4h-1zm0-8.64h1v-1h-1v1zm-24.481 1.44l.708.707-.708-.707zm0 8.64l-.707.707.707-.707zm-19.44-54.72l-.108-.994-.892.097v.897h1zm63.216 3.024l-.707.707.707-.707zM473.983 104v1h1v-1h-1zm-22.32 0l-.981.196.161.804h.82v-1zm-1.44-7.2l.98-.196-.291-1.457-1.24.818.551.835zm-13.968 6.624l.274.962.013-.004-.287-.958zm-32.689-3.888l-.707.707.707-.707zm0-37.872l.708.707-.708-.707zm45.217-5.904v1h1v-1h-1zm-1.441-9.36l-.707.707.707-.707zm-24.335-.576l-.076-.997h-.001l.077.997zm-18.145 1.296h-1v1.064l1.063-.066-.063-.998zm26.641 39.16c5.21 0 11.068-.982 17.566-2.922l-.573-1.916c-6.366 1.9-12.028 2.838-16.993 2.838v2zm18.28-3.88v-8.64h-2v8.64h2zm-1-9.64h-20.881v2h20.881v-2zm-20.881 0c-1.687 0-3.147.573-4.307 1.733l1.415 1.414c.76-.76 1.7-1.147 2.892-1.147v-2zm-4.307 1.733c-1.159 1.16-1.733 2.62-1.733 4.307h2c0-1.193.387-2.133 1.148-2.893l-1.415-1.414zm-1.733 4.307v1.44h2V78.8h-2zm0 1.44c0 1.687.574 3.147 1.733 4.307l1.415-1.414c-.761-.76-1.148-1.7-1.148-2.893h-2zm1.733 4.307c1.16 1.16 2.62 1.733 4.307 1.733v-2c-1.192 0-2.132-.387-2.892-1.147l-1.415 1.414zm4.307 1.733h3.601v-2h-3.601v2zm-22.931-56.166c17.541-1.917 33.343-2.874 47.412-2.874v-2c-14.156 0-30.034.963-47.629 2.886l.217 1.988zm47.412-2.874c6.312 0 11.272 1.895 14.988 5.611l1.415-1.414c-4.156-4.156-9.66-6.197-16.403-6.197v2zm14.988 5.611c3.717 3.716 5.612 8.677 5.612 14.989h2c0-6.744-2.042-12.247-6.197-16.403l-1.415 1.414zm5.612 14.989V104h2V47.84h-2zm1 55.16h-22.32v2h22.32v-2zm-21.34.804l-1.44-7.2-1.961.392 1.44 7.2 1.961-.392zm-2.971-7.839c-4.437 2.927-9.005 5.091-13.705 6.501l.575 1.916c4.9-1.47 9.644-3.722 14.231-6.747l-1.101-1.67zm-13.692 6.497c-4.655 1.33-8.54 1.978-11.678 1.978v2c3.391 0 7.474-.696 12.227-2.054l-.549-1.924zm-11.678 1.978h-5.039v2h5.039v-2zm-5.039 0c-6.313 0-11.273-1.895-14.989-5.611l-1.415 1.414c4.156 4.156 9.66 6.197 16.404 6.197v-2zm-14.989-5.611c-3.717-3.716-5.611-8.677-5.611-14.989h-2c0 6.744 2.041 12.247 6.196 16.403l1.415-1.414zm-5.611-14.989v-6.48h-2v6.48h2zm0-6.48c0-6.312 1.894-11.273 5.611-14.989l-1.415-1.414c-4.155 4.156-6.196 9.66-6.196 16.403h2zm5.611-14.989c3.716-3.716 8.676-5.611 14.989-5.611v-2c-6.744 0-12.248 2.041-16.404 6.197l1.415 1.414zm14.989-5.611h29.52v-2h-29.52v2zm30.52-1V50h-2v5.76h2zm0-5.76c0-1.687-.574-3.147-1.733-4.307l-1.415 1.414c.761.76 1.148 1.7 1.148 2.893h2zm-1.733-4.307c-1.16-1.16-2.62-1.733-4.308-1.733v2c1.193 0 2.133.387 2.893 1.147l1.415-1.414zm-4.308-1.733c-6.27 0-13.207.29-20.811.867l.151 1.994c7.564-.574 14.451-.861 20.66-.861v-2zm-20.812.867c-7.486.576-13.529 1.007-18.13 1.295l.125 1.996c4.615-.288 10.668-.72 18.158-1.297l-.153-1.994zm-17.068 2.293v-18h-2v18h2zm173.893 37.44l.173.985.827-.145v-.84h-1zm0-37.44h1v-1h-1v1zm0 55.44h1v-1.227l-1.202.248.202.979zm-45.216-3.024l-.707.707.707-.707zm.144-65.664l.707.707-.707-.707zm70.272-6.192h1v-1h-1v1zm0 100.8v1h1v-1h-1zm-25.2 0h-1v1h1v-1zM562.475 87c6.101 0 11.919-.484 17.453-1.455l-.346-1.97c-5.41.95-11.112 1.425-17.107 1.425v2zm18.28-2.44V47.12h-2v37.44h2zm-1-38.44h-20.16v2h20.16v-2zm-20.16 0c-2.074 0-3.813.52-5.027 1.733-1.214 1.214-1.733 2.953-1.733 5.027h2c0-1.766.441-2.907 1.147-3.613s1.847-1.147 3.613-1.147v-2zm-6.76 6.76v28.08h2V52.88h-2zm0 28.08c0 1.687.573 3.147 1.733 4.307l1.414-1.414c-.76-.76-1.147-1.7-1.147-2.893h-2zm1.733 4.307c1.16 1.16 2.62 1.733 4.307 1.733v-2c-1.193 0-2.133-.387-2.893-1.147l-1.414 1.414zM558.875 87h3.6v-2h-3.6v2zm20.678 14.581c-9.267 1.91-17.357 2.859-24.278 2.859v2c7.095 0 15.325-.971 24.682-2.901l-.404-1.958zm-24.278 2.859h-5.04v2h5.04v-2zm-5.04 0c-6.312 0-11.273-1.895-14.989-5.611l-1.414 1.414c4.156 4.156 9.659 6.197 16.403 6.197v-2zm-14.989-5.611c-3.716-3.716-5.611-8.677-5.611-14.989h-2c0 6.744 2.041 12.247 6.197 16.403l1.414-1.414zm-5.611-14.989V50.72h-2v33.12h2zm0-33.12c0-7.008 1.957-12.343 5.755-16.14l-1.414-1.415c-4.266 4.266-6.341 10.163-6.341 17.555h2zm5.755-16.14c3.899-3.9 9.285-5.9 16.285-5.9v-2c-7.4 0-13.342 2.128-17.699 6.485l1.414 1.414zm16.285-5.9h53.28v-2h-53.28v2zm52.28-1v100.8h2V27.68h-2zm1 99.8h-25.2v2h25.2v-2zm-24.2 1v-25.92h-2v25.92h2zm91.177-46.8l.286.958.714-.213v-.745h-1zm0-54v-1h-1v1h1zm25.2 0h1v-1h-1v1zm0 76.32v1h1v-1h-1zm-22.32 0l-.981.196.161.804h.82v-1zm-1.44-7.2l.98-.196-.291-1.457-1.24.818.551.835zm-13.968 6.624l.275.962.012-.004-.287-.958zm-34.128-3.888l.707-.707-.707.707zm-5.904-71.856v-1h-1v1h1zm25.2 0h1v-1h-1v1zm1.44 55.44l.707-.707-.707.707zm8.64 2.44c5.21 0 11.069-.982 17.566-2.922l-.572-1.916c-6.367 1.9-12.028 2.838-16.994 2.838v2zm18.28-3.88v-54h-2v54h2zm-1-53h25.2v-2h-25.2v2zm24.2-1V104h2V27.68h-2zm1 75.32h-22.32v2h22.32v-2zm-21.34.804l-1.44-7.2-1.961.392 1.44 7.2 1.961-.392zm-2.971-7.839c-4.437 2.927-9.005 5.091-13.704 6.501l.574 1.916c4.901-1.47 9.645-3.722 14.231-6.747l-1.101-1.67zm-13.692 6.497c-4.654 1.33-8.54 1.978-11.677 1.978v2c3.391 0 7.473-.696 12.227-2.054l-.55-1.924zm-11.677 1.978h-6.48v2h6.48v-2zm-6.48 0c-6.312 0-11.273-1.895-14.989-5.611l-1.414 1.414c4.156 4.156 9.659 6.197 16.403 6.197v-2zm-14.989-5.611c-3.716-3.716-5.611-8.677-5.611-14.989h-2c0 6.744 2.041 12.247 6.197 16.403l1.414-1.414zm-5.611-14.989V27.68h-2v56.16h2zm-1-55.16h25.2v-2h-25.2v2zm24.2-1v51.84h2V27.68h-2zm0 51.84c0 1.687.573 3.147 1.733 4.307l1.414-1.414c-.76-.76-1.147-1.7-1.147-2.893h-2zm1.733 4.307c1.16 1.16 2.619 1.733 4.307 1.733v-2c-1.193 0-2.133-.387-2.893-1.147l-1.414 1.414zm4.307 1.733h5.04v-2h-5.04v2zm85.629-27.64h-1v1h1v-1zm24.48 0v1h1v-1h-1zm22.32 44.64l.103.995.897-.093v-.902h-1zm-66.096-3.024l-.707.707.707-.707zm.144-67.104l.707.707-.707-.707zm62.64 0l-.715.699.008.008.009.008.698-.715zm6.192 43.488v1h1v-1h-1zm-49.68 0v-1h-1v1h1zm1.44 9.36l.707-.707-.707.707zm45.36-.72h1v-1.082l-1.078.085.078.997zm-41.04-41.32c-2.074 0-3.813.52-5.027 1.733-1.214 1.214-1.733 2.953-1.733 5.027h2c0-1.766.441-2.907 1.147-3.613.707-.706 1.847-1.147 3.613-1.147v-2zm-6.76 6.76v7.92h2V50h-2zm1 8.92h24.48v-2h-24.48v2zm25.48-1V50h-2v7.92h2zm0-7.92c0-2.074-.519-3.813-1.733-5.027-1.213-1.214-2.953-1.733-5.027-1.733v2c1.766 0 2.907.44 3.613 1.147.706.706 1.147 1.847 1.147 3.613h2zm-6.76-6.76h-12.96v2h12.96v-2zm27.977 58.325c-18.501 1.918-35.266 2.875-50.297 2.875v2c15.114 0 31.949-.963 50.503-2.885l-.206-1.99zm-50.297 2.875c-6.312 0-11.272-1.895-14.989-5.611l-1.414 1.414c4.156 4.156 9.659 6.197 16.403 6.197v-2zm-14.989-5.611c-3.716-3.716-5.611-8.677-5.611-14.989h-2c0 6.744 2.041 12.247 6.197 16.403l1.414-1.414zm-5.611-14.989V49.28h-2v34.56h2zm0-34.56c0-7.008 1.957-12.343 5.755-16.14l-1.414-1.415c-4.266 4.266-6.341 10.163-6.341 17.555h2zm5.755-16.14c3.899-3.9 9.285-5.9 16.285-5.9v-2c-7.399 0-13.341 2.128-17.699 6.485l1.414 1.414zm16.285-5.9h28.8v-2h-28.8v2zm28.8 0c7.002 0 12.333 2 16.133 5.89l1.431-1.397c-4.265-4.366-10.165-6.493-17.564-6.493v2zm16.15 5.907c3.89 3.8 5.89 9.132 5.89 16.133h2c0-7.398-2.127-13.299-6.493-17.563l-1.397 1.43zm5.89 16.133v26.64h2V49.28h-2zm1 25.64h-49.68v2h49.68v-2zm-50.68 1v5.76h2v-5.76h-2zm0 5.76c0 1.687.573 3.147 1.733 4.307l1.414-1.414c-.76-.76-1.147-1.7-1.147-2.893h-2zm1.733 4.307c1.16 1.16 2.62 1.733 4.307 1.733v-2c-1.192 0-2.132-.387-2.893-1.147l-1.414 1.414zm4.307 1.733c9.544 0 23.496-.722 41.839-2.163l-.157-1.994c-18.329 1.44-32.218 2.157-41.682 2.157v2zm40.76-3.16v18h2v-18h-2zm13.904-.72l.074-.997-1.074-.08v1.077h1zm49.68.72l.707.707-.707-.707zm1.44-8.64h1v-1h-1v1zm-46.656-5.904l.707-.707-.707.707zm0-36.432l.707.707-.707-.707zm64.656-5.904h1v-1h-1v1zm0 18.72v1h1v-1h-1zm-43.92 1.44l.707.707-.707-.707zm0 7.2l-.707.707.707-.707zm45.216 7.344l.707-.707-.707.707zm0 37.152l.707.707-.707-.707zm-70.416 3.024h-1v.906l.902.089.098-.995zm-.074-17.723C814.369 86.278 829.757 87 841.025 87v-2c-11.196 0-26.528-.718-46.006-2.157l-.148 1.994zM841.025 87c1.687 0 3.147-.573 4.307-1.733l-1.414-1.414c-.76.76-1.7 1.147-2.893 1.147v2zm4.307-1.733c1.16-1.16 1.733-2.62 1.733-4.307h-2c0 1.193-.387 2.133-1.147 2.893l1.414 1.414zm1.733-4.307v-5.04h-2v5.04h2zm-1-6.04h-30.96v2h30.96v-2zm-30.96 0c-6.312 0-11.273-1.895-14.989-5.611l-1.414 1.414c4.156 4.156 9.659 6.197 16.403 6.197v-2zm-14.989-5.611c-3.716-3.716-5.611-8.677-5.611-14.989h-2c0 6.744 2.041 12.247 6.197 16.403l1.414-1.414zm-5.611-14.989v-5.04h-2v5.04h2zm0-5.04c0-6.312 1.895-11.273 5.611-14.989l-1.414-1.414c-4.156 4.156-6.197 9.66-6.197 16.403h2zm5.611-14.989c3.716-3.716 8.677-5.611 14.989-5.611v-2c-6.744 0-12.247 2.041-16.403 6.197l1.414 1.414zm14.989-5.611h48.96v-2h-48.96v2zm47.96-1V46.4h2V27.68h-2zm1 17.72h-40.32v2h40.32v-2zm-40.32 0c-1.687 0-3.147.573-4.307 1.733l1.414 1.414c.76-.76 1.7-1.147 2.893-1.147v-2zm-4.307 1.733c-1.16 1.16-1.733 2.62-1.733 4.307h2c0-1.193.387-2.133 1.147-2.893l-1.414-1.414zm-1.733 4.307c0 1.687.573 3.147 1.733 4.307l1.414-1.414c-.76-.76-1.147-1.7-1.147-2.893h-2zm1.733 4.307c1.16 1.16 2.62 1.733 4.307 1.733v-2c-1.193 0-2.133-.387-2.893-1.147l-1.414 1.414zm4.307 1.733h25.92v-2h-25.92v2zm25.92 0c6.312 0 11.273 1.895 14.989 5.611l1.414-1.414c-4.156-4.156-9.659-6.197-16.403-6.197v2zm14.989 5.611c3.716 3.716 5.611 8.677 5.611 14.989h2c0-6.744-2.041-12.247-6.197-16.403l-1.414 1.414zm5.611 14.989v5.76h2v-5.76h-2zm0 5.76c0 6.312-1.895 11.273-5.611 14.989l1.414 1.414c4.156-4.156 6.197-9.66 6.197-16.403h-2zm-5.611 14.989c-3.716 3.716-8.677 5.611-14.989 5.611v2c6.744 0 12.247-2.041 16.403-6.197l-1.414-1.414zm-14.989 5.611c-16.955 0-35.162-.958-54.622-2.875l-.196 1.99c19.516 1.923 37.789 2.885 54.818 2.885v-2zm-53.72-1.88V83.84h-2v18.72h2zM934.636 104l.103.995.897-.093V104h-1zm-43.056-4.464l.707-.707-.707.707zm-5.904-52.416h1v-1h-1v1zm-8.64 0h-1v1h1v-1zm0-19.44v-1h-1v1h1zm8.64 0v1h.847l.14-.836-.987-.164zm2.88-17.28v-1h-.847l-.139.836.986.164zm22.32 0h1v-1h-1v1zm0 17.28h-1v1h1v-1zm18 0h1v-1h-1v1zm0 19.44v1h1v-1h-1zm-18 0v-1h-1v1h1zm1.44 36.72l-.707.707.707-.707zm22.32 1.44h1v-1h-1v1zm-.102 17.725c-9.28.957-18.366 1.435-27.258 1.435v2c8.964 0 18.118-.482 27.463-1.445l-.205-1.99zm-27.258 1.435c-6.312 0-11.272-1.895-14.989-5.611l-1.414 1.414c4.156 4.156 9.659 6.197 16.403 6.197v-2zm-14.989-5.611c-3.716-3.716-5.611-8.677-5.611-14.989h-2c0 6.744 2.041 12.247 6.197 16.403l1.414-1.414zm-5.611-14.989V47.12h-2v36.72h2zm-1-37.72h-8.64v2h8.64v-2zm-7.64 1V27.68h-2v19.44h2zm-1-18.44h8.64v-2h-8.64v2zm9.627-.836l2.88-17.28-1.973-.328-2.88 17.28 1.973.328zm1.893-16.444h22.32v-2h-22.32v2zm21.32-1v17.28h2V10.4h-2zm1 18.28h18v-2h-18v2zm17-1v19.44h2V27.68h-2zm1 18.44h-18v2h18v-2zm-19 1v33.12h2V47.12h-2zm0 33.12c0 1.687.573 3.147 1.733 4.307l1.414-1.414c-.76-.76-1.147-1.7-1.147-2.893h-2zm1.733 4.307c1.16 1.16 2.62 1.733 4.307 1.733v-2c-1.192 0-2.132-.387-2.893-1.147l-1.414 1.414zm4.307 1.733h18.72v-2h-18.72v2zm17.72-1V104h2V85.28h-2zm40.01-54.72h1v-1h-1v1zm0 73.44v1h1v-1h-1zm-25.2 0h-1v1h1v-1zm0-54h1v-1h-1v1zm-10.8 0h-1v1h1v-1zm0-19.44v-1h-1v1h1zm10.8-28.8v-1h-1v1h1zm25.2 0h1v-1h-1v1zm0 20.16v1h1v-1h-1zm-25.2 0h-1v1h1v-1zm24.2 8.64V104h2V30.56h-2zm1 72.44h-25.2v2h25.2v-2zm-24.2 1V50h-2v54h2zm-1-55h-10.8v2h10.8v-2zm-9.8 1V30.56h-2V50h2zm-1-18.44h36v-2h-36v2zm10.8-28.8h25.2v-2h-25.2v2zm24.2-1v20.16h2V1.76h-2zm1 19.16h-25.2v2h25.2v-2zm-24.2 1V1.76h-2v20.16h2zm110.214 77.472l.71.707-.71-.707zm-66.961 0l-.716.699.008.008.009.008.699-.715zm0-66.96l.707.707-.707-.707zm66.961 0l-.72.699.01.008.01.008.7-.715zm5.19 49.968c0 7-2 12.386-5.9 16.285l1.42 1.414c4.35-4.357 6.48-10.3 6.48-17.699h-2zm-5.9 16.285c-3.8 3.798-9.13 5.755-16.14 5.755v2c7.39 0 13.29-2.075 17.56-6.341l-1.42-1.414zm-16.14 5.755h-33.12v2h33.12v-2zm-33.12 0c-7.01 0-12.395-1.956-16.293-5.763l-1.397 1.43c4.358 4.257 10.3 6.333 17.69 6.333v-2zm-16.276-5.747c-3.807-3.897-5.763-9.286-5.763-16.293h-2c0 7.393 2.075 13.332 6.332 17.691l1.431-1.398zM987.651 82.4V49.28h-2V82.4h2zm0-33.12c0-7.008 1.956-12.343 5.755-16.14l-1.414-1.415c-4.266 4.266-6.341 10.163-6.341 17.555h2zm5.755-16.14c3.898-3.9 9.284-5.9 16.284-5.9v-2c-7.4 0-13.341 2.128-17.698 6.485l1.414 1.414zm16.284-5.9h33.12v-2h-33.12v2zm33.12 0c7 0 12.33 2 16.13 5.89l1.43-1.397c-4.26-4.366-10.16-6.493-17.56-6.493v2zm16.15 5.907c3.89 3.8 5.89 9.132 5.89 16.133h2c0-7.398-2.13-13.299-6.49-17.563l-1.4 1.43zm5.89 16.133V82.4h2V49.28h-2zm-23.2 2.16c0-2.074-.52-3.813-1.73-5.027-1.22-1.214-2.96-1.733-5.03-1.733v2c1.77 0 2.91.44 3.61 1.147.71.706 1.15 1.847 1.15 3.613h2zm-6.76-6.76h-17.28v2h17.28v-2zm-17.28 0c-2.07 0-3.81.52-5.03 1.733-1.21 1.214-1.73 2.953-1.73 5.027h2c0-1.766.44-2.907 1.15-3.613.7-.706 1.84-1.147 3.61-1.147v-2zm-6.76 6.76v28.8h2v-28.8h-2zm0 28.8c0 2.074.52 3.813 1.73 5.027 1.22 1.214 2.96 1.733 5.03 1.733v-2c-1.77 0-2.91-.44-3.61-1.147-.71-.706-1.15-1.847-1.15-3.613h-2zm6.76 6.76h17.28v-2h-17.28v2zm17.28 0c2.07 0 3.81-.52 5.03-1.733 1.21-1.214 1.73-2.953 1.73-5.027h-2c0 1.766-.44 2.907-1.15 3.613-.7.706-1.84 1.147-3.61 1.147v2zm6.76-6.76v-28.8h-2v28.8h2zM1103.99 50l-.28-.958-.72.213V50h1zm0 54v1h1v-1h-1zm-25.2 0h-1v1h1v-1zm0-76.32v-1h-1v1h1zm22.32 0l.98-.196-.16-.804h-.82v1zm1.44 7.2l-.98.196.29 1.457 1.24-.818-.55-.835zm13.83-6.48l.27.962.02-.004-.29-.958zm34.27 3.744l-.71.707.71-.707zm5.9 71.856v1h1v-1h-1zm-25.2 0h-1v1h1v-1zm-1.44-55.44l.71-.707-.71.707zm-8.64-2.44c-5.21 0-11.07.982-17.56 2.922l.57 1.916c6.37-1.9 12.03-2.838 16.99-2.838v-2zM1102.99 50v54h2V50h-2zm1 53h-25.2v2h25.2v-2zm-24.2 1V27.68h-2V104h2zm-1-75.32h22.32v-2h-22.32v2zm21.34-.804l1.44 7.2 1.96-.392-1.44-7.2-1.96.392zm2.97 7.839c4.44-2.926 8.96-5.04 13.55-6.354l-.55-1.922c-4.81 1.374-9.51 3.58-14.1 6.606l1.1 1.67zm13.57-6.357c4.75-1.425 8.67-2.118 11.8-2.118v-2c-3.39 0-7.53.748-12.38 2.202l.58 1.916zm11.8-2.118h6.48v-2h-6.48v2zm6.48 0c6.32 0 11.28 1.895 14.99 5.611l1.42-1.414c-4.16-4.156-9.66-6.197-16.41-6.197v2zm14.99 5.611c3.72 3.716 5.61 8.677 5.61 14.989h2c0-6.744-2.04-12.247-6.19-16.403l-1.42 1.414zm5.61 14.989V104h2V47.84h-2zm1 55.16h-25.2v2h25.2v-2zm-24.2 1V52.16h-2V104h2zm0-51.84c0-1.687-.57-3.147-1.73-4.307l-1.41 1.414c.76.76 1.14 1.7 1.14 2.893h2zm-1.73-4.307c-1.16-1.16-2.62-1.733-4.31-1.733v2c1.2 0 2.14.387 2.9 1.147l1.41-1.414zm-4.31-1.733h-5.04v2h5.04v-2zm37.43-41.48l-.11-.995-.89.093v.902h1zm72.57 3.744l-.7.707.7-.707zm2.31 43.632l-.8-.61v.01l.8.6zm-15.12 9.504l-.33-.945v.001l.33.944zm-14.4 5.04l-.33-.944-.67.234v.71h1zm0 7.2v1h1v-1h-1zm-25.92 0h-1v1h1v-1zm0-20.16l-.34-.94-.66.238v.702h1zm33.84-12.24l.34.94.66-.238v-.702h-1zM1215 23.936l-.73.68.02.028.03.025.68-.733zm-29.09-1.152l-.06-.998.06.998zm-22.17 1.296h-1v1.052l1.05-.053-.05-.999zm19.44 58.32v-1h-1v1h1zm25.92 0h1v-1h-1v1zm0 21.6v1h1v-1h-1zm-25.92 0h-1v1h1v-1zm-19.34-98.365c18.5-1.917 35.74-2.875 51.74-2.875v-2c-16.07 0-33.39.962-51.95 2.885l.21 1.99zm51.74-2.875c9.27 0 15.87 2.18 20.03 6.331l1.41-1.414c-4.68-4.68-11.9-6.917-21.44-6.917v2zm20.03 6.331c4.15 4.152 6.33 10.754 6.33 20.029h2c0-9.54-2.24-16.763-6.92-21.443l-1.41 1.414zm6.33 20.029v6.48h2v-6.48h-2zm0 6.48c0 7.089-1.42 12.308-4.12 15.806l1.59 1.22c3.07-3.99 4.53-9.715 4.53-17.026h-2zm-4.12 15.816c-2.71 3.612-7.54 6.693-14.65 9.16l.65 1.889c7.29-2.526 12.55-5.781 15.6-9.849l-1.6-1.2zm-14.65 9.16l-14.4 5.04.66 1.888 14.4-5.04-.66-1.888zm-15.07 5.984v7.2h2v-7.2h-2zm1 6.2h-25.92v2h25.92v-2zm-24.92 1V53.6h-2v20.16h2zm-.66-19.22l33.84-12.24-.68-1.88-33.84 12.24.68 1.88zm34.5-13.18V29.12h-2v12.24h2zm0-12.24c0-2.425-.75-4.442-2.34-5.917l-1.36 1.466c1.1 1.02 1.7 2.46 1.7 4.451h2zm-2.29-5.864c-1.53-1.655-4.1-2.336-7.35-2.336v2c3.08 0 4.93.663 5.89 1.696l1.46-1.36zm-7.35-2.336c-5.79 0-13.3.29-22.53.866l.13 1.996c9.2-.575 16.67-.862 22.4-.862v-2zm-22.53.866c-9.12.576-16.51 1.008-22.16 1.295l.1 1.998c5.67-.289 13.06-.72 22.19-1.297l-.13-1.996zm-21.11 2.294V4.64h-2v19.44h2zm18.44 59.32h25.92v-2h-25.92v2zm24.92-1V104h2V82.4h-2zm1 20.6h-25.92v2h25.92v-2zm-24.92 1V82.4h-2V104h2z" fill="#000" fill-opacity=".13"/></svg>