<svg width="34" height="38" fill="none" xmlns="http://www.w3.org/2000/svg"><path d="M12.75 15.438c0-1.312-.952-2.376-2.125-2.376H9.562c-2.347 0-4.25 2.127-4.25 4.75v3.563c0 2.624 1.903 4.75 4.25 4.75h1.063c1.173 0 2.125-1.064 2.125-2.375v-8.313zm11.688 10.687c2.347 0 4.25-2.126 4.25-4.75v-3.563c0-2.623-1.903-4.75-4.25-4.75h-1.063c-1.173 0-2.125 1.064-2.125 2.376v8.312c0 1.311.952 2.375 2.125 2.375h1.063zM17 0C7.516 0 .304 8.82 0 19v1.188c0 .656.475 1.187 1.063 1.187h1.062c.587 0 1.063-.531 1.063-1.188V19C3.188 10.488 9.383 3.562 17 3.562S30.813 10.489 30.813 19h-.008c.005.18.008 12.3.008 12.3 0 1.732-1.258 3.137-2.808 3.137H21.25c0-1.967-1.427-3.562-3.188-3.562h-2.125c-1.76 0-3.187 1.595-3.187 3.563 0 1.967 1.427 3.562 3.188 3.562h12.067C31.315 38 34 35 34 31.3V19C33.696 8.82 26.484 0 17 0z" fill="#000"/></svg>