<svg width="370" height="47" fill="none" xmlns="http://www.w3.org/2000/svg"><path d="M30.5 2.4l1.933-.515L32.037.4h-1.536v2zM36.26 24l-1.932.515 3.88-.06L36.261 24zM41.3 2.4v-2h-1.586l-.361 1.546L41.3 2.4zm9.36 0l1.93.524L53.277.4H50.66v2zM41.54 36v2h1.53l.4-1.476L41.54 36zm-9.12 0l-1.927.532.405 1.468h1.523v-2zm-5.76-20.88l1.929-.532L26.66 7.6l-1.928 6.99 1.928.531zM20.9 36v2h1.524l.405-1.468L20.9 36zm-9.12 0l-1.93.524.401 1.476h1.53v-2zM2.66 2.4v-2H.046L.73 2.924 2.66 2.4zm9.36 0l1.948-.454L13.608.4H12.02v2zM17.06 24l-1.947.454 3.88.061L17.061 24zm5.76-21.6v-2h-1.536l-.396 1.485 1.933.515zm5.748.515l5.76 21.6 3.865-1.03-5.76-21.6-3.865 1.03zm9.64 21.54l5.04-21.6-3.895-.91-5.04 21.6 3.895.91zM41.301 4.4h9.36v-4H41.3v4zm7.43-2.524l-9.12 33.6 3.86 1.048 9.12-33.6-3.86-1.048zM41.54 34h-9.12v4h9.12v-4zm-7.192 1.468l-5.76-20.88-3.856 1.064 5.76 20.88 3.856-1.064zm-9.616-20.88l-5.76 20.88 3.856 1.064 5.76-20.88-3.856-1.064zM20.9 34h-9.12v4h9.12v-4zm-7.19 1.476l-9.12-33.6L.73 2.924l9.12 33.6 3.86-1.048zM2.66 4.4h9.36v-4H2.66v4zm7.412-1.546l5.04 21.6 3.895-.909-5.04-21.6-3.895.91zm8.92 21.661l5.76-21.6-3.865-1.03-5.76 21.6 3.865 1.03zM22.821 4.4h7.68v-4h-7.68v4zm38.182 6.64h-2v2.454L61.407 13l-.404-1.959zm15.552 1.008l-1.414 1.414 1.414-1.414zM78.523 36v2h2v-2h-2zm-8.4 0h-2v2h2v-2zm-6.72-19.248l-.248-1.985-.008.001.256 1.984zm-2.4.288l-.21-1.989-1.79.188v1.801h2zm0 18.96v2h2v-2h-2zm-8.4 0h-2v2h2v-2zm0-33.6v-2h-2v2h2zm8.4 0h2v-2h-2v2zm.404 10.599c3.015-.622 5.594-.919 7.756-.919v-4c-2.51 0-5.37.343-8.564 1.001L61.407 13zm7.756-.919h2.16v-4h-2.16v4zm2.16 0c1.745 0 2.946.51 3.818 1.382l2.828-2.828c-1.751-1.752-4.038-2.554-6.646-2.554v4zm3.818 1.382c.872.873 1.382 2.074 1.382 3.818h4c0-2.608-.802-4.895-2.554-6.646l-2.828 2.828zm1.382 3.818V36h4V17.28h-4zm2 16.72h-8.4v4h8.4v-4zm-6.4 2V18.24h-4V36h4zm0-17.76c0-.975-.346-1.895-1.066-2.614l-2.828 2.828a.407.407 0 01-.083-.131c-.025-.062-.023-.098-.023-.083h4zm-1.066-2.614c-.72-.72-1.64-1.066-2.614-1.066v4c.015 0-.02.002-.083-.023a.41.41 0 01-.131-.083l2.828-2.828zm-2.614-1.066h-1.68v4h1.68v-4zm-1.68 0a29.16 29.16 0 00-3.608.207l.496 3.97a25.2 25.2 0 013.112-.177v-4zm-3.616.208c-.985.127-1.767.221-2.353.283l.419 3.978c.63-.066 1.447-.165 2.446-.293l-.512-3.968zm-4.144 2.272V36h4V17.04h-4zm2 16.96h-8.4v4h8.4v-4zm-6.4 2V2.4h-4V36h4zm-2-31.6h8.4v-4h-8.4v4zm6.4-2v8.64h4V2.4h-4zm24.314 41.76h-2v1.757l1.743.226.257-1.983zm0-6.24v-2h-2v2h2zm6.673-1.008l-1.737-.992-.018.032-.017.032 1.772.928zm-.192-2.832l-1.846.772.002.004 1.844-.776zm-9.84-23.52v-2h-3.005l1.16 2.772 1.844-.772zm8.88 0l1.877-.69-.482-1.31h-1.395v2zm6 16.32l-1.878.69 2.042 5.554 1.746-5.654-1.91-.59zm5.04-16.32v-2h-1.476l-.435 1.41 1.91.59zm8.88 0l1.879.683.976-2.683h-2.855v2zm-9.6 26.4l1.877.69.002-.006-1.88-.684zm-3.6 5.712l-1.313-1.51-.01.009-.008.008 1.33 1.493zm-6-.032c-1.58 0-3.569-.15-5.983-.463l-.515 3.966c2.514.327 4.686.497 6.498.497v-4zm-4.24 1.52v-6.24h-4v6.24h4zm-2-4.24h4.32v-4h-4.32v4zm4.32 0c1.477 0 3.248-.41 4.123-2.08l-3.543-1.856a.461.461 0 01.1-.127c.036-.033.055-.037.032-.027-.061.026-.269.09-.712.09v4zm4.088-2.016c.857-1.5.502-3.206-.085-4.6l-3.687 1.552c.202.478.268.796.28.98.011.166-.024.16.019.084l3.473 1.984zm-.084-4.596l-9.84-23.52-3.69 1.544 9.84 23.52 3.69-1.544zM79.959 12.56h8.88v-4h-8.88v4zm7.002-1.31l6 16.32 3.755-1.38-6-16.32-3.755 1.38zm9.788 16.22l5.04-16.32-3.821-1.18-5.04 16.32 3.821 1.18zm3.13-14.91h8.88v-4h-8.88v4zm7-2.683l-9.6 26.4 3.759 1.367 9.6-26.4-3.759-1.367zM97.28 36.27c-.854 2.326-1.896 3.901-3.035 4.892l2.625 3.018c1.805-1.57 3.163-3.802 4.165-6.532L97.28 36.27zm-3.053 4.908c-1.012.902-2.49 1.461-4.67 1.461v4c2.877 0 5.399-.753 7.331-2.475l-2.661-2.986zm52.936-5.659l.213 1.989 1.787-.191V35.52h-2zm-21.072-1.008l-1.414 1.414 1.414-1.414zm.048-21.888l1.414 1.414-1.414-1.414zm21.024-2.064h2v-2h-2v2zm0 6.48v2h2v-2h-2zm0 12.24h2v-2.174l-2.166.18.166 1.994zm-.213 4.251c-5.934.635-11.14.949-15.627.949v4c4.665 0 10.019-.326 16.053-.971l-.426-3.978zm-15.627.949c-1.744 0-2.945-.51-3.818-1.382l-2.828 2.828c1.751 1.752 4.038 2.554 6.646 2.554v-4zm-3.818-1.382c-.872-.873-1.382-2.074-1.382-3.818h-4c0 2.608.802 4.895 2.554 6.646l2.828-2.828zm-1.382-3.818V18.24h-4v11.04h4zm0-11.04c0-2.016.554-3.325 1.43-4.202l-2.828-2.828c-1.812 1.811-2.602 4.246-2.602 7.03h4zm1.43-4.202c.918-.917 2.249-1.478 4.25-1.478v-4c-2.799 0-5.243.815-7.078 2.65l2.828 2.828zm4.25-1.478h15.36v-4h-15.36v4zm13.36-2v6.48h4v-6.48h-4zm2 4.48h-12.72v4h12.72v-4zm-12.72 0c-.948 0-2.027.238-2.854 1.066-.827.827-1.066 1.906-1.066 2.854h4c0-.077.005-.132.01-.167s.01-.047.007-.04a.591.591 0 01-.238.272.355.355 0 01-.066.032c-.007.002.005-.002.04-.007s.09-.01.167-.01v-4zm-3.92 3.92v9.36h4v-9.36h-4zm0 9.36c0 .975.346 1.895 1.066 2.614l2.828-2.828a.408.408 0 01.083.131c.025.062.023.098.023.083h-4zm1.066 2.614c.72.72 1.639 1.066 2.614 1.066v-4c-.014 0 .021-.002.083.023.064.026.11.061.131.083l-2.828 2.828zM134.203 32c2.967 0 7.354-.246 13.126-.727l-.332-3.986c-5.748.479-10 .713-12.794.713v4zm10.96-2.72v6.24h4v-6.24h-4zm14.231-18.24h-2v2.454l2.404-.495-.404-1.959zm15.552 1.008l-1.414 1.414 1.414-1.414zM176.914 36v2h2v-2h-2zm-8.4 0h-2v2h2v-2zm-6.72-19.248l-.248-1.985-.008.001.256 1.984zm-2.4.288l-.21-1.989-1.79.188v1.801h2zm0 18.96v2h2v-2h-2zm-8.4 0h-2v2h2v-2zm0-33.6v-2h-2v2h2zm8.4 0h2v-2h-2v2zm.404 10.599c3.014-.622 5.594-.919 7.756-.919v-4c-2.51 0-5.371.343-8.564 1.001l.808 3.918zm7.756-.919h2.16v-4h-2.16v4zm2.16 0c1.744 0 2.945.51 3.818 1.382l2.828-2.828c-1.752-1.752-4.039-2.554-6.646-2.554v4zm3.818 1.382c.872.873 1.382 2.074 1.382 3.818h4c0-2.608-.802-4.895-2.554-6.646l-2.828 2.828zm1.382 3.818V36h4V17.28h-4zm2 16.72h-8.4v4h8.4v-4zm-6.4 2V18.24h-4V36h4zm0-17.76c0-.975-.346-1.895-1.066-2.614l-2.828 2.828a.391.391 0 01-.083-.131c-.025-.062-.023-.098-.023-.083h4zm-1.066-2.614c-.72-.72-1.64-1.066-2.614-1.066v4c.014 0-.021.002-.083-.023a.398.398 0 01-.131-.083l2.828-2.828zm-2.614-1.066h-1.68v4h1.68v-4zm-1.68 0a29.16 29.16 0 00-3.608.207l.496 3.97a25.208 25.208 0 013.112-.177v-4zm-3.616.208c-.985.127-1.768.221-2.354.283l.419 3.978c.63-.066 1.448-.165 2.447-.293l-.512-3.968zm-4.144 2.272V36h4V17.04h-4zm2 16.96h-8.4v4h8.4v-4zm-6.4 2V2.4h-4V36h4zm-2-31.6h8.4v-4h-8.4v4zm6.4-2v8.64h4V2.4h-4zm47.69 32.064l1.414 1.414-1.414-1.414zm-22.32 0l-1.431 1.398.017.016.017.017 1.397-1.431zm0-22.32l1.414 1.414-1.414-1.414zm22.32 0l-1.431 1.397.017.017.017.017 1.397-1.431zm.064 16.656c0 2-.561 3.332-1.478 4.25l2.828 2.828c1.835-1.834 2.65-4.279 2.65-7.078h-4zm-1.478 4.25c-.877.876-2.186 1.43-4.202 1.43v4c2.784 0 5.219-.79 7.03-2.602l-2.828-2.828zm-4.202 1.43h-11.04v4h11.04v-4zm-11.04 0c-2.014 0-3.351-.553-4.266-1.447l-2.795 2.862c1.837 1.794 4.275 2.585 7.061 2.585v-4zm-4.233-1.413c-.894-.916-1.447-2.253-1.447-4.267h-4c0 2.786.791 5.225 2.585 7.061l2.862-2.794zm-1.447-4.267V17.76h-4V28.8h4zm0-11.04c0-2.016.554-3.325 1.43-4.202l-2.828-2.828c-1.812 1.811-2.602 4.246-2.602 7.03h4zm1.43-4.202c.918-.917 2.249-1.478 4.25-1.478v-4c-2.799 0-5.243.815-7.078 2.65l2.828 2.828zm4.25-1.478h11.04v-4h-11.04v4zm11.04 0c2.003 0 3.306.562 4.185 1.461l2.862-2.795c-1.809-1.851-4.25-2.666-7.047-2.666v4zm4.219 1.495c.9.879 1.461 2.182 1.461 4.185h4c0-2.797-.814-5.238-2.666-7.047l-2.795 2.862zm1.461 4.185V28.8h4V17.76h-4zm-4.4.72c0-.948-.238-2.027-1.066-2.854-.827-.828-1.906-1.066-2.854-1.066v4c.078 0 .132.005.167.01s.047.01.041.007a.594.594 0 01-.305-.305l.007.04c.005.036.01.09.01.168h4zm-3.92-3.92h-5.76v4h5.76v-4zm-5.76 0c-.948 0-2.027.238-2.854 1.066-.827.827-1.066 1.906-1.066 2.854h4c0-.077.005-.132.01-.167s.01-.047.007-.04a.591.591 0 01-.238.273.32.32 0 01-.066.031c-.007.002.005-.002.04-.007s.09-.01.167-.01v-4zm-3.92 3.92v9.6h4v-9.6h-4zm0 9.6c0 .948.239 2.027 1.066 2.854.827.828 1.906 1.066 2.854 1.066v-4c-.077 0-.132-.005-.167-.01s-.047-.01-.04-.007c.006.002.031.01.066.032a.594.594 0 01.238.273c.003.006-.002-.006-.007-.04a1.202 1.202 0 01-.01-.168h-4zm3.92 3.92h5.76v-4h-5.76v4zm5.76 0c.948 0 2.027-.238 2.854-1.066.828-.827 1.066-1.906 1.066-2.854h-4c0 .077-.005.132-.01.167s-.009.047-.007.04a.334.334 0 01.032-.066.632.632 0 01.206-.206.347.347 0 01.067-.032l-.041.007a1.19 1.19 0 01-.167.01v4zm3.92-3.92v-9.6h-4v9.6h4zm34.571 6.384l1.414 1.414-1.414-1.414zm-22.32 0l-1.431 1.398.016.016.017.017 1.398-1.431zm0-22.32l1.414 1.414-1.414-1.414zm22.32 0l-1.431 1.397.016.017.017.017 1.398-1.431zm.064 16.656c0 2-.561 3.332-1.479 4.25l2.829 2.828c1.834-1.834 2.65-4.279 2.65-7.078h-4zm-1.479 4.25c-.876.876-2.185 1.43-4.201 1.43v4c2.783 0 5.218-.79 7.03-2.602l-2.829-2.828zm-4.201 1.43h-11.04v4h11.04v-4zm-11.04 0c-2.014 0-3.352-.553-4.267-1.447l-2.795 2.862c1.837 1.794 4.275 2.585 7.062 2.585v-4zm-4.234-1.413c-.894-.916-1.446-2.253-1.446-4.267h-4c0 2.786.791 5.225 2.585 7.061l2.861-2.794zm-1.446-4.267V17.76h-4V28.8h4zm0-11.04c0-2.016.553-3.325 1.43-4.202l-2.829-2.828c-1.811 1.811-2.601 4.246-2.601 7.03h4zm1.43-4.202c.917-.917 2.249-1.478 4.25-1.478v-4c-2.8 0-5.244.815-7.079 2.65l2.829 2.828zm4.25-1.478h11.04v-4h-11.04v4zm11.04 0c2.002 0 3.306.562 4.185 1.461l2.861-2.795c-1.809-1.851-4.249-2.666-7.046-2.666v4zm4.218 1.495c.9.879 1.462 2.182 1.462 4.185h4c0-2.797-.815-5.238-2.667-7.047l-2.795 2.862zm1.462 4.185V28.8h4V17.76h-4zm-4.4.72c0-.948-.239-2.027-1.066-2.854-.828-.828-1.906-1.066-2.854-1.066v4c.077 0 .132.005.167.01s.046.01.04.007a.598.598 0 01-.305-.305c-.002-.006.003.006.008.04.005.036.01.09.01.168h4zm-3.92-3.92h-5.76v4h5.76v-4zm-5.76 0c-.949 0-2.027.238-2.855 1.066-.827.827-1.065 1.906-1.065 2.854h4c0-.077.004-.132.009-.167.005-.035.01-.047.008-.04a.583.583 0 01-.305.305 1.211 1.211 0 01.208-.017V14.56zm-3.92 3.92v9.6h4v-9.6h-4zm0 9.6c0 .948.238 2.027 1.065 2.854.828.828 1.906 1.066 2.855 1.066v-4c-.078 0-.133-.005-.168-.01s-.046-.01-.04-.007a.598.598 0 01.305.305c.002.006-.003-.006-.008-.04a1.242 1.242 0 01-.009-.168h-4zm3.92 3.92h5.76v-4h-5.76v4zm5.76 0c.948 0 2.026-.238 2.854-1.066.827-.827 1.066-1.906 1.066-2.854h-4c0 .077-.005.132-.01.167s-.01.047-.008.04a.583.583 0 01.305-.305 1.206 1.206 0 01-.207.017V32zm3.92-3.92v-9.6h-4v9.6h4zm9.754 1.2l.147-1.995-2.147-.158v2.153h2zm16.56.24l1.414 1.414-1.414-1.414zm.48-2.88h2v-2h-2v2zm-15.552-1.968l1.414-1.414-1.414 1.414zm0-12.144l1.414 1.414-1.414-1.414zm21.552-1.968h2v-2h-2v2zm0 6.24v2h2v-2h-2zm-14.64.48l1.414 1.414-1.414-1.414zm0 2.4l-1.414 1.414 1.414-1.414zm15.072 2.448l1.414-1.414-1.414 1.414zm0 12.384l1.414 1.414-1.414-1.414zm-23.472 1.008h-2v1.813l1.804.177.196-1.99zm-.148-4.245c6.515.481 11.692.725 15.508.725v-4c-3.672 0-8.736-.236-15.213-.715l-.295 3.99zm15.508.725c.975 0 1.894-.346 2.614-1.066l-2.828-2.828a.398.398 0 01.131-.083c.062-.025.097-.023.083-.023v4zm2.614-1.066c.72-.72 1.066-1.64 1.066-2.614h-4c0 .015-.002-.021.023-.083a.408.408 0 01.083-.131l2.828 2.828zm1.066-2.614v-1.68h-4v1.68h4zm-2-3.68h-10.32v4h10.32v-4zm-10.32 0c-1.744 0-2.945-.51-3.818-1.382l-2.828 2.828c1.751 1.752 4.038 2.554 6.646 2.554v-4zm-3.818-1.382c-.872-.873-1.382-2.074-1.382-3.818h-4c0 2.608.802 4.895 2.554 6.646l2.828-2.828zm-1.382-3.818v-1.68h-4v1.68h4zm0-1.68c0-1.744.51-2.945 1.382-3.818l-2.828-2.828c-1.752 1.751-2.554 4.038-2.554 6.646h4zm1.382-3.818c.873-.872 2.074-1.382 3.818-1.382v-4c-2.608 0-4.895.802-6.646 2.554l2.828 2.828zm3.818-1.382h16.32v-4h-16.32v4zm14.32-2v6.24h4v-6.24h-4zm2 4.24h-13.44v4h13.44v-4zm-13.44 0c-.975 0-1.895.346-2.614 1.066l2.828 2.828a.41.41 0 01-.131.083c-.062.025-.098.023-.083.023v-4zm-2.614 1.066c-.72.72-1.066 1.64-1.066 2.614h4c0-.015.002.021-.023.083a.408.408 0 01-.083.131l-2.828-2.828zm-1.066 2.614c0 .975.346 1.895 1.066 2.614l2.828-2.828a.408.408 0 01.083.131c.025.062.023.098.023.083h-4zm1.066 2.614c.719.72 1.639 1.066 2.614 1.066v-4c-.015 0 .021-.002.083.023a.41.41 0 01.131.083l-2.828 2.828zm2.614 1.066h8.64v-4h-8.64v4zm8.64 0c1.744 0 2.945.51 3.818 1.382l2.828-2.828c-1.751-1.752-4.038-2.554-6.646-2.554v4zm3.818 1.382c.872.873 1.382 2.074 1.382 3.818h4c0-2.608-.802-4.895-2.554-6.646l-2.828 2.828zm1.382 3.818v1.92h4v-1.92h-4zm0 1.92c0 1.744-.51 2.945-1.382 3.818l2.828 2.828c1.752-1.751 2.554-4.038 2.554-6.646h-4zm-1.382 3.818c-.873.872-2.074 1.382-3.818 1.382v4c2.608 0 4.895-.802 6.646-2.554l-2.828-2.828zm-3.818 1.382c-5.59 0-11.604-.316-18.044-.95l-.392 3.98c6.551.646 12.697.97 18.436.97v-4zm-16.24 1.04v-6.24h-4v6.24h4zm34.724-14.88h-2v2h2v-2zm8.16 0v2h2v-2h-2zm7.44 14.88l.206 1.99 1.794-.186V35.52h-2zm-22.032-1.008l-1.415 1.414 1.415-1.414zm.048-22.368l1.414 1.414-1.414-1.414zm20.88 0l-1.431 1.397.016.017.017.017 1.398-1.431zm2.064 14.496v2h2v-2h-2zm-16.56 0v-2h-2v2h2zm.48 3.12l1.414-1.414-1.414 1.414zm15.12-.24h2v-2.163l-2.157.17.157 1.993zm-13.68-15.44c-.949 0-2.027.238-2.855 1.066-.827.827-1.065 1.906-1.065 2.854h4c0-.077.005-.132.01-.167s.009-.047.007-.04a.334.334 0 01-.032.066.632.632 0 01-.206.206.38.38 0 01-.067.032l.04-.007c.036-.005.09-.01.168-.01v-4zm-3.92 3.92v2.64h4V18h-4zm2 4.64h8.16v-4h-8.16v4zm10.16-2V18h-4v2.64h4zm0-2.64c0-.948-.239-2.027-1.066-2.854-.828-.828-1.906-1.066-2.854-1.066v4c.077 0 .132.005.167.01s.046.01.04.007a.63.63 0 01-.272-.238c-.021-.035-.03-.06-.033-.067-.002-.006.003.006.008.04.005.036.01.09.01.168h4zm-3.92-3.92h-4.32v4h4.32v-4zm9.153 19.45c-6.122.635-11.652.95-16.593.95v4c5.106 0 10.777-.325 17.006-.97l-.413-3.98zm-16.593.95c-1.745 0-2.946-.51-3.818-1.382l-2.829 2.828c1.752 1.752 4.039 2.554 6.647 2.554v-4zm-3.818-1.382c-.873-.873-1.382-2.074-1.382-3.818h-4c0 2.608.802 4.895 2.553 6.646l2.829-2.828zm-1.382-3.818V17.76h-4v11.52h4zm0-11.52c0-2.016.553-3.325 1.43-4.202l-2.829-2.828c-1.811 1.811-2.601 4.246-2.601 7.03h4zm1.43-4.202c.917-.917 2.249-1.478 4.25-1.478v-4c-2.8 0-5.244.815-7.079 2.65l2.829 2.828zm4.25-1.478h9.6v-4h-9.6v4zm9.6 0c2.003 0 3.306.562 4.185 1.461l2.861-2.795c-1.809-1.851-4.249-2.666-7.046-2.666v4zm4.218 1.495c.9.879 1.462 2.182 1.462 4.185h4c0-2.797-.815-5.238-2.667-7.047l-2.795 2.862zm1.462 4.185v8.88h4v-8.88h-4zm2 6.88h-16.56v4h16.56v-4zm-18.56 2v1.92h4v-1.92h-4zm0 1.92c0 .975.346 1.895 1.065 2.614l2.829-2.828a.408.408 0 01.083.131c.024.062.023.098.023.083h-4zm1.065 2.614c.72.72 1.64 1.066 2.615 1.066v-4c-.015 0 .021-.002.082.023.064.026.11.061.132.083l-2.829 2.828zm2.615 1.066c3.248 0 7.951-.245 14.076-.726l-.313-3.988c-6.098.48-10.676.714-13.763.714v4zm11.92-2.72v6h4v-6h-4zm39.172-.96l.572 1.916 1.428-.426v-1.49h-2zm0-18v-2h-2v2h2zm8.4 0h2v-2h-2v2zm0 25.44v2h2v-2h-2zm-7.44 0l-1.962.392.322 1.608h1.64v-2zm-.48-2.4l1.961-.392-.583-2.913-2.48 1.635 1.102 1.67zm-4.656 2.208l.549 1.923.013-.004.012-.003-.574-1.916zm-11.376-1.296l1.414-1.414-1.414 1.414zm-1.968-23.952v-2h-2v2h2zm8.4 0h2v-2h-2v2zm.48 18.48l1.414-1.414-1.414 1.414zm2.88 2.48c1.94 0 4.057-.365 6.332-1.044l-1.145-3.832c-2.013.6-3.736.876-5.187.876v4zm7.76-2.96v-18h-4v18h4zm-2-16h8.4v-4h-8.4v4zm6.4-2V36h4V10.56h-4zm2 23.44h-7.44v4h7.44v-4zm-5.479 1.608l-.48-2.4-3.923.784.48 2.4 3.923-.784zm-3.543-3.677c-1.354.893-2.73 1.541-4.129 1.961l1.149 3.832c1.801-.54 3.529-1.364 5.183-2.454l-2.203-3.34zm-4.104 1.954c-1.469.42-2.6.595-3.434.595v4c1.341 0 2.866-.273 4.533-.749l-1.099-3.846zm-3.434.595h-2.16v4h2.16v-4zm-2.16 0c-1.745 0-2.946-.51-3.818-1.382l-2.829 2.828c1.752 1.752 4.039 2.554 6.647 2.554v-4zm-3.818-1.382c-.873-.873-1.382-2.074-1.382-3.818h-4c0 2.608.802 4.895 2.553 6.646l2.829-2.828zm-1.382-3.818V10.56h-4v18.72h4zm-2-16.72h8.4v-4h-8.4v4zm6.4-2v17.28h4V10.56h-4zm0 17.28c0 .975.346 1.895 1.065 2.614l2.829-2.828a.41.41 0 01.082.131c.025.062.024.098.024.083h-4zm1.065 2.614c.72.72 1.64 1.066 2.615 1.066v-4c-.015 0 .021-.002.082.023.064.026.11.061.132.083l-2.829 2.828zm2.615 1.066h1.68v-4h-1.68v4zm19.663-2.24l.147-1.995-2.147-.158v2.153h2zm16.56.24l1.414 1.414-1.414-1.414zm.48-2.88h2v-2h-2v2zm-15.552-1.968l1.414-1.414-1.414 1.414zm0-12.144l1.414 1.414-1.414-1.414zm21.552-1.968h2v-2h-2v2zm0 6.24v2h2v-2h-2zm-14.64.48l1.414 1.414-1.414-1.414zm0 2.4l-1.415 1.414 1.415-1.414zm15.072 2.448l1.414-1.414-1.414 1.414zm0 12.384l1.414 1.414-1.414-1.414zm-23.472 1.008h-2v1.813l1.804.177.196-1.99zm-.148-4.245c6.515.481 11.691.725 15.508.725v-4c-3.672 0-8.736-.236-15.213-.715l-.295 3.99zm15.508.725c.974 0 1.894-.346 2.614-1.066l-2.829-2.828a.417.417 0 01.132-.083c.062-.025.097-.023.083-.023v4zm2.614-1.066c.719-.72 1.066-1.64 1.066-2.614h-4c0 .015-.002-.021.023-.083a.41.41 0 01.082-.131l2.829 2.828zm1.066-2.614v-1.68h-4v1.68h4zm-2-3.68h-10.32v4h10.32v-4zm-10.32 0c-1.745 0-2.946-.51-3.818-1.382l-2.829 2.828c1.752 1.752 4.039 2.554 6.647 2.554v-4zm-3.818-1.382c-.873-.873-1.382-2.074-1.382-3.818h-4c0 2.608.802 4.895 2.553 6.646l2.829-2.828zm-1.382-3.818v-1.68h-4v1.68h4zm0-1.68c0-1.744.509-2.945 1.382-3.818l-2.829-2.828c-1.751 1.751-2.553 4.038-2.553 6.646h4zm1.382-3.818c.872-.872 2.073-1.382 3.818-1.382v-4c-2.608 0-4.895.802-6.647 2.554l2.829 2.828zm3.818-1.382h16.32v-4h-16.32v4zm14.32-2v6.24h4v-6.24h-4zm2 4.24h-13.44v4h13.44v-4zm-13.44 0c-.975 0-1.895.346-2.615 1.066l2.829 2.828a.417.417 0 01-.132.083c-.061.025-.097.023-.082.023v-4zm-2.615 1.066c-.719.72-1.065 1.64-1.065 2.614h4c0-.015.001.021-.023.083a.408.408 0 01-.083.131l-2.829-2.828zm-1.065 2.614c0 .975.346 1.895 1.065 2.614l2.829-2.828a.408.408 0 01.083.131c.024.062.023.098.023.083h-4zm1.065 2.614c.72.72 1.64 1.066 2.615 1.066v-4c-.015 0 .021-.002.082.023.064.026.11.061.132.083l-2.829 2.828zm2.615 1.066h8.64v-4h-8.64v4zm8.64 0c1.744 0 2.945.51 3.817 1.382l2.829-2.828c-1.752-1.752-4.039-2.554-6.646-2.554v4zm3.817 1.382c.873.873 1.383 2.074 1.383 3.818h4c0-2.608-.803-4.895-2.554-6.646l-2.829 2.828zm1.383 3.818v1.92h4v-1.92h-4zm0 1.92c0 1.744-.51 2.945-1.383 3.818l2.829 2.828c1.751-1.751 2.554-4.038 2.554-6.646h-4zm-1.383 3.818c-.872.872-2.073 1.382-3.817 1.382v4c2.607 0 4.894-.802 6.646-2.554l-2.829-2.828zm-3.817 1.382c-5.59 0-11.604-.316-18.044-.95l-.392 3.98c6.551.646 12.697.97 18.436.97v-4zm-16.24 1.04v-6.24h-4v6.24h4z" fill="#000" fill-opacity=".06"/></svg>