<svg width="33" height="35" fill="none" xmlns="http://www.w3.org/2000/svg"><path d="M0 27.706v2.919C0 33.038 5.543 35 12.375 35s12.375-1.962 12.375-4.375v-2.919c-2.662 1.99-7.528 2.919-12.375 2.919S2.662 29.695 0 27.706zM20.625 8.75C27.457 8.75 33 6.788 33 4.375 33 1.962 27.457 0 20.625 0S8.25 1.962 8.25 4.375c0 2.413 5.543 4.375 12.375 4.375zM0 20.535v3.527c0 2.414 5.543 4.375 12.375 4.375s12.375-1.961 12.375-4.375v-3.527c-2.662 2.324-7.535 3.527-12.375 3.527S2.662 22.86 0 20.535zm26.813.752C30.506 20.528 33 19.12 33 17.5v-2.919c-1.495 1.121-3.693 1.887-6.188 2.358v4.348zm-14.438-10.35C5.543 10.938 0 13.386 0 16.407c0 3.02 5.543 5.468 12.375 5.468s12.375-2.447 12.375-5.469c0-3.021-5.543-5.468-12.375-5.468zm14.135 3.85c3.867-.74 6.49-2.188 6.49-3.85V8.02c-2.288 1.715-6.22 2.638-10.358 2.857 1.902.978 3.3 2.29 3.868 3.91z" fill="#fff"/></svg>