<svg width="554" height="68" fill="none" xmlns="http://www.w3.org/2000/svg"><path d="M45.25 2.6l1.933-.515L46.788.6H45.25v2zM53.89 35l-1.931.515 3.88-.06L53.89 35zm7.56-32.4v-2h-1.586l-.36 1.546 1.947.454zm14.04 0l1.931.524L78.106.6h-2.615v2zM61.81 53v2h1.53l.401-1.476-1.93-.524zm-13.68 0l-1.927.532.405 1.468h1.523v-2zm-8.64-31.32l1.929-.532-1.928-6.989-1.928 6.99 1.928.531zM30.85 53v2h1.524l.405-1.468L30.85 53zm-13.68 0l-1.93.524.401 1.476h1.53v-2zM3.49 2.6v-2H.877l.685 2.524L3.49 2.6zm14.04 0l1.949-.454L19.118.6h-1.587v2zM25.09 35l-1.947.455 3.88.06L25.091 35zm8.64-32.4v-2h-1.536l-.396 1.485 1.933.515zm9.589.515l8.64 32.4 3.864-1.03-8.64-32.4-3.864 1.03zm12.52 32.34l7.56-32.4-3.896-.91-7.56 32.4 3.896.91zM61.45 4.6h14.04v-4H61.45v4zm12.11-2.524l-13.68 50.4 3.86 1.048 13.68-50.4-3.86-1.048zM61.81 51H48.13v4h13.68v-4zm-11.752 1.468l-8.64-31.32-3.856 1.064 8.64 31.32 3.856-1.064zm-12.496-31.32l-8.64 31.32 3.856 1.064 8.64-31.32-3.856-1.064zM30.851 51H17.17v4h13.68v-4zM19.1 52.476L5.42 2.076 1.56 3.124l13.68 50.4 3.86-1.048zM3.491 4.6h14.04v-4H3.49v4zm12.092-1.546l7.56 32.4 3.896-.909-7.56-32.4-3.896.91zm11.44 32.461l8.64-32.4-3.864-1.03-8.64 32.4 3.864 1.03zM33.731 4.6h11.52v-4H33.73v4zm57.274 10.96h-2v2.454l2.404-.495-.404-1.959zm23.328 1.512l-1.415 1.414 1.415-1.414zM117.285 53v2h2v-2h-2zm-12.6 0h-2v2h2v-2zm-10.08-28.872l-.248-1.985-.008.001.256 1.984zm-3.6.432l-.21-1.989-1.79.188v1.801h2zm0 28.44v2h2v-2h-2zm-12.6 0h-2v2h2v-2zm0-50.4v-2h-2v2h2zm12.6 0h2v-2h-2v2zm.404 14.919c4.566-.942 8.506-1.399 11.836-1.399v-4c-3.678 0-7.899.503-12.644 1.481l.808 3.918zm11.836-1.399h3.24v-4h-3.24v4zm3.24 0c2.832 0 4.905.838 6.433 2.366l2.829-2.828c-2.408-2.408-5.567-3.538-9.262-3.538v4zm6.433 2.366c1.529 1.529 2.367 3.602 2.367 6.434h4c0-3.696-1.131-6.855-3.538-9.262l-2.829 2.828zm2.367 6.434V53h4V24.92h-4zm2 26.08h-12.6v4h12.6v-4zm-10.6 2V26.36h-4V53h4zm0-26.64c0-1.215-.427-2.335-1.306-3.214l-2.829 2.828c.081.08.135.16.135.386h4zm-1.306-3.214c-.88-.88-2-1.306-3.214-1.306v4c.225 0 .305.054.385.134l2.829-2.828zm-3.214-1.306h-2.52v4h2.52v-4zm-2.52 0c-1.893 0-3.657.1-5.288.303l.496 3.97c1.44-.18 3.036-.273 4.792-.273v-4zm-5.296.304c-1.481.192-2.664.333-3.554.427l.42 3.978c.933-.098 2.15-.244 3.646-.437l-.512-3.968zm-5.344 2.416V53h4V24.56h-4zm2 26.44h-12.6v4h12.6v-4zm-10.6 2V2.6h-4V53h4zm-2-48.4h12.6v-4h-12.6v4zm10.6-2v12.96h4V2.6h-4zm35.471 62.64h-2v1.757l1.743.226.257-1.983zm0-9.36v-2h-2v2h2zm10.008-1.512l-1.736-.992-.018.032-.017.032 1.771.928zm-.288-4.248l-1.845.772.002.004 1.843-.776zm-14.76-35.28v-2h-3.004l1.159 2.772 1.845-.772zm13.32 0l1.877-.69-.481-1.31h-1.396v2zm9 24.48l-1.877.69 2.042 5.554 1.746-5.654-1.911-.59zm7.56-24.48v-2h-1.475l-.436 1.41 1.911.59zm13.32 0l1.88.684.976-2.684h-2.856v2zm-14.4 39.6l1.878.69.002-.007-1.88-.683zm-5.4 8.568l-1.312-1.51-.009.009-.009.008 1.33 1.493zm-9 .952c-2.428 0-5.456-.23-9.102-.703l-.515 3.966c3.746.487 6.958.737 9.617.737v-4zm-7.36 1.28v-9.36h-4v9.36h4zm-2-7.36h6.48v-4h-6.48v4zm6.48 0c2.086 0 4.249-.578 5.3-2.584l-3.543-1.856c-.024.046-.074.13-.295.224-.256.11-.714.216-1.462.216v4zm5.265-2.52c1.049-1.835.662-4.014-.181-6.016l-3.687 1.552c.693 1.645.498 2.3.395 2.48l3.473 1.984zm-.18-6.012l-14.76-35.28-3.69 1.544 14.76 35.28 3.69-1.544zM119.436 16.84h13.32v-4h-13.32v4zm11.443-1.31l9 24.48 3.754-1.38-9-24.48-3.754 1.38zm12.788 24.38l7.56-24.48-3.822-1.18-7.56 24.48 3.822 1.18zm5.649-23.07h13.32v-4h-13.32v4zm11.441-2.684l-14.4 39.6 3.759 1.367 14.4-39.6-3.759-1.367zm-14.398 39.595c-1.318 3.59-2.96 6.117-4.835 7.748l2.625 3.018c2.541-2.21 4.499-5.394 5.965-9.388l-3.755-1.378zm-4.853 7.764c-1.748 1.558-4.226 2.445-7.67 2.445v4c4.14 0 7.663-1.08 10.331-3.459l-2.661-2.986zm78.739-9.235l.212 1.989 1.788-.191V52.28h-2zm-31.608-1.512l-1.415 1.414 1.415-1.414zm.072-32.832l1.414 1.414-1.414-1.414zm31.536-3.096h2v-2h-2v2zm0 9.72v2h2v-2h-2zm0 18.36h2v-2.174l-2.166.18.166 1.994zm-.213 7.371c-8.926.955-16.772 1.429-23.547 1.429v4c6.953 0 14.946-.486 23.972-1.451l-.425-3.978zm-23.547 1.429c-2.833 0-4.906-.838-6.434-2.366l-2.829 2.828c2.408 2.408 5.567 3.538 9.263 3.538v-4zm-6.434-2.366c-1.529-1.529-2.366-3.602-2.366-6.434h-4c0 3.696 1.13 6.855 3.537 9.262l2.829-2.828zm-2.366-6.434V26.36h-4v16.56h4zm0-16.56c0-3.216.889-5.461 2.438-7.01l-2.829-2.828c-2.483 2.483-3.609 5.854-3.609 9.838h4zm2.438-7.01c1.605-1.605 3.881-2.51 7.082-2.51v-4c-3.999 0-7.388 1.16-9.911 3.682l2.829 2.828zm7.082-2.51h23.04v-4h-23.04v4zm21.04-2v9.72h4v-9.72h-4zm2 7.72h-19.08v4h19.08v-4zm-19.08 0c-1.269 0-2.587.318-3.575 1.306-.987.987-1.305 2.306-1.305 3.574h4c0-.32.04-.517.077-.628a.503.503 0 01.057-.118l.02-.014a.5.5 0 01.098-.043c.11-.036.308-.077.628-.077v-4zm-4.88 4.88v14.04h4V27.44h-4zm0 14.04c0 1.215.426 2.335 1.305 3.214l2.829-2.828c-.081-.08-.134-.16-.134-.386h-4zm1.305 3.214c.88.88 2 1.306 3.215 1.306v-4c-.226 0-.306-.054-.386-.134l-2.829 2.828zM200.805 46c4.406 0 10.954-.366 19.606-1.087l-.332-3.986c-8.628.719-15.041 1.073-19.274 1.073v4zm17.44-3.08v9.36h4v-9.36h-4zm20.346-27.36h-2v2.454l2.404-.495-.404-1.959zm23.328 1.512l-1.415 1.414 1.415-1.414zM264.871 53v2h2v-2h-2zm-12.6 0h-2v2h2v-2zm-10.08-28.872l-.248-1.985-.008.001.256 1.984zm-3.6.432l-.21-1.989-1.79.188v1.801h2zm0 28.44v2h2v-2h-2zm-12.6 0h-2v2h2v-2zm0-50.4v-2h-2v2h2zm12.6 0h2v-2h-2v2zm.404 14.919c4.566-.942 8.506-1.399 11.836-1.399v-4c-3.678 0-7.899.503-12.644 1.481l.808 3.918zm11.836-1.399h3.24v-4h-3.24v4zm3.24 0c2.832 0 4.905.838 6.433 2.366l2.829-2.828c-2.408-2.408-5.567-3.538-9.262-3.538v4zm6.433 2.366c1.529 1.529 2.367 3.602 2.367 6.434h4c0-3.696-1.131-6.855-3.538-9.262l-2.829 2.828zm2.367 6.434V53h4V24.92h-4zm2 26.08h-12.6v4h12.6v-4zm-10.6 2V26.36h-4V53h4zm0-26.64c0-1.215-.427-2.335-1.306-3.214l-2.829 2.828c.081.08.135.16.135.386h4zm-1.306-3.214c-.88-.88-2-1.306-3.214-1.306v4c.225 0 .305.054.385.134l2.829-2.828zm-3.214-1.306h-2.52v4h2.52v-4zm-2.52 0c-1.893 0-3.657.1-5.288.303l.496 3.97a38.78 38.78 0 014.792-.273v-4zm-5.296.304a160.02 160.02 0 01-3.554.427l.419 3.978a164.3 164.3 0 003.647-.437l-.512-3.968zm-5.344 2.416V53h4V24.56h-4zm2 26.44h-12.6v4h12.6v-4zm-10.6 2V2.6h-4V53h4zm-2-48.4h12.6v-4h-12.6v4zm10.6-2v12.96h4V2.6h-4zm70.535 48.096l1.414 1.414-1.414-1.414zm-33.48 0l-1.431 1.398.017.016.017.017 1.397-1.431zm0-33.48l1.414 1.414-1.414-1.414zm33.48 0l-1.431 1.397.017.017.017.017 1.397-1.431zm1.096 24.984c0 3.2-.905 5.476-2.51 7.082l2.828 2.828c2.523-2.523 3.682-5.91 3.682-9.91h-4zm-2.51 7.082c-1.549 1.548-3.794 2.438-7.01 2.438v4c3.984 0 7.355-1.126 9.838-3.61l-2.828-2.828zm-7.01 2.438h-16.56v4h16.56v-4zm-16.56 0c-3.214 0-5.495-.889-7.098-2.455l-2.795 2.862c2.525 2.466 5.907 3.593 9.893 3.593v-4zm-7.065-2.422c-1.566-1.602-2.455-3.884-2.455-7.098h-4c0 3.986 1.127 7.368 3.593 9.893l2.862-2.795zm-2.455-7.098V25.64h-4V42.2h4zm0-16.56c0-3.216.89-5.461 2.438-7.01l-2.828-2.828c-2.483 2.483-3.61 5.854-3.61 9.838h4zm2.438-7.01c1.606-1.605 3.881-2.51 7.082-2.51v-4c-3.999 0-7.387 1.16-9.91 3.682l2.828 2.828zm7.082-2.51h16.56v-4h-16.56v4zm16.56 0c3.203 0 5.442.905 6.993 2.493l2.862-2.794c-2.481-2.54-5.858-3.699-9.855-3.699v4zm7.027 2.527c1.588 1.55 2.493 3.79 2.493 6.993h4c0-3.997-1.158-7.374-3.698-9.855l-2.795 2.862zm2.493 6.993V42.2h4V25.64h-4zm-8.6 1.08c0-1.268-.318-2.587-1.306-3.574-.987-.988-2.306-1.306-3.574-1.306v4c.319 0 .517.04.628.077a.5.5 0 01.098.043.093.093 0 01.02.014.503.503 0 01.057.118c.037.11.077.309.077.628h4zm-4.88-4.88h-8.64v4h8.64v-4zm-8.64 0c-1.268 0-2.587.318-3.574 1.306-.987.987-1.306 2.306-1.306 3.574h4c0-.32.041-.517.078-.627a.462.462 0 01.042-.099l.014-.02c.001 0 .006-.006.02-.014a.52.52 0 01.099-.043 2.06 2.06 0 01.627-.077v-4zm-4.88 4.88v14.4h4v-14.4h-4zm0 14.4c0 1.268.319 2.587 1.306 3.574.987.988 2.306 1.306 3.574 1.306v-4c-.319 0-.517-.04-.627-.077a.52.52 0 01-.099-.043l-.02-.014-.014-.02a.462.462 0 01-.042-.098c-.037-.11-.078-.309-.078-.628h-4zm4.88 4.88h8.64v-4h-8.64v4zm8.64 0c1.268 0 2.587-.318 3.574-1.306.988-.987 1.306-2.306 1.306-3.574h-4c0 .32-.04.517-.077.628a.503.503 0 01-.057.118l-.02.014a.5.5 0 01-.098.043 2.043 2.043 0 01-.628.077v4zm4.88-4.88v-14.4h-4v14.4h4zm52.856 9.576l1.414 1.414-1.414-1.414zm-33.48 0l-1.431 1.398.016.016.017.017 1.398-1.431zm0-33.48l1.414 1.414-1.414-1.414zm33.48 0l-1.431 1.397.016.017.017.017 1.398-1.431zm1.096 24.984c0 3.2-.905 5.476-2.51 7.082l2.828 2.828c2.523-2.523 3.682-5.91 3.682-9.91h-4zm-2.51 7.082c-1.549 1.548-3.794 2.438-7.01 2.438v4c3.983 0 7.355-1.126 9.838-3.61l-2.828-2.828zm-7.01 2.438h-16.56v4h16.56v-4zm-16.56 0c-3.214 0-5.496-.889-7.099-2.455l-2.795 2.862c2.525 2.466 5.908 3.593 9.894 3.593v-4zm-7.065-2.422c-1.566-1.602-2.455-3.884-2.455-7.098h-4c0 3.986 1.127 7.368 3.593 9.893l2.862-2.795zm-2.455-7.098V25.64h-4V42.2h4zm0-16.56c0-3.216.889-5.461 2.438-7.01l-2.828-2.828c-2.484 2.483-3.61 5.854-3.61 9.838h4zm2.438-7.01c1.605-1.605 3.881-2.51 7.082-2.51v-4c-3.999 0-7.388 1.16-9.91 3.682l2.828 2.828zm7.082-2.51h16.56v-4h-16.56v4zm16.56 0c3.203 0 5.442.905 6.993 2.493l2.862-2.794c-2.481-2.54-5.858-3.699-9.855-3.699v4zm7.026 2.527c1.588 1.55 2.494 3.79 2.494 6.993h4c0-3.997-1.159-7.374-3.699-9.855l-2.795 2.862zm2.494 6.993V42.2h4V25.64h-4zm-8.6 1.08c0-1.268-.319-2.587-1.306-3.574-.987-.988-2.306-1.306-3.574-1.306v4c.319 0 .517.04.627.077a.52.52 0 01.099.043.093.093 0 01.02.014l.014.02a.462.462 0 01.042.099c.037.11.078.308.078.627h4zm-4.88-4.88h-8.64v4h8.64v-4zm-8.64 0c-1.269 0-2.587.318-3.574 1.306-.988.987-1.306 2.306-1.306 3.574h4c0-.32.04-.517.077-.627a.503.503 0 01.057-.119c.001 0 .006-.006.02-.014a.5.5 0 01.098-.043c.11-.036.308-.077.628-.077v-4zm-4.88 4.88v14.4h4v-14.4h-4zm0 14.4c0 1.268.318 2.587 1.306 3.574.987.988 2.305 1.306 3.574 1.306v-4c-.32 0-.518-.04-.628-.077a.5.5 0 01-.098-.043l-.02-.014a.503.503 0 01-.057-.118c-.037-.11-.077-.309-.077-.628h-4zm4.88 4.88h8.64v-4h-8.64v4zm8.64 0c1.268 0 2.587-.318 3.574-1.306.987-.987 1.306-2.306 1.306-3.574h-4c0 .32-.041.517-.078.628a.462.462 0 01-.042.098l-.014.02-.02.014a.52.52 0 01-.099.043 2.06 2.06 0 01-.627.077v4zm4.88-4.88v-14.4h-4v14.4h4zm15.631 1.8l.148-1.995-2.148-.158v2.153h2zm24.84.36l1.415 1.414-1.415-1.414zm.72-4.32h2v-2h-2v2zm-23.328-2.952l1.415-1.414-1.415 1.414zm0-18.216l1.415 1.414-1.415-1.414zm32.328-2.952h2v-2h-2v2zm0 9.36v2h2v-2h-2zm-21.96.72l1.415 1.414-1.415-1.414zm0 3.6l-1.414 1.414 1.414-1.414zm22.608 3.672l1.415-1.414-1.415 1.414zm0 18.576l1.415 1.414-1.415-1.414zm-35.208 1.512h-2v1.813l1.804.177.196-1.99zm-.147-7.365c9.763.721 17.499 1.085 23.187 1.085v-4c-5.544 0-13.167-.356-22.892-1.075l-.295 3.99zM383.645 46c1.215 0 2.335-.426 3.215-1.306l-2.829-2.828c-.08.08-.16.134-.386.134v4zm3.215-1.306c.879-.88 1.305-2 1.305-3.214h-4c0 .225-.053.305-.134.386l2.829 2.828zm1.305-3.214v-2.52h-4v2.52h4zm-2-4.52h-15.48v4h15.48v-4zm-15.48 0c-2.832 0-4.905-.838-6.433-2.366l-2.829 2.828c2.408 2.408 5.567 3.538 9.262 3.538v-4zm-6.433-2.366c-1.529-1.529-2.367-3.602-2.367-6.434h-4c0 3.696 1.131 6.855 3.538 9.262l2.829-2.828zm-2.367-6.434v-2.52h-4v2.52h4zm0-2.52c0-2.832.838-4.905 2.367-6.434l-2.829-2.828c-2.407 2.407-3.538 5.566-3.538 9.262h4zm2.367-6.434c1.528-1.528 3.601-2.366 6.433-2.366v-4c-3.695 0-6.854 1.13-9.262 3.538l2.829 2.828zm6.433-2.366h24.48v-4h-24.48v4zm22.48-2v9.36h4v-9.36h-4zm2 7.36h-20.16v4h20.16v-4zm-20.16 0c-1.214 0-2.334.426-3.214 1.306l2.829 2.828c.08-.08.16-.134.385-.134v-4zm-3.214 1.306c-.879.88-1.306 2-1.306 3.214h4c0-.225.054-.305.135-.386l-2.829-2.828zm-1.306 3.214c0 1.215.427 2.335 1.306 3.214l2.829-2.828c-.081-.08-.135-.16-.135-.386h-4zm1.306 3.214c.88.88 2 1.306 3.214 1.306v-4c-.225 0-.305-.054-.385-.134l-2.829 2.828zm3.214 1.306h12.96v-4h-12.96v4zm12.96 0c2.833 0 4.906.838 6.434 2.366l2.829-2.828c-2.408-2.408-5.567-3.538-9.263-3.538v4zm6.434 2.366c1.529 1.529 2.366 3.602 2.366 6.434h4c0-3.696-1.13-6.855-3.537-9.262l-2.829 2.828zm2.366 6.434v2.88h4v-2.88h-4zm0 2.88c0 2.832-.837 4.905-2.366 6.434l2.829 2.828c2.407-2.407 3.537-5.566 3.537-9.262h-4zm-2.366 6.434c-1.528 1.528-3.601 2.366-6.434 2.366v4c3.696 0 6.855-1.13 9.263-3.538l-2.829-2.828zm-6.434 2.366c-8.421 0-17.475-.476-27.164-1.43l-.392 3.98c9.8.966 18.986 1.45 27.556 1.45v-4zm-25.36.56v-9.36h-4v9.36h4zm53.086-22.32h-2v2h2v-2zm12.24 0v2h2v-2h-2zm11.16 22.32l.206 1.99 1.794-.187V52.28h-2zm-33.048-1.512l-1.414 1.414 1.414-1.414zm.072-33.552l1.414 1.414-1.414-1.414zm31.32 0l-1.431 1.397.017.017.016.017 1.398-1.431zm3.096 21.744v2h2v-2h-2zm-24.84 0v-2h-2v2h2zm.72 4.68l1.414-1.414-1.414 1.414zm22.68-.36h2v-2.163l-2.157.17.157 1.993zm-20.52-22.16c-1.268 0-2.587.318-3.574 1.306-.988.987-1.306 2.306-1.306 3.574h4c0-.32.041-.517.077-.628a.503.503 0 01.057-.118c.001 0 .006-.006.02-.014a.5.5 0 01.098-.043c.111-.036.309-.077.628-.077v-4zm-4.88 4.88v3.96h4V26h-4zm2 5.96h12.24v-4h-12.24v4zm14.24-2V26h-4v3.96h4zm0-3.96c0-1.268-.318-2.587-1.306-3.574-.987-.988-2.306-1.306-3.574-1.306v4c.319 0 .517.04.627.077a.49.49 0 01.099.043l.02.014a.503.503 0 01.057.118c.036.11.077.309.077.628h4zm-4.88-4.88h-6.48v4h6.48v-4zm13.834 29.17c-9.211.955-17.541 1.43-24.994 1.43v4c7.619 0 16.089-.485 25.406-1.45l-.412-3.98zm-24.994 1.43c-2.832 0-4.905-.838-6.434-2.366l-2.828 2.828c2.407 2.408 5.566 3.538 9.262 3.538v-4zm-6.434-2.366c-1.528-1.529-2.366-3.602-2.366-6.434h-4c0 3.696 1.13 6.855 3.538 9.262l2.828-2.828zm-2.366-6.434V25.64h-4v17.28h4zm0-17.28c0-3.216.89-5.461 2.438-7.01l-2.828-2.828c-2.484 2.483-3.61 5.854-3.61 9.838h4zm2.438-7.01c1.605-1.605 3.881-2.51 7.082-2.51v-4c-3.999 0-7.388 1.16-9.91 3.682l2.828 2.828zm7.082-2.51h14.4v-4h-14.4v4zm14.4 0c3.203 0 5.442.905 6.993 2.493l2.862-2.794c-2.481-2.54-5.858-3.699-9.855-3.699v4zm7.026 2.527c1.588 1.55 2.494 3.79 2.494 6.993h4c0-3.997-1.159-7.374-3.699-9.855l-2.795 2.862zm2.494 6.993v13.32h4V25.64h-4zm2 11.32h-24.84v4h24.84v-4zm-26.84 2v2.88h4v-2.88h-4zm0 2.88c0 1.215.426 2.335 1.306 3.214l2.828-2.828c-.08-.08-.134-.16-.134-.386h-4zm1.306 3.214c.879.88 1.999 1.306 3.214 1.306v-4c-.225 0-.305-.054-.386-.134l-2.828 2.828zm3.214 1.306c4.832 0 11.855-.365 21.037-1.086l-.314-3.988c-9.154.72-16.051 1.074-20.723 1.074v4zm18.88-3.08v9h4v-9h-4zm57.758-1.44l.572 1.916 1.428-.426v-1.49h-2zm0-27v-2h-2v2h2zm12.6 0h2v-2h-2v2zm0 38.16v2h2v-2h-2zm-11.16 0l-1.961.392.321 1.608h1.64v-2zm-.72-3.6l1.961-.392-.583-2.913-2.479 1.636 1.101 1.669zm-6.984 3.312l.549 1.923.013-.004.012-.003-.574-1.916zm-17.064-1.944l1.414-1.414-1.414 1.414zm-2.952-35.928v-2h-2v2h2zm12.6 0h2v-2h-2v2zm.72 27.72l1.414-1.414-1.414 1.414zm4.32 2.72c2.788 0 5.866-.525 9.212-1.524l-1.144-3.832c-3.086.92-5.768 1.356-8.068 1.356v4zm10.64-3.44v-27h-4v27h4zm-2-25h12.6v-4h-12.6v4zm10.6-2V53h4V14.84h-4zm2 36.16h-11.16v4h11.16v-4zm-9.199 1.608l-.72-3.6-3.922.784.72 3.6 3.922-.784zm-3.782-4.877c-2.107 1.389-4.259 2.405-6.458 3.065l1.149 3.832c2.601-.78 5.105-1.972 7.511-3.559l-2.202-3.339zm-6.433 3.058c-2.253.644-4.048.931-5.426.931v4c1.885 0 4.074-.385 6.525-1.085l-1.099-3.846zm-5.426.931h-3.24v4h3.24v-4zm-3.24 0c-2.833 0-4.906-.838-6.434-2.366l-2.828 2.828c2.407 2.408 5.566 3.538 9.262 3.538v-4zm-6.434-2.366c-1.528-1.529-2.366-3.602-2.366-6.434h-4c0 3.696 1.13 6.855 3.538 9.262l2.828-2.828zm-2.366-6.434V14.84h-4v28.08h4zm-2-26.08h12.6v-4h-12.6v4zm10.6-2v25.92h4V14.84h-4zm0 25.92c0 1.215.426 2.335 1.306 3.214l2.828-2.828c-.08-.08-.134-.16-.134-.386h-4zm1.306 3.214c.879.88 1.999 1.306 3.214 1.306v-4c-.226 0-.306-.054-.386-.134l-2.828 2.828zm3.214 1.306h2.52v-4h-2.52v4zm29.494-2.36l.148-1.995-2.148-.158v2.153h2zm24.84.36l1.415 1.414-1.415-1.414zm.72-4.32h2v-2h-2v2zm-23.328-2.952l1.415-1.414-1.415 1.414zm0-18.216l1.415 1.414-1.415-1.414zm32.328-2.952h2v-2h-2v2zm0 9.36v2h2v-2h-2zm-21.96.72l1.415 1.414-1.415-1.414zm0 3.6l-1.414 1.414 1.414-1.414zm22.608 3.672l1.415-1.414-1.415 1.414zm0 18.576l1.415 1.414-1.415-1.414zm-35.208 1.512h-2v1.813l1.804.177.196-1.99zm-.147-7.365c9.763.721 17.499 1.085 23.187 1.085v-4c-5.543 0-13.167-.356-22.892-1.075l-.295 3.99zM536.223 46c1.215 0 2.335-.426 3.215-1.306l-2.829-2.828c-.08.08-.16.134-.386.134v4zm3.215-1.306c.879-.88 1.305-2 1.305-3.214h-4c0 .225-.053.305-.134.386l2.829 2.828zm1.305-3.214v-2.52h-4v2.52h4zm-2-4.52h-15.48v4h15.48v-4zm-15.48 0c-2.832 0-4.905-.838-6.433-2.366l-2.829 2.828c2.408 2.408 5.567 3.538 9.262 3.538v-4zm-6.433-2.366c-1.529-1.529-2.367-3.602-2.367-6.434h-4c0 3.696 1.131 6.855 3.538 9.262l2.829-2.828zm-2.367-6.434v-2.52h-4v2.52h4zm0-2.52c0-2.832.838-4.905 2.367-6.434l-2.829-2.828c-2.407 2.407-3.538 5.566-3.538 9.262h4zm2.367-6.434c1.528-1.528 3.601-2.366 6.433-2.366v-4c-3.695 0-6.854 1.13-9.262 3.538l2.829 2.828zm6.433-2.366h24.48v-4h-24.48v4zm22.48-2v9.36h4v-9.36h-4zm2 7.36h-20.16v4h20.16v-4zm-20.16 0c-1.214 0-2.334.426-3.214 1.306l2.829 2.828c.08-.08.16-.134.385-.134v-4zm-3.214 1.306c-.879.88-1.306 2-1.306 3.214h4c0-.225.054-.305.135-.386l-2.829-2.828zm-1.306 3.214c0 1.215.427 2.335 1.306 3.214l2.829-2.828c-.081-.08-.135-.16-.135-.386h-4zm1.306 3.214c.88.88 2 1.306 3.214 1.306v-4c-.225 0-.305-.054-.385-.134l-2.829 2.828zm3.214 1.306h12.96v-4h-12.96v4zm12.96 0c2.833 0 4.906.838 6.434 2.366l2.829-2.828c-2.408-2.408-5.567-3.538-9.263-3.538v4zm6.434 2.366c1.529 1.529 2.366 3.602 2.366 6.434h4c0-3.696-1.13-6.855-3.537-9.262l-2.829 2.828zm2.366 6.434v2.88h4v-2.88h-4zm0 2.88c0 2.832-.837 4.905-2.366 6.434l2.829 2.828c2.407-2.407 3.537-5.566 3.537-9.262h-4zm-2.366 6.434c-1.528 1.528-3.601 2.366-6.434 2.366v4c3.696 0 6.855-1.13 9.263-3.538l-2.829-2.828zm-6.434 2.366c-8.421 0-17.475-.476-27.163-1.43l-.393 3.98c9.8.966 18.986 1.45 27.556 1.45v-4zm-25.36.56v-9.36h-4v9.36h4z" fill="#000" fill-opacity=".06"/></svg>