<svg width="736" height="90" fill="none" xmlns="http://www.w3.org/2000/svg"><path d="M59.001 2.8l1.933-.515L60.538.8H59v2zM70.521 46l-1.932.515 3.88-.06L70.52 46zm10.08-43.2v-2h-1.587l-.36 1.546L80.6 2.8zm18.72 0l1.93.524.685-2.524h-2.615v2zM81.081 70v2h1.53l.4-1.476-1.93-.524zm-18.24 0l-1.928.532.405 1.468h1.523v-2zm-11.52-41.76l1.928-.532-1.928-6.989-1.928 6.99 1.928.531zM39.801 70v2h1.523l.405-1.468L39.801 70zm-18.24 0l-1.93.524.4 1.476h1.53v-2zM3.321 2.8v-2H.706l.685 2.524 1.93-.524zm18.72 0l1.948-.454L23.629.8H22.04v2zM32.121 46l-1.947.455 3.88.06L32.12 46zm11.52-43.2v-2h-1.536l-.396 1.485 1.932.515zm13.428.515l11.52 43.2 3.865-1.03-11.52-43.2-3.865 1.03zm15.4 43.14l10.08-43.2-3.895-.91-10.08 43.2 3.895.91zM80.6 4.8h18.72v-4H80.6v4zm16.79-2.524l-18.24 67.2 3.86 1.048 18.24-67.2-3.86-1.048zM81.081 68h-18.24v4h18.24v-4zM64.77 69.468l-11.52-41.76-3.856 1.064 11.52 41.76 3.856-1.064zm-15.376-41.76l-11.52 41.76 3.856 1.064 11.52-41.76-3.856-1.064zM39.801 68h-18.24v4h18.24v-4zm-16.31 1.476l-18.24-67.2-3.86 1.048 18.24 67.2 3.86-1.048zM3.321 4.8h18.72v-4H3.321v4zm16.773-1.546l10.08 43.2 3.895-.909-10.08-43.2-3.895.91zm13.96 43.261l11.52-43.2-3.865-1.03-11.52 43.2 3.865 1.03zM43.64 4.8H59v-4H43.64v4zm76.365 15.28h-2v2.454l2.404-.495-.404-1.959zm31.104 2.016l-1.414 1.414 1.414-1.414zM155.046 70v2h2v-2h-2zm-16.8 0h-2v2h2v-2zm-13.44-38.496l-.248-1.985-.008.001.256 1.984zm-4.8.576l-.209-1.989-1.791.188v1.801h2zm0 37.92v2h2v-2h-2zm-16.8 0h-2v2h2v-2zm0-67.2v-2h-2v2h2zm16.8 0h2v-2h-2v2zm.404 19.239c6.119-1.262 11.418-1.879 15.916-1.879v-4c-4.846 0-10.426.663-16.724 1.961l.808 3.918zm15.916-1.879h4.32v-4h-4.32v4zm4.32 0c3.921 0 6.866 1.166 9.05 3.35l2.828-2.828c-3.063-3.064-7.094-4.522-11.878-4.522v4zm9.05 3.35c2.184 2.185 3.35 5.13 3.35 9.05h4c0-4.784-1.458-8.815-4.522-11.878l-2.828 2.828zm3.35 9.05V70h4V32.56h-4zm2 35.44h-16.8v4h16.8v-4zm-14.8 2V34.48h-4V70h4zm0-35.52c0-1.455-.506-2.775-1.546-3.814l-2.828 2.828c.24.24.374.52.374.986h4zm-1.546-3.814c-1.039-1.04-2.359-1.546-3.814-1.546v4c.466 0 .746.134.986.374l2.828-2.828zm-3.814-1.546h-3.36v4h3.36v-4zm-3.36 0c-2.501 0-4.825.131-6.968.4l.496 3.969c1.953-.244 4.109-.369 6.472-.369v-4zm-6.976.4c-1.977.256-3.559.445-4.753.571l.419 3.978c1.238-.13 2.855-.325 4.846-.581l-.512-3.968zm-6.544 2.56V70h4V32.08h-4zm2 35.92h-16.8v4h16.8v-4zm-14.8 2V2.8h-4V70h4zm-2-65.2h16.8v-4h-16.8v4zm14.8-2v17.28h4V2.8h-4zm46.629 83.52h-2v1.757l1.742.226.258-1.983zm0-12.48v-2h-2v2h2zm13.344-2.016l-1.736-.992-.019.032-.017.032 1.772.928zm-.384-5.664l-1.845.772.002.004 1.843-.776zm-19.68-47.04v-2h-3.005l1.16 2.772 1.845-.772zm17.76 0l1.877-.69-.481-1.31h-1.396v2zm12 32.64l-1.877.69 2.042 5.554 1.746-5.654-1.911-.59zm10.08-32.64v-2h-1.476l-.435 1.41 1.911.59zm17.76 0l1.88.683.975-2.683h-2.855v2zm-19.2 52.8l1.878.69.002-.007-1.88-.683zm-7.2 11.424l-1.312-1.51-.01.009-.009.008 1.331 1.493zm-12 1.936c-3.276 0-7.344-.31-12.222-.943l-.516 3.966c4.978.647 9.23.977 12.738.977v-4zm-10.48 1.04V73.84h-4v12.48h4zm-2-10.48h8.64v-4h-8.64v4zm8.64 0c2.693 0 5.249-.746 6.476-3.088l-3.544-1.856c-.181.346-.761.944-2.932.944v4zm6.44-3.024c1.241-2.171.822-4.822-.277-7.432l-3.686 1.552c.949 2.253.786 3.38.491 3.896l3.472 1.984zm-.275-7.428l-19.68-47.04-3.69 1.544 19.68 47.04 3.69-1.544zM157.915 21.12h17.76v-4h-17.76v4zm15.883-1.31l12 32.64 3.754-1.38-12-32.64-3.754 1.38zm15.788 32.54l10.08-32.64-3.822-1.18-10.08 32.64 3.822 1.18zm8.169-31.23h17.76v-4h-17.76v4zm15.88-2.684l-19.2 52.8 3.76 1.367 19.2-52.8-3.76-1.367zm-19.197 52.795c-1.782 4.854-4.024 8.333-6.635 10.604l2.624 3.018c3.277-2.85 5.835-6.986 7.765-12.244l-3.754-1.378zm-6.654 10.62c-2.483 2.214-5.961 3.429-10.669 3.429v4c5.404 0 9.926-1.409 13.331-4.443l-2.662-2.986zM292.326 69.04l.213 1.989 1.787-.191V69.04h-2zm-42.144-2.016l-1.414 1.414 1.414-1.414zm.096-43.776l1.414 1.414-1.414-1.414zm42.048-4.128h2v-2h-2v2zm0 12.96v2h2v-2h-2zm0 24.48h2v-2.174l-2.166.18.166 1.994zm-.212 10.491c-11.918 1.275-22.405 1.909-31.468 1.909v4c9.241 0 19.875-.646 31.893-1.931l-.425-3.978zm-31.468 1.909c-3.92 0-6.865-1.166-9.05-3.35l-2.828 2.828c3.064 3.064 7.095 4.522 11.878 4.522v-4zm-9.05-3.35c-2.184-2.185-3.35-5.13-3.35-9.05h-4c0 4.784 1.458 8.815 4.522 11.878l2.828-2.828zm-3.35-9.05V34.48h-4v22.08h4zm0-22.08c0-4.416 1.226-7.597 3.446-9.818l-2.828-2.828c-3.155 3.155-4.618 7.462-4.618 12.646h4zm3.446-9.818c2.294-2.293 5.513-3.542 9.914-3.542v-4c-5.199 0-9.531 1.503-12.742 4.714l2.828 2.828zm9.914-3.542h30.72v-4h-30.72v4zm28.72-2v12.96h4V19.12h-4zm2 10.96h-25.44v4h25.44v-4zm-25.44 0c-1.588 0-3.147.398-4.294 1.546-1.147 1.147-1.546 2.706-1.546 4.294h4c0-.972.242-1.333.374-1.466.133-.132.495-.374 1.466-.374v-4zm-5.84 5.84v18.72h4V35.92h-4zm0 18.72c0 1.455.506 2.775 1.546 3.814l2.828-2.828c-.24-.24-.374-.52-.374-.986h-4zm1.546 3.814c1.04 1.04 2.36 1.546 3.814 1.546v-4c-.465 0-.745-.134-.986-.374l-2.828 2.828zM266.406 60c5.847 0 14.554-.486 26.086-1.447l-.332-3.986C280.652 55.526 272.08 56 266.406 56v4zm23.92-3.44v12.48h4V56.56h-4zm26.462-36.48h-2v2.454l2.403-.495-.403-1.959zm31.104 2.016l-1.415 1.414 1.415-1.414zM351.828 70v2h2v-2h-2zm-16.8 0h-2v2h2v-2zm-13.44-38.496l-.249-1.985-.007.001.256 1.984zm-4.8.576l-.21-1.989-1.79.188v1.801h2zm0 37.92v2h2v-2h-2zm-16.8 0h-2v2h2v-2zm0-67.2v-2h-2v2h2zm16.8 0h2v-2h-2v2zm.403 19.239c6.119-1.262 11.418-1.879 15.917-1.879v-4c-4.846 0-10.427.663-16.724 1.961l.807 3.918zm15.917-1.879h4.32v-4h-4.32v4zm4.32 0c3.92 0 6.865 1.166 9.049 3.35l2.829-2.828c-3.064-3.064-7.095-4.522-11.878-4.522v4zm9.049 3.35c2.185 2.185 3.351 5.13 3.351 9.05h4c0-4.784-1.459-8.815-4.522-11.878l-2.829 2.828zm3.351 9.05V70h4V32.56h-4zm2 35.44h-16.8v4h16.8v-4zm-14.8 2V34.48h-4V70h4zm0-35.52c0-1.455-.507-2.775-1.546-3.814l-2.829 2.828c.241.24.375.52.375.986h4zm-1.546-3.814c-1.04-1.04-2.36-1.546-3.814-1.546v4c.465 0 .745.134.985.374l2.829-2.828zm-3.814-1.546h-3.36v4h3.36v-4zm-3.36 0c-2.501 0-4.825.131-6.969.4l.497 3.969c1.952-.244 4.108-.369 6.472-.369v-4zm-6.976.4c-1.977.256-3.56.445-4.754.571l.419 3.978c1.238-.13 2.855-.325 4.846-.581l-.511-3.968zm-6.544 2.56V70h4V32.08h-4zm2 35.92h-16.8v4h16.8v-4zm-14.8 2V2.8h-4V70h4zm-2-65.2h16.8v-4h-16.8v4zm14.8-2v17.28h4V2.8h-4zm93.38 64.128l1.414 1.414-1.414-1.414zm-44.64 0l-1.431 1.398.017.016.017.017 1.397-1.431zm0-44.64l1.414 1.414-1.414-1.414zm44.64 0l-1.43 1.398.016.016.017.017 1.397-1.431zm2.128 33.312c0 4.4-1.249 7.62-3.542 9.914l2.828 2.828c3.211-3.21 4.714-7.543 4.714-12.742h-4zm-3.542 9.914c-2.221 2.22-5.401 3.446-9.818 3.446v4c5.184 0 9.491-1.462 12.646-4.618l-2.828-2.828zm-9.818 3.446h-22.08v4h22.08v-4zm-22.08 0c-4.414 0-7.639-1.225-9.93-3.463l-2.795 2.862c3.213 3.138 7.539 4.601 12.725 4.601v-4zm-9.897-3.43c-2.238-2.29-3.463-5.516-3.463-9.93h-4c0 5.186 1.463 9.512 4.601 12.726l2.862-2.795zm-3.463-9.93V33.52h-4V55.6h4zm0-22.08c0-4.416 1.226-7.597 3.446-9.818l-2.828-2.828c-3.155 3.155-4.618 7.462-4.618 12.646h4zm3.446-9.818c2.294-2.293 5.513-3.542 9.914-3.542v-4c-5.199 0-9.531 1.503-12.742 4.714l2.828 2.828zm9.914-3.542h22.08v-4h-22.08v4zm22.08 0c4.403 0 7.578 1.25 9.802 3.526l2.861-2.796c-3.153-3.227-7.466-4.73-12.663-4.73v4zm9.835 3.559c2.276 2.223 3.525 5.398 3.525 9.801h4c0-5.197-1.502-9.51-4.73-12.663l-2.795 2.862zm3.525 9.801V55.6h4V33.52h-4zm-12.8 1.44c0-1.588-.398-3.147-1.546-4.294-1.147-1.148-2.705-1.546-4.294-1.546v4c.972 0 1.333.242 1.466.374.133.133.374.494.374 1.466h4zm-5.84-5.84h-11.52v4h11.52v-4zm-11.52 0c-1.588 0-3.147.398-4.294 1.546-1.147 1.147-1.546 2.706-1.546 4.294h4c0-.972.242-1.333.374-1.466.133-.132.495-.374 1.466-.374v-4zm-5.84 5.84v19.2h4v-19.2h-4zm0 19.2c0 1.588.399 3.147 1.546 4.294 1.147 1.148 2.706 1.546 4.294 1.546v-4c-.971 0-1.333-.242-1.466-.374-.132-.133-.374-.494-.374-1.466h-4zm5.84 5.84h11.52v-4h-11.52v4zm11.52 0c1.589 0 3.147-.398 4.294-1.546 1.148-1.147 1.546-2.706 1.546-4.294h-4c0 .972-.241 1.333-.374 1.466-.133.132-.494.374-1.466.374v4zm5.84-5.84v-19.2h-4v19.2h4zm71.141 12.768l1.414 1.414-1.414-1.414zm-44.64 0l-1.431 1.398.017.016.017.017 1.397-1.431zm0-44.64l1.414 1.414-1.414-1.414zm44.64 0l-1.431 1.398.017.016.017.017 1.397-1.431zm2.128 33.312c0 4.4-1.249 7.62-3.542 9.914l2.828 2.828c3.211-3.21 4.714-7.543 4.714-12.742h-4zm-3.542 9.914c-2.221 2.22-5.402 3.446-9.818 3.446v4c5.184 0 9.491-1.462 12.646-4.618l-2.828-2.828zm-9.818 3.446h-22.08v4h22.08v-4zm-22.08 0c-4.414 0-7.639-1.225-9.931-3.463L422.6 68.36c3.212 3.138 7.539 4.601 12.725 4.601v-4zm-9.897-3.43c-2.238-2.29-3.463-5.516-3.463-9.93h-4c0 5.186 1.463 9.512 4.601 12.726l2.862-2.795zm-3.463-9.93V33.52h-4V55.6h4zm0-22.08c0-4.416 1.226-7.597 3.446-9.818l-2.828-2.828c-3.156 3.155-4.618 7.462-4.618 12.646h4zm3.446-9.818c2.294-2.293 5.513-3.542 9.914-3.542v-4c-5.199 0-9.532 1.503-12.742 4.714l2.828 2.828zm9.914-3.542h22.08v-4h-22.08v4zm22.08 0c4.403 0 7.578 1.25 9.801 3.526l2.862-2.796c-3.153-3.227-7.466-4.73-12.663-4.73v4zm9.835 3.559c2.276 2.223 3.525 5.398 3.525 9.801h4c0-5.197-1.503-9.51-4.731-12.663l-2.794 2.862zm3.525 9.801V55.6h4V33.52h-4zm-12.8 1.44c0-1.588-.398-3.147-1.546-4.294-1.147-1.148-2.706-1.546-4.294-1.546v4c.972 0 1.333.242 1.466.374.132.133.374.494.374 1.466h4zm-5.84-5.84h-11.52v4h11.52v-4zm-11.52 0c-1.588 0-3.147.398-4.294 1.546-1.148 1.147-1.546 2.706-1.546 4.294h4c0-.972.242-1.333.374-1.466.133-.132.494-.374 1.466-.374v-4zm-5.84 5.84v19.2h4v-19.2h-4zm0 19.2c0 1.588.398 3.147 1.546 4.294 1.147 1.148 2.706 1.546 4.294 1.546v-4c-.972 0-1.333-.242-1.466-.374-.132-.133-.374-.494-.374-1.466h-4zm5.84 5.84h11.52v-4h-11.52v4zm11.52 0c1.588 0 3.147-.398 4.294-1.546 1.148-1.147 1.546-2.706 1.546-4.294h-4c0 .972-.242 1.333-.374 1.466-.133.132-.494.374-1.466.374v4zm5.84-5.84v-19.2h-4v19.2h4zm21.509 2.4l.147-1.995-2.147-.158v2.153h2zm33.12.48l1.414 1.414-1.414-1.414zm.96-5.76h2v-2h-2v2zm-31.104-3.936l1.414-1.414-1.414 1.414zm0-24.288l1.414 1.414-1.414-1.414zm43.104-3.936h2v-2h-2v2zm0 12.48v2h2v-2h-2zm-29.28.96l1.414 1.414-1.414-1.414zm0 4.8l-1.414 1.414 1.414-1.414zm30.144 4.896l1.414-1.414-1.414 1.414zm0 24.768l1.414 1.414-1.414-1.414zm-46.944 2.016h-2v1.813l1.804.177.196-1.99zm-.148-10.485c13.011.961 23.308 1.445 30.868 1.445v-4c-7.416 0-17.6-.476-30.573-1.435l-.295 3.99zM510.194 60c1.454 0 2.774-.506 3.814-1.546l-2.828-2.828c-.241.24-.521.374-.986.374v4zm3.814-1.546c1.04-1.04 1.546-2.36 1.546-3.814h-4c0 .465-.134.745-.374.986l2.828 2.828zm1.546-3.814v-3.36h-4v3.36h4zm-2-5.36h-20.64v4h20.64v-4zm-20.64 0c-3.921 0-6.866-1.166-9.05-3.35l-2.828 2.828c3.063 3.064 7.094 4.522 11.878 4.522v-4zm-9.05-3.35c-2.184-2.185-3.35-5.13-3.35-9.05h-4c0 4.784 1.458 8.815 4.522 11.878l2.828-2.828zm-3.35-9.05v-3.36h-4v3.36h4zm0-3.36c0-3.92 1.166-6.865 3.35-9.05l-2.828-2.828c-3.064 3.063-4.522 7.094-4.522 11.878h4zm3.35-9.05c2.184-2.184 5.129-3.35 9.05-3.35v-4c-4.784 0-8.815 1.458-11.878 4.522l2.828 2.828zm9.05-3.35h32.64v-4h-32.64v4zm30.64-2V31.6h4V19.12h-4zm2 10.48h-26.88v4h26.88v-4zm-26.88 0c-1.455 0-2.775.506-3.814 1.546l2.828 2.828c.24-.24.52-.374.986-.374v-4zm-3.814 1.546c-1.04 1.04-1.546 2.36-1.546 3.814h4c0-.465.134-.745.374-.986l-2.828-2.828zm-1.546 3.814c0 1.455.506 2.775 1.546 3.814l2.828-2.828c-.24-.24-.374-.52-.374-.986h-4zm1.546 3.814c1.039 1.04 2.359 1.546 3.814 1.546v-4c-.466 0-.746-.134-.986-.374l-2.828 2.828zm3.814 1.546h17.28v-4h-17.28v4zm17.28 0c3.92 0 6.865 1.166 9.05 3.35l2.828-2.828c-3.064-3.064-7.095-4.522-11.878-4.522v4zm9.05 3.35c2.184 2.185 3.35 5.13 3.35 9.05h4c0-4.784-1.458-8.815-4.522-11.878l-2.828 2.828zm3.35 9.05v3.84h4v-3.84h-4zm0 3.84c0 3.92-1.166 6.865-3.35 9.05l2.828 2.828c3.064-3.063 4.522-7.094 4.522-11.878h-4zm-3.35 9.05c-2.185 2.184-5.13 3.35-9.05 3.35v4c4.783 0 8.814-1.458 11.878-4.522l-2.828-2.828zm-9.05 3.35c-11.254 0-23.348-.636-36.284-1.91l-.392 3.98c13.047 1.286 25.273 1.93 36.676 1.93v-4zm-34.48.08V56.56h-4v12.48h4zm71.447-29.76h-2v2h2v-2zm16.32 0v2h2v-2h-2zm14.88 29.76l.206 1.99 1.794-.186V69.04h-2zm-44.064-2.016l-1.414 1.414 1.414-1.414zm.096-44.736l1.414 1.414-1.414-1.414zm41.76 0l-1.431 1.398.017.016.017.017 1.397-1.431zm4.128 28.992v2h2v-2h-2zm-33.12 0v-2h-2v2h2zm.96 6.24l1.414-1.414-1.414 1.414zm30.24-.48h2v-2.163l-2.156.17.156 1.993zm-27.36-28.88c-1.588 0-3.147.398-4.294 1.546-1.147 1.147-1.546 2.706-1.546 4.294h4c0-.972.242-1.333.374-1.466.133-.132.495-.374 1.466-.374v-4zm-5.84 5.84v5.28h4V34h-4zm2 7.28h16.32v-4h-16.32v4zm18.32-2V34h-4v5.28h4zm0-5.28c0-1.588-.398-3.147-1.546-4.294-1.147-1.148-2.705-1.546-4.294-1.546v4c.972 0 1.333.242 1.466.374.133.133.374.494.374 1.466h4zm-5.84-5.84h-8.64v4h8.64v-4zm18.514 38.89c-12.299 1.275-23.428 1.91-33.394 1.91v4c10.131 0 21.401-.645 33.806-1.93l-.412-3.98zm-33.394 1.91c-3.92 0-6.865-1.166-9.05-3.35l-2.828 2.828c3.064 3.064 7.095 4.522 11.878 4.522v-4zm-9.05-3.35c-2.184-2.185-3.35-5.13-3.35-9.05h-4c0 4.784 1.458 8.815 4.522 11.878l2.828-2.828zm-3.35-9.05V33.52h-4v23.04h4zm0-23.04c0-4.416 1.226-7.597 3.446-9.818l-2.828-2.828c-3.155 3.155-4.618 7.462-4.618 12.646h4zm3.446-9.818c2.294-2.293 5.513-3.542 9.914-3.542v-4c-5.199 0-9.531 1.503-12.742 4.714l2.828 2.828zm9.914-3.542h19.2v-4h-19.2v4zm19.2 0c4.403 0 7.578 1.25 9.801 3.526l2.862-2.796c-3.153-3.227-7.466-4.73-12.663-4.73v4zm9.835 3.559c2.276 2.223 3.525 5.398 3.525 9.801h4c0-5.197-1.502-9.51-4.73-12.663l-2.795 2.862zm3.525 9.801v17.76h4V33.52h-4zm2 15.76h-33.12v4h33.12v-4zm-35.12 2v3.84h4v-3.84h-4zm0 3.84c0 1.455.506 2.775 1.546 3.814l2.828-2.828c-.24-.24-.374-.52-.374-.986h-4zm1.546 3.814c1.04 1.04 2.36 1.546 3.814 1.546v-4c-.465 0-.745-.134-.986-.374l-2.828 2.828zm3.814 1.546c6.417 0 15.759-.485 27.997-1.446l-.313-3.988c-12.211.96-21.428 1.434-27.684 1.434v4zm25.84-3.44v12h4v-12h-4zm76.344-1.92l.572 1.916 1.428-.426v-1.49h-2zm0-36v-2h-2v2h2zm16.8 0h2v-2h-2v2zm0 50.88v2h2v-2h-2zm-14.88 0l-1.961.392.321 1.608h1.64v-2zm-.96-4.8l1.961-.392-.582-2.913-2.48 1.636 1.101 1.669zm-9.312 4.416l.549 1.923.013-.004.013-.003-.575-1.916zm-22.752-2.592l1.414-1.414-1.414 1.414zm-3.936-47.904v-2h-2v2h2zm16.8 0h2v-2h-2v2zm.96 36.96l1.414-1.414-1.414 1.414zm5.76 2.96c3.636 0 7.674-.685 12.092-2.004l-1.144-3.832c-4.158 1.24-7.8 1.836-10.948 1.836v4zm13.52-3.92v-36h-4v36h4zm-2-34h16.8v-4h-16.8v4zm14.8-2V70h4V19.12h-4zm2 48.88h-14.88v4h14.88v-4zm-12.919 1.608l-.96-4.8-3.922.784.96 4.8 3.922-.784zm-4.022-6.078c-2.858 1.886-5.786 3.27-8.786 4.17l1.15 3.832c3.4-1.02 6.68-2.58 9.838-4.662l-2.202-3.34zm-8.76 4.163c-3.037.868-5.497 1.267-7.419 1.267v4c2.43 0 5.282-.497 8.517-1.421l-1.098-3.846zm-7.419 1.267h-4.32v4h4.32v-4zm-4.32 0c-3.92 0-6.865-1.166-9.05-3.35l-2.828 2.828c3.063 3.064 7.094 4.522 11.878 4.522v-4zm-9.05-3.35c-2.184-2.185-3.35-5.13-3.35-9.05h-4c0 4.784 1.458 8.815 4.522 11.878l2.828-2.828zm-3.35-9.05V19.12h-4v37.44h4zm-2-35.44h16.8v-4h-16.8v4zm14.8-2v34.56h4V19.12h-4zm0 34.56c0 1.455.506 2.775 1.546 3.814l2.828-2.828c-.24-.24-.374-.52-.374-.986h-4zm1.546 3.814c1.039 1.04 2.359 1.546 3.814 1.546v-4c-.465 0-.745-.134-.986-.374l-2.828 2.828zm3.814 1.546h3.36v-4h-3.36v4zm39.326-2.48l.148-1.995-2.148-.158v2.153h2zm33.12.48l1.414 1.414-1.414-1.414zm.96-5.76h2v-2h-2v2zm-31.104-3.936l1.414-1.414-1.414 1.414zm0-24.288l1.414 1.414-1.414-1.414zm43.104-3.936h2v-2h-2v2zm0 12.48v2h2v-2h-2zm-29.28.96l1.414 1.414-1.414-1.414zm0 4.8l-1.414 1.414 1.414-1.414zm30.144 4.896l1.414-1.414-1.414 1.414zm0 24.768l1.414 1.414-1.414-1.414zm-46.944 2.016h-2v1.813l1.804.177.196-1.99zm-.147-10.485c13.011.961 23.307 1.445 30.867 1.445v-4c-7.416 0-17.599-.476-30.572-1.435l-.295 3.99zM713.631 60c1.455 0 2.775-.506 3.814-1.546l-2.828-2.828c-.24.24-.52.374-.986.374v4zm3.814-1.546c1.04-1.04 1.546-2.36 1.546-3.814h-4c0 .465-.134.745-.374.986l2.828 2.828zm1.546-3.814v-3.36h-4v3.36h4zm-2-5.36h-20.64v4h20.64v-4zm-20.64 0c-3.92 0-6.865-1.166-9.05-3.35l-2.828 2.828c3.064 3.064 7.095 4.522 11.878 4.522v-4zm-9.05-3.35c-2.184-2.185-3.35-5.13-3.35-9.05h-4c0 4.784 1.458 8.815 4.522 11.878l2.828-2.828zm-3.35-9.05v-3.36h-4v3.36h4zm0-3.36c0-3.92 1.166-6.865 3.35-9.05l-2.828-2.828c-3.064 3.063-4.522 7.094-4.522 11.878h4zm3.35-9.05c2.185-2.184 5.13-3.35 9.05-3.35v-4c-4.783 0-8.814 1.458-11.878 4.522l2.828 2.828zm9.05-3.35h32.64v-4h-32.64v4zm30.64-2V31.6h4V19.12h-4zm2 10.48h-26.88v4h26.88v-4zm-26.88 0c-1.454 0-2.774.506-3.814 1.546l2.828 2.828c.241-.24.521-.374.986-.374v-4zm-3.814 1.546c-1.04 1.04-1.546 2.36-1.546 3.814h4c0-.465.134-.745.374-.986l-2.828-2.828zm-1.546 3.814c0 1.455.506 2.775 1.546 3.814l2.828-2.828c-.24-.24-.374-.52-.374-.986h-4zm1.546 3.814c1.04 1.04 2.36 1.546 3.814 1.546v-4c-.465 0-.745-.134-.986-.374l-2.828 2.828zm3.814 1.546h17.28v-4h-17.28v4zm17.28 0c3.921 0 6.866 1.166 9.05 3.35l2.828-2.828c-3.063-3.064-7.094-4.522-11.878-4.522v4zm9.05 3.35c2.184 2.185 3.35 5.13 3.35 9.05h4c0-4.784-1.458-8.815-4.522-11.878l-2.828 2.828zm3.35 9.05v3.84h4v-3.84h-4zm0 3.84c0 3.92-1.166 6.865-3.35 9.05l2.828 2.828c3.064-3.063 4.522-7.094 4.522-11.878h-4zm-3.35 9.05c-2.184 2.184-5.129 3.35-9.05 3.35v4c4.784 0 8.815-1.458 11.878-4.522l-2.828-2.828zm-9.05 3.35c-11.253 0-23.347-.636-36.284-1.91l-.392 3.98c13.048 1.286 25.274 1.93 36.676 1.93v-4zm-34.48.08V56.56h-4v12.48h4z" fill="#000" fill-opacity=".06"/></svg>