<svg width="188" height="26" fill="none" xmlns="http://www.w3.org/2000/svg"><path d="M16.75 2.2l1.933-.515L18.287.2H16.75v2zM19.63 13l-1.932.515 3.88-.06L19.63 13zm2.52-10.8v-2h-1.587l-.36 1.546 1.947.454zm4.68 0l1.93.524L29.445.2H26.83v2zM22.27 19v2h1.53l.4-1.476L22.27 19zm-4.56 0l-1.928.532.405 1.468h1.523v-2zM14.83 8.56l1.928-.532L14.83 1.04l-1.928 6.99 1.928.531zM11.95 19v2h1.523l.405-1.468L11.95 19zm-4.56 0l-1.93.524.4 1.476h1.53v-2zM2.83 2.2v-2H.215L.9 2.724 2.83 2.2zm4.68 0l1.948-.454L9.098.2H7.51v2zM10.03 13l-1.947.454 3.88.061L10.03 13zm2.88-10.8v-2h-1.536l-.396 1.485 1.932.515zm1.908.515l2.88 10.8 3.865-1.03-2.88-10.8-3.865 1.03zm6.76 10.74l2.52-10.8-3.895-.91-2.52 10.8 3.895.91zM22.15 4.2h4.68v-4h-4.68v4zm2.75-2.524l-4.56 16.8 3.86 1.048 4.56-16.8-3.86-1.048zM22.27 17h-4.56v4h4.56v-4zm-2.632 1.468l-2.88-10.44-3.856 1.064 2.88 10.44 3.856-1.064zm-6.736-10.44l-2.88 10.44 3.856 1.064 2.88-10.44-3.856-1.064zM11.95 17H7.39v4h4.56v-4zm-2.63 1.476l-4.56-16.8L.9 2.724l4.56 16.8 3.86-1.048zM2.83 4.2h4.68v-4H2.83v4zm2.733-1.546l2.52 10.8 3.895-.909-2.52-10.8-3.895.91zm6.4 10.861l2.88-10.8-3.865-1.03-2.88 10.8 3.865 1.03zM12.91 4.2h3.84v-4h-3.84v4zm19.092 2.32h-2v2.454l2.403-.495-.403-1.959zm7.776.504l-1.415 1.414 1.415-1.414zM40.762 19v2h2v-2h-2zm-4.2 0h-2v2h2v-2zm-3.36-9.624l-.248-1.985-.008.001.256 1.984zm-1.2.144l-.21-1.989-1.79.188V9.52h2zm0 9.48v2h2v-2h-2zm-4.2 0h-2v2h2v-2zm0-16.8v-2h-2v2h2zm4.2 0h2v-2h-2v2zm.403 6.279c1.463-.302 2.682-.439 3.677-.439v-4c-1.342 0-2.843.183-4.484.521l.807 3.918zm3.677-.439h1.08v-4h-1.08v4zm1.08 0c.656 0 .985.182 1.201.398l2.829-2.828c-1.096-1.096-2.51-1.57-4.03-1.57v4zm1.201.398c.217.217.399.546.399 1.202h4c0-1.52-.475-2.935-1.57-4.03l-2.829 2.828zm.399 1.202V19h4V9.64h-4zm2 7.36h-4.2v4h4.2v-4zm-2.2 2v-8.88h-4V19h4zm0-8.88c0-.735-.267-1.455-.826-2.014l-2.829 2.828a1.202 1.202 0 01-.345-.814h4zm-.826-2.014a2.813 2.813 0 00-2.014-.826v4a1.203 1.203 0 01-.814-.346l2.828-2.828zm-2.014-.826h-.84v4h.84v-4zm-.84 0c-.677 0-1.321.036-1.928.111l.496 3.97a11.41 11.41 0 011.432-.081v-4zm-1.936.112c-.49.064-.872.11-1.154.139l.419 3.978c.326-.034.743-.085 1.247-.15l-.512-3.967zM30.002 9.52V19h4V9.52h-4zm2 7.48h-4.2v4h4.2v-4zm-2.2 2V2.2h-4V19h4zm-2-14.8h4.2v-4h-4.2v4zm2.2-2v4.32h4V2.2h-4zm13.157 20.88h-2v1.757l1.742.226.258-1.983zm0-3.12v-2h-2v2h2zm3.336-.504l-1.737-.992-.018.032-.017.032 1.772.928zm-.096-1.416l-1.845.772.002.004 1.843-.776zm-4.92-11.76v-2h-3.005l1.16 2.772 1.845-.772zm4.44 0l1.877-.69-.482-1.31H45.92v2zm3 8.16l-1.877.69 2.042 5.554 1.746-5.654-1.911-.59zm2.52-8.16v-2h-1.476l-.435 1.41 1.91.59zm4.44 0l1.88.683.975-2.683H55.88v2zm-4.8 13.2l1.877.69.002-.007-1.88-.683zm-1.8 2.856l-1.313-1.51-.009.009-.009.008 1.33 1.493zm-3-1.016c-.733 0-1.68-.07-2.863-.223l-.515 3.966c1.282.167 2.414.257 3.378.257v-4zm-1.12 1.76v-3.12h-4v3.12h4zm-2-1.12h2.16v-4h-2.16v4zm2.16 0c.87 0 2.249-.242 2.947-1.576l-3.543-1.856c.069-.13.162-.25.272-.348.108-.095.21-.152.286-.184.135-.058.178-.036.038-.036v4zm2.912-1.512c.665-1.163.342-2.398.011-3.184l-3.686 1.552c.073.175.067.222.063.17a.97.97 0 01.14-.522l3.472 1.984zm.013-3.18l-4.92-11.76-3.69 1.544 4.92 11.76 3.69-1.544zM41.479 8.28h4.44v-4h-4.44v4zm2.563-1.31l3 8.16 3.754-1.38-3-8.16-3.754 1.38zm6.788 8.06l2.52-8.16-3.822-1.18-2.52 8.16 3.822 1.18zm.609-6.75h4.44v-4h-4.44v4zm2.56-2.683l-4.8 13.2 3.76 1.366 4.8-13.2-3.76-1.366zM49.201 18.79c-.39 1.062-.832 1.685-1.235 2.036l2.625 3.018c1.07-.93 1.827-2.21 2.365-3.676l-3.755-1.378zm-1.253 2.052c-.276.246-.754.477-1.67.477v4c1.613 0 3.135-.425 4.331-1.491l-2.661-2.986zm27.134-2.083l.212 1.989 1.788-.191V18.76h-2zm-10.536-.504L63.13 19.67l1.415-1.414zm.024-10.944l1.414 1.414-1.414-1.414zM75.082 6.28h2v-2h-2v2zm0 3.24v2h2v-2h-2zm0 6.12h2v-2.174l-2.166.18.166 1.994zm-.213 1.131c-2.942.315-5.508.469-7.707.469v4c2.377 0 5.09-.166 8.132-.491l-.425-3.978zm-7.707.469c-.657 0-.986-.182-1.202-.398l-2.83 2.828c1.096 1.096 2.51 1.57 4.03 1.57v-4zm-1.202-.398c-.217-.217-.398-.546-.398-1.202h-4c0 1.52.474 2.935 1.57 4.03l2.828-2.828zm-.398-1.202v-5.52h-4v5.52h4zm0-5.52c0-.816.217-1.19.422-1.394l-2.829-2.828c-1.14 1.14-1.593 2.638-1.593 4.222h4zm.422-1.394c.23-.23.617-.446 1.418-.446v-4c-1.6 0-3.1.471-4.247 1.618l2.829 2.828zm1.418-.446h7.68v-4h-7.68v4zm5.68-2v3.24h4V6.28h-4zm2 1.24h-6.36v4h6.36v-4zm-6.36 0c-.629 0-1.467.158-2.135.826-.667.667-.825 1.506-.825 2.134h4s0 .083-.043.213a1.25 1.25 0 01-.303.481 1.251 1.251 0 01-.482.303c-.13.044-.212.043-.212.043v-4zm-2.96 2.96v4.68h4v-4.68h-4zm0 4.68c0 .735.266 1.455.825 2.014l2.829-2.828a1.2 1.2 0 01.346.814h-4zm.825 2.014c.56.56 1.28.826 2.015.826v-4a1.203 1.203 0 01.814.346l-2.829 2.828zm2.015.826c1.526 0 3.754-.126 6.646-.367l-.333-3.986c-2.868.239-4.96.353-6.313.353v4zm4.48-2.36v3.12h4v-3.12h-4zm8.115-9.12h-2v2.454L81.6 8.48l-.404-1.959zm7.776.504l-1.414 1.414 1.414-1.414zM89.957 19v2h2v-2h-2zm-4.2 0h-2v2h2v-2zm-3.36-9.624l-.248-1.985-.008.001.256 1.984zm-1.2.144l-.21-1.989-1.79.188V9.52h2zm0 9.48v2h2v-2h-2zm-4.2 0h-2v2h2v-2zm0-16.8v-2h-2v2h2zm4.2 0h2v-2h-2v2zm.404 6.279c1.463-.302 2.682-.439 3.676-.439v-4c-1.342 0-2.843.183-4.484.521l.808 3.918zm3.676-.439h1.08v-4h-1.08v4zm1.08 0c.656 0 .985.182 1.202.398l2.828-2.828c-1.096-1.096-2.51-1.57-4.03-1.57v4zm1.202.398c.216.217.398.546.398 1.202h4c0-1.52-.474-2.935-1.57-4.03L87.56 8.438zm.398 1.202V19h4V9.64h-4zm2 7.36h-4.2v4h4.2v-4zm-2.2 2v-8.88h-4V19h4zm0-8.88a2.81 2.81 0 00-.826-2.014l-2.828 2.828a1.202 1.202 0 01-.346-.814h4zm-.826-2.014a2.813 2.813 0 00-2.014-.826v4a1.201 1.201 0 01-.814-.346l2.828-2.828zm-2.014-.826h-.84v4h.84v-4zm-.84 0c-.677 0-1.32.036-1.928.111l.496 3.97c.417-.053.893-.081 1.432-.081v-4zm-1.936.112c-.489.064-.872.11-1.154.139l.42 3.978c.325-.034.743-.085 1.246-.15l-.512-3.967zM79.197 9.52V19h4V9.52h-4zm2 7.48h-4.2v4h4.2v-4zm-2.2 2V2.2h-4V19h4zm-2-14.8h4.2v-4h-4.2v4zm2.2-2v4.32h4V2.2h-4zm24.845 16.032l1.414 1.414-1.414-1.414zm-11.16 0l-1.43 1.398.016.016.017.017 1.397-1.431zm0-11.16l1.414 1.414-1.414-1.414zm11.16 0l-1.431 1.397.017.017.017.017 1.397-1.431zm-.968 8.328c0 .8-.217 1.188-.446 1.418l2.828 2.828c1.147-1.146 1.618-2.647 1.618-4.246h-4zm-.446 1.418c-.205.204-.578.422-1.394.422v4c1.584 0 3.083-.454 4.222-1.594l-2.828-2.828zm-1.394.422h-5.52v4h5.52v-4zm-5.52 0c-.814 0-1.207-.217-1.434-.439l-2.795 2.862c1.148 1.122 2.643 1.577 4.23 1.577v-4zm-1.401-.405c-.222-.227-.439-.621-.439-1.435h-4c0 1.586.455 3.08 1.577 4.23l2.862-2.796zm-.439-1.435V9.88h-4v5.52h4zm0-5.52c0-.816.218-1.19.422-1.394l-2.828-2.828c-1.14 1.14-1.594 2.638-1.594 4.222h4zm.422-1.394c.23-.23.617-.446 1.418-.446v-4c-1.6 0-3.1.471-4.246 1.618l2.828 2.828zm1.418-.446h5.52v-4h-5.52v4zm5.52 0c.803 0 1.17.217 1.377.43l2.862-2.795c-1.137-1.164-2.642-1.635-4.239-1.635v4zm1.411.463c.212.207.429.574.429 1.377h4c0-1.597-.47-3.102-1.634-4.239l-2.795 2.862zm.429 1.377v5.52h4V9.88h-4zm-.2.36c0-.628-.158-1.467-.826-2.134-.667-.668-1.506-.826-2.134-.826v4s-.083 0-.212-.043a1.252 1.252 0 01-.482-.303 1.25 1.25 0 01-.303-.481c-.043-.13-.043-.212-.043-.213h4zm-2.96-2.96h-2.88v4h2.88v-4zm-2.88 0c-.628 0-1.467.158-2.134.826-.668.667-.826 1.506-.826 2.134h4s0 .083-.043.213a1.25 1.25 0 01-.303.481 1.251 1.251 0 01-.481.303c-.13.044-.212.043-.213.043v-4zm-2.96 2.96v4.8h4v-4.8h-4zm0 4.8c0 .628.159 1.467.826 2.134.667.668 1.506.826 2.134.826v-4s.083 0 .212.043c.14.046.318.139.482.303.165.164.257.342.303.482.044.13.043.211.043.212h-4zm2.96 2.96h2.88v-4h-2.88v4zm2.88 0c.628 0 1.467-.158 2.134-.826.668-.667.826-1.506.826-2.134h-4s0-.083.043-.212a1.25 1.25 0 01.303-.482 1.23 1.23 0 01.482-.303c.13-.044.211-.043.212-.043v4zm2.96-2.96v-4.8h-4v4.8h4zm16.285 3.192l1.414 1.414-1.414-1.414zm-11.16 0l-1.431 1.398.017.016.017.017 1.397-1.431zm0-11.16l1.414 1.414-1.414-1.414zm11.16 0l-1.431 1.397.017.017.017.017 1.397-1.431zm-.968 8.328c0 .8-.217 1.188-.446 1.418l2.828 2.828c1.147-1.146 1.618-2.647 1.618-4.246h-4zm-.446 1.418c-.205.204-.577.422-1.394.422v4c1.584 0 3.083-.454 4.222-1.594l-2.828-2.828zm-1.394.422h-5.52v4h5.52v-4zm-5.52 0c-.814 0-1.207-.217-1.434-.439l-2.795 2.862c1.149 1.122 2.643 1.577 4.229 1.577v-4zm-1.401-.405c-.222-.227-.439-.621-.439-1.435h-4c0 1.586.455 3.08 1.577 4.23l2.862-2.796zm-.439-1.435V9.88h-4v5.52h4zm0-5.52c0-.816.218-1.19.422-1.394l-2.828-2.828c-1.139 1.14-1.594 2.638-1.594 4.222h4zm.422-1.394c.23-.23.617-.446 1.418-.446v-4c-1.599 0-3.099.471-4.246 1.618l2.828 2.828zm1.418-.446h5.52v-4h-5.52v4zm5.52 0c.803 0 1.17.217 1.377.43l2.862-2.795c-1.137-1.164-2.642-1.635-4.239-1.635v4zm1.411.463c.212.207.429.574.429 1.377h4c0-1.597-.47-3.102-1.634-4.239l-2.795 2.862zm.429 1.377v5.52h4V9.88h-4zm-.2.36c0-.628-.158-1.467-.826-2.134-.667-.668-1.505-.826-2.134-.826v4s-.082 0-.212-.043a1.245 1.245 0 01-.482-.303 1.248 1.248 0 01-.303-.481c-.043-.13-.043-.212-.043-.213h4zm-2.96-2.96h-2.88v4h2.88v-4zm-2.88 0c-.628 0-1.467.158-2.134.826-.667.667-.826 1.506-.826 2.134h4s.001.083-.042.213a1.25 1.25 0 01-.304.481 1.25 1.25 0 01-.481.303c-.13.044-.212.043-.213.043v-4zm-2.96 2.96v4.8h4v-4.8h-4zm0 4.8c0 .628.159 1.467.826 2.134.667.668 1.506.826 2.134.826v-4c.001 0 .083 0 .213.043.139.046.317.139.481.303.165.164.257.342.304.482.043.13.042.211.042.212h-4zm2.96 2.96h2.88v-4h-2.88v4zm2.88 0c.629 0 1.467-.158 2.134-.826.668-.667.826-1.506.826-2.134h-4s0-.083.043-.212c.046-.14.139-.318.303-.482a1.23 1.23 0 01.482-.303c.13-.044.212-.043.212-.043v4zm2.96-2.96v-4.8h-4v4.8h4zm3.877.6l.148-1.995-2.148-.158v2.153h2zm8.28.12l1.415 1.414-1.415-1.414zm.24-1.44h2v-2h-2v2zm-7.776-.984l1.415-1.414-1.415 1.414zm0-6.072l1.415 1.414-1.415-1.414zm10.776-.984h2v-2h-2v2zm0 3.12v2h2v-2h-2zm-7.32.24l1.415 1.414-1.415-1.414zm0 1.2l-1.414 1.414 1.414-1.414zm7.536 1.224l1.415-1.414-1.415 1.414zm0 6.192l1.415 1.414-1.415-1.414zm-11.736.504h-2v1.813l1.804.177.196-1.99zm-.147-1.125c3.267.241 5.883.365 7.827.365v-4c-1.799 0-4.303-.116-7.532-.355l-.295 3.99zm7.827.365c.735 0 1.455-.266 2.015-.826l-2.829-2.828a1.21 1.21 0 01.814-.346v4zm2.015-.826c.559-.56.825-1.28.825-2.014h-4c0-.105.019-.251.083-.413.066-.164.162-.3.263-.401l2.829 2.828zm.825-2.014v-.84h-4v.84h4zm-2-2.84h-5.16v4h5.16v-4zm-5.16 0c-.656 0-.985-.182-1.201-.398l-2.829 2.828c1.096 1.096 2.511 1.57 4.03 1.57v-4zm-1.201-.398c-.217-.217-.399-.546-.399-1.202h-4c0 1.52.475 2.935 1.57 4.03l2.829-2.828zm-.399-1.202v-.84h-4v.84h4zm0-.84c0-.656.182-.985.399-1.202l-2.829-2.828c-1.095 1.095-1.57 2.51-1.57 4.03h4zm.399-1.202c.216-.216.545-.398 1.201-.398v-4c-1.519 0-2.934.474-4.03 1.57l2.829 2.828zm1.201-.398h8.16v-4h-8.16v4zm6.16-2V9.4h4V6.28h-4zm2 1.12h-6.72v4h6.72v-4zm-6.72 0c-.734 0-1.454.266-2.014.826l2.829 2.828a1.21 1.21 0 01-.815.346v-4zm-2.014.826a2.815 2.815 0 00-.826 2.014h4a1.201 1.201 0 01-.345.814l-2.829-2.828zm-.826 2.014c0 .735.267 1.455.826 2.014l2.829-2.828a1.201 1.201 0 01.345.814h-4zm.826 2.014c.56.56 1.28.826 2.014.826v-4a1.208 1.208 0 01.815.346l-2.829 2.828zm2.014.826h4.32v-4h-4.32v4zm4.32 0c.657 0 .986.182 1.202.398l2.829-2.828c-1.096-1.096-2.511-1.57-4.031-1.57v4zm1.202.398c.217.217.398.546.398 1.202h4c0-1.52-.474-2.935-1.569-4.03l-2.829 2.828zm.398 1.202v.96h4v-.96h-4zm0 .96c0 .656-.181.985-.398 1.202l2.829 2.828c1.095-1.095 1.569-2.51 1.569-4.03h-4zm-.398 1.202c-.216.216-.545.398-1.202.398v4c1.52 0 2.935-.474 4.031-1.57l-2.829-2.828zm-1.202.398c-2.757 0-5.731-.156-8.923-.47l-.393 3.98c3.304.326 6.41.49 9.316.49v-4zm-7.12 1.52v-3.12h-4v3.12h4zm16.362-7.44h-2v2h2v-2zm4.08 0v2h2v-2h-2zm3.72 7.44l.206 1.99 1.794-.186V18.76h-2zm-11.016-.504L135.6 19.67l1.414-1.414zm.024-11.184l1.415 1.414-1.415-1.414zm10.44 0l-1.43 1.397.016.017.017.017 1.397-1.431zm1.032 7.248v2h2v-2h-2zm-8.28 0v-2h-2v2h2zm.24 1.56l1.415-1.414-1.415 1.414zm7.56-.12h2v-2.163l-2.156.17.156 1.993zm-6.84-8.72c-.628 0-1.467.158-2.134.826-.667.667-.826 1.506-.826 2.134h4s.001.083-.042.213a1.26 1.26 0 01-.303.481 1.26 1.26 0 01-.482.303c-.13.044-.212.043-.213.043v-4zM138.23 10v1.32h4V10h-4zm2 3.32h4.08v-4h-4.08v4zm6.08-2V10h-4v1.32h4zm0-1.32c0-.628-.158-1.467-.825-2.134-.668-.668-1.506-.826-2.135-.826v4s-.082 0-.212-.043a1.245 1.245 0 01-.482-.303 1.248 1.248 0 01-.303-.482c-.043-.13-.043-.211-.043-.212h4zm-2.96-2.96h-2.16v4h2.16v-4zm4.474 9.73c-3.035.315-5.764.47-8.194.47v4c2.595 0 5.465-.165 8.606-.49l-.412-3.98zm-8.194.47c-.656 0-.985-.182-1.201-.398L135.6 19.67c1.096 1.096 2.511 1.57 4.03 1.57v-4zm-1.201-.398c-.217-.217-.399-.546-.399-1.202h-4c0 1.52.475 2.935 1.57 4.03l2.829-2.828zm-.399-1.202V9.88h-4v5.76h4zm0-5.76c0-.816.218-1.19.423-1.394l-2.829-2.828c-1.139 1.14-1.594 2.638-1.594 4.222h4zm.423-1.394c.229-.23.616-.446 1.417-.446v-4c-1.599 0-3.099.471-4.246 1.618l2.829 2.828zm1.417-.446h4.8v-4h-4.8v4zm4.8 0c.803 0 1.17.217 1.378.43l2.861-2.795c-1.137-1.164-2.642-1.635-4.239-1.635v4zm1.411.463c.212.207.429.574.429 1.377h4c0-1.597-.47-3.102-1.634-4.239l-2.795 2.862zm.429 1.377v4.44h4V9.88h-4zm2 2.44h-8.28v4h8.28v-4zm-10.28 2v.96h4v-.96h-4zm0 .96c0 .735.267 1.455.826 2.014l2.829-2.828a1.201 1.201 0 01.345.814h-4zm.826 2.014c.56.56 1.28.826 2.014.826v-4a1.21 1.21 0 01.815.346l-2.829 2.828zm2.014.826c1.665 0 4.047-.125 7.117-.366l-.313-3.988c-3.043.24-5.3.354-6.804.354v4zm4.96-2.36v3h4v-3h-4zm20.586-.48l.572 1.916 1.428-.426v-1.49h-2zm0-9v-2h-2v2h2zm4.2 0h2v-2h-2v2zm0 12.72v2h2v-2h-2zm-3.72 0l-1.961.392.322 1.608h1.639v-2zm-.24-1.2l1.961-.392-.582-2.913-2.48 1.636 1.101 1.669zm-2.328 1.104l.55 1.923.012-.004.013-.003-.575-1.916zm-5.688-.648l1.414-1.414-1.414 1.414zm-.984-11.976v-2h-2v2h2zm4.2 0h2v-2h-2v2zm.24 9.24l1.414-1.414-1.414 1.414zm1.44 2.24c1.092 0 2.25-.205 3.452-.564l-1.144-3.832c-.942.28-1.704.396-2.308.396v4zm4.88-2.48v-9h-4v9h4zm-2-7h4.2v-4h-4.2v4zm2.2-2V19h4V6.28h-4zm2 10.72h-3.72v4h3.72v-4zm-1.759 1.608l-.24-1.2-3.922.784.24 1.2 3.922-.784zm-3.302-2.477a6.834 6.834 0 01-1.801.857l1.149 3.832c1.001-.3 1.953-.756 2.854-1.35l-2.202-3.34zm-1.776.85c-.685.196-1.152.259-1.443.259v4c.798 0 1.659-.16 2.542-.413l-1.099-3.846zm-1.443.259h-1.08v4h1.08v-4zm-1.08 0c-.656 0-.985-.182-1.202-.398l-2.828 2.828c1.096 1.096 2.511 1.57 4.03 1.57v-4zm-1.202-.398c-.216-.217-.398-.546-.398-1.202h-4c0 1.52.474 2.935 1.57 4.03l2.828-2.828zm-.398-1.202V6.28h-4v9.36h4zm-2-7.36h4.2v-4h-4.2v4zm2.2-2v8.64h4V6.28h-4zm0 8.64c0 .735.266 1.455.826 2.014l2.828-2.828a1.188 1.188 0 01.346.814h-4zm.826 2.014c.56.56 1.28.826 2.014.826v-4a1.194 1.194 0 01.814.346l-2.828 2.828zm2.014.826h.84v-4h-.84v4zm9.832-2.12l.147-1.995-2.147-.158v2.153h2zm8.28.12l1.414 1.414-1.414-1.414zm.24-1.44h2v-2h-2v2zm-7.776-.984l1.414-1.414-1.414 1.414zm0-6.072l1.414 1.414-1.414-1.414zm10.776-.984h2v-2h-2v2zm0 3.12v2h2v-2h-2zm-7.32.24l1.414 1.414-1.414-1.414zm0 1.2l-1.414 1.414 1.414-1.414zm7.536 1.224l1.414-1.414-1.414 1.414zm0 6.192l1.414 1.414-1.414-1.414zm-11.736.504h-2v1.813l1.804.177.196-1.99zm-.148-1.125c3.267.241 5.884.365 7.828.365v-4c-1.8 0-4.304-.116-7.533-.355l-.295 3.99zm7.828.365c.735 0 1.454-.266 2.014-.826l-2.828-2.828a1.194 1.194 0 01.814-.346v4zm2.014-.826c.56-.56.826-1.28.826-2.014h-4a1.188 1.188 0 01.346-.814l2.828 2.828zm.826-2.014v-.84h-4v.84h4zm-2-2.84h-5.16v4h5.16v-4zm-5.16 0c-.657 0-.986-.182-1.202-.398l-2.828 2.828c1.095 1.096 2.51 1.57 4.03 1.57v-4zm-1.202-.398c-.216-.217-.398-.546-.398-1.202h-4c0 1.52.474 2.935 1.57 4.03l2.828-2.828zm-.398-1.202v-.84h-4v.84h4zm0-.84c0-.656.182-.985.398-1.202l-2.828-2.828c-1.096 1.095-1.57 2.51-1.57 4.03h4zm.398-1.202c.216-.216.545-.398 1.202-.398v-4c-1.52 0-2.935.474-4.03 1.57l2.828 2.828zm1.202-.398h8.16v-4h-8.16v4zm6.16-2V9.4h4V6.28h-4zm2 1.12h-6.72v4h6.72v-4zm-6.72 0a2.81 2.81 0 00-2.014.826l2.828 2.828a1.205 1.205 0 01-.814.346v-4zm-2.014.826c-.56.56-.826 1.28-.826 2.014h4a1.203 1.203 0 01-.346.814l-2.828-2.828zm-.826 2.014c0 .735.266 1.455.826 2.014l2.828-2.828a1.203 1.203 0 01.346.814h-4zm.826 2.014a2.81 2.81 0 002.014.826v-4a1.203 1.203 0 01.814.346l-2.828 2.828zm2.014.826h4.32v-4h-4.32v4zm4.32 0c.656 0 .985.182 1.202.398l2.828-2.828c-1.096-1.096-2.511-1.57-4.03-1.57v4zm1.202.398c.216.217.398.546.398 1.202h4c0-1.52-.474-2.935-1.57-4.03l-2.828 2.828zm.398 1.202v.96h4v-.96h-4zm0 .96c0 .656-.182.985-.398 1.202l2.828 2.828c1.096-1.095 1.57-2.51 1.57-4.03h-4zm-.398 1.202c-.217.216-.546.398-1.202.398v4c1.519 0 2.934-.474 4.03-1.57l-2.828-2.828zm-1.202.398c-2.758 0-5.732-.156-8.924-.47l-.392 3.98c3.303.326 6.409.49 9.316.49v-4zm-7.12 1.52v-3.12h-4v3.12h4z" fill="#000" fill-opacity=".06"/></svg>