<svg width="493" height="61" fill="none" xmlns="http://www.w3.org/2000/svg"><path d="M40.667 2.2l1.933-.515L42.204.2h-1.537v2zm7.68 28.8l-1.932.515 3.88-.06L48.347 31zm6.72-28.8v-2H53.48l-.36 1.546 1.948.454zm12.48 0l1.93.524L70.164.2h-2.615v2zM55.388 47v2h1.53l.4-1.476-1.93-.524zm-12.16 0l-1.927.532.405 1.468h1.523v-2zm-7.68-27.84l1.928-.532-1.928-6.989-1.927 6.99 1.928.531zM27.867 47v2h1.523l.405-1.468L27.867 47zm-12.16 0l-1.93.524.401 1.476h1.53v-2zM3.547 2.2v-2H.932l.685 2.524 1.93-.524zm12.48 0l1.948-.454L17.615.2h-1.587v2zm6.72 28.8l-1.947.454 3.88.061L22.747 31zm7.68-28.8v-2h-1.536l-.396 1.485 1.932.515zm8.308.515l7.68 28.8 3.865-1.03-7.68-28.8-3.865 1.03zm11.56 28.74l6.72-28.8-3.895-.91-6.72 28.8 3.895.91zM55.068 4.2h12.48v-4h-12.48v4zm10.55-2.524l-12.16 44.8 3.86 1.048 12.16-44.8-3.86-1.048zM55.387 45h-12.16v4h12.16v-4zm-10.232 1.468l-7.68-27.84-3.856 1.064 7.68 27.84 3.856-1.064zM33.62 18.628l-7.68 27.84 3.855 1.064 7.68-27.84-3.855-1.064zM27.868 45h-12.16v4h12.16v-4zm-10.23 1.476l-12.16-44.8-3.86 1.048 12.16 44.8 3.86-1.048zM3.548 4.2h12.48v-4H3.547v4zM14.08 2.654l6.72 28.8 3.895-.909-6.72-28.8-3.895.91zm10.6 28.861l7.68-28.8-3.865-1.03-7.68 28.8 3.865 1.03zM30.427 4.2h10.24v-4h-10.24v4zm50.91 9.52h-2v2.454l2.404-.495-.403-1.959zm20.737 1.344l-1.415 1.414 1.415-1.414zM104.698 47v2h2v-2h-2zm-11.2 0h-2v2h2v-2zm-8.96-25.664l-.249-1.985-.007.001.255 1.984zm-3.2.384l-.21-1.989-1.79.188v1.801h2zm0 25.28v2h2v-2h-2zm-11.2 0h-2v2h2v-2zm0-44.8v-2h-2v2h2zm11.2 0h2v-2h-2v2zm.403 13.479c4.05-.835 7.536-1.239 10.477-1.239v-4c-3.29 0-7.056.45-11.284 1.321l.807 3.918zm10.477-1.239h2.88v-4h-2.88v4zm2.88 0c2.47 0 4.252.729 5.561 2.038l2.829-2.828c-2.189-2.19-5.058-3.21-8.39-3.21v4zm5.561 2.038c1.31 1.31 2.039 3.092 2.039 5.562h4c0-3.333-1.021-6.201-3.21-8.39l-2.829 2.828zm2.039 5.562V47h4V22.04h-4zm2 22.96h-11.2v4h11.2v-4zm-9.2 2V23.32h-4V47h4zm0-23.68c0-1.135-.4-2.188-1.226-3.014l-2.829 2.828a.24.24 0 01.03.035l.008.014a.38.38 0 01.017.137h4zm-1.226-3.014c-.827-.826-1.88-1.226-3.015-1.226v4a.38.38 0 01.138.017.066.066 0 01.013.007.24.24 0 01.035.03l2.829-2.828zm-3.015-1.226h-2.24v4h2.24v-4zm-2.24 0c-1.69 0-3.267.089-4.728.271l.497 3.97c1.27-.16 2.679-.241 4.231-.241v-4zm-4.735.272c-1.316.17-2.365.296-3.154.379l.419 3.978a146.35 146.35 0 003.246-.39l-.511-3.967zm-4.944 2.368V47h4V21.72h-4zm2 23.28h-11.2v4h11.2v-4zm-9.2 2V2.2h-4V47h4zm-2-42.8h11.2v-4h-11.2v4zm9.2-2v11.52h4V2.2h-4zm31.752 55.68h-2v1.757l1.742.226.258-1.983zm0-8.32v-2h-2v2h2zm8.896-1.344l-1.736-.992-.019.032-.017.032 1.772.928zm-.256-3.776l-1.845.772.002.004 1.843-.776zm-13.12-31.36v-2h-3.005l1.16 2.772 1.845-.772zm11.84 0l1.877-.69-.481-1.31h-1.396v2zm8 21.76l-1.877.69 2.042 5.554 1.746-5.654-1.911-.59zm6.72-21.76v-2h-1.476l-.435 1.41 1.911.59zm11.84 0l1.88.684.975-2.684h-2.855v2zm-12.8 35.2l1.878.69.002-.006-1.88-.684zm-4.8 7.616l-1.312-1.51-.01.009-.009.008 1.331 1.493zm-8 .624c-2.146 0-4.827-.203-8.062-.623l-.516 3.966c3.336.434 6.201.657 8.578.657v-4zm-6.32 1.36v-8.32h-4v8.32h4zm-2-6.32h5.76v-4h-5.76v4zm5.76 0c1.883 0 3.916-.522 4.908-2.416l-3.544-1.856a.05.05 0 01-.015.02.533.533 0 01-.137.078c-.191.082-.566.174-1.212.174v4zm4.872-2.352c.985-1.723.609-3.744-.149-5.544l-3.686 1.552c.607 1.443.402 1.94.363 2.008l3.472 1.984zm-.147-5.54l-13.12-31.36-3.69 1.544 13.12 31.36 3.69-1.544zM106.61 15.08h11.84v-4h-11.84v4zm9.963-1.31l8 21.76 3.754-1.38-8-21.76-3.754 1.38zm11.788 21.66l6.72-21.76-3.822-1.18-6.72 21.76 3.822 1.18zm4.809-20.35h11.84v-4h-11.84v4zm9.96-2.684l-12.8 35.2 3.76 1.368 12.8-35.2-3.76-1.367zm-12.797 35.195c-1.164 3.168-2.606 5.379-4.235 6.796l2.624 3.018c2.296-1.996 4.054-4.863 5.365-8.436l-3.754-1.378zm-4.254 6.812c-1.502 1.339-3.647 2.117-6.669 2.117v4c3.719 0 6.908-.971 9.331-3.131l-2.662-2.986zm70.139-8.043l.212 1.989 1.788-.191V46.36h-2zm-28.096-1.344l-1.415 1.414 1.415-1.414zm.064-29.184l1.414 1.414-1.414-1.414zm28.032-2.752h2v-2h-2v2zm0 8.64v2h2v-2h-2zm0 16.32h2v-2.174l-2.167.18.167 1.994zm-.213 6.331c-7.929.848-14.895 1.269-20.907 1.269v4c6.19 0 13.303-.433 21.332-1.291l-.425-3.978zm-20.907 1.269c-2.47 0-4.253-.729-5.562-2.038l-2.829 2.828c2.189 2.19 5.058 3.21 8.391 3.21v-4zm-5.562-2.038c-1.31-1.31-2.038-3.092-2.038-5.562h-4c0 3.333 1.02 6.201 3.209 8.39l2.829-2.828zm-2.038-5.562V23.32h-4v14.72h4zm0-14.72c0-2.816.777-4.75 2.102-6.074l-2.829-2.828c-2.259 2.26-3.273 5.318-3.273 8.902h4zm2.102-6.074c1.376-1.376 3.337-2.166 6.138-2.166v-4c-3.6 0-6.673 1.044-8.967 3.338l2.829 2.828zm6.138-2.166h20.48v-4h-20.48v4zm18.48-2v8.64h4v-8.64h-4zm2 6.64h-16.96v4h16.96v-4zm-16.96 0c-1.162 0-2.401.292-3.335 1.226-.934.934-1.225 2.172-1.225 3.334h4c0-.545.134-.587.054-.506-.081.08-.04-.054.506-.054v-4zm-4.56 4.56v12.48h4V24.28h-4zm0 12.48c0 1.135.399 2.188 1.225 3.014l2.829-2.828a.188.188 0 01-.038-.049.398.398 0 01-.016-.137h-4zm1.225 3.014c.827.826 1.88 1.226 3.015 1.226v-4a.385.385 0 01-.138-.017.227.227 0 01-.048-.037l-2.829 2.828zM178.938 41c3.926 0 9.754-.326 17.446-.967l-.333-3.986c-7.668.639-13.36.953-17.113.953v4zm15.28-2.96v8.32h4v-8.32h-4zm18.307-24.32h-2v2.454l2.404-.495-.404-1.959zm20.736 1.344l-1.414 1.414 1.414-1.414zM235.885 47v2h2v-2h-2zm-11.2 0h-2v2h2v-2zm-8.96-25.664l-.248-1.985-.008.001.256 1.984zm-3.2.384l-.209-1.989-1.791.188v1.801h2zm0 25.28v2h2v-2h-2zm-11.2 0h-2v2h2v-2zm0-44.8v-2h-2v2h2zm11.2 0h2v-2h-2v2zm.404 13.479c4.049-.835 7.535-1.239 10.476-1.239v-4c-3.289 0-7.056.45-11.284 1.321l.808 3.918zm10.476-1.239h2.88v-4h-2.88v4zm2.88 0c2.47 0 4.252.729 5.562 2.038l2.828-2.828c-2.189-2.19-5.057-3.21-8.39-3.21v4zm5.562 2.038c1.31 1.31 2.038 3.092 2.038 5.562h4c0-3.333-1.021-6.201-3.21-8.39l-2.828 2.828zm2.038 5.562V47h4V22.04h-4zm2 22.96h-11.2v4h11.2v-4zm-9.2 2V23.32h-4V47h4zm0-23.68c0-1.135-.4-2.188-1.226-3.014l-2.828 2.828c.018.018.026.03.03.035l.007.014a.38.38 0 01.017.137h4zm-1.226-3.014c-.826-.826-1.879-1.226-3.014-1.226v4c.095 0 .132.015.137.017a.102.102 0 01.014.007c.005.004.017.012.035.03l2.828-2.828zm-3.014-1.226h-2.24v4h2.24v-4zm-2.24 0c-1.69 0-3.267.089-4.728.271l.496 3.97c1.27-.16 2.679-.241 4.232-.241v-4zm-4.736.272c-1.315.17-2.365.296-3.153.379l.418 3.978a145.77 145.77 0 003.247-.39l-.512-3.967zm-4.944 2.368V47h4V21.72h-4zm2 23.28h-11.2v4h11.2v-4zm-9.2 2V2.2h-4V47h4zm-2-42.8h11.2v-4h-11.2v4zm9.2-2v11.52h4V2.2h-4zm62.921 42.752l1.414 1.414-1.414-1.414zm-29.76 0l-1.431 1.398.016.016.017.017 1.398-1.431zm0-29.76l1.414 1.414-1.414-1.414zm29.76 0l-1.431 1.398.016.016.017.017 1.398-1.431zm.752 22.208c0 2.8-.791 4.762-2.167 6.138l2.829 2.828c2.293-2.293 3.338-5.367 3.338-8.966h-4zm-2.167 6.138c-1.324 1.324-3.257 2.102-6.073 2.102v4c3.583 0 6.642-1.014 8.902-3.274l-2.829-2.828zm-6.073 2.102h-14.72v4h14.72v-4zm-14.72 0c-2.814 0-4.781-.777-6.155-2.119l-2.795 2.862c2.296 2.242 5.363 3.257 8.95 3.257v-4zm-6.122-2.086c-1.342-1.373-2.118-3.34-2.118-6.154h-4c0 3.586 1.015 6.654 3.257 8.95l2.861-2.796zm-2.118-6.154V22.68h-4V37.4h4zm0-14.72c0-2.816.777-4.75 2.102-6.074l-2.829-2.828c-2.259 2.26-3.273 5.318-3.273 8.902h4zm2.102-6.074c1.376-1.376 3.337-2.166 6.138-2.166v-4c-3.6 0-6.673 1.044-8.967 3.338l2.829 2.828zm6.138-2.166h14.72v-4h-14.72v4zm14.72 0c2.802 0 4.73.79 6.057 2.15l2.861-2.796c-2.257-2.31-5.321-3.354-8.918-3.354v4zm6.09 2.183c1.359 1.327 2.15 3.254 2.15 6.057h4c0-3.597-1.044-6.662-3.355-8.919l-2.795 2.862zm2.15 6.057V37.4h4V22.68h-4zm-7.2.96c0-1.162-.292-2.4-1.226-3.334-.934-.934-2.173-1.226-3.334-1.226v4c.545 0 .586.135.505.054-.08-.08.055-.039.055.506h4zm-4.56-4.56h-7.68v4h7.68v-4zm-7.68 0c-1.162 0-2.401.292-3.335 1.226-.934.934-1.225 2.172-1.225 3.334h4c0-.545.134-.587.054-.506-.081.08-.04-.054.506-.054v-4zm-4.56 4.56v12.8h4v-12.8h-4zm0 12.8c0 1.162.291 2.4 1.225 3.334.934.934 2.173 1.226 3.335 1.226v-4c-.546 0-.587-.135-.506-.054.08.08-.054.039-.054-.506h-4zm4.56 4.56h7.68v-4h-7.68v4zm7.68 0c1.161 0 2.4-.292 3.334-1.226.934-.934 1.226-2.172 1.226-3.334h-4c0 .545-.135.587-.055.506.081-.08.04.054-.505.054v4zm4.56-4.56v-12.8h-4v12.8h4zm46.76 8.512l1.414 1.414-1.414-1.414zm-29.76 0l-1.431 1.398.017.016.017.017 1.397-1.431zm0-29.76l1.414 1.414-1.414-1.414zm29.76 0l-1.431 1.398.017.016.017.017 1.397-1.431zm.752 22.208c0 2.8-.79 4.762-2.166 6.138l2.828 2.828c2.294-2.293 3.338-5.367 3.338-8.966h-4zm-2.166 6.138c-1.325 1.324-3.258 2.102-6.074 2.102v4c3.584 0 6.643-1.014 8.902-3.274l-2.828-2.828zm-6.074 2.102h-14.72v4h14.72v-4zm-14.72 0c-2.814 0-4.781-.777-6.155-2.119l-2.794 2.862c2.295 2.242 5.363 3.257 8.949 3.257v-4zm-6.121-2.086c-1.342-1.373-2.119-3.34-2.119-6.154h-4c0 3.586 1.015 6.654 3.257 8.95l2.862-2.796zM283.31 37.4V22.68h-4V37.4h4zm0-14.72c0-2.816.778-4.75 2.102-6.074l-2.828-2.828c-2.26 2.26-3.274 5.318-3.274 8.902h4zm2.102-6.074c1.376-1.376 3.337-2.166 6.138-2.166v-4c-3.599 0-6.673 1.044-8.966 3.338l2.828 2.828zm6.138-2.166h14.72v-4h-14.72v4zm14.72 0c2.803 0 4.73.79 6.057 2.15l2.862-2.796c-2.257-2.31-5.322-3.354-8.919-3.354v4zm6.091 2.183c1.358 1.327 2.149 3.254 2.149 6.057h4c0-3.597-1.044-6.662-3.355-8.919l-2.794 2.862zm2.149 6.057V37.4h4V22.68h-4zm-7.2.96c0-1.162-.292-2.4-1.226-3.334-.934-.934-2.172-1.226-3.334-1.226v4c.545 0 .586.135.506.054-.081-.08.054-.039.054.506h4zm-4.56-4.56h-7.68v4h7.68v-4zm-7.68 0c-1.162 0-2.4.292-3.334 1.226-.934.934-1.226 2.172-1.226 3.334h4c0-.545.135-.587.054-.506-.08.08-.039-.054.506-.054v-4zm-4.56 4.56v12.8h4v-12.8h-4zm0 12.8c0 1.162.292 2.4 1.226 3.334.934.934 2.172 1.226 3.334 1.226v-4c-.545 0-.586-.135-.506-.054.081.08-.054.039-.054-.506h-4zm4.56 4.56h7.68v-4h-7.68v4zm7.68 0c1.162 0 2.4-.292 3.334-1.226.934-.934 1.226-2.172 1.226-3.334h-4c0 .545-.135.587-.054.506.08-.08.039.054-.506.054v4zm4.56-4.56v-12.8h-4v12.8h4zm13.673 1.6l.147-1.995-2.147-.158v2.153h2zm22.08.32l1.414 1.414-1.414-1.414zm.64-3.84h2v-2h-2v2zm-20.736-2.624l1.414-1.414-1.414 1.414zm0-16.192l1.414 1.414-1.414-1.414zm28.736-2.624h2v-2h-2v2zm0 8.32v2h2v-2h-2zm-19.52.64l1.414 1.414-1.414-1.414zm0 3.2l-1.415 1.414 1.415-1.414zm20.096 3.264l1.414-1.414-1.414 1.414zm0 16.512l1.414 1.414-1.414-1.414zm-31.296 1.344h-2v1.813l1.803.177.197-1.99zm-.148-6.325c8.68.641 15.563.965 20.628.965v-4c-4.92 0-11.691-.316-20.333-.955l-.295 3.99zm20.628.965c1.134 0 2.187-.4 3.014-1.226l-2.829-2.828a.227.227 0 01-.048.037.382.382 0 01-.137.017v4zm3.014-1.226c.826-.826 1.226-1.88 1.226-3.014h-4a.38.38 0 01-.017.137.188.188 0 01-.038.049l2.829 2.828zm1.226-3.014v-2.24h-4v2.24h4zm-2-4.24h-13.76v4h13.76v-4zm-13.76 0c-2.47 0-4.253-.729-5.562-2.038l-2.829 2.828c2.189 2.19 5.058 3.21 8.391 3.21v-4zm-5.562-2.038c-1.31-1.31-2.038-3.092-2.038-5.562h-4c0 3.333 1.02 6.201 3.209 8.39l2.829-2.828zm-2.038-5.562v-2.24h-4v2.24h4zm0-2.24c0-2.47.728-4.252 2.038-5.562l-2.829-2.828c-2.189 2.189-3.209 5.057-3.209 8.39h4zm2.038-5.562c1.309-1.31 3.092-2.038 5.562-2.038v-4c-3.333 0-6.202 1.02-8.391 3.21l2.829 2.828zm5.562-2.038h21.76v-4h-21.76v4zm19.76-2v8.32h4v-8.32h-4zm2 6.32h-17.92v4h17.92v-4zm-17.92 0c-1.135 0-2.188.4-3.015 1.226l2.829 2.828a.227.227 0 01.048-.037.385.385 0 01.138-.017v-4zm-3.015 1.226c-.826.826-1.225 1.88-1.225 3.014h4c0-.095.014-.132.016-.137a.188.188 0 01.038-.049l-2.829-2.828zm-1.225 3.014c0 1.135.399 2.188 1.225 3.014l2.829-2.828a.188.188 0 01-.038-.049.398.398 0 01-.016-.137h-4zm1.225 3.014c.827.826 1.88 1.226 3.015 1.226v-4a.385.385 0 01-.138-.017.227.227 0 01-.048-.037l-2.829 2.828zm3.015 1.226h11.52v-4h-11.52v4zm11.52 0c2.469 0 4.252.729 5.561 2.038l2.829-2.828c-2.189-2.19-5.058-3.21-8.39-3.21v4zm5.561 2.038c1.31 1.31 2.039 3.092 2.039 5.562h4c0-3.333-1.021-6.201-3.21-8.39l-2.829 2.828zm2.039 5.562v2.56h4v-2.56h-4zm0 2.56c0 2.47-.729 4.252-2.039 5.562l2.829 2.828c2.189-2.189 3.21-5.057 3.21-8.39h-4zm-2.039 5.562c-1.309 1.31-3.092 2.038-5.561 2.038v4c3.332 0 6.201-1.02 8.39-3.21l-2.829-2.828zm-5.561 2.038c-7.478 0-15.519-.422-24.124-1.27l-.393 3.98c8.717.86 16.89 1.29 24.517 1.29v-4zm-22.32.72v-8.32h-4v8.32h4zm46.965-19.84h-2v2h2v-2zm10.88 0v2h2v-2h-2zm9.92 19.84l.206 1.99 1.794-.187V46.36h-2zm-29.376-1.344l-1.415 1.414 1.415-1.414zm.064-29.824l1.414 1.414-1.414-1.414zm27.84 0l-1.431 1.398.016.016.017.017 1.398-1.431zm2.752 19.328v2h2v-2h-2zm-22.08 0v-2h-2v2h2zm.64 4.16l1.414-1.414-1.414 1.414zm20.16-.32h2v-2.163l-2.157.17.157 1.993zm-18.24-19.92c-1.162 0-2.401.292-3.335 1.226-.934.934-1.225 2.172-1.225 3.334h4c0-.545.134-.587.054-.506-.081.08-.04-.054.506-.054v-4zm-4.56 4.56v3.52h4V23h-4zm2 5.52h10.88v-4h-10.88v4zm12.88-2V23h-4v3.52h4zm0-3.52c0-1.162-.292-2.4-1.226-3.334-.934-.934-2.173-1.226-3.334-1.226v4c.545 0 .586.135.505.054-.08-.08.055-.039.055.506h4zm-4.56-4.56h-5.76v4h5.76v-4zm12.273 25.93c-8.181.849-15.577 1.27-22.193 1.27v4c6.781 0 14.318-.432 22.606-1.29l-.413-3.98zm-22.193 1.27c-2.47 0-4.253-.729-5.562-2.038l-2.829 2.828c2.189 2.19 5.058 3.21 8.391 3.21v-4zm-5.562-2.038c-1.31-1.31-2.038-3.092-2.038-5.562h-4c0 3.333 1.02 6.201 3.209 8.39l2.829-2.828zm-2.038-5.562V22.68h-4v15.36h4zm0-15.36c0-2.816.777-4.75 2.102-6.074l-2.829-2.828c-2.259 2.26-3.273 5.318-3.273 8.902h4zm2.102-6.074c1.376-1.376 3.337-2.166 6.138-2.166v-4c-3.6 0-6.673 1.044-8.967 3.338l2.829 2.828zm6.138-2.166h12.8v-4h-12.8v4zm12.8 0c2.802 0 4.73.79 6.057 2.15l2.861-2.796c-2.257-2.31-5.321-3.354-8.918-3.354v4zm6.09 2.183c1.359 1.327 2.15 3.254 2.15 6.057h4c0-3.597-1.044-6.662-3.355-8.919l-2.795 2.862zm2.15 6.057v11.84h4V22.68h-4zm2 9.84h-22.08v4h22.08v-4zm-24.08 2v2.56h4v-2.56h-4zm0 2.56c0 1.135.399 2.188 1.225 3.014l2.829-2.828a.188.188 0 01-.038-.049.398.398 0 01-.016-.137h-4zm1.225 3.014c.827.826 1.88 1.226 3.015 1.226v-4a.385.385 0 01-.138-.017.227.227 0 01-.048-.037l-2.829 2.828zm3.015 1.226c4.304 0 10.553-.325 18.716-.966l-.313-3.988c-8.136.64-14.26.954-18.403.954v4zm16.56-2.96v8h4v-8h-4zm51.562-1.28l.572 1.916 1.428-.426v-1.49h-2zm0-24v-2h-2v2h2zm11.2 0h2v-2h-2v2zm0 33.92v2h2v-2h-2zm-9.92 0l-1.961.392.321 1.608h1.64v-2zm-.64-3.2l1.961-.392-.582-2.913-2.48 1.636 1.101 1.669zm-6.208 2.944l.549 1.923.013-.004.013-.003-.575-1.916zm-15.168-1.728l1.414-1.414-1.414 1.414zM416.95 13.08v-2h-2v2h2zm11.2 0h2v-2h-2v2zm.64 24.64l1.414-1.414-1.414 1.414zm3.84 2.64c2.506 0 5.263-.471 8.252-1.364l-1.144-3.832c-2.729.814-5.091 1.196-7.108 1.196v4zm9.68-3.28v-24h-4v24h4zm-2-22h11.2v-4h-11.2v4zm9.2-2V47h4V13.08h-4zm2 31.92h-9.92v4h9.92v-4zm-7.959 1.608l-.64-3.2-3.922.784.64 3.2 3.922-.784zm-3.702-4.477c-1.856 1.223-3.749 2.117-5.682 2.697l1.15 3.832c2.334-.7 4.579-1.769 6.734-3.19l-2.202-3.34zm-5.656 2.69c-1.992.569-3.566.819-4.763.819v4c1.704 0 3.672-.347 5.861-.973l-1.098-3.846zm-4.763.819h-2.88v4h2.88v-4zm-2.88 0c-2.47 0-4.252-.729-5.562-2.038l-2.828 2.828c2.189 2.19 5.057 3.21 8.39 3.21v-4zm-5.562-2.038c-1.31-1.31-2.038-3.092-2.038-5.562h-4c0 3.333 1.021 6.201 3.21 8.39l2.828-2.828zm-2.038-5.562V13.08h-4v24.96h4zm-2-22.96h11.2v-4h-11.2v4zm9.2-2v23.04h4V13.08h-4zm0 23.04c0 1.135.4 2.188 1.226 3.014l2.828-2.828c-.018-.018-.026-.03-.03-.035a.201.201 0 01-.007-.014.38.38 0 01-.017-.137h-4zm1.226 3.014c.826.827 1.879 1.226 3.014 1.226v-4c-.095 0-.132-.015-.137-.017a.102.102 0 01-.014-.007c-.005-.004-.017-.012-.035-.03l-2.828 2.828zm3.014 1.226h2.24v-4h-2.24v4zm26.218-2.32l.147-1.995-2.147-.158v2.153h2zm22.08.32l1.414 1.414-1.414-1.414zm.64-3.84h2v-2h-2v2zm-20.736-2.624l1.414-1.414-1.414 1.414zm0-16.192l1.414 1.414-1.414-1.414zm28.736-2.624h2v-2h-2v2zm0 8.32v2h2v-2h-2zm-19.52.64l1.414 1.414-1.414-1.414zm0 3.2l-1.415 1.414 1.415-1.414zm20.096 3.264l1.414-1.414-1.414 1.414zm0 16.512l1.414 1.414-1.414-1.414zm-31.296 1.344h-2v1.813l1.803.177.197-1.99zm-.148-6.325c8.68.641 15.563.965 20.628.965v-4c-4.92 0-11.691-.316-20.333-.955l-.295 3.99zm20.628.965c1.134 0 2.187-.4 3.014-1.226l-2.829-2.828a.227.227 0 01-.048.037.382.382 0 01-.137.017v4zm3.014-1.226c.826-.826 1.226-1.88 1.226-3.014h-4a.38.38 0 01-.017.137.188.188 0 01-.038.049l2.829 2.828zm1.226-3.014v-2.24h-4v2.24h4zm-2-4.24h-13.76v4h13.76v-4zm-13.76 0c-2.47 0-4.253-.729-5.562-2.038l-2.829 2.828c2.189 2.19 5.058 3.21 8.391 3.21v-4zm-5.562-2.038c-1.31-1.31-2.038-3.092-2.038-5.562h-4c0 3.333 1.02 6.201 3.209 8.39l2.829-2.828zm-2.038-5.562v-2.24h-4v2.24h4zm0-2.24c0-2.47.728-4.252 2.038-5.562l-2.829-2.828c-2.189 2.189-3.209 5.057-3.209 8.39h4zm2.038-5.562c1.309-1.31 3.092-2.038 5.562-2.038v-4c-3.333 0-6.202 1.02-8.391 3.21l2.829 2.828zm5.562-2.038h21.76v-4h-21.76v4zm19.76-2v8.32h4v-8.32h-4zm2 6.32h-17.92v4h17.92v-4zm-17.92 0c-1.135 0-2.188.4-3.015 1.226l2.829 2.828a.227.227 0 01.048-.037.385.385 0 01.138-.017v-4zm-3.015 1.226c-.826.826-1.225 1.88-1.225 3.014h4c0-.095.014-.132.016-.137a.188.188 0 01.038-.049l-2.829-2.828zm-1.225 3.014c0 1.135.399 2.188 1.225 3.014l2.829-2.828a.188.188 0 01-.038-.049.398.398 0 01-.016-.137h-4zm1.225 3.014c.827.826 1.88 1.226 3.015 1.226v-4a.385.385 0 01-.138-.017.227.227 0 01-.048-.037l-2.829 2.828zm3.015 1.226h11.52v-4h-11.52v4zm11.52 0c2.469 0 4.252.729 5.561 2.038l2.829-2.828c-2.189-2.19-5.058-3.21-8.39-3.21v4zm5.561 2.038c1.31 1.31 2.039 3.092 2.039 5.562h4c0-3.333-1.021-6.201-3.21-8.39l-2.829 2.828zm2.039 5.562v2.56h4v-2.56h-4zm0 2.56c0 2.47-.729 4.252-2.039 5.562l2.829 2.828c2.189-2.189 3.21-5.057 3.21-8.39h-4zm-2.039 5.562c-1.309 1.31-3.092 2.038-5.561 2.038v4c3.332 0 6.201-1.02 8.39-3.21l-2.829-2.828zm-5.561 2.038c-7.478 0-15.519-.422-24.124-1.27l-.393 3.98c8.717.86 16.89 1.29 24.517 1.29v-4zm-22.32.72v-8.32h-4v8.32h4z" fill="#000" fill-opacity=".06"/></svg>