<svg width="20" height="20" fill="none" xmlns="http://www.w3.org/2000/svg"><path d="M17.829.8H1.367C.613.8 0 1.395 0 2.126v15.747c0 .731.613 1.327 1.367 1.327H17.83c.754 0 1.371-.596 1.371-1.327V2.126c0-.73-.617-1.326-1.371-1.326zM5.803 16.57H2.957V7.79h2.85v8.78h-.004zM4.38 6.591c-.913 0-1.65-.71-1.65-1.581s.737-1.582 1.65-1.582c.909 0 1.65.71 1.65 1.582 0 .874-.737 1.58-1.65 1.58zm12.09 9.98h-2.846V12.3c0-1.019-.021-2.329-1.478-2.329-1.483 0-1.71 1.109-1.71 2.255v4.345H7.59v-8.78h2.73v1.198h.039c.381-.69 1.311-1.417 2.695-1.417 2.88 0 3.416 1.82 3.416 4.186v4.813z" fill="#fff" fill-opacity=".3"/></svg>