<svg width="18" height="16" fill="none" xmlns="http://www.w3.org/2000/svg"><path d="M15.79 4.09a7.8 7.8 0 01.012.511c0 5.202-3.63 11.196-10.263 11.196A9.586 9.586 0 010 14.03c.29.037.57.05.871.05 1.686 0 3.239-.622 4.478-1.682-1.586-.037-2.914-1.17-3.372-2.729.223.037.446.061.68.061.325 0 .649-.049.95-.134C1.954 9.23.715 7.646.715 5.734v-.049c.48.293 1.038.475 1.63.5C1.374 5.478.737 4.272.737 2.908c0-.731.179-1.401.491-1.986C3.004 3.31 5.673 4.869 8.666 5.04a4.83 4.83 0 01-.09-.902c0-2.168 1.609-3.935 3.608-3.935 1.038 0 1.976.475 2.635 1.243.815-.17 1.597-.5 2.29-.95a3.882 3.882 0 01-1.586 2.168 6.762 6.762 0 002.077-.61 8.175 8.175 0 01-1.81 2.035z" fill="#fff" fill-opacity=".3"/></svg>