<svg width="1049" height="131" fill="none" xmlns="http://www.w3.org/2000/svg"><path d="M86.392 2.2l1.933-.515L87.929.2h-1.537v2zM103.673 67l-1.933.515 3.88-.06-1.947-.455zm15.12-64.8v-2h-1.588l-.36 1.546 1.948.454zm28.08 0l1.93.524.685-2.524h-2.615v2zM119.513 103v2h1.529l.401-1.476-1.93-.524zm-27.36 0l-1.928.532.404 1.468h1.523v-2zm-17.28-62.64l1.927-.532-1.927-6.989-1.928 6.99 1.928.531zM57.593 103v2h1.522l.405-1.468-1.928-.532zm-27.36 0l-1.93.524.4 1.476h1.53v-2zM2.873 2.2v-2H.256l.685 2.524 1.93-.524zm28.08 0l1.947-.454L32.54.2h-1.587v2zM46.072 67l-1.948.454 3.88.061L46.072 67zm17.28-64.8v-2h-1.537l-.396 1.485 1.932.515zm21.107.515l17.28 64.8 3.865-1.03-17.28-64.8-3.865 1.03zm21.16 64.74l15.12-64.8-3.895-.91-15.12 64.8 3.895.91zM118.793 4.2h28.08v-4h-28.08v4zm26.149-2.524l-27.36 100.8 3.861 1.048 27.36-100.8-3.861-1.048zM119.513 101h-27.36v4h27.36v-4zm-25.433 1.468L76.8 39.828l-3.855 1.064 17.28 62.64 3.856-1.064zm-21.135-62.64l-17.28 62.64 3.855 1.064 17.28-62.64-3.855-1.064zM57.593 101h-27.36v4h27.36v-4zm-25.43 1.476L4.803 1.676.943 2.724l27.36 100.8 3.86-1.048zM2.873 4.2h28.08v-4H2.873v4zm26.132-1.546l15.12 64.8 3.895-.908-15.12-64.8-3.895.908zm19 64.861l17.28-64.8-3.865-1.03-17.28 64.8 3.865 1.03zM63.352 4.2h23.04v-4h-23.04v4zM177.9 28.12h-2v2.454l2.404-.495-.404-1.959zm46.656 3.024l-1.414 1.414 1.414-1.414zM230.46 103v2h2v-2h-2zm-25.2 0h-2v2h2v-2zM185.1 45.256l-.248-1.985-.008.001.256 1.984zm-7.2.864l-.209-1.989-1.791.188v1.801h2zm0 56.88v2h2v-2h-2zm-25.2 0h-2v2h2v-2zm0-100.8v-2h-2v2h2zm25.2 0h2v-2h-2v2zm.404 27.879c9.223-1.902 17.242-2.839 24.076-2.839v-4c-7.182 0-15.483.983-24.884 2.921l.808 3.918zm24.076-2.839h6.48v-4h-6.48v4zm6.48 0c6.096 0 10.785 1.822 14.282 5.318l2.828-2.828c-4.375-4.376-10.15-6.49-17.11-6.49v4zm14.282 5.318c3.496 3.497 5.318 8.186 5.318 14.282h4c0-6.96-2.114-12.735-6.49-17.11l-2.828 2.828zm5.318 14.282V103h4V46.84h-4zm2 54.16h-25.2v4h25.2v-4zm-23.2 2V49.72h-4V103h4zm0-53.28c0-1.935-.666-3.655-2.026-5.014l-2.828 2.828c.56.56.854 1.24.854 2.186h4zm-2.026-5.014c-1.359-1.36-3.079-2.026-5.014-2.026v4c.945 0 1.625.294 2.186.854l2.828-2.828zm-5.014-2.026h-5.04v4h5.04v-4zm-5.04 0c-3.717 0-7.161.196-10.328.591l.496 3.97c2.977-.373 6.253-.561 9.832-.561v-4zm-10.336.592c-2.969.384-5.352.67-7.153.859l.418 3.978c1.847-.194 4.264-.485 7.247-.87l-.512-3.967zM175.9 46.12V103h4V46.12h-4zm2 54.88h-25.2v4h25.2v-4zm-23.2 2V2.2h-4V103h4zm-2-98.8h25.2v-4h-25.2v4zm23.2-2v25.92h4V2.2h-4zm115.023 79.2l.572 1.916 1.428-.426V81.4h-2zm0-8.64h2v-2h-2v2zm-24.48 1.44l1.414 1.414-1.414-1.414zm0 8.64l-1.414 1.414 1.414-1.414zm-19.44-54.72l-.217-1.988-1.783.195v1.793h2zm63.216 3.024l-1.414 1.414 1.414-1.414zM316.123 103v2h2v-2h-2zm-22.32 0l-1.961.392.322 1.608h1.639v-2zm-1.44-7.2l1.961-.392-.582-2.913-2.48 1.635 1.101 1.67zm-13.968 6.624l.55 1.923.012-.004.013-.003-.575-1.916zm-32.688-3.888l-1.414 1.414 1.414-1.414zm0-37.872l1.414 1.414-1.414-1.414zm45.216-5.904v2h2v-2h-2zm-1.44-9.36l-1.414 1.414 1.414-1.414zm-24.336-.576l-.151-1.994h-.002l.153 1.994zm-18.144 1.296h-2v2.129l2.125-.133-.125-1.996zm26.64 40.16c5.332 0 11.29-1.005 17.852-2.964l-1.144-3.832c-6.302 1.88-11.864 2.796-16.708 2.796v4zm19.28-4.88v-8.64h-4v8.64h4zm-2-10.64h-20.88v4h20.88v-4zm-20.88 0c-1.935 0-3.655.666-5.014 2.026l2.828 2.828c.561-.56 1.241-.854 2.186-.854v-4zm-5.014 2.026c-1.36 1.36-2.026 3.08-2.026 5.014h4c0-.945.294-1.625.854-2.186l-2.828-2.828zm-2.026 5.014v1.44h4V77.8h-4zm0 1.44c0 1.935.666 3.655 2.026 5.014l2.828-2.828c-.56-.56-.854-1.24-.854-2.186h-4zm2.026 5.014c1.36 1.36 3.079 2.026 5.014 2.026v-4c-.945 0-1.625-.294-2.186-.854l-2.828 2.828zm5.014 2.026h3.6v-4h-3.6v4zM247.22 30.108c17.513-1.914 33.279-2.868 47.303-2.868v-4c-14.2 0-30.114.966-47.737 2.892l.434 3.976zm47.303-2.868c6.096 0 10.786 1.822 14.282 5.318l2.828-2.828c-4.375-4.376-10.15-6.49-17.11-6.49v4zm14.282 5.318c3.496 3.497 5.318 8.186 5.318 14.282h4c0-6.96-2.114-12.735-6.49-17.11l-2.828 2.828zm5.318 14.282V103h4V46.84h-4zm2 54.16h-22.32v4h22.32v-4zm-20.359 1.608l-1.44-7.2-3.922.784 1.44 7.2 3.922-.784zm-4.502-8.478c-4.362 2.878-8.842 4.999-13.442 6.378l1.15 3.832c5-1.501 9.832-3.796 14.494-6.87l-2.202-3.34zm-13.416 6.371c-4.605 1.316-8.392 1.939-11.403 1.939v4c3.518 0 7.698-.721 12.502-2.093l-1.099-3.846zm-11.403 1.939h-5.04v4h5.04v-4zm-5.04 0c-6.096 0-10.785-1.822-14.282-5.318l-2.828 2.828c4.376 4.376 10.15 6.49 17.11 6.49v-4zm-14.282-5.318c-3.496-3.497-5.318-8.186-5.318-14.282h-4c0 6.96 2.114 12.735 6.49 17.11l2.828-2.828zm-5.318-14.282v-6.48h-4v6.48h4zm0-6.48c0-6.096 1.822-10.785 5.318-14.282l-2.828-2.828c-4.376 4.375-6.49 10.15-6.49 17.11h4zm5.318-14.282c3.497-3.496 8.186-5.318 14.282-5.318v-4c-6.96 0-12.734 2.114-17.11 6.49l2.828 2.828zm14.282-5.318h29.52v-4h-29.52v4zm31.52-2V49h-4v5.76h4zm0-5.76c0-1.935-.666-3.655-2.026-5.014l-2.828 2.828c.56.56.854 1.24.854 2.186h4zm-2.026-5.014c-1.359-1.36-3.079-2.026-5.014-2.026v4c.945 0 1.626.294 2.186.854l2.828-2.828zm-5.014-2.026c-6.3 0-13.263.29-20.887.87l.303 3.988c7.544-.573 14.404-.858 20.584-.858v-4zm-20.889.87c-7.484.576-13.521 1.007-18.116 1.294l.25 3.992c4.621-.289 10.68-.722 18.173-1.298l-.307-3.988zm-15.991 3.29v-18h-4v18h4zM382.324 103l.205 1.989 1.795-.185V103h-2zm-43.056-4.464l1.414-1.414-1.414 1.414zm-5.904-52.416h2v-2h-2v2zm-8.64 0h-2v2h2v-2zm0-19.44v-2h-2v2h2zm8.64 0v2h1.694l.279-1.671-1.973-.329zm2.88-17.28v-2h-1.695l-.278 1.671 1.973.329zm22.32 0h2v-2h-2v2zm0 17.28h-2v2h2v-2zm18 0h2v-2h-2v2zm0 19.44v2h2v-2h-2zm-18 0v-2h-2v2h2zm1.44 36.72l-1.414 1.414 1.414-1.414zm22.32 1.44h2v-2h-2v2zm-.205 16.731c-9.247.953-18.299 1.429-27.155 1.429v4c8.999 0 18.188-.484 27.565-1.451l-.41-3.978zm-27.155 1.429c-6.097 0-10.786-1.822-14.282-5.318l-2.828 2.828c4.375 4.376 10.15 6.49 17.11 6.49v-4zm-14.282-5.318c-3.496-3.497-5.318-8.186-5.318-14.282h-4c0 6.96 2.114 12.735 6.49 17.11l2.828-2.828zm-5.318-14.282V46.12h-4v36.72h4zm-2-38.72h-8.64v4h8.64v-4zm-6.64 2V26.68h-4v19.44h4zm-2-17.44h8.64v-4h-8.64v4zm10.613-1.671l2.88-17.28-3.946-.658-2.88 17.28 3.946.658zm.907-15.609h22.32v-4h-22.32v4zm20.32-2v17.28h4V9.4h-4zm2 19.28h18v-4h-18v4zm16-2v19.44h4V26.68h-4zm2 17.44h-18v4h18v-4zm-20 2v33.12h4V46.12h-4zm0 33.12c0 1.935.666 3.655 2.026 5.014l2.828-2.828c-.56-.56-.854-1.24-.854-2.186h-4zm2.026 5.014c1.359 1.36 3.079 2.026 5.014 2.026v-4c-.946 0-1.626-.294-2.186-.854l-2.828 2.828zm5.014 2.026h18.72v-4h-18.72v4zm16.72-2V103h4V84.28h-4zM488.918 103l.205 1.989 1.795-.185V103h-2zm-43.056-4.464l1.414-1.414-1.414 1.414zm-5.905-52.416h2v-2h-2v2zm-8.639 0h-2v2h2v-2zm0-19.44v-2h-2v2h2zm8.639 0v2h1.695l.278-1.671-1.973-.329zm2.88-17.28v-2h-1.694l-.278 1.671 1.972.329zm22.321 0h2v-2h-2v2zm0 17.28h-2v2h2v-2zm18 0h2v-2h-2v2zm0 19.44v2h2v-2h-2zm-18 0v-2h-2v2h2zm1.44 36.72l-1.415 1.414 1.415-1.414zm22.32 1.44h2v-2h-2v2zm-.206 16.731c-9.247.953-18.298 1.429-27.155 1.429v4c9 0 18.189-.484 27.566-1.451l-.411-3.978zm-27.155 1.429c-6.096 0-10.785-1.822-14.281-5.318l-2.829 2.828c4.376 4.376 10.151 6.49 17.11 6.49v-4zm-14.281-5.318c-3.497-3.497-5.319-8.186-5.319-14.282h-4c0 6.96 2.115 12.735 6.49 17.11l2.829-2.828zm-5.319-14.282V46.12h-4v36.72h4zm-2-38.72h-8.639v4h8.639v-4zm-6.639 2V26.68h-4v19.44h4zm-2-17.44h8.639v-4h-8.639v4zm10.612-1.671l2.88-17.28-3.945-.658-2.88 17.28 3.945.658zm.907-15.609h22.321v-4h-22.321v4zm20.321-2v17.28h4V9.4h-4zm2 19.28h18v-4h-18v4zm16-2v19.44h4V26.68h-4zm2 17.44h-18v4h18v-4zm-20 2v33.12h4V46.12h-4zm0 33.12c0 1.935.666 3.655 2.025 5.014l2.829-2.828c-.561-.56-.854-1.24-.854-2.186h-4zm2.025 5.014c1.36 1.36 3.08 2.026 5.015 2.026v-4c-.946 0-1.626-.294-2.186-.854l-2.829 2.828zm5.015 2.026h18.72v-4h-18.72v4zm16.72-2V103h4V84.28h-4zm37.341-56.16h-2v2.454l2.404-.495-.404-1.959zm46.656 3.024l-1.414 1.414 1.414-1.414zM576.819 103v2h2v-2h-2zm-25.2 0h-2v2h2v-2zm-20.16-57.744l-.248-1.985-.008.001.256 1.984zm-7.2.864l-.209-1.989-1.791.188v1.801h2zm0 56.88v2h2v-2h-2zm-25.2 0h-2v2h2v-2zm0-100.8v-2h-2v2h2zm25.2 0h2v-2h-2v2zm.404 27.879c9.223-1.902 17.242-2.839 24.076-2.839v-4c-7.182 0-15.482.983-24.883 2.921l.807 3.918zm24.076-2.839h6.48v-4h-6.48v4zm6.48 0c6.097 0 10.786 1.822 14.282 5.318l2.829-2.828c-4.376-4.376-10.151-6.49-17.111-6.49v4zm14.282 5.318c3.497 3.497 5.318 8.186 5.318 14.282h4c0-6.96-2.114-12.735-6.489-17.11l-2.829 2.828zm5.318 14.282V103h4V46.84h-4zm2 54.16h-25.2v4h25.2v-4zm-23.2 2V49.72h-4V103h4zm0-53.28c0-1.935-.666-3.655-2.025-5.014l-2.829 2.828c.561.56.854 1.24.854 2.186h4zm-2.025-5.014c-1.36-1.36-3.08-2.026-5.015-2.026v4c.946 0 1.626.294 2.186.854l2.829-2.828zm-5.015-2.026h-5.04v4h5.04v-4zm-5.04 0c-3.716 0-7.16.196-10.328.591l.496 3.97c2.977-.373 6.253-.561 9.832-.561v-4zm-10.336.592c-2.968.384-5.351.67-7.153.859l.419 3.978a325.42 325.42 0 007.246-.87l-.512-3.967zm-8.944 2.848V103h4V46.12h-4zm2 54.88h-25.2v4h25.2v-4zm-23.2 2V2.2h-4V103h4zm-2-98.8h25.2v-4h-25.2v4zm23.2-2v25.92h4V2.2h-4zm91.264 54.72h-2v2h2v-2zm24.48 0v2h2v-2h-2zm22.32 44.64l.206 1.989 1.794-.186v-1.803h-2zm-66.096-3.024l-1.415 1.414 1.415-1.414zm.143-67.104l1.415 1.414-1.415-1.414zm62.64 0l-1.43 1.398.016.016.017.017 1.397-1.431zm6.193 43.488v2h2v-2h-2zm-49.68 0v-2h-2v2h2zm1.44 9.36l1.414-1.414-1.414 1.414zm45.36-.72h2v-2.163l-2.157.17.157 1.993zm-41.04-42.32c-2.229 0-4.267.558-5.735 2.026-1.467 1.467-2.025 3.506-2.025 5.734h4c0-1.612.401-2.453.854-2.906.452-.452 1.294-.854 2.906-.854v-4zm-7.76 7.76v7.92h4V49h-4zm2 9.92h24.48v-4h-24.48v4zm26.48-2V49h-4v7.92h4zm0-7.92c0-2.228-.559-4.267-2.026-5.734-1.468-1.468-3.506-2.026-5.735-2.026v4c1.612 0 2.454.402 2.906.854.453.453.855 1.294.855 2.906h4zm-7.761-7.76h-12.959v4h12.959v-4zm27.874 58.33c-18.474 1.915-35.204 2.87-50.194 2.87v4c15.155 0 32.025-.965 50.607-2.891l-.413-3.978zm-50.194 2.87c-6.096 0-10.785-1.822-14.281-5.318l-2.829 2.828c4.376 4.376 10.151 6.49 17.11 6.49v-4zm-14.281-5.318c-3.497-3.497-5.318-8.186-5.318-14.282h-4c0 6.96 2.114 12.735 6.489 17.11l2.829-2.828zm-5.318-14.282V48.28h-4v34.56h4zm0-34.56c0-6.816 1.897-11.87 5.462-15.434l-2.829-2.828c-4.499 4.5-6.633 10.678-6.633 18.262h4zm5.462-15.434c3.669-3.67 8.777-5.606 15.577-5.606v-4c-7.599 0-13.819 2.191-18.406 6.778l2.829 2.828zm15.577-5.606h28.8v-4h-28.8v4zm28.8 0c6.803 0 11.851 1.938 15.418 5.59l2.861-2.795c-4.497-4.605-10.681-6.795-18.279-6.795v4zm15.451 5.623c3.652 3.567 5.59 8.614 5.59 15.417h4c0-7.597-2.191-13.782-6.795-18.279l-2.795 2.862zm5.59 15.417v26.64h4V48.28h-4zm2 24.64h-49.68v4h49.68v-4zm-51.68 2v5.76h4v-5.76h-4zm0 5.76c0 1.935.666 3.655 2.025 5.014l2.829-2.828c-.561-.56-.854-1.24-.854-2.186h-4zm2.025 5.014c1.36 1.36 3.08 2.026 5.014 2.026v-4c-.945 0-1.625-.294-2.185-.854l-2.829 2.828zm5.014 2.026c9.585 0 23.568-.725 41.917-2.166l-.313-3.988c-18.322 1.44-32.18 2.154-41.604 2.154v4zm39.761-4.16v18h4v-18h-4zm17.817 43.92h-2v1.757l1.742.226.258-1.983zm0-18.72v-2h-2v2h2zm20.016-3.024l-1.737-.992-.018.032-.017.032 1.772.928zm-.576-8.496l-1.845.772.002.004 1.843-.776zm-29.52-70.56v-2h-3.005l1.16 2.772 1.845-.772zm26.64 0l1.877-.69-.481-1.31H692.7v2zm18 48.96l-1.877.69 2.042 5.554 1.746-5.654-1.911-.59zm15.12-48.96v-2h-1.476l-.435 1.41 1.911.59zm26.64 0l1.88.683.975-2.683h-2.855v2zm-28.8 79.2l1.878.689.002-.006-1.88-.683zm-10.8 17.136l-1.312-1.509-.01.008-.009.008 1.331 1.493zm-18 3.904c-4.972 0-11.12-.47-18.462-1.423l-.516 3.966c7.442.967 13.774 1.457 18.978 1.457v-4zm-16.72.56v-18.72h-4v18.72h4zm-2-16.72h12.96v-4h-12.96v4zm12.96 0c3.91 0 7.249-1.082 8.828-4.096l-3.544-1.856c-.533 1.018-1.897 1.952-5.284 1.952v4zm8.793-4.032c1.624-2.843 1.141-6.438-.47-10.264l-3.686 1.552c1.461 3.47 1.362 5.539.682 6.728l3.474 1.984zm-.468-10.26l-29.52-70.56-3.69 1.544 29.52 70.56 3.69-1.544zM666.06 28.68h26.64v-4h-26.64v4zm24.763-1.31l18 48.96 3.754-1.38-18-48.96-3.754 1.38zm21.788 48.86l15.12-48.96-3.822-1.18-15.12 48.96 3.822 1.18zm13.209-47.55h26.64v-4h-26.64v4zm24.76-2.683l-28.8 79.2 3.76 1.366 28.8-79.2-3.76-1.366zm-28.797 79.194c-2.71 7.382-6.152 12.765-10.235 16.316l2.624 3.018c4.749-4.129 8.507-10.17 11.365-17.956l-3.754-1.378zm-10.254 16.332c-3.955 3.526-9.433 5.397-16.669 5.397v4c7.932 0 14.454-2.065 19.331-6.411l-2.662-2.986zm85.588-38.683l.147-1.995-2.147-.158v2.153h2zm49.68.72l1.414 1.414-1.414-1.414zm1.44-8.64h2v-2h-2v2zm-46.656-5.904l1.414-1.414-1.414 1.414zm0-36.432l1.414 1.414-1.414-1.414zm64.656-5.904h2v-2h-2v2zm0 18.72v2h2v-2h-2zm-43.92 1.44l1.414 1.414-1.414-1.414zm0 7.2l-1.414 1.414 1.414-1.414zm45.216 7.344l1.414-1.414-1.414 1.414zm0 37.152l1.414 1.414-1.414-1.414zm-70.416 3.024h-2v1.813l1.804.177.196-1.99zm-.148-16.725C816.476 86.276 831.893 87 843.197 87v-4c-11.16 0-26.464-.716-45.933-2.155l-.295 3.99zM843.197 87c1.935 0 3.655-.666 5.014-2.026l-2.828-2.828c-.561.56-1.241.854-2.186.854v4zm5.014-2.026c1.36-1.36 2.026-3.08 2.026-5.014h-4c0 .945-.294 1.625-.854 2.186l2.828 2.828zm2.026-5.014v-5.04h-4v5.04h4zm-2-7.04h-30.96v4h30.96v-4zm-30.96 0c-6.096 0-10.785-1.822-14.282-5.318l-2.828 2.828c4.375 4.376 10.15 6.49 17.11 6.49v-4zm-14.282-5.318c-3.496-3.497-5.318-8.186-5.318-14.282h-4c0 6.96 2.114 12.735 6.49 17.11l2.828-2.828zm-5.318-14.282v-5.04h-4v5.04h4zm0-5.04c0-6.096 1.822-10.785 5.318-14.282l-2.828-2.828c-4.376 4.375-6.49 10.15-6.49 17.11h4zm5.318-14.282c3.497-3.496 8.186-5.318 14.282-5.318v-4c-6.96 0-12.735 2.114-17.11 6.49l2.828 2.828zm14.282-5.318h48.96v-4h-48.96v4zm46.96-2V45.4h4V26.68h-4zm2 16.72h-40.32v4h40.32v-4zm-40.32 0c-1.935 0-3.655.666-5.014 2.026l2.828 2.828c.561-.56 1.241-.854 2.186-.854v-4zm-5.014 2.026c-1.36 1.36-2.026 3.08-2.026 5.014h4c0-.945.294-1.625.854-2.186l-2.828-2.828zm-2.026 5.014c0 1.935.666 3.655 2.026 5.014l2.828-2.828c-.56-.56-.854-1.24-.854-2.186h-4zm2.026 5.014c1.359 1.36 3.079 2.026 5.014 2.026v-4c-.945 0-1.625-.294-2.186-.854l-2.828 2.828zm5.014 2.026h25.92v-4h-25.92v4zm25.92 0c6.096 0 10.785 1.822 14.282 5.318l2.828-2.828c-4.375-4.376-10.15-6.49-17.11-6.49v4zm14.282 5.318c3.496 3.497 5.318 8.186 5.318 14.282h4c0-6.96-2.114-12.735-6.49-17.11l-2.828 2.828zm5.318 14.282v5.76h4v-5.76h-4zm0 5.76c0 6.096-1.822 10.785-5.318 14.282l2.828 2.828c4.376-4.375 6.49-10.15 6.49-17.11h-4zm-5.318 14.282c-3.497 3.496-8.186 5.318-14.282 5.318v4c6.96 0 12.735-2.114 17.11-6.49l-2.828-2.828zm-14.282 5.318c-16.918 0-35.092-.956-54.524-2.87l-.392 3.98c19.543 1.926 37.849 2.89 54.916 2.89v-4zm-52.72-.88V82.84h-4v18.72h4zM931.048 81.4l.572 1.916 1.428-.426V81.4h-2zm0-8.64h2v-2h-2v2zm-24.48 1.44l1.414 1.414-1.414-1.414zm0 8.64l-1.414 1.414 1.414-1.414zm-19.44-54.72l-.217-1.988-1.783.195v1.793h2zm63.216 3.024l-1.414 1.414 1.414-1.414zM956.248 103v2h2v-2h-2zm-22.32 0l-1.961.392.322 1.608h1.639v-2zm-1.44-7.2l1.961-.392-.582-2.913-2.48 1.635 1.101 1.67zm-13.968 6.624l.55 1.923.012-.004.013-.003-.575-1.916zm-32.688-3.888l-1.414 1.414 1.414-1.414zm0-37.872l1.414 1.414-1.414-1.414zm45.216-5.904v2h2v-2h-2zm-1.44-9.36l-1.414 1.414 1.414-1.414zm-24.336-.576l-.151-1.994h-.002l.153 1.994zm-18.144 1.296h-2v2.129l2.125-.133-.125-1.996zm26.64 40.16c5.332 0 11.29-1.005 17.852-2.964l-1.144-3.832c-6.302 1.88-11.864 2.796-16.708 2.796v4zm19.28-4.88v-8.64h-4v8.64h4zm-2-10.64h-20.88v4h20.88v-4zm-20.88 0c-1.935 0-3.655.666-5.014 2.026l2.828 2.828c.561-.56 1.241-.854 2.186-.854v-4zm-5.014 2.026c-1.36 1.36-2.026 3.08-2.026 5.014h4c0-.945.294-1.625.854-2.186l-2.828-2.828zm-2.026 5.014v1.44h4V77.8h-4zm0 1.44c0 1.935.666 3.655 2.026 5.014l2.828-2.828c-.56-.56-.854-1.24-.854-2.186h-4zm2.026 5.014c1.359 1.36 3.079 2.026 5.014 2.026v-4c-.945 0-1.625-.294-2.186-.854l-2.828 2.828zm5.014 2.026h3.6v-4h-3.6v4zm-22.823-56.172c17.513-1.914 33.279-2.868 47.303-2.868v-4c-14.2 0-30.114.966-47.737 2.892l.434 3.976zm47.303-2.868c6.097 0 10.785 1.822 14.282 5.318l2.828-2.828c-4.375-4.376-10.15-6.49-17.11-6.49v4zm14.282 5.318c3.496 3.497 5.318 8.186 5.318 14.282h4c0-6.96-2.114-12.735-6.49-17.11l-2.828 2.828zm5.318 14.282V103h4V46.84h-4zm2 54.16h-22.32v4h22.32v-4zm-20.359 1.608l-1.44-7.2-3.922.784 1.44 7.2 3.922-.784zm-4.502-8.478c-4.362 2.878-8.842 4.999-13.442 6.378l1.15 3.832c5-1.501 9.832-3.796 14.494-6.87l-2.202-3.34zm-13.416 6.371c-4.605 1.316-8.392 1.939-11.403 1.939v4c3.518 0 7.698-.721 12.502-2.093l-1.099-3.846zm-11.403 1.939h-5.04v4h5.04v-4zm-5.04 0c-6.096 0-10.785-1.822-14.282-5.318l-2.828 2.828c4.376 4.376 10.15 6.49 17.11 6.49v-4zm-14.282-5.318c-3.496-3.497-5.318-8.186-5.318-14.282h-4c0 6.96 2.114 12.735 6.49 17.11l2.828-2.828zm-5.318-14.282v-6.48h-4v6.48h4zm0-6.48c0-6.096 1.822-10.785 5.318-14.282l-2.828-2.828c-4.376 4.375-6.49 10.15-6.49 17.11h4zm5.318-14.282c3.497-3.496 8.186-5.318 14.282-5.318v-4c-6.96 0-12.734 2.114-17.11 6.49l2.828 2.828zm14.282-5.318h29.52v-4h-29.52v4zm31.52-2V49h-4v5.76h4zm0-5.76c0-1.935-.666-3.655-2.026-5.014l-2.828 2.828c.56.56.854 1.24.854 2.186h4zm-2.026-5.014c-1.359-1.36-3.079-2.026-5.014-2.026v4c.945 0 1.625.294 2.186.854l2.828-2.828zm-5.014-2.026c-6.3 0-13.263.29-20.887.87l.303 3.988c7.544-.573 14.404-.858 20.584-.858v-4zm-20.889.87c-7.484.576-13.521 1.007-18.116 1.294l.25 3.992c4.621-.289 10.68-.722 18.173-1.298l-.307-3.988zm-15.991 3.29v-18h-4v18h4zm80.075 81.36h-2v1.757l1.742.226.258-1.983zm0-18.72v-2h-2v2h2zm20.016-3.024l-1.737-.992-.018.032-.017.032 1.772.928zm-.576-8.496l-1.846.772.002.004 1.844-.776zm-29.521-70.56v-2h-3.004l1.159 2.772 1.845-.772zm26.641 0l1.877-.69-.482-1.31h-1.395v2zm17.997 48.96l-1.87.69 2.04 5.554 1.74-5.654-1.91-.59zm15.12-48.96v-2h-1.47l-.44 1.41 1.91.59zm26.64 0l1.88.683.98-2.683h-2.86v2zm-28.8 79.2l1.88.689v-.006l-1.88-.683zm-10.8 17.136l-1.31-1.509-.01.008-.01.008 1.33 1.493zm-17.998 3.904c-4.972 0-11.12-.47-18.462-1.423l-.515 3.966c7.442.967 13.774 1.457 18.977 1.457v-4zm-16.719.56v-18.72h-4v18.72h4zm-2-16.72h12.959v-4h-12.959v4zm12.959 0c3.91 0 7.249-1.082 8.828-4.096l-3.543-1.856c-.533 1.018-1.898 1.952-5.285 1.952v4zm8.793-4.032c1.625-2.843 1.142-6.438-.469-10.264l-3.687 1.552c1.461 3.47 1.362 5.539.683 6.728l3.473 1.984zm-.467-10.26l-29.52-70.56-3.691 1.544 29.52 70.56 3.691-1.544zM959.122 28.68h26.641v-4h-26.641v4zm24.763-1.31l18.005 48.96 3.75-1.38-18-48.96-3.755 1.38zm21.785 48.86l15.12-48.96-3.82-1.18-15.12 48.96 3.82 1.18zm13.21-47.55h26.64v-4h-26.64v4zm24.76-2.683l-28.8 79.2 3.76 1.366 28.8-79.2-3.76-1.366zm-28.79 79.194c-2.71 7.382-6.16 12.765-10.24 16.316l2.62 3.018c4.75-4.129 8.51-10.17 11.37-17.956l-3.75-1.378zm-10.26 16.332c-3.95 3.526-9.432 5.397-16.668 5.397v4c7.933 0 14.458-2.065 19.328-6.411l-2.66-2.986z" fill="#fff" fill-opacity=".06"/></svg>