<svg width="470" height="61" fill="none" xmlns="http://www.w3.org/2000/svg"><path d="M40.73 2.2l1.933-.515L42.267.2H40.73v2zM48.41 31l-1.932.515 3.88-.06L48.41 31zm6.72-28.8v-2h-1.587l-.36 1.546 1.947.454zm12.48 0l1.93.524L70.225.2H67.61v2zM55.45 47v2h1.53l.4-1.476L55.45 47zm-12.16 0l-1.928.532.405 1.468h1.523v-2zm-7.68-27.84l1.928-.532-1.928-6.989-1.928 6.99 1.928.531zM27.93 47v2h1.523l.405-1.468L27.93 47zm-12.16 0l-1.93.524.4 1.476h1.53v-2zM3.61 2.2v-2H.995l.685 2.524L3.61 2.2zm12.48 0l1.948-.454L17.678.2H16.09v2zM22.81 31l-1.948.454 3.88.061L22.81 31zm7.68-28.8v-2h-1.537l-.395 1.485 1.932.515zm8.308.515l7.68 28.8 3.864-1.03-7.68-28.8-3.864 1.03zm11.56 28.74l6.72-28.8-3.896-.91-6.72 28.8 3.896.91zM55.13 4.2h12.48v-4H55.13v4zm10.55-2.524l-12.16 44.8 3.86 1.048 12.16-44.8-3.86-1.048zM55.45 45H43.29v4h12.16v-4zm-10.232 1.468l-7.68-27.84-3.856 1.064 7.68 27.84 3.856-1.064zm-11.536-27.84l-7.68 27.84 3.856 1.064 7.68-27.84-3.856-1.064zM27.93 45H15.77v4h12.16v-4zM17.7 46.476L5.54 1.676 1.68 2.724l12.16 44.8 3.86-1.048zM3.61 4.2h12.48v-4H3.61v4zm10.532-1.546l6.72 28.8 3.896-.909-6.72-28.8-3.896.91zm10.6 28.861l7.68-28.8-3.864-1.03-7.68 28.8 3.864 1.03zM30.49 4.2h10.24v-4H30.49v4zm50.91 9.52h-2v2.454l2.404-.495-.404-1.959zm20.736 1.344l-1.414 1.414 1.414-1.414zM104.76 47v2h2v-2h-2zm-11.2 0h-2v2h2v-2zM84.6 21.336l-.248-1.985-.008.001.256 1.984zm-3.2.384l-.21-1.989-1.79.188v1.801h2zm0 25.28v2h2v-2h-2zm-11.2 0h-2v2h2v-2zm0-44.8v-2h-2v2h2zm11.2 0h2v-2h-2v2zm.404 13.479c4.05-.835 7.535-1.239 10.476-1.239v-4c-3.289 0-7.056.45-11.284 1.321l.808 3.918zM92.28 14.44h2.88v-4h-2.88v4zm2.88 0c2.47 0 4.252.729 5.562 2.038l2.828-2.828c-2.189-2.19-5.057-3.21-8.39-3.21v4zm5.562 2.038c1.31 1.31 2.038 3.092 2.038 5.562h4c0-3.333-1.021-6.201-3.21-8.39l-2.828 2.828zm2.038 5.562V47h4V22.04h-4zm2 22.96h-11.2v4h11.2v-4zm-9.2 2V23.32h-4V47h4zm0-23.68c0-1.135-.4-2.188-1.226-3.014l-2.828 2.828a.24.24 0 01.03.035l.007.014a.38.38 0 01.017.137h4zm-1.226-3.014c-.826-.826-1.88-1.226-3.014-1.226v4a.38.38 0 01.137.017.066.066 0 01.014.007.24.24 0 01.035.03l2.828-2.828zM91.32 19.08h-2.24v4h2.24v-4zm-2.24 0c-1.69 0-3.267.089-4.728.271l.496 3.97c1.27-.16 2.68-.241 4.232-.241v-4zm-4.736.272c-1.316.17-2.365.296-3.153.379l.418 3.978a146.35 146.35 0 003.247-.39l-.512-3.967zM79.4 21.72V47h4V21.72h-4zm2 23.28H70.2v4h11.2v-4zm-9.2 2V2.2h-4V47h4zm-2-42.8h11.2v-4H70.2v4zm9.2-2v11.52h4V2.2h-4zm52.233 35.2l.572 1.916 1.428-.426V37.4h-2zm0-3.84h2v-2h-2v2zm-10.88.64l1.414 1.414-1.414-1.414zm0 3.84l-1.415 1.414 1.415-1.414zm-8.64-24.32l-.218-1.988-1.782.195v1.793h2zm28.095 1.344l-1.414 1.414 1.414-1.414zM142.833 47v2h2v-2h-2zm-9.92 0l-1.962.392.322 1.608h1.64v-2zm-.64-3.2l1.961-.392-.583-2.913-2.48 1.636 1.102 1.669zm-6.208 2.944l.549 1.923.013-.004.012-.003-.574-1.916zm-14.529-1.728l-1.414 1.414 1.414-1.414zm0-16.832l1.415 1.414-1.415-1.414zm20.097-2.624v2h2v-2h-2zm-.64-4.16l-1.415 1.414 1.415-1.414zm-10.816-.256l-.152-1.994h-.002l.154 1.994zm-8.064.576h-2v2.129l2.124-.133-.124-1.996zm11.84 18.96c2.505 0 5.263-.471 8.252-1.364l-1.145-3.832c-2.728.814-5.09 1.196-7.107 1.196v4zm9.68-3.28v-3.84h-4v3.84h4zm-2-5.84h-9.28v4h9.28v-4zm-9.28 0c-1.135 0-2.188.4-3.015 1.226l2.829 2.828a.227.227 0 01.048-.037.385.385 0 01.138-.017v-4zm-3.015 1.226c-.826.826-1.225 1.88-1.225 3.014h4c0-.095.014-.132.016-.137a.188.188 0 01.038-.049l-2.829-2.828zm-1.225 3.014v.64h4v-.64h-4zm0 .64c0 1.135.399 2.188 1.225 3.014l2.829-2.828a.188.188 0 01-.038-.049.398.398 0 01-.016-.137h-4zm1.225 3.014c.827.827 1.88 1.226 3.015 1.226v-4a.385.385 0 01-.138-.017.227.227 0 01-.048-.037l-2.829 2.828zm3.015 1.226h1.6v-4h-1.6v4zM112.33 15.708c7.753-.847 14.718-1.268 20.903-1.268v-4c-6.36 0-13.475.433-21.338 1.292l.435 3.976zm20.903-1.268c2.469 0 4.252.729 5.561 2.038l2.829-2.828c-2.189-2.19-5.058-3.21-8.39-3.21v4zm5.561 2.038c1.31 1.31 2.039 3.092 2.039 5.562h4c0-3.333-1.021-6.201-3.21-8.39l-2.829 2.828zm2.039 5.562V47h4V22.04h-4zm2 22.96h-9.92v4h9.92v-4zm-7.959 1.608l-.64-3.2-3.923.784.64 3.2 3.923-.784zm-3.703-4.477c-1.855 1.223-3.748 2.117-5.681 2.697l1.149 3.832c2.334-.7 4.58-1.769 6.735-3.19l-2.203-3.34zm-5.656 2.69c-1.992.569-3.565.819-4.762.819v4c1.704 0 3.671-.347 5.861-.973l-1.099-3.846zm-4.762.819h-2.24v4h2.24v-4zm-2.24 0c-2.47 0-4.253-.729-5.562-2.038l-2.829 2.828c2.189 2.19 5.058 3.21 8.391 3.21v-4zm-5.562-2.038c-1.31-1.31-2.038-3.092-2.038-5.562h-4c0 3.333 1.02 6.201 3.209 8.39l2.829-2.828zm-2.038-5.562v-2.88h-4v2.88h4zm0-2.88c0-2.47.728-4.252 2.038-5.562l-2.829-2.828c-2.189 2.189-3.209 5.057-3.209 8.39h4zm2.038-5.562c1.309-1.31 3.092-2.038 5.562-2.038v-4c-3.333 0-6.202 1.02-8.391 3.21l2.829 2.828zm5.562-2.038h13.12v-4h-13.12v4zm15.12-2V23h-4v2.56h4zm0-2.56c0-1.135-.4-2.188-1.226-3.014l-2.829 2.828a.188.188 0 01.038.049.38.38 0 01.017.137h4zm-1.226-3.014c-.827-.826-1.88-1.226-3.014-1.226v4c.094 0 .132.015.137.017a.227.227 0 01.048.037l2.829-2.828zm-3.014-1.226c-2.834 0-5.957.13-9.368.39l.303 3.988c3.331-.253 6.351-.378 9.065-.378v-4zm-9.37.39a588.44 588.44 0 01-8.035.574l.249 3.992a598.84 598.84 0 008.093-.578l-.307-3.988zm-5.91 2.57v-8h-4v8h4zM172.255 47l.205 1.99 1.795-.186V47h-2zm-19.136-1.984l1.414-1.414-1.414 1.414zm-2.624-23.296h2v-2h-2v2zm-3.84 0h-2v2h2v-2zm0-8.64v-2h-2v2h2zm3.84 0v2h1.694l.279-1.671-1.973-.329zm1.28-7.68v-2h-1.694l-.279 1.671 1.973.329zm9.92 0h2v-2h-2v2zm0 7.68h-2v2h2v-2zm8 0h2v-2h-2v2zm0 8.64v2h2v-2h-2zm-8 0v-2h-2v2h2zm.64 16.32l-1.414 1.414 1.414-1.414zm9.92.64h2v-2h-2v2zm-.205 6.33c-4.074.42-8.059.63-11.955.63v4c4.04 0 8.162-.217 12.365-.65l-.41-3.98zm-11.955.63c-2.47 0-4.252-.729-5.562-2.038l-2.828 2.828c2.189 2.19 5.057 3.21 8.39 3.21v-4zm-5.562-2.038c-1.31-1.31-2.038-3.092-2.038-5.562h-4c0 3.333 1.021 6.201 3.21 8.39l2.828-2.828zm-2.038-5.562V21.72h-4v16.32h4zm-2-18.32h-3.84v4h3.84v-4zm-1.84 2v-8.64h-4v8.64h4zm-2-6.64h3.84v-4h-3.84v4zm5.813-1.671l1.28-7.68-3.946-.658-1.28 7.68 3.946.658zm-.693-6.009h9.92v-4h-9.92v4zm7.92-2v7.68h4V5.4h-4zm2 9.68h8v-4h-8v4zm6-2v8.64h4v-8.64h-4zm2 6.64h-8v4h8v-4zm-10 2v14.72h4V21.72h-4zm0 14.72c0 1.135.4 2.188 1.226 3.014l2.828-2.828c-.018-.018-.026-.03-.03-.035a.201.201 0 01-.007-.014.38.38 0 01-.017-.137h-4zm1.226 3.014c.826.827 1.879 1.226 3.014 1.226v-4c-.095 0-.132-.015-.137-.017a.102.102 0 01-.014-.007c-.005-.004-.017-.012-.035-.03l-2.828 2.828zm3.014 1.226h8.32v-4h-8.32v4zm6.32-2V47h4v-8.32h-4zM219.63 47l.205 1.99 1.795-.186V47h-2zm-19.136-1.984l1.414-1.414-1.414 1.414zM197.87 21.72h2v-2h-2v2zm-3.84 0h-2v2h2v-2zm0-8.64v-2h-2v2h2zm3.84 0v2h1.694l.279-1.671-1.973-.329zm1.28-7.68v-2h-1.694l-.279 1.671 1.973.329zm9.92 0h2v-2h-2v2zm0 7.68h-2v2h2v-2zm8 0h2v-2h-2v2zm0 8.64v2h2v-2h-2zm-8 0v-2h-2v2h2zm.64 16.32l-1.414 1.414 1.414-1.414zm9.92.64h2v-2h-2v2zm-.205 6.33c-4.074.42-8.059.63-11.955.63v4c4.04 0 8.162-.217 12.365-.65l-.41-3.98zm-11.955.63c-2.47 0-4.252-.729-5.562-2.038l-2.828 2.828c2.189 2.19 5.057 3.21 8.39 3.21v-4zm-5.562-2.038c-1.31-1.31-2.038-3.092-2.038-5.562h-4c0 3.333 1.021 6.201 3.21 8.39l2.828-2.828zm-2.038-5.562V21.72h-4v16.32h4zm-2-18.32h-3.84v4h3.84v-4zm-1.84 2v-8.64h-4v8.64h4zm-2-6.64h3.84v-4h-3.84v4zm5.813-1.671l1.28-7.68-3.946-.658-1.28 7.68 3.946.658zM199.15 7.4h9.92v-4h-9.92v4zm7.92-2v7.68h4V5.4h-4zm2 9.68h8v-4h-8v4zm6-2v8.64h4v-8.64h-4zm2 6.64h-8v4h8v-4zm-10 2v14.72h4V21.72h-4zm0 14.72c0 1.135.4 2.188 1.226 3.014l2.828-2.828c-.018-.018-.026-.03-.03-.035a.201.201 0 01-.007-.014.38.38 0 01-.017-.137h-4zm1.226 3.014c.826.827 1.879 1.226 3.014 1.226v-4c-.095 0-.132-.015-.137-.017a.102.102 0 01-.014-.007c-.005-.004-.017-.012-.035-.03l-2.828 2.828zm3.014 1.226h8.32v-4h-8.32v4zm6.32-2V47h4v-8.32h-4zm17.708-24.96h-2v2.454l2.403-.495-.403-1.959zm20.736 1.344l-1.415 1.414 1.415-1.414zM258.698 47v2h2v-2h-2zm-11.2 0h-2v2h2v-2zm-8.96-25.664l-.249-1.985-.007.001.256 1.984zm-3.2.384l-.21-1.989-1.79.188v1.801h2zm0 25.28v2h2v-2h-2zm-11.2 0h-2v2h2v-2zm0-44.8v-2h-2v2h2zm11.2 0h2v-2h-2v2zm.403 13.479c4.05-.835 7.536-1.239 10.477-1.239v-4c-3.289 0-7.056.45-11.284 1.321l.807 3.918zm10.477-1.239h2.88v-4h-2.88v4zm2.88 0c2.469 0 4.252.729 5.561 2.038l2.829-2.828c-2.189-2.19-5.058-3.21-8.39-3.21v4zm5.561 2.038c1.31 1.31 2.039 3.092 2.039 5.562h4c0-3.333-1.021-6.201-3.21-8.39l-2.829 2.828zm2.039 5.562V47h4V22.04h-4zm2 22.96h-11.2v4h11.2v-4zm-9.2 2V23.32h-4V47h4zm0-23.68c0-1.135-.4-2.188-1.226-3.014l-2.829 2.828a.188.188 0 01.038.049.38.38 0 01.017.137h4zm-1.226-3.014c-.827-.826-1.88-1.226-3.014-1.226v4c.094 0 .132.015.137.017a.227.227 0 01.048.037l2.829-2.828zm-3.014-1.226h-2.24v4h2.24v-4zm-2.24 0a38.27 38.27 0 00-4.729.271l.497 3.97c1.27-.16 2.679-.241 4.232-.241v-4zm-4.736.272c-1.316.17-2.365.296-3.154.379l.419 3.978a145.08 145.08 0 003.246-.39l-.511-3.967zm-4.944 2.368V47h4V21.72h-4zm2 23.28h-11.2v4h11.2v-4zm-9.2 2V2.2h-4V47h4zm-2-42.8h11.2v-4h-11.2v4zm9.2-2v11.52h4V2.2h-4zm41.672 24.32h-2v2h2v-2zm10.88 0v2h2v-2h-2zm9.92 19.84l.206 1.99 1.794-.187V46.36h-2zm-29.376-1.344l-1.414 1.414 1.414-1.414zm.064-29.824l1.414 1.414-1.414-1.414zm27.84 0l-1.431 1.398.017.016.017.017 1.397-1.431zm2.752 19.328v2h2v-2h-2zm-22.08 0v-2h-2v2h2zm.64 4.16l1.414-1.414-1.414 1.414zm20.16-.32h2v-2.163l-2.157.17.157 1.993zm-18.24-19.92c-1.162 0-2.4.292-3.334 1.226-.934.934-1.226 2.172-1.226 3.334h4c0-.545.135-.587.054-.506-.08.08-.039-.054.506-.054v-4zM273.01 23v3.52h4V23h-4zm2 5.52h10.88v-4h-10.88v4zm12.88-2V23h-4v3.52h4zm0-3.52c0-1.162-.292-2.4-1.226-3.334-.934-.934-2.172-1.226-3.334-1.226v4c.545 0 .586.135.506.054-.081-.08.054-.039.054.506h4zm-4.56-4.56h-5.76v4h5.76v-4zm12.274 25.93c-8.182.849-15.578 1.27-22.194 1.27v4c6.781 0 14.318-.432 22.606-1.29l-.412-3.98zm-22.194 1.27c-2.47 0-4.252-.729-5.562-2.038l-2.828 2.828c2.189 2.19 5.057 3.21 8.39 3.21v-4zm-5.562-2.038c-1.31-1.31-2.038-3.092-2.038-5.562h-4c0 3.333 1.021 6.201 3.21 8.39l2.828-2.828zm-2.038-5.562V22.68h-4v15.36h4zm0-15.36c0-2.816.778-4.75 2.102-6.074l-2.828-2.828c-2.26 2.26-3.274 5.318-3.274 8.902h4zm2.102-6.074c1.376-1.376 3.337-2.166 6.138-2.166v-4c-3.599 0-6.673 1.044-8.966 3.338l2.828 2.828zm6.138-2.166h12.8v-4h-12.8v4zm12.8 0c2.803 0 4.73.79 6.057 2.15l2.862-2.796c-2.257-2.31-5.322-3.354-8.919-3.354v4zm6.091 2.183c1.358 1.327 2.149 3.254 2.149 6.057h4c0-3.597-1.044-6.662-3.355-8.919l-2.794 2.862zm2.149 6.057v11.84h4V22.68h-4zm2 9.84h-22.08v4h22.08v-4zm-24.08 2v2.56h4v-2.56h-4zm0 2.56c0 1.135.4 2.188 1.226 3.014l2.828-2.828c-.018-.018-.026-.03-.03-.035a.201.201 0 01-.007-.014.38.38 0 01-.017-.137h-4zm1.226 3.014c.826.826 1.879 1.226 3.014 1.226v-4c-.095 0-.132-.015-.137-.017a.102.102 0 01-.014-.007c-.005-.004-.017-.012-.035-.03l-2.828 2.828zm3.014 1.226c4.304 0 10.554-.325 18.717-.966l-.314-3.988c-8.135.64-14.259.954-18.403.954v4zm16.56-2.96v8h4v-8h-4zm9.03 19.52h-2v1.757l1.742.226.258-1.983zm0-8.32v-2h-2v2h2zm8.896-1.344L310 47.224l-.019.032-.017.032 1.772.928zm-.256-3.776l-1.845.772.002.004 1.843-.776zm-13.12-31.36v-2h-3.005l1.16 2.772 1.845-.772zm11.84 0l1.877-.69-.481-1.31H310.2v2zm8 21.76l-1.877.69 2.042 5.554 1.746-5.654-1.911-.59zm6.72-21.76v-2h-1.476l-.435 1.41 1.911.59zm11.84 0l1.88.684.975-2.684h-2.855v2zm-12.8 35.2l1.878.69.002-.006-1.88-.684zm-4.8 7.616l-1.312-1.51-.01.009-.009.008 1.331 1.493zm-8 .624c-2.146 0-4.827-.203-8.062-.623l-.516 3.966c3.336.434 6.201.657 8.578.657v-4zm-6.32 1.36v-8.32h-4v8.32h4zm-2-6.32h5.76v-4h-5.76v4zm5.76 0c1.883 0 3.916-.522 4.908-2.416l-3.544-1.856a.05.05 0 01-.015.02.533.533 0 01-.137.078c-.191.082-.566.174-1.212.174v4zm4.872-2.352c.985-1.723.609-3.744-.149-5.544l-3.686 1.552c.607 1.443.402 1.94.363 2.008l3.472 1.984zm-.147-5.54l-13.12-31.36-3.69 1.544 13.12 31.36 3.69-1.544zM298.36 15.08h11.84v-4h-11.84v4zm9.963-1.31l8 21.76 3.754-1.38-8-21.76-3.754 1.38zm11.788 21.66l6.72-21.76-3.822-1.18-6.72 21.76 3.822 1.18zm4.809-20.35h11.84v-4h-11.84v4zm9.96-2.684l-12.8 35.2 3.76 1.368 12.8-35.2-3.76-1.367zm-12.797 35.195c-1.164 3.168-2.606 5.379-4.235 6.796l2.624 3.018c2.296-1.996 4.054-4.863 5.365-8.436l-3.754-1.378zm-4.254 6.812c-1.502 1.339-3.647 2.117-6.669 2.117v4c3.719 0 6.908-.971 9.331-3.131l-2.662-2.986zm38.779-16.363l.147-1.995-2.147-.158v2.153h2zm22.08.32l1.414 1.414-1.414-1.414zm.64-3.84h2v-2h-2v2zm-20.736-2.624l1.414-1.414-1.414 1.414zm0-16.192l1.414 1.414-1.414-1.414zm28.736-2.624h2v-2h-2v2zm0 8.32v2h2v-2h-2zm-19.52.64l1.414 1.414-1.414-1.414zm0 3.2l-1.415 1.414 1.415-1.414zm20.096 3.264l1.414-1.414-1.414 1.414zm0 16.512l1.414 1.414-1.414-1.414zm-31.296 1.344h-2v1.813l1.803.177.197-1.99zm-.148-6.325c8.68.641 15.563.965 20.628.965v-4c-4.92 0-11.691-.316-20.333-.955l-.295 3.99zm20.628.965c1.134 0 2.187-.4 3.014-1.226l-2.829-2.828a.227.227 0 01-.048.037.382.382 0 01-.137.017v4zm3.014-1.226c.826-.826 1.226-1.88 1.226-3.014h-4a.38.38 0 01-.017.137.188.188 0 01-.038.049l2.829 2.828zm1.226-3.014v-2.24h-4v2.24h4zm-2-4.24h-13.76v4h13.76v-4zm-13.76 0c-2.47 0-4.253-.729-5.562-2.038l-2.829 2.828c2.189 2.19 5.058 3.21 8.391 3.21v-4zm-5.562-2.038c-1.31-1.31-2.038-3.092-2.038-5.562h-4c0 3.333 1.02 6.201 3.209 8.39l2.829-2.828zm-2.038-5.562v-2.24h-4v2.24h4zm0-2.24c0-2.47.728-4.252 2.038-5.562l-2.829-2.828c-2.189 2.189-3.209 5.057-3.209 8.39h4zm2.038-5.562c1.309-1.31 3.092-2.038 5.562-2.038v-4c-3.333 0-6.202 1.02-8.391 3.21l2.829 2.828zm5.562-2.038h21.76v-4h-21.76v4zm19.76-2v8.32h4v-8.32h-4zm2 6.32h-17.92v4h17.92v-4zm-17.92 0c-1.135 0-2.188.4-3.015 1.226l2.829 2.828a.227.227 0 01.048-.037.385.385 0 01.138-.017v-4zm-3.015 1.226c-.826.826-1.225 1.88-1.225 3.014h4c0-.095.014-.132.016-.137a.188.188 0 01.038-.049l-2.829-2.828zm-1.225 3.014c0 1.135.399 2.188 1.225 3.014l2.829-2.828a.188.188 0 01-.038-.049.398.398 0 01-.016-.137h-4zm1.225 3.014c.827.826 1.88 1.226 3.015 1.226v-4a.385.385 0 01-.138-.017.227.227 0 01-.048-.037l-2.829 2.828zm3.015 1.226h11.52v-4h-11.52v4zm11.52 0c2.469 0 4.252.729 5.561 2.038l2.829-2.828c-2.189-2.19-5.058-3.21-8.39-3.21v4zm5.561 2.038c1.31 1.31 2.039 3.092 2.039 5.562h4c0-3.333-1.021-6.201-3.21-8.39l-2.829 2.828zm2.039 5.562v2.56h4v-2.56h-4zm0 2.56c0 2.47-.729 4.252-2.039 5.562l2.829 2.828c2.189-2.189 3.21-5.057 3.21-8.39h-4zm-2.039 5.562c-1.309 1.31-3.092 2.038-5.561 2.038v4c3.332 0 6.201-1.02 8.39-3.21l-2.829-2.828zm-5.561 2.038c-7.478 0-15.519-.422-24.124-1.27l-.393 3.98c8.717.86 16.89 1.29 24.517 1.29v-4zm-22.32.72v-8.32h-4v8.32h4zm57.525-8.96l.572 1.916 1.428-.426V37.4h-2zm0-3.84h2v-2h-2v2zm-10.88.64l1.414 1.414-1.414-1.414zm0 3.84l-1.415 1.414 1.415-1.414zm-8.64-24.32l-.218-1.988-1.782.195v1.793h2zm28.095 1.344l-1.414 1.414 1.414-1.414zM427.333 47v2h2v-2h-2zm-9.92 0l-1.962.392.322 1.608h1.64v-2zm-.64-3.2l1.961-.392-.583-2.913-2.48 1.636 1.102 1.669zm-6.208 2.944l.549 1.923.013-.004.012-.003-.574-1.916zm-14.529-1.728l-1.414 1.414 1.414-1.414zm0-16.832l1.415 1.414-1.415-1.414zm20.097-2.624v2h2v-2h-2zm-.64-4.16l-1.415 1.414 1.415-1.414zm-10.816-.256l-.152-1.994h-.002l.154 1.994zm-8.064.576h-2v2.129l2.124-.133-.124-1.996zm11.84 18.96c2.505 0 5.263-.471 8.252-1.364l-1.145-3.832c-2.728.814-5.09 1.196-7.107 1.196v4zm9.68-3.28v-3.84h-4v3.84h4zm-2-5.84h-9.28v4h9.28v-4zm-9.28 0c-1.135 0-2.188.4-3.015 1.226l2.829 2.828a.227.227 0 01.048-.037.385.385 0 01.138-.017v-4zm-3.015 1.226c-.826.826-1.225 1.88-1.225 3.014h4c0-.095.014-.132.016-.137a.188.188 0 01.038-.049l-2.829-2.828zm-1.225 3.014v.64h4v-.64h-4zm0 .64c0 1.135.399 2.188 1.225 3.014l2.829-2.828a.188.188 0 01-.038-.049.398.398 0 01-.016-.137h-4zm1.225 3.014c.827.827 1.88 1.226 3.015 1.226v-4a.385.385 0 01-.138-.017.227.227 0 01-.048-.037l-2.829 2.828zm3.015 1.226h1.6v-4h-1.6v4zM396.83 15.708c7.753-.847 14.718-1.268 20.903-1.268v-4c-6.36 0-13.475.433-21.338 1.292l.435 3.976zm20.903-1.268c2.469 0 4.252.729 5.561 2.038l2.829-2.828c-2.189-2.19-5.058-3.21-8.39-3.21v4zm5.561 2.038c1.31 1.31 2.039 3.092 2.039 5.562h4c0-3.333-1.021-6.201-3.21-8.39l-2.829 2.828zm2.039 5.562V47h4V22.04h-4zm2 22.96h-9.92v4h9.92v-4zm-7.959 1.608l-.64-3.2-3.923.784.64 3.2 3.923-.784zm-3.703-4.477c-1.855 1.223-3.748 2.117-5.681 2.697l1.149 3.832c2.334-.7 4.58-1.769 6.735-3.19l-2.203-3.34zm-5.656 2.69c-1.992.569-3.565.819-4.762.819v4c1.704 0 3.671-.347 5.861-.973l-1.099-3.846zm-4.762.819h-2.24v4h2.24v-4zm-2.24 0c-2.47 0-4.253-.729-5.562-2.038l-2.829 2.828c2.189 2.19 5.058 3.21 8.391 3.21v-4zm-5.562-2.038c-1.31-1.31-2.038-3.092-2.038-5.562h-4c0 3.333 1.02 6.201 3.209 8.39l2.829-2.828zm-2.038-5.562v-2.88h-4v2.88h4zm0-2.88c0-2.47.728-4.252 2.038-5.562l-2.829-2.828c-2.189 2.189-3.209 5.057-3.209 8.39h4zm2.038-5.562c1.309-1.31 3.092-2.038 5.562-2.038v-4c-3.333 0-6.202 1.02-8.391 3.21l2.829 2.828zm5.562-2.038h13.12v-4h-13.12v4zm15.12-2V23h-4v2.56h4zm0-2.56c0-1.135-.4-2.188-1.226-3.014l-2.829 2.828a.188.188 0 01.038.049.38.38 0 01.017.137h4zm-1.226-3.014c-.827-.826-1.88-1.226-3.014-1.226v4c.094 0 .132.015.137.017a.227.227 0 01.048.037l2.829-2.828zm-3.014-1.226c-2.834 0-5.957.13-9.368.39l.303 3.988c3.331-.253 6.351-.378 9.065-.378v-4zm-9.37.39a588.44 588.44 0 01-8.035.574l.249 3.992a598.84 598.84 0 008.093-.578l-.307-3.988zm-5.91 2.57v-8h-4v8h4zm34.477 36.16h-2v1.757l1.742.226.258-1.983zm0-8.32v-2h-2v2h2zm8.896-1.344l-1.736-.992-.019.032-.017.032 1.772.928zm-.256-3.776l-1.845.772.002.004 1.843-.776zm-13.12-31.36v-2h-3.005l1.16 2.772 1.845-.772zm11.84 0l1.877-.69-.481-1.31h-1.396v2zm8 21.76l-1.877.69 2.042 5.554 1.746-5.654-1.911-.59zm6.72-21.76v-2h-1.476l-.435 1.41 1.911.59zm11.84 0l1.88.684.975-2.684h-2.855v2zm-12.8 35.2l1.878.69.002-.006-1.88-.684zm-4.8 7.616l-1.312-1.51-.01.009-.009.008 1.331 1.493zm-8 .624c-2.146 0-4.827-.203-8.062-.623l-.516 3.966c3.336.434 6.201.657 8.578.657v-4zm-6.32 1.36v-8.32h-4v8.32h4zm-2-6.32h5.76v-4h-5.76v4zm5.76 0c1.883 0 3.916-.522 4.908-2.416l-3.544-1.856a.05.05 0 01-.015.02.533.533 0 01-.137.078c-.191.082-.566.174-1.212.174v4zm4.872-2.352c.985-1.723.609-3.744-.149-5.544l-3.686 1.552c.607 1.443.402 1.94.363 2.008l3.472 1.984zm-.147-5.54l-13.12-31.36-3.69 1.544 13.12 31.36 3.69-1.544zM428.61 15.08h11.84v-4h-11.84v4zm9.963-1.31l8 21.76 3.754-1.38-8-21.76-3.754 1.38zm11.788 21.66l6.72-21.76-3.822-1.18-6.72 21.76 3.822 1.18zm4.809-20.35h11.84v-4h-11.84v4zm9.96-2.684l-12.8 35.2 3.76 1.368 12.8-35.2-3.76-1.367zm-12.797 35.195c-1.164 3.168-2.606 5.379-4.235 6.796l2.624 3.018c2.296-1.996 4.054-4.863 5.365-8.436l-3.754-1.378zm-4.254 6.812c-1.502 1.339-3.647 2.117-6.669 2.117v4c3.719 0 6.908-.971 9.331-3.131l-2.662-2.986z" fill="#fff" fill-opacity=".06"/></svg>