<svg width="354" height="47" fill="none" xmlns="http://www.w3.org/2000/svg"><path d="M30.797 2.4l1.933-.515L32.334.4h-1.537v2zm5.76 21.6l-1.932.515 3.88-.06L36.557 24zm5.04-21.6v-2H40.01l-.36 1.546 1.947.454zm9.36 0l1.93.524L53.574.4h-2.615v2zM41.838 36v2h1.53l.4-1.476-1.93-.524zm-9.12 0l-1.927.532.405 1.468h1.523v-2zm-5.76-20.88l1.928-.532L26.957 7.6l-1.928 6.99 1.928.531zM21.197 36v2h1.524l.404-1.468L21.198 36zm-9.12 0l-1.93.524.401 1.476h1.53v-2zM2.958 2.4v-2H.342l.685 2.524 1.93-.524zm9.36 0l1.948-.454L13.905.4h-1.587v2zm5.04 21.6l-1.947.454 3.88.061L17.358 24zm5.76-21.6v-2h-1.536l-.396 1.485 1.933.515zm5.748.515l5.76 21.6 3.865-1.03-5.76-21.6-3.865 1.03zm9.64 21.54l5.04-21.6-3.895-.91-5.04 21.6 3.895.91zM41.597 4.4h9.36v-4h-9.36v4zm7.43-2.524l-9.12 33.6 3.86 1.048 9.12-33.6-3.86-1.048zM41.837 34h-9.12v4h9.12v-4zm-7.192 1.468l-5.76-20.88-3.856 1.064 5.76 20.88 3.856-1.064zm-9.616-20.88l-5.76 20.88 3.857 1.064 5.76-20.88-3.857-1.064zM21.198 34h-9.12v4h9.12v-4zm-7.19 1.476l-9.12-33.6-3.86 1.048 9.12 33.6 3.86-1.048zM2.958 4.4h9.36v-4h-9.36v4zm7.412-1.546l5.04 21.6 3.895-.909-5.04-21.6-3.895.91zm8.92 21.661l5.76-21.6-3.865-1.03-5.76 21.6 3.865 1.03zM23.118 4.4h7.68v-4h-7.68v4zM61.3 11.04h-2v2.454L61.704 13l-.404-1.96zm15.552 1.008l-1.414 1.414 1.414-1.414zM78.82 36v2h2v-2h-2zm-8.4 0h-2v2h2v-2zM63.7 16.752l-.248-1.985-.008.001.256 1.984zm-2.4.288l-.21-1.989-1.79.188v1.801h2zm0 18.96v2h2v-2h-2zm-8.4 0h-2v2h2v-2zm0-33.6v-2h-2v2h2zm8.4 0h2v-2h-2v2zm.404 10.599c3.015-.622 5.594-.919 7.756-.919v-4c-2.51 0-5.37.343-8.564 1.001L61.704 13zm7.756-.919h2.16v-4h-2.16v4zm2.16 0c1.744 0 2.945.51 3.818 1.382l2.828-2.828C76.515 8.882 74.228 8.08 71.62 8.08v4zm3.818 1.382c.872.873 1.382 2.074 1.382 3.818h4c0-2.608-.802-4.895-2.554-6.646l-2.828 2.828zm1.382 3.818V36h4V17.28h-4zm2 16.72h-8.4v4h8.4v-4zm-6.4 2V18.24h-4V36h4zm0-17.76c0-.975-.346-1.895-1.066-2.614l-2.828 2.828a.408.408 0 01-.083-.131c-.025-.062-.023-.098-.023-.083h4zm-1.066-2.614c-.72-.72-1.64-1.066-2.614-1.066v4c.015 0-.021.002-.083-.023a.408.408 0 01-.131-.083l2.828-2.828zM68.74 14.56h-1.68v4h1.68v-4zm-1.68 0a29.16 29.16 0 00-3.608.207l.496 3.97a25.2 25.2 0 013.112-.177v-4zm-3.616.208a106.1 106.1 0 01-2.353.283l.418 3.978c.63-.066 1.448-.165 2.447-.293l-.512-3.968zM59.3 17.04V36h4V17.04h-4zm2 16.96h-8.4v4h8.4v-4zm-6.4 2V2.4h-4V36h4zm-2-31.6h8.4v-4h-8.4v4zm6.4-2v8.64h4V2.4h-4zm39.674 26.4l.572 1.916 1.428-.426V28.8h-2zm0-2.88h2v-2h-2v2zm-8.16.48l1.415 1.414-1.415-1.414zm0 2.88L89.4 30.694l1.414-1.414zm-6.48-18.24l-.217-1.988-1.783.195v1.793h2zm21.072 1.008l-1.414 1.414 1.414-1.414zM107.374 36v2h2v-2h-2zm-7.44 0l-1.96.392.32 1.608h1.64v-2zm-.48-2.4l1.962-.392-.583-2.913-2.48 1.635 1.101 1.67zm-4.656 2.208l.55 1.923.013-.004.012-.003-.575-1.916zm-10.896-1.296l-1.414 1.414 1.414-1.414zm0-12.624l1.415 1.414-1.415-1.414zm15.072-1.968v2h2v-2h-2zm-.48-3.12l-1.414 1.414 1.414-1.414zm-8.112-.192l-.151-1.994h-.002l.153 1.994zm-6.048.432h-2v2.129l2.125-.133-.125-1.996zm8.88 14.72c1.94 0 4.058-.365 6.332-1.044l-1.144-3.832c-2.014.6-3.736.876-5.188.876v4zm7.76-2.96v-2.88h-4v2.88h4zm-2-4.88h-6.96v4h6.96v-4zm-6.96 0c-.974 0-1.894.346-2.614 1.066l2.829 2.828a.41.41 0 01-.132.083c-.062.025-.097.023-.083.023v-4zM89.4 24.986c-.72.72-1.066 1.64-1.066 2.614h4c0-.015.002.021-.023.083a.407.407 0 01-.082.131L89.4 24.986zM88.334 27.6v.48h4v-.48h-4zm0 .48c0 .975.347 1.895 1.066 2.614l2.829-2.828a.407.407 0 01.082.131c.025.062.023.098.023.083h-4zm1.066 2.614c.72.72 1.64 1.066 2.614 1.066v-4c-.014 0 .021-.002.083.023a.41.41 0 01.132.083L89.4 30.694zm2.614 1.066h1.2v-4h-1.2v4zm-7.462-18.732c5.8-.634 11.006-.948 15.622-.948v-4c-4.792 0-10.146.326-16.057.972l.435 3.976zm15.622-.948c1.745 0 2.946.51 3.818 1.382l2.829-2.828c-1.752-1.752-4.039-2.554-6.647-2.554v4zm3.818 1.382c.873.873 1.382 2.074 1.382 3.818h4c0-2.608-.802-4.895-2.553-6.646l-2.829 2.828zm1.382 3.818V36h4V17.28h-4zm2 16.72h-7.44v4h7.44v-4zm-5.478 1.608l-.48-2.4-3.923.784.48 2.4 3.923-.784zm-3.543-3.677c-1.354.893-2.73 1.541-4.13 1.961l1.15 3.832c1.8-.54 3.529-1.364 5.183-2.454l-2.203-3.34zm-4.104 1.954c-1.469.42-2.6.595-3.435.595v4c1.342 0 2.867-.273 4.534-.749l-1.1-3.846zm-3.435.595h-1.68v4h1.68v-4zm-1.68 0c-1.744 0-2.945-.51-3.817-1.382l-2.829 2.828c1.752 1.752 4.039 2.554 6.646 2.554v-4zm-3.817-1.382c-.873-.873-1.383-2.074-1.383-3.818h-4c0 2.608.803 4.895 2.554 6.646l2.829-2.828zm-1.383-3.818v-2.16h-4v2.16h4zm0-2.16c0-1.744.51-2.945 1.383-3.818l-2.829-2.828c-1.751 1.751-2.554 4.038-2.554 6.646h4zm1.383-3.818c.872-.872 2.073-1.382 3.817-1.382v-4c-2.607 0-4.894.802-6.646 2.554l2.829 2.828zm3.817-1.382h9.84v-4h-9.84v4zm11.84-2V18h-4v1.92h4zm0-1.92c0-.975-.346-1.895-1.065-2.614l-2.829 2.828a.408.408 0 01-.083-.131c-.024-.062-.023-.098-.023-.083h4zm-1.065-2.614c-.72-.72-1.64-1.066-2.615-1.066v4c.015 0-.02.002-.082-.023a.407.407 0 01-.132-.083l2.829-2.828zm-2.615-1.066c-2.14 0-4.495.099-7.063.294l.303 3.988a89.925 89.925 0 016.76-.282v-4zm-7.065.294c-2.492.191-4.497.335-6.02.43l.25 3.992c1.55-.097 3.576-.242 6.077-.434l-.307-3.988zm-3.895 2.426v-6h-4v6h4zM129.441 36l.205 1.99 1.795-.186V36h-2zm-14.352-1.488l1.414-1.414-1.414 1.414zm-1.968-17.472h2v-2h-2v2zm-2.88 0h-2v2h2v-2zm0-6.48v-2h-2v2h2zm2.88 0v2h1.695l.278-1.671-1.973-.329zm.96-5.76v-2h-1.694l-.279 1.671 1.973.329zm7.44 0h2v-2h-2v2zm0 5.76h-2v2h2v-2zm6 0h2v-2h-2v2zm0 6.48v2h2v-2h-2zm-6 0v-2h-2v2h2zm.48 12.24l-1.414 1.414 1.414-1.414zm7.44.48h2v-2h-2v2zm-.205 4.25c-3.039.314-6.01.47-8.915.47v4c3.048 0 6.156-.164 9.325-.49l-.41-3.98zm-8.915.47c-1.744 0-2.945-.51-3.818-1.382l-2.828 2.828c1.752 1.752 4.039 2.554 6.646 2.554v-4zm-3.818-1.382c-.872-.873-1.382-2.074-1.382-3.818h-4c0 2.608.802 4.895 2.554 6.646l2.828-2.828zm-1.382-3.818V17.04h-4v12.24h4zm-2-14.24h-2.88v4h2.88v-4zm-.88 2v-6.48h-4v6.48h4zm-2-4.48h2.88v-4h-2.88v4zm4.853-1.671l.96-5.76-3.946-.658-.96 5.76 3.946.658zM114.081 6.8h7.44v-4h-7.44v4zm5.44-2v5.76h4V4.8h-4zm2 7.76h6v-4h-6v4zm4-2v6.48h4v-6.48h-4zm2 4.48h-6v4h6v-4zm-8 2v11.04h4V17.04h-4zm0 11.04c0 .975.346 1.895 1.066 2.614l2.828-2.828a.391.391 0 01.083.131c.025.062.023.098.023.083h-4zm1.066 2.614c.72.72 1.64 1.066 2.614 1.066v-4c-.014 0 .021-.002.083.023.064.026.11.061.131.083l-2.828 2.828zm2.614 1.066h6.24v-4h-6.24v4zm4.24-2V36h4v-6.24h-4zM164.973 36l.205 1.99 1.795-.186V36h-2zm-14.352-1.488l1.414-1.414-1.414 1.414zm-1.968-17.472h2v-2h-2v2zm-2.88 0h-2v2h2v-2zm0-6.48v-2h-2v2h2zm2.88 0v2h1.694l.278-1.671-1.972-.329zm.96-5.76v-2h-1.695l-.278 1.671 1.973.329zm7.44 0h2v-2h-2v2zm0 5.76h-2v2h2v-2zm6 0h2v-2h-2v2zm0 6.48v2h2v-2h-2zm-6 0v-2h-2v2h2zm.48 12.24l-1.415 1.414 1.415-1.414zm7.44.48h2v-2h-2v2zm-.206 4.25c-3.039.314-6.01.47-8.914.47v4a91.12 91.12 0 009.325-.49l-.411-3.98zm-8.914.47c-1.745 0-2.946-.51-3.818-1.382l-2.829 2.828c1.752 1.752 4.039 2.554 6.647 2.554v-4zm-3.818-1.382c-.873-.873-1.382-2.074-1.382-3.818h-4c0 2.608.802 4.895 2.553 6.646l2.829-2.828zm-1.382-3.818V17.04h-4v12.24h4zm-2-14.24h-2.88v4h2.88v-4zm-.88 2v-6.48h-4v6.48h4zm-2-4.48h2.88v-4h-2.88v4zm4.852-1.671l.96-5.76-3.945-.658-.96 5.76 3.945.658zM149.613 6.8h7.44v-4h-7.44v4zm5.44-2v5.76h4V4.8h-4zm2 7.76h6v-4h-6v4zm4-2v6.48h4v-6.48h-4zm2 4.48h-6v4h6v-4zm-8 2v11.04h4V17.04h-4zm0 11.04c0 .975.346 1.895 1.065 2.614l2.829-2.828a.41.41 0 01.082.131c.025.062.024.098.024.083h-4zm1.065 2.614c.72.72 1.64 1.066 2.615 1.066v-4c-.015 0 .021-.002.082.023.064.026.11.061.132.083l-2.829 2.828zm2.615 1.066h6.24v-4h-6.24v4zm4.24-2V36h4v-6.24h-4zm13.78-18.72h-2v2.454l2.404-.495-.404-1.959zm15.552 1.008l-1.414 1.414 1.414-1.414zM194.273 36v2h2v-2h-2zm-8.4 0h-2v2h2v-2zm-6.72-19.248l-.248-1.985-.008.001.256 1.984zm-2.4.288l-.209-1.989-1.791.188v1.801h2zm0 18.96v2h2v-2h-2zm-8.4 0h-2v2h2v-2zm0-33.6v-2h-2v2h2zm8.4 0h2v-2h-2v2zm.404 10.599c3.015-.622 5.594-.919 7.756-.919v-4c-2.51 0-5.37.343-8.564 1.001l.808 3.918zm7.756-.919h2.16v-4h-2.16v4zm2.16 0c1.744 0 2.945.51 3.818 1.382l2.828-2.828c-1.751-1.752-4.038-2.554-6.646-2.554v4zm3.818 1.382c.872.873 1.382 2.074 1.382 3.818h4c0-2.608-.802-4.895-2.554-6.646l-2.828 2.828zm1.382 3.818V36h4V17.28h-4zm2 16.72h-8.4v4h8.4v-4zm-6.4 2V18.24h-4V36h4zm0-17.76c0-.975-.346-1.895-1.066-2.614l-2.828 2.828a.408.408 0 01-.083-.131c-.025-.062-.023-.098-.023-.083h4zm-1.066-2.614c-.719-.72-1.639-1.066-2.614-1.066v4c.015 0-.021.002-.083-.023a.41.41 0 01-.131-.083l2.828-2.828zm-2.614-1.066h-1.68v4h1.68v-4zm-1.68 0a29.16 29.16 0 00-3.608.207l.496 3.97a25.208 25.208 0 013.112-.177v-4zm-3.616.208c-.985.127-1.767.221-2.353.283l.418 3.978c.631-.066 1.448-.165 2.447-.293l-.512-3.968zm-4.144 2.272V36h4V17.04h-4zm2 16.96h-8.4v4h8.4v-4zm-6.4 2V2.4h-4V36h4zm-2-31.6h8.4v-4h-8.4v4zm6.4-2v8.64h4V2.4h-4zm31.755 18.24h-2v2h2v-2zm8.16 0v2h2v-2h-2zm7.44 14.88l.206 1.99 1.794-.186V35.52h-2zm-22.032-1.008l-1.415 1.414 1.415-1.414zm.048-22.368l1.414 1.414-1.414-1.414zm20.88 0l-1.431 1.397.016.017.017.017 1.398-1.431zm2.064 14.496v2h2v-2h-2zm-16.56 0v-2h-2v2h2zm.48 3.12l1.414-1.414-1.414 1.414zm15.12-.24h2v-2.163l-2.157.17.157 1.993zm-13.68-15.44c-.949 0-2.027.238-2.855 1.066-.827.827-1.065 1.906-1.065 2.854h4c0-.077.004-.132.009-.167.005-.035.01-.047.008-.04a.583.583 0 01-.305.305 1.211 1.211 0 01.208-.017V14.08zm-3.92 3.92v2.64h4V18h-4zm2 4.64h8.16v-4h-8.16v4zm10.16-2V18h-4v2.64h4zm0-2.64c0-.948-.239-2.027-1.066-2.854-.828-.828-1.906-1.066-2.854-1.066v4c.077 0 .132.005.167.01s.046.01.04.007a.598.598 0 01-.305-.305c-.002-.006.003.006.008.04.005.036.01.09.01.168h4zm-3.92-3.92h-4.32v4h4.32v-4zm9.153 19.45c-6.122.635-11.652.95-16.593.95v4c5.106 0 10.776-.325 17.006-.97l-.413-3.98zm-16.593.95c-1.745 0-2.946-.51-3.818-1.382l-2.829 2.828c1.752 1.752 4.039 2.554 6.647 2.554v-4zm-3.818-1.382c-.873-.873-1.382-2.074-1.382-3.818h-4c0 2.608.802 4.895 2.553 6.646l2.829-2.828zm-1.382-3.818V17.76h-4v11.52h4zm0-11.52c0-2.016.553-3.325 1.43-4.202l-2.829-2.828c-1.811 1.811-2.601 4.246-2.601 7.03h4zm1.43-4.202c.917-.917 2.249-1.478 4.25-1.478v-4c-2.8 0-5.244.815-7.079 2.65l2.829 2.828zm4.25-1.478h9.6v-4h-9.6v4zm9.6 0c2.002 0 3.306.562 4.185 1.461l2.861-2.795c-1.809-1.851-4.249-2.666-7.046-2.666v4zm4.218 1.495c.9.879 1.462 2.182 1.462 4.185h4c0-2.797-.815-5.238-2.667-7.047l-2.795 2.862zm1.462 4.185v8.88h4v-8.88h-4zm2 6.88h-16.56v4h16.56v-4zm-18.56 2v1.92h4v-1.92h-4zm0 1.92c0 .975.346 1.895 1.065 2.614l2.829-2.828a.41.41 0 01.082.131c.025.062.024.098.024.083h-4zm1.065 2.614c.72.72 1.64 1.066 2.615 1.066v-4c-.015 0 .021-.002.082.023.064.026.11.061.132.083l-2.829 2.828zm2.615 1.066c3.248 0 7.951-.245 14.076-.726l-.313-3.988c-6.099.48-10.676.714-13.763.714v4zm11.92-2.72v6h4v-6h-4zm7.272 14.64h-2v1.757l1.742.226.258-1.983zm0-6.24v-2h-2v2h2zm6.672-1.008l-1.736-.992-.019.032-.017.032 1.772.928zm-.192-2.832l-1.845.772.002.004 1.843-.776zm-9.84-23.52v-2h-3.005l1.16 2.772 1.845-.772zm8.88 0l1.877-.69-.481-1.31H232.9v2zm6 16.32l-1.877.69 2.042 5.554 1.746-5.654-1.911-.59zm5.04-16.32v-2h-1.476l-.435 1.41 1.911.59zm8.88 0l1.88.683.975-2.683h-2.855v2zm-9.6 26.4l1.878.69.002-.006-1.88-.684zm-3.6 5.712l-1.312-1.51-.01.009-.009.008 1.331 1.493zm-6-.032c-1.58 0-3.568-.15-5.982-.463l-.516 3.966c2.514.327 4.686.497 6.498.497v-4zm-4.24 1.52v-6.24h-4v6.24h4zm-2-4.24h4.32v-4h-4.32v4zm4.32 0c1.477 0 3.249-.41 4.124-2.08l-3.544-1.856a.454.454 0 01.1-.127c.036-.033.055-.037.032-.027-.061.026-.268.09-.712.09v4zm4.088-2.016c.857-1.5.502-3.206-.085-4.6l-3.686 1.552c.201.478.267.796.28.98.011.166-.025.16.019.084l3.472 1.984zm-.083-4.596l-9.84-23.52-3.69 1.544 9.84 23.52 3.69-1.544zM224.02 12.56h8.88v-4h-8.88v4zm7.003-1.31l6 16.32 3.754-1.38-6-16.32-3.754 1.38zm9.788 16.22l5.04-16.32-3.822-1.18-5.04 16.32 3.822 1.18zm3.129-14.91h8.88v-4h-8.88v4zm7-2.683l-9.6 26.4 3.76 1.367 9.6-26.4-3.76-1.367zm-9.597 26.394c-.854 2.326-1.896 3.901-3.035 4.892l2.624 3.018c1.805-1.57 3.163-3.802 4.165-6.532l-3.754-1.378zm-3.054 4.908c-1.011.902-2.489 1.461-4.669 1.461v4c2.876 0 5.398-.753 7.331-2.475l-2.662-2.986zm29.417-11.899l.147-1.995-2.147-.158v2.153h2zm16.56.24l1.414 1.414-1.414-1.414zm.48-2.88h2v-2h-2v2zm-15.552-1.968l1.414-1.414-1.414 1.414zm0-12.144l1.414 1.414-1.414-1.414zm21.552-1.968h2v-2h-2v2zm0 6.24v2h2v-2h-2zm-14.64.48l1.414 1.414-1.414-1.414zm0 2.4l-1.415 1.414 1.415-1.414zm15.072 2.448l1.414-1.414-1.414 1.414zm0 12.384l1.414 1.414-1.414-1.414zm-23.472 1.008h-2v1.813l1.804.177.196-1.99zm-.148-4.245c6.515.481 11.691.725 15.508.725v-4c-3.672 0-8.736-.236-15.213-.715l-.295 3.99zm15.508.725c.974 0 1.894-.346 2.614-1.066l-2.829-2.828a.417.417 0 01.132-.083c.062-.025.097-.023.083-.023v4zm2.614-1.066c.719-.72 1.066-1.64 1.066-2.614h-4c0 .015-.002-.021.023-.083a.41.41 0 01.082-.131l2.829 2.828zm1.066-2.614v-1.68h-4v1.68h4zm-2-3.68h-10.32v4h10.32v-4zm-10.32 0c-1.745 0-2.946-.51-3.818-1.382l-2.829 2.828c1.752 1.752 4.039 2.554 6.647 2.554v-4zm-3.818-1.382c-.873-.873-1.382-2.074-1.382-3.818h-4c0 2.608.802 4.895 2.553 6.646l2.829-2.828zm-1.382-3.818v-1.68h-4v1.68h4zm0-1.68c0-1.744.509-2.945 1.382-3.818l-2.829-2.828c-1.751 1.751-2.553 4.038-2.553 6.646h4zm1.382-3.818c.872-.872 2.073-1.382 3.818-1.382v-4c-2.608 0-4.895.802-6.647 2.554l2.829 2.828zm3.818-1.382h16.32v-4h-16.32v4zm14.32-2v6.24h4v-6.24h-4zm2 4.24h-13.44v4h13.44v-4zm-13.44 0c-.975 0-1.895.346-2.615 1.066l2.829 2.828a.417.417 0 01-.132.083c-.061.025-.097.023-.082.023v-4zm-2.615 1.066c-.719.72-1.065 1.64-1.065 2.614h4c0-.015.001.021-.023.083a.408.408 0 01-.083.131l-2.829-2.828zm-1.065 2.614c0 .975.346 1.895 1.065 2.614l2.829-2.828a.408.408 0 01.083.131c.024.062.023.098.023.083h-4zm1.065 2.614c.72.72 1.64 1.066 2.615 1.066v-4c-.015 0 .021-.002.082.023.064.026.11.061.132.083l-2.829 2.828zm2.615 1.066h8.64v-4h-8.64v4zm8.64 0c1.744 0 2.945.51 3.817 1.382l2.829-2.828c-1.752-1.752-4.039-2.554-6.646-2.554v4zm3.817 1.382c.873.873 1.383 2.074 1.383 3.818h4c0-2.608-.803-4.895-2.554-6.646l-2.829 2.828zm1.383 3.818v1.92h4v-1.92h-4zm0 1.92c0 1.744-.51 2.945-1.383 3.818l2.829 2.828c1.751-1.751 2.554-4.038 2.554-6.646h-4zm-1.383 3.818c-.872.872-2.073 1.382-3.817 1.382v4c2.607 0 4.894-.802 6.646-2.554l-2.829-2.828zm-3.817 1.382c-5.59 0-11.604-.316-18.044-.95l-.392 3.98c6.551.646 12.697.97 18.436.97v-4zm-16.24 1.04v-6.24h-4v6.24h4zm42.643-6.72l.572 1.916 1.428-.426V28.8h-2zm0-2.88h2v-2h-2v2zm-8.16.48l1.415 1.414-1.415-1.414zm0 2.88l-1.414 1.414 1.414-1.414zm-6.48-18.24l-.217-1.988-1.783.195v1.793h2zm21.072 1.008l-1.414 1.414 1.414-1.414zM320.749 36v2h2v-2h-2zm-7.44 0l-1.961.392.322 1.608h1.639v-2zm-.48-2.4l1.962-.392-.583-2.913-2.48 1.635 1.101 1.67zm-4.656 2.208l.55 1.923.012-.004.013-.003-.575-1.916zm-10.896-1.296l-1.414 1.414 1.414-1.414zm0-12.624l1.415 1.414-1.415-1.414zm15.072-1.968v2h2v-2h-2zm-.48-3.12l-1.414 1.414 1.414-1.414zm-8.112-.192l-.151-1.994h-.002l.153 1.994zm-6.048.432h-2v2.129l2.125-.133-.125-1.996zm8.88 14.72c1.941 0 4.058-.365 6.332-1.044l-1.144-3.832c-2.014.6-3.736.876-5.188.876v4zm7.76-2.96v-2.88h-4v2.88h4zm-2-4.88h-6.96v4h6.96v-4zm-6.96 0c-.974 0-1.894.346-2.614 1.066l2.829 2.828a.417.417 0 01-.132.083c-.062.025-.097.023-.083.023v-4zm-2.614 1.066c-.719.72-1.066 1.64-1.066 2.614h4c0-.015.002.021-.023.083a.41.41 0 01-.082.131l-2.829-2.828zm-1.066 2.614v.48h4v-.48h-4zm0 .48c0 .975.347 1.895 1.066 2.614l2.829-2.828a.41.41 0 01.082.131c.025.062.023.098.023.083h-4zm1.066 2.614c.72.72 1.64 1.066 2.614 1.066v-4c-.014 0 .021-.002.083.023.064.026.11.061.132.083l-2.829 2.828zm2.614 1.066h1.2v-4h-1.2v4zm-7.462-18.732c5.801-.634 11.006-.948 15.622-.948v-4c-4.792 0-10.146.326-16.057.972l.435 3.976zm15.622-.948c1.745 0 2.946.51 3.818 1.382l2.829-2.828c-1.752-1.752-4.039-2.554-6.647-2.554v4zm3.818 1.382c.873.873 1.382 2.074 1.382 3.818h4c0-2.608-.802-4.895-2.553-6.646l-2.829 2.828zm1.382 3.818V36h4V17.28h-4zm2 16.72h-7.44v4h7.44v-4zm-5.478 1.608l-.48-2.4-3.923.784.48 2.4 3.923-.784zm-3.543-3.677c-1.354.893-2.73 1.541-4.129 1.961l1.149 3.832c1.801-.54 3.529-1.364 5.183-2.454l-2.203-3.34zm-4.104 1.954c-1.469.42-2.6.595-3.435.595v4c1.342 0 2.867-.273 4.534-.749l-1.099-3.846zm-3.435.595h-1.68v4h1.68v-4zm-1.68 0c-1.744 0-2.945-.51-3.817-1.382l-2.829 2.828c1.752 1.752 4.039 2.554 6.646 2.554v-4zm-3.817-1.382c-.873-.873-1.383-2.074-1.383-3.818h-4c0 2.608.803 4.895 2.554 6.646l2.829-2.828zm-1.383-3.818v-2.16h-4v2.16h4zm0-2.16c0-1.744.51-2.945 1.383-3.818l-2.829-2.828c-1.751 1.751-2.554 4.038-2.554 6.646h4zm1.383-3.818c.872-.872 2.073-1.382 3.817-1.382v-4c-2.607 0-4.894.802-6.646 2.554l2.829 2.828zm3.817-1.382h9.84v-4h-9.84v4zm11.84-2V18h-4v1.92h4zm0-1.92c0-.975-.346-1.895-1.065-2.614l-2.829 2.828a.408.408 0 01-.083-.131c-.024-.062-.023-.098-.023-.083h4zm-1.065-2.614c-.72-.72-1.64-1.066-2.615-1.066v4c.015 0-.021.002-.082-.023a.417.417 0 01-.132-.083l2.829-2.828zm-2.615-1.066c-2.14 0-4.495.099-7.063.294l.303 3.988a89.908 89.908 0 016.76-.282v-4zm-7.065.294a449.03 449.03 0 01-6.019.43l.249 3.992c1.55-.097 3.576-.242 6.077-.434l-.307-3.988zm-3.895 2.426v-6h-4v6h4zm25.359 27.12h-2v1.757l1.742.226.258-1.983zm0-6.24v-2h-2v2h2zm6.672-1.008l-1.737-.992-.018.032-.017.032 1.772.928zm-.192-2.832l-1.846.772.002.004 1.844-.776zm-9.841-23.52v-2h-3.004l1.159 2.772 1.845-.772zm8.881 0l1.877-.69-.482-1.31h-1.395v2zm6 16.32l-1.878.69 2.042 5.554 1.746-5.654-1.91-.59zm5.04-16.32v-2h-1.476l-.435 1.41 1.911.59zm8.88 0l1.879.683.976-2.683h-2.855v2zm-9.6 26.4l1.877.69.002-.006-1.879-.684zm-3.6 5.712l-1.313-1.51-.009.009-.009.008 1.331 1.493zm-6-.032c-1.581 0-3.569-.15-5.983-.463l-.515 3.966c2.514.327 4.686.497 6.498.497v-4zm-4.24 1.52v-6.24h-4v6.24h4zm-2-4.24h4.32v-4h-4.32v4zm4.32 0c1.477 0 3.248-.41 4.123-2.08l-3.543-1.856a.45.45 0 01.099-.127c.037-.033.056-.037.033-.027-.061.026-.269.09-.712.09v4zm4.088-2.016c.857-1.5.502-3.206-.085-4.6l-3.687 1.552c.202.478.268.796.28.98.011.166-.024.16.019.084l3.473 1.984zm-.083-4.596l-9.84-23.52-3.691 1.544 9.84 23.52 3.691-1.544zM321.707 12.56h8.881v-4h-8.881v4zm7.003-1.31l6 16.32 3.755-1.38-6-16.32-3.755 1.38zm9.788 16.22l5.04-16.32-3.821-1.18-5.04 16.32 3.821 1.18zm3.13-14.91h8.88v-4h-8.88v4zm7-2.683l-9.6 26.4 3.759 1.367 9.6-26.4-3.759-1.367zM339.03 36.27c-.854 2.326-1.896 3.901-3.035 4.892l2.625 3.018c1.805-1.57 3.163-3.802 4.165-6.532l-3.755-1.378zm-3.053 4.908c-1.012.902-2.49 1.461-4.669 1.461v4c2.876 0 5.398-.753 7.33-2.475l-2.661-2.986z" fill="#fff" fill-opacity=".06"/></svg>