<svg width="54" height="42" fill="none" xmlns="http://www.w3.org/2000/svg"><path d="M51.865 0v3.08C47.512 4.675 44.1 7.19 41.63 10.627c-2.47 3.395-3.704 6.937-3.704 10.626 0 .796.125 1.383.376 1.76.168.252.356.377.565.377.21 0 .524-.146.942-.44 1.34-.964 3.035-1.446 5.086-1.446 2.386 0 4.5.985 6.342 2.955C53.08 26.386 54 28.692 54 31.374c0 2.809-1.067 5.282-3.202 7.42C48.705 40.93 46.15 42 43.138 42c-3.517 0-6.552-1.446-9.105-4.338-2.554-2.892-3.83-6.77-3.83-11.632 0-5.659 1.736-10.73 5.211-15.216C38.888 6.33 44.372 2.724 51.865 0zM21.663 0v3.08c-4.354 1.594-7.765 4.109-10.235 7.546-2.47 3.395-3.705 6.937-3.705 10.626 0 .796.126 1.383.377 1.76.167.252.356.377.565.377.21 0 .523-.146.942-.44 1.34-.964 3.035-1.446 5.086-1.446 2.386 0 4.5.985 6.342 2.955 1.842 1.928 2.763 4.234 2.763 6.916 0 2.809-1.068 5.282-3.203 7.42C18.502 40.93 15.95 42 12.935 42c-3.516 0-6.551-1.446-9.105-4.338C1.277 34.77 0 30.892 0 26.03c0-5.66 1.737-10.73 5.212-15.216C8.686 6.33 14.17 2.724 21.662 0z" fill="#000"/></svg>