<svg width="702" height="90" fill="none" xmlns="http://www.w3.org/2000/svg"><path d="M59.095 2.8l1.933-.515L60.632.8h-1.537v2zM70.615 46l-1.932.515 3.88-.06L70.615 46zm10.08-43.2v-2h-1.587l-.36 1.546 1.947.454zm18.72 0l1.93.524L102.03.8h-2.615v2zM81.175 70v2h1.53l.4-1.476-1.93-.524zm-18.24 0l-1.928.532.405 1.468h1.523v-2zm-11.52-41.76l1.928-.532-1.928-6.989-1.928 6.99 1.928.531zM39.895 70v2h1.523l.405-1.468L39.895 70zm-18.24 0l-1.93.524.4 1.476h1.53v-2zM3.415 2.8v-2H.8l.685 2.524 1.93-.524zm18.72 0l1.948-.454L23.723.8h-1.588v2zM32.215 46l-1.948.455 3.88.06L32.215 46zm11.52-43.2v-2h-1.537l-.395 1.485 1.932.515zm13.428.515l11.52 43.2 3.864-1.03-11.52-43.2-3.864 1.03zm15.4 43.14l10.08-43.2-3.896-.91-10.08 43.2 3.896.91zM80.695 4.8h18.72v-4h-18.72v4zm16.79-2.524l-18.24 67.2 3.86 1.048 18.24-67.2-3.86-1.048zM81.175 68h-18.24v4h18.24v-4zm-16.312 1.468l-11.52-41.76-3.856 1.064 11.52 41.76 3.856-1.064zm-15.376-41.76l-11.52 41.76 3.856 1.064 11.52-41.76-3.856-1.064zM39.895 68h-18.24v4h18.24v-4zm-16.31 1.476l-18.24-67.2-3.86 1.048 18.24 67.2 3.86-1.048zM3.415 4.8h18.72v-4H3.415v4zm16.772-1.546l10.08 43.2 3.896-.909-10.08-43.2-3.896.91zm13.96 43.261l11.52-43.2-3.864-1.03-11.52 43.2 3.864 1.03zM43.736 4.8h15.36v-4h-15.36v4zM120.1 20.08h-2v2.454l2.404-.495-.404-1.959zm31.104 2.016l-1.414 1.414 1.414-1.414zM155.14 70v2h2v-2h-2zm-16.8 0h-2v2h2v-2zM124.9 31.504l-.248-1.985-.008.001.256 1.984zm-4.8.576l-.209-1.989-1.791.188v1.801h2zm0 37.92v2h2v-2h-2zm-16.8 0h-2v2h2v-2zm0-67.2v-2h-2v2h2zm16.8 0h2v-2h-2v2zm.404 19.239c6.119-1.262 11.418-1.879 15.916-1.879v-4c-4.846 0-10.427.663-16.724 1.961l.808 3.918zm15.916-1.879h4.32v-4h-4.32v4zm4.32 0c3.92 0 6.865 1.166 9.05 3.35l2.828-2.828c-3.063-3.064-7.094-4.522-11.878-4.522v4zm9.05 3.35c2.184 2.185 3.35 5.13 3.35 9.05h4c0-4.784-1.458-8.815-4.522-11.878l-2.828 2.828zm3.35 9.05V70h4V32.56h-4zm2 35.44h-16.8v4h16.8v-4zm-14.8 2V34.48h-4V70h4zm0-35.52c0-1.455-.506-2.775-1.546-3.814l-2.828 2.828c.24.24.374.52.374.986h4zm-1.546-3.814c-1.039-1.04-2.359-1.546-3.814-1.546v4c.465 0 .745.134.986.374l2.828-2.828zm-3.814-1.546h-3.36v4h3.36v-4zm-3.36 0c-2.501 0-4.825.131-6.968.4l.496 3.969c1.953-.244 4.109-.369 6.472-.369v-4zm-6.976.4c-1.977.256-3.56.445-4.753.571l.418 3.978a220.06 220.06 0 004.847-.581l-.512-3.968zm-6.544 2.56V70h4V32.08h-4zm2 35.92h-16.8v4h16.8v-4zm-14.8 2V2.8h-4V70h4zm-2-65.2h16.8v-4h-16.8v4zm14.8-2v17.28h4V2.8h-4zm77.349 52.8l.572 1.916 1.428-.426V55.6h-2zm0-5.76h2v-2h-2v2zm-16.32.96l1.414 1.414-1.414-1.414zm0 5.76l-1.414 1.414 1.414-1.414zm-12.96-36.48l-.218-1.988-1.782.195v1.793h2zm42.144 2.016l-1.414 1.414 1.414-1.414zM212.249 70v2h2v-2h-2zm-14.88 0l-1.961.392.321 1.608h1.64v-2zm-.96-4.8l1.961-.392-.583-2.913-2.479 1.636 1.101 1.669zm-9.312 4.416l.549 1.923.013-.004.012-.003-.574-1.916zm-21.792-2.592l-1.414 1.414 1.414-1.414zm0-25.248l1.414 1.414-1.414-1.414zm30.144-3.936v2h2v-2h-2zm-.96-6.24l-1.414 1.414 1.414-1.414zm-16.224-.384l-.152-1.994h-.002l.154 1.994zm-12.096.864h-2v2.129l2.125-.133-.125-1.996zm17.76 27.44c3.636 0 7.674-.685 12.092-2.004l-1.144-3.832c-4.158 1.24-7.8 1.836-10.948 1.836v4zm13.52-3.92v-5.76h-4v5.76h4zm-2-7.76h-13.92v4h13.92v-4zm-13.92 0c-1.455 0-2.775.506-3.814 1.546l2.828 2.828c.24-.24.52-.374.986-.374v-4zm-3.814 1.546c-1.04 1.04-1.546 2.36-1.546 3.814h4c0-.465.134-.745.374-.986l-2.828-2.828zm-1.546 3.814v.96h4v-.96h-4zm0 .96c0 1.455.506 2.775 1.546 3.814l2.828-2.828c-.24-.24-.374-.52-.374-.986h-4zm1.546 3.814c1.039 1.04 2.359 1.546 3.814 1.546v-4c-.466 0-.746-.134-.986-.374l-2.828 2.828zm3.814 1.546h2.4v-4h-2.4v4zm-15.143-37.452c11.657-1.274 22.143-1.908 31.463-1.908v-4c-9.496 0-20.13.646-31.898 1.932l.435 3.976zm31.463-1.908c3.92 0 6.865 1.166 9.05 3.35l2.828-2.828c-3.064-3.064-7.095-4.522-11.878-4.522v4zm9.05 3.35c2.184 2.185 3.35 5.13 3.35 9.05h4c0-4.784-1.458-8.815-4.522-11.878l-2.828 2.828zm3.35 9.05V70h4V32.56h-4zm2 35.44h-14.88v4h14.88v-4zm-12.919 1.608l-.96-4.8-3.922.784.96 4.8 3.922-.784zm-4.022-6.078c-2.859 1.886-5.787 3.27-8.786 4.17l1.149 3.832c3.401-1.02 6.681-2.58 9.839-4.662l-2.202-3.34zm-8.761 4.163c-3.037.868-5.496 1.267-7.418 1.267v4c2.429 0 5.282-.497 8.517-1.421l-1.099-3.846zm-7.418 1.267h-3.36v4h3.36v-4zm-3.36 0c-3.921 0-6.866-1.166-9.05-3.35l-2.828 2.828c3.063 3.064 7.094 4.522 11.878 4.522v-4zm-9.05-3.35c-2.184-2.185-3.35-5.13-3.35-9.05h-4c0 4.784 1.458 8.815 4.522 11.878l2.828-2.828zm-3.35-9.05v-4.32h-4v4.32h4zm0-4.32c0-3.92 1.166-6.865 3.35-9.05l-2.828-2.828c-3.064 3.063-4.522 7.094-4.522 11.878h4zm3.35-9.05c2.184-2.184 5.129-3.35 9.05-3.35v-4c-4.784 0-8.815 1.458-11.878 4.522l2.828 2.828zm9.05-3.35h19.68v-4h-19.68v4zm21.68-2V34h-4v3.84h4zm0-3.84c0-1.455-.506-2.775-1.546-3.814l-2.828 2.828c.24.24.374.52.374.986h4zm-1.546-3.814c-1.04-1.04-2.36-1.546-3.814-1.546v4c.465 0 .745.134.986.374l2.828-2.828zm-3.814-1.546c-4.22 0-8.88.195-13.976.582l.303 3.988c5.016-.38 9.573-.57 13.673-.57v-4zm-13.978.582c-4.987.383-9.009.67-12.067.862l.25 3.992c3.085-.193 7.128-.482 12.124-.866l-.307-3.988zm-9.942 2.858v-12h-4v12h4zM256.383 70l.205 1.99 1.795-.186V70h-2zm-28.704-2.976l1.414-1.414-1.414 1.414zm-3.936-34.944h2v-2h-2v2zm-5.76 0h-2v2h2v-2zm0-12.96v-2h-2v2h2zm5.76 0v2h1.694l.278-1.671-1.972-.329zm1.92-11.52v-2h-1.695l-.278 1.671 1.973.329zm14.88 0h2v-2h-2v2zm0 11.52h-2v2h2v-2zm12 0h2v-2h-2v2zm0 12.96v2h2v-2h-2zm-12 0v-2h-2v2h2zm.96 24.48l-1.415 1.414 1.415-1.414zm14.88.96h2v-2h-2v2zm-.206 10.49c-6.143.634-12.154.95-18.034.95v4c6.023 0 12.172-.324 18.445-.97l-.411-3.98zm-18.034.95c-3.921 0-6.866-1.166-9.05-3.35l-2.829 2.828c3.064 3.064 7.095 4.522 11.879 4.522v-4zm-9.05-3.35c-2.185-2.185-3.35-5.13-3.35-9.05h-4c0 4.784 1.458 8.815 4.521 11.878l2.829-2.828zm-3.35-9.05V32.08h-4v24.48h4zm-2-26.48h-5.76v4h5.76v-4zm-3.76 2V19.12h-4v12.96h4zm-2-10.96h5.76v-4h-5.76v4zm7.732-1.671l1.92-11.52-3.945-.658-1.92 11.52 3.945.658zm-.052-9.849h14.88v-4h-14.88v4zm12.88-2v11.52h4V7.6h-4zm2 13.52h12v-4h-12v4zm10-2v12.96h4V19.12h-4zm2 10.96h-12v4h12v-4zm-14 2v22.08h4V32.08h-4zm0 22.08c0 1.455.506 2.775 1.545 3.814l2.829-2.828c-.241-.24-.374-.52-.374-.986h-4zm1.545 3.814c1.04 1.04 2.36 1.546 3.815 1.546v-4c-.466 0-.746-.134-.986-.374l-2.829 2.828zm3.815 1.546h12.48v-4h-12.48v4zm10.48-2V70h4V57.52h-4zM327.445 70l.205 1.99 1.795-.186V70h-2zm-28.704-2.976l1.414-1.414-1.414 1.414zm-3.936-34.944h2v-2h-2v2zm-5.76 0h-2v2h2v-2zm0-12.96v-2h-2v2h2zm5.76 0v2h1.694l.279-1.671-1.973-.329zm1.92-11.52v-2h-1.694l-.279 1.671 1.973.329zm14.88 0h2v-2h-2v2zm0 11.52h-2v2h2v-2zm12 0h2v-2h-2v2zm0 12.96v2h2v-2h-2zm-12 0v-2h-2v2h2zm.96 24.48l-1.414 1.414 1.414-1.414zm14.88.96h2v-2h-2v2zm-.205 10.49c-6.143.634-12.155.95-18.035.95v4c6.024 0 12.172-.324 18.445-.97l-.41-3.98zm-18.035.95c-3.92 0-6.865-1.166-9.05-3.35l-2.828 2.828c3.063 3.064 7.094 4.522 11.878 4.522v-4zm-9.05-3.35c-2.184-2.185-3.35-5.13-3.35-9.05h-4c0 4.784 1.458 8.815 4.522 11.878l2.828-2.828zm-3.35-9.05V32.08h-4v24.48h4zm-2-26.48h-5.76v4h5.76v-4zm-3.76 2V19.12h-4v12.96h4zm-2-10.96h5.76v-4h-5.76v4zm7.733-1.671l1.92-11.52-3.946-.658-1.92 11.52 3.946.658zm-.053-9.849h14.88v-4h-14.88v4zm12.88-2v11.52h4V7.6h-4zm2 13.52h12v-4h-12v4zm10-2v12.96h4V19.12h-4zm2 10.96h-12v4h12v-4zm-14 2v22.08h4V32.08h-4zm0 22.08c0 1.455.506 2.775 1.546 3.814l2.828-2.828c-.24-.24-.374-.52-.374-.986h-4zm1.546 3.814c1.039 1.04 2.359 1.546 3.814 1.546v-4c-.465 0-.745-.134-.986-.374l-2.828 2.828zm3.814 1.546h12.48v-4h-12.48v4zm10.48-2V70h4V57.52h-4zm25.561-37.44h-2v2.454l2.404-.495-.404-1.959zm31.104 2.016l-1.414 1.414 1.414-1.414zM386.046 70v2h2v-2h-2zm-16.8 0h-2v2h2v-2zm-13.44-38.496l-.248-1.985-.008.001.256 1.984zm-4.8.576l-.209-1.989-1.791.188v1.801h2zm0 37.92v2h2v-2h-2zm-16.8 0h-2v2h2v-2zm0-67.2v-2h-2v2h2zm16.8 0h2v-2h-2v2zm.404 19.239c6.119-1.262 11.418-1.879 15.916-1.879v-4c-4.846 0-10.426.663-16.724 1.961l.808 3.918zm15.916-1.879h4.32v-4h-4.32v4zm4.32 0c3.921 0 6.866 1.166 9.05 3.35l2.828-2.828c-3.063-3.064-7.094-4.522-11.878-4.522v4zm9.05 3.35c2.184 2.185 3.35 5.13 3.35 9.05h4c0-4.784-1.458-8.815-4.522-11.878l-2.828 2.828zm3.35 9.05V70h4V32.56h-4zm2 35.44h-16.8v4h16.8v-4zm-14.8 2V34.48h-4V70h4zm0-35.52c0-1.455-.506-2.775-1.546-3.814l-2.828 2.828c.24.24.374.52.374.986h4zm-1.546-3.814c-1.039-1.04-2.359-1.546-3.814-1.546v4c.466 0 .746.134.986.374l2.828-2.828zm-3.814-1.546h-3.36v4h3.36v-4zm-3.36 0c-2.501 0-4.825.131-6.968.4l.496 3.969c1.953-.244 4.109-.369 6.472-.369v-4zm-6.976.4c-1.977.256-3.559.445-4.753.571l.419 3.978c1.238-.13 2.855-.325 4.846-.581l-.512-3.968zm-6.544 2.56V70h4V32.08h-4zm2 35.92h-16.8v4h16.8v-4zm-14.8 2V2.8h-4V70h4zm-2-65.2h16.8v-4h-16.8v4zm14.8-2v17.28h4V2.8h-4zm61.509 36.48h-2v2h2v-2zm16.32 0v2h2v-2h-2zm14.88 29.76l.206 1.99 1.794-.186V69.04h-2zm-44.064-2.016l-1.414 1.414 1.414-1.414zm.096-44.736l1.414 1.414-1.414-1.414zm41.76 0l-1.431 1.398.017.016.017.017 1.397-1.431zm4.128 28.992v2h2v-2h-2zm-33.12 0v-2h-2v2h2zm.96 6.24l1.414-1.414-1.414 1.414zm30.24-.48h2v-2.163l-2.157.17.157 1.993zm-27.36-28.88c-1.588 0-3.147.398-4.294 1.546-1.148 1.147-1.546 2.706-1.546 4.294h4c0-.972.242-1.333.374-1.466.133-.132.494-.374 1.466-.374v-4zm-5.84 5.84v5.28h4V34h-4zm2 7.28h16.32v-4h-16.32v4zm18.32-2V34h-4v5.28h4zm0-5.28c0-1.588-.398-3.147-1.546-4.294-1.147-1.148-2.706-1.546-4.294-1.546v4c.972 0 1.333.242 1.466.374.132.133.374.494.374 1.466h4zm-5.84-5.84h-8.64v4h8.64v-4zm18.514 38.89c-12.299 1.275-23.429 1.91-33.394 1.91v4c10.131 0 21.401-.645 33.806-1.93l-.412-3.98zm-33.394 1.91c-3.92 0-6.865-1.166-9.05-3.35l-2.828 2.828c3.063 3.064 7.094 4.522 11.878 4.522v-4zm-9.05-3.35c-2.184-2.185-3.35-5.13-3.35-9.05h-4c0 4.784 1.458 8.815 4.522 11.878l2.828-2.828zm-3.35-9.05V33.52h-4v23.04h4zm0-23.04c0-4.416 1.226-7.597 3.446-9.818l-2.828-2.828c-3.156 3.155-4.618 7.462-4.618 12.646h4zm3.446-9.818c2.294-2.293 5.513-3.542 9.914-3.542v-4c-5.199 0-9.532 1.503-12.742 4.714l2.828 2.828zm9.914-3.542h19.2v-4h-19.2v4zm19.2 0c4.403 0 7.578 1.25 9.801 3.526l2.862-2.796c-3.153-3.227-7.466-4.73-12.663-4.73v4zm9.835 3.559c2.276 2.223 3.525 5.398 3.525 9.801h4c0-5.197-1.503-9.51-4.731-12.663l-2.794 2.862zm3.525 9.801v17.76h4V33.52h-4zm2 15.76h-33.12v4h33.12v-4zm-35.12 2v3.84h4v-3.84h-4zm0 3.84c0 1.455.506 2.775 1.546 3.814l2.828-2.828c-.24-.24-.374-.52-.374-.986h-4zm1.546 3.814c1.039 1.04 2.359 1.546 3.814 1.546v-4c-.465 0-.745-.134-.986-.374l-2.828 2.828zm3.814 1.546c6.416 0 15.759-.485 27.997-1.446l-.314-3.988c-12.21.96-21.427 1.434-27.683 1.434v4zm25.84-3.44v12h4v-12h-4zm12.545 29.28h-2v1.757l1.742.226.258-1.983zm0-12.48v-2h-2v2h2zm13.344-2.016l-1.736-.992-.019.032-.017.032 1.772.928zm-.384-5.664l-1.845.772.002.004 1.843-.776zm-19.68-47.04v-2h-3.005l1.16 2.772 1.845-.772zm17.76 0l1.877-.69-.481-1.31H463.3v2zm12 32.64l-1.877.69 2.042 5.554 1.746-5.654-1.911-.59zm10.08-32.64v-2h-1.476l-.435 1.41 1.911.59zm17.76 0l1.88.683.975-2.683h-2.855v2zm-19.2 52.8l1.878.69.002-.007-1.88-.683zm-7.2 11.424l-1.312-1.51-.01.009-.009.008 1.331 1.493zm-12 1.936c-3.276 0-7.344-.31-12.222-.943l-.516 3.966c4.978.647 9.23.977 12.738.977v-4zm-10.48 1.04V73.84h-4v12.48h4zm-2-10.48h8.64v-4h-8.64v4zm8.64 0c2.693 0 5.249-.746 6.476-3.088l-3.544-1.856c-.181.346-.761.944-2.932.944v4zm6.44-3.024c1.241-2.171.822-4.822-.277-7.432l-3.686 1.552c.949 2.253.786 3.38.491 3.896l3.472 1.984zm-.275-7.428l-19.68-47.04-3.69 1.544 19.68 47.04 3.69-1.544zM445.54 21.12h17.76v-4h-17.76v4zm15.883-1.31l12 32.64 3.754-1.38-12-32.64-3.754 1.38zm15.788 32.54l10.08-32.64-3.822-1.18-10.08 32.64 3.822 1.18zm8.169-31.23h17.76v-4h-17.76v4zm15.88-2.684l-19.2 52.8 3.76 1.367 19.2-52.8-3.76-1.367zm-19.197 52.795c-1.782 4.854-4.024 8.333-6.635 10.604l2.624 3.018c3.277-2.85 5.835-6.986 7.765-12.244l-3.754-1.378zm-6.654 10.62c-2.483 2.214-5.961 3.429-10.669 3.429v4c5.404 0 9.926-1.409 13.331-4.443l-2.662-2.986zm57.502-25.291l.148-1.995-2.148-.158v2.153h2zm33.12.48l1.414 1.414-1.414-1.414zm.96-5.76h2v-2h-2v2zm-31.104-3.936l1.414-1.414-1.414 1.414zm0-24.288l1.414 1.414-1.414-1.414zm43.104-3.936h2v-2h-2v2zm0 12.48v2h2v-2h-2zm-29.28.96l1.414 1.414-1.414-1.414zm0 4.8l-1.414 1.414 1.414-1.414zm30.144 4.896l1.414-1.414-1.414 1.414zm0 24.768l1.414 1.414-1.414-1.414zm-46.944 2.016h-2v1.813l1.804.177.196-1.99zm-.147-10.485c13.011.961 23.307 1.445 30.867 1.445v-4c-7.416 0-17.599-.476-30.572-1.435l-.295 3.99zM563.631 60c1.455 0 2.775-.506 3.814-1.546l-2.828-2.828c-.24.24-.52.374-.986.374v4zm3.814-1.546c1.04-1.04 1.546-2.36 1.546-3.814h-4c0 .465-.134.745-.374.986l2.828 2.828zm1.546-3.814v-3.36h-4v3.36h4zm-2-5.36h-20.64v4h20.64v-4zm-20.64 0c-3.92 0-6.865-1.166-9.05-3.35l-2.828 2.828c3.064 3.064 7.095 4.522 11.878 4.522v-4zm-9.05-3.35c-2.184-2.185-3.35-5.13-3.35-9.05h-4c0 4.784 1.458 8.815 4.522 11.878l2.828-2.828zm-3.35-9.05v-3.36h-4v3.36h4zm0-3.36c0-3.92 1.166-6.865 3.35-9.05l-2.828-2.828c-3.064 3.063-4.522 7.094-4.522 11.878h4zm3.35-9.05c2.185-2.184 5.13-3.35 9.05-3.35v-4c-4.783 0-8.814 1.458-11.878 4.522l2.828 2.828zm9.05-3.35h32.64v-4h-32.64v4zm30.64-2V31.6h4V19.12h-4zm2 10.48h-26.88v4h26.88v-4zm-26.88 0c-1.454 0-2.774.506-3.814 1.546l2.828 2.828c.241-.24.521-.374.986-.374v-4zm-3.814 1.546c-1.04 1.04-1.546 2.36-1.546 3.814h4c0-.465.134-.745.374-.986l-2.828-2.828zm-1.546 3.814c0 1.455.506 2.775 1.546 3.814l2.828-2.828c-.24-.24-.374-.52-.374-.986h-4zm1.546 3.814c1.04 1.04 2.36 1.546 3.814 1.546v-4c-.465 0-.745-.134-.986-.374l-2.828 2.828zm3.814 1.546h17.28v-4h-17.28v4zm17.28 0c3.921 0 6.866 1.166 9.05 3.35l2.828-2.828c-3.063-3.064-7.094-4.522-11.878-4.522v4zm9.05 3.35c2.184 2.185 3.35 5.13 3.35 9.05h4c0-4.784-1.458-8.815-4.522-11.878l-2.828 2.828zm3.35 9.05v3.84h4v-3.84h-4zm0 3.84c0 3.92-1.166 6.865-3.35 9.05l2.828 2.828c3.064-3.063 4.522-7.094 4.522-11.878h-4zm-3.35 9.05c-2.184 2.184-5.129 3.35-9.05 3.35v4c4.784 0 8.815-1.458 11.878-4.522l-2.828-2.828zm-9.05 3.35c-11.253 0-23.347-.636-36.284-1.91l-.392 3.98c13.048 1.286 25.274 1.93 36.676 1.93v-4zm-34.48.08V56.56h-4v12.48h4zm87.288-13.44l.572 1.916 1.428-.426V55.6h-2zm0-5.76h2v-2h-2v2zm-16.32.96l1.414 1.414-1.414-1.414zm0 5.76l-1.414 1.414 1.414-1.414zm-12.96-36.48l-.218-1.988-1.782.195v1.793h2zm42.144 2.016l-1.414 1.414 1.414-1.414zM638.999 70v2h2v-2h-2zm-14.88 0l-1.961.392.321 1.608h1.64v-2zm-.96-4.8l1.961-.392-.583-2.913-2.479 1.636 1.101 1.669zm-9.312 4.416l.549 1.923.013-.004.012-.003-.574-1.916zm-21.792-2.592l-1.414 1.414 1.414-1.414zm0-25.248l1.414 1.414-1.414-1.414zm30.144-3.936v2h2v-2h-2zm-.96-6.24l-1.414 1.414 1.414-1.414zm-16.224-.384l-.152-1.994h-.002l.154 1.994zm-12.096.864h-2v2.129l2.125-.133-.125-1.996zm17.76 27.44c3.636 0 7.674-.685 12.092-2.004l-1.144-3.832c-4.158 1.24-7.8 1.836-10.948 1.836v4zm13.52-3.92v-5.76h-4v5.76h4zm-2-7.76h-13.92v4h13.92v-4zm-13.92 0c-1.455 0-2.775.506-3.814 1.546l2.828 2.828c.24-.24.52-.374.986-.374v-4zm-3.814 1.546c-1.04 1.04-1.546 2.36-1.546 3.814h4c0-.465.134-.745.374-.986l-2.828-2.828zm-1.546 3.814v.96h4v-.96h-4zm0 .96c0 1.455.506 2.775 1.546 3.814l2.828-2.828c-.24-.24-.374-.52-.374-.986h-4zm1.546 3.814c1.039 1.04 2.359 1.546 3.814 1.546v-4c-.466 0-.746-.134-.986-.374l-2.828 2.828zm3.814 1.546h2.4v-4h-2.4v4zm-15.143-37.452c11.657-1.274 22.143-1.908 31.463-1.908v-4c-9.496 0-20.13.646-31.898 1.932l.435 3.976zm31.463-1.908c3.92 0 6.865 1.166 9.05 3.35l2.828-2.828c-3.064-3.064-7.095-4.522-11.878-4.522v4zm9.05 3.35c2.184 2.185 3.35 5.13 3.35 9.05h4c0-4.784-1.458-8.815-4.522-11.878l-2.828 2.828zm3.35 9.05V70h4V32.56h-4zm2 35.44h-14.88v4h14.88v-4zm-12.919 1.608l-.96-4.8-3.922.784.96 4.8 3.922-.784zm-4.022-6.078c-2.859 1.886-5.787 3.27-8.786 4.17l1.149 3.832c3.401-1.02 6.681-2.58 9.839-4.662l-2.202-3.34zm-8.761 4.163c-3.037.868-5.496 1.267-7.418 1.267v4c2.429 0 5.282-.497 8.517-1.421l-1.099-3.846zm-7.418 1.267h-3.36v4h3.36v-4zm-3.36 0c-3.921 0-6.866-1.166-9.05-3.35l-2.828 2.828c3.063 3.064 7.094 4.522 11.878 4.522v-4zm-9.05-3.35c-2.184-2.185-3.35-5.13-3.35-9.05h-4c0 4.784 1.458 8.815 4.522 11.878l2.828-2.828zm-3.35-9.05v-4.32h-4v4.32h4zm0-4.32c0-3.92 1.166-6.865 3.35-9.05l-2.828-2.828c-3.064 3.063-4.522 7.094-4.522 11.878h4zm3.35-9.05c2.184-2.184 5.129-3.35 9.05-3.35v-4c-4.784 0-8.815 1.458-11.878 4.522l2.828 2.828zm9.05-3.35h19.68v-4h-19.68v4zm21.68-2V34h-4v3.84h4zm0-3.84c0-1.455-.506-2.775-1.546-3.814l-2.828 2.828c.24.24.374.52.374.986h4zm-1.546-3.814c-1.04-1.04-2.36-1.546-3.814-1.546v4c.465 0 .745.134.986.374l2.828-2.828zm-3.814-1.546c-4.22 0-8.88.195-13.976.582l.303 3.988c5.016-.38 9.573-.57 13.673-.57v-4zm-13.978.582c-4.987.383-9.009.67-12.067.862l.25 3.992c3.085-.193 7.128-.482 12.124-.866l-.307-3.988zm-9.942 2.858v-12h-4v12h4zm52.716 54.24h-2v1.757l1.742.226.258-1.983zm0-12.48v-2h-2v2h2zm13.344-2.016l-1.736-.992-.019.032-.017.032 1.772.928zm-.384-5.664l-1.845.772.002.004 1.843-.776zm-19.68-47.04v-2h-3.005l1.16 2.772 1.845-.772zm17.76 0l1.877-.69-.481-1.31h-1.396v2zm12 32.64l-1.877.69 2.042 5.554 1.746-5.654-1.911-.59zm10.08-32.64v-2h-1.476l-.435 1.41 1.911.59zm17.76 0l1.88.683.975-2.683h-2.855v2zm-19.2 52.8l1.878.69.002-.007-1.88-.683zm-7.2 11.424l-1.312-1.51-.01.009-.009.008 1.331 1.493zm-12 1.936c-3.276 0-7.344-.31-12.222-.943l-.516 3.966c4.978.647 9.23.977 12.738.977v-4zm-10.48 1.04V73.84h-4v12.48h4zm-2-10.48h8.64v-4h-8.64v4zm8.64 0c2.693 0 5.249-.746 6.476-3.088l-3.544-1.856c-.181.346-.761.944-2.932.944v4zm6.44-3.024c1.241-2.171.822-4.822-.277-7.432l-3.686 1.552c.949 2.253.786 3.38.491 3.896l3.472 1.984zm-.275-7.428l-19.68-47.04-3.69 1.544 19.68 47.04 3.69-1.544zM640.915 21.12h17.76v-4h-17.76v4zm15.883-1.31l12 32.64 3.754-1.38-12-32.64-3.754 1.38zm15.788 32.54l10.08-32.64-3.822-1.18-10.08 32.64 3.822 1.18zm8.169-31.23h17.76v-4h-17.76v4zm15.88-2.684l-19.2 52.8 3.76 1.367 19.2-52.8-3.76-1.367zm-19.197 52.795c-1.782 4.854-4.024 8.333-6.635 10.604l2.624 3.018c3.277-2.85 5.835-6.986 7.765-12.244l-3.754-1.378zm-6.654 10.62c-2.483 2.214-5.961 3.429-10.669 3.429v4c5.404 0 9.926-1.409 13.331-4.443l-2.662-2.986z" fill="#fff" fill-opacity=".06"/></svg>