<svg width="28" height="25" fill="none" xmlns="http://www.w3.org/2000/svg"><path d="M25.148 6.125c.018.269.018.538.018.807 0 8.198-5.72 17.645-16.175 17.645-3.221 0-6.213-1.017-8.73-2.784a10.7 10.7 0 001.373.077c2.657 0 5.104-.98 7.058-2.65-2.5-.057-4.594-1.843-5.316-4.3a6.65 6.65 0 001.074.095c.51 0 1.02-.077 1.496-.211-2.605-.576-4.559-3.072-4.559-6.087V8.64a5.37 5.37 0 002.57.788C2.426 8.314 1.422 6.413 1.422 4.263c0-1.152.282-2.209.775-3.13 2.798 3.763 7.005 6.22 11.722 6.49a7.615 7.615 0 01-.14-1.421C13.778 2.784 16.312 0 19.462 0c1.637 0 3.116.749 4.154 1.959A10.643 10.643 0 0027.225.46c-.422 1.44-1.32 2.65-2.499 3.418A10.66 10.66 0 0028 2.919a12.887 12.887 0 01-2.852 3.206z" fill="#464646"/></svg>